G04 #@! TF.GenerationSoftware,KiCad,Pcbnew,(5.1.5)-3*
G04 #@! TF.CreationDate,2020-10-08T21:20:27+02:00*
G04 #@! TF.ProjectId,NumPad,4e756d50-6164-42e6-9b69-6361645f7063,rev?*
G04 #@! TF.SameCoordinates,Original*
G04 #@! TF.FileFunction,Legend,Bot*
G04 #@! TF.FilePolarity,Positive*
%FSLAX46Y46*%
G04 Gerber Fmt 4.6, Leading zero omitted, Abs format (unit mm)*
G04 Created by KiCad (PCBNEW (5.1.5)-3) date 2020-10-08 21:20:27*
%MOMM*%
%LPD*%
G04 APERTURE LIST*
%ADD10C,0.120000*%
%ADD11C,0.150000*%
%ADD12C,2.352000*%
%ADD13C,4.089800*%
%ADD14C,1.852000*%
%ADD15C,3.150000*%
%ADD16R,1.302000X1.502000*%
%ADD17R,1.602000X0.652000*%
%ADD18R,0.652000X1.602000*%
%ADD19R,1.102000X1.802000*%
%ADD20C,0.100000*%
%ADD21R,1.102000X2.102000*%
%ADD22O,1.102000X2.402000*%
%ADD23O,0.952000X0.702000*%
%ADD24C,0.702000*%
%ADD25O,1.102000X2.102000*%
%ADD26R,0.372000X1.102000*%
%ADD27R,0.622000X1.102000*%
G04 APERTURE END LIST*
D10*
X136672000Y-60605000D02*
X136672000Y-56605000D01*
X139972000Y-60605000D02*
X136672000Y-60605000D01*
D11*
X123722000Y-53930000D02*
X123722000Y-52655000D01*
X123147000Y-64280000D02*
X123147000Y-63605000D01*
X133497000Y-64280000D02*
X133497000Y-63605000D01*
X133497000Y-53930000D02*
X133497000Y-54605000D01*
X123147000Y-53930000D02*
X123147000Y-54605000D01*
X133497000Y-53930000D02*
X132822000Y-53930000D01*
X133497000Y-64280000D02*
X132822000Y-64280000D01*
X123147000Y-64280000D02*
X123822000Y-64280000D01*
X123147000Y-53930000D02*
X123722000Y-53930000D01*
D10*
X142572000Y-57355000D02*
X142572000Y-59855000D01*
X144322000Y-55855000D02*
X146322000Y-55855000D01*
X148072000Y-57355000D02*
X148072000Y-59855000D01*
X144322000Y-61355000D02*
X146322000Y-61355000D01*
X143022000Y-56905000D02*
X142572000Y-57355000D01*
X143022000Y-60305000D02*
X142572000Y-59855000D01*
X147622000Y-60305000D02*
X148072000Y-59855000D01*
X147622000Y-56905000D02*
X148072000Y-57355000D01*
X105250000Y-58061252D02*
X105250000Y-57538748D01*
X106670000Y-58061252D02*
X106670000Y-57538748D01*
X101290000Y-58061252D02*
X101290000Y-57538748D01*
X102710000Y-58061252D02*
X102710000Y-57538748D01*
X118583252Y-49395000D02*
X118060748Y-49395000D01*
X118583252Y-50815000D02*
X118060748Y-50815000D01*
X127560748Y-49395000D02*
X128083252Y-49395000D01*
X127560748Y-50815000D02*
X128083252Y-50815000D01*
X141810748Y-49395000D02*
X142333252Y-49395000D01*
X141810748Y-50815000D02*
X142333252Y-50815000D01*
X123060748Y-67395000D02*
X123583252Y-67395000D01*
X123060748Y-68815000D02*
X123583252Y-68815000D01*
X107880000Y-54995000D02*
X108980000Y-54995000D01*
X98980000Y-54995000D02*
X100080000Y-54995000D01*
X100991803Y-54995000D02*
G75*
G03X100991803Y-54995000I-111803J0D01*
G01*
X98980000Y-51247500D02*
X98980000Y-48197500D01*
X98980000Y-54995000D02*
X98980000Y-52597500D01*
X108980000Y-51247500D02*
X108980000Y-48197500D01*
X108980000Y-54995000D02*
X108980000Y-52597500D01*
X113102064Y-58710000D02*
X111897936Y-58710000D01*
X113102064Y-56890000D02*
X111897936Y-56890000D01*
X133077500Y-156202500D02*
X135937500Y-156202500D01*
X133077500Y-158122500D02*
X133077500Y-156202500D01*
X135937500Y-158122500D02*
X133077500Y-158122500D01*
X104502500Y-156202500D02*
X107362500Y-156202500D01*
X104502500Y-158122500D02*
X104502500Y-156202500D01*
X107362500Y-158122500D02*
X104502500Y-158122500D01*
X71165000Y-156202500D02*
X74025000Y-156202500D01*
X71165000Y-158122500D02*
X71165000Y-156202500D01*
X74025000Y-158122500D02*
X71165000Y-158122500D01*
X52115000Y-156202500D02*
X54975000Y-156202500D01*
X52115000Y-158122500D02*
X52115000Y-156202500D01*
X54975000Y-158122500D02*
X52115000Y-158122500D01*
X152127500Y-146677500D02*
X154987500Y-146677500D01*
X152127500Y-148597500D02*
X152127500Y-146677500D01*
X154987500Y-148597500D02*
X152127500Y-148597500D01*
X133077500Y-137152500D02*
X135937500Y-137152500D01*
X133077500Y-139072500D02*
X133077500Y-137152500D01*
X135937500Y-139072500D02*
X133077500Y-139072500D01*
X114027500Y-137152500D02*
X116887500Y-137152500D01*
X114027500Y-139072500D02*
X114027500Y-137152500D01*
X116887500Y-139072500D02*
X114027500Y-139072500D01*
X94977500Y-137152500D02*
X97837500Y-137152500D01*
X94977500Y-139072500D02*
X94977500Y-137152500D01*
X97837500Y-139072500D02*
X94977500Y-139072500D01*
X71165000Y-137152500D02*
X74025000Y-137152500D01*
X71165000Y-139072500D02*
X71165000Y-137152500D01*
X74025000Y-139072500D02*
X71165000Y-139072500D01*
X52115000Y-137152500D02*
X54975000Y-137152500D01*
X52115000Y-139072500D02*
X52115000Y-137152500D01*
X54975000Y-139072500D02*
X52115000Y-139072500D01*
X133077500Y-118102500D02*
X135937500Y-118102500D01*
X133077500Y-120022500D02*
X133077500Y-118102500D01*
X135937500Y-120022500D02*
X133077500Y-120022500D01*
X114027500Y-118102500D02*
X116887500Y-118102500D01*
X114027500Y-120022500D02*
X114027500Y-118102500D01*
X116887500Y-120022500D02*
X114027500Y-120022500D01*
X94977500Y-118102500D02*
X97837500Y-118102500D01*
X94977500Y-120022500D02*
X94977500Y-118102500D01*
X97837500Y-120022500D02*
X94977500Y-120022500D01*
X71165000Y-118102500D02*
X74025000Y-118102500D01*
X71165000Y-120022500D02*
X71165000Y-118102500D01*
X74025000Y-120022500D02*
X71165000Y-120022500D01*
X52115000Y-118102500D02*
X54975000Y-118102500D01*
X52115000Y-120022500D02*
X52115000Y-118102500D01*
X54975000Y-120022500D02*
X52115000Y-120022500D01*
X152127500Y-108577500D02*
X154987500Y-108577500D01*
X152127500Y-110497500D02*
X152127500Y-108577500D01*
X154987500Y-110497500D02*
X152127500Y-110497500D01*
X133077500Y-99052500D02*
X135937500Y-99052500D01*
X133077500Y-100972500D02*
X133077500Y-99052500D01*
X135937500Y-100972500D02*
X133077500Y-100972500D01*
X114027500Y-99052500D02*
X116887500Y-99052500D01*
X114027500Y-100972500D02*
X114027500Y-99052500D01*
X116887500Y-100972500D02*
X114027500Y-100972500D01*
X94977500Y-99052500D02*
X97837500Y-99052500D01*
X94977500Y-100972500D02*
X94977500Y-99052500D01*
X97837500Y-100972500D02*
X94977500Y-100972500D01*
X71165000Y-99052500D02*
X74025000Y-99052500D01*
X71165000Y-100972500D02*
X71165000Y-99052500D01*
X74025000Y-100972500D02*
X71165000Y-100972500D01*
X52115000Y-99052500D02*
X54975000Y-99052500D01*
X52115000Y-100972500D02*
X52115000Y-99052500D01*
X54975000Y-100972500D02*
X52115000Y-100972500D01*
X152127500Y-80002500D02*
X154987500Y-80002500D01*
X152127500Y-81922500D02*
X152127500Y-80002500D01*
X154987500Y-81922500D02*
X152127500Y-81922500D01*
X133077500Y-80002500D02*
X135937500Y-80002500D01*
X133077500Y-81922500D02*
X133077500Y-80002500D01*
X135937500Y-81922500D02*
X133077500Y-81922500D01*
X114027500Y-80002500D02*
X116887500Y-80002500D01*
X114027500Y-81922500D02*
X114027500Y-80002500D01*
X116887500Y-81922500D02*
X114027500Y-81922500D01*
X94977500Y-80002500D02*
X97837500Y-80002500D01*
X94977500Y-81922500D02*
X94977500Y-80002500D01*
X97837500Y-81922500D02*
X94977500Y-81922500D01*
X71165000Y-80002500D02*
X74025000Y-80002500D01*
X71165000Y-81922500D02*
X71165000Y-80002500D01*
X74025000Y-81922500D02*
X71165000Y-81922500D01*
X52115000Y-80002500D02*
X54975000Y-80002500D01*
X52115000Y-81922500D02*
X52115000Y-80002500D01*
X54975000Y-81922500D02*
X52115000Y-81922500D01*
X132833252Y-50815000D02*
X132310748Y-50815000D01*
X132833252Y-49395000D02*
X132310748Y-49395000D01*
X138583252Y-54815000D02*
X138060748Y-54815000D01*
X138583252Y-53395000D02*
X138060748Y-53395000D01*
X138060748Y-62395000D02*
X138583252Y-62395000D01*
X138060748Y-63815000D02*
X138583252Y-63815000D01*
X120032000Y-54843748D02*
X120032000Y-55366252D01*
X118612000Y-54843748D02*
X118612000Y-55366252D01*
X123333252Y-50815000D02*
X122810748Y-50815000D01*
X123333252Y-49395000D02*
X122810748Y-49395000D01*
X132060748Y-67395000D02*
X132583252Y-67395000D01*
X132060748Y-68815000D02*
X132583252Y-68815000D01*
X137060748Y-49395000D02*
X137583252Y-49395000D01*
X137060748Y-50815000D02*
X137583252Y-50815000D01*
D11*
X140748190Y-58128809D02*
X141224380Y-58128809D01*
X140224380Y-57795476D02*
X140748190Y-58128809D01*
X140224380Y-58462142D01*
X141224380Y-59319285D02*
X141224380Y-58747857D01*
X141224380Y-59033571D02*
X140224380Y-59033571D01*
X140367238Y-58938333D01*
X140462476Y-58843095D01*
X140510095Y-58747857D01*
X120324380Y-58343095D02*
X121133904Y-58343095D01*
X121229142Y-58390714D01*
X121276761Y-58438333D01*
X121324380Y-58533571D01*
X121324380Y-58724047D01*
X121276761Y-58819285D01*
X121229142Y-58866904D01*
X121133904Y-58914523D01*
X120324380Y-58914523D01*
X121324380Y-59914523D02*
X121324380Y-59343095D01*
X121324380Y-59628809D02*
X120324380Y-59628809D01*
X120467238Y-59533571D01*
X120562476Y-59438333D01*
X120610095Y-59343095D01*
X141976761Y-56890714D02*
X142024380Y-57033571D01*
X142024380Y-57271666D01*
X141976761Y-57366904D01*
X141929142Y-57414523D01*
X141833904Y-57462142D01*
X141738666Y-57462142D01*
X141643428Y-57414523D01*
X141595809Y-57366904D01*
X141548190Y-57271666D01*
X141500571Y-57081190D01*
X141452952Y-56985952D01*
X141405333Y-56938333D01*
X141310095Y-56890714D01*
X141214857Y-56890714D01*
X141119619Y-56938333D01*
X141072000Y-56985952D01*
X141024380Y-57081190D01*
X141024380Y-57319285D01*
X141072000Y-57462142D01*
X141024380Y-57795476D02*
X142024380Y-58033571D01*
X141310095Y-58224047D01*
X142024380Y-58414523D01*
X141024380Y-58652619D01*
X142119619Y-58795476D02*
X142119619Y-59557380D01*
X142024380Y-60319285D02*
X142024380Y-59747857D01*
X142024380Y-60033571D02*
X141024380Y-60033571D01*
X141167238Y-59938333D01*
X141262476Y-59843095D01*
X141310095Y-59747857D01*
X108062380Y-57633333D02*
X107586190Y-57300000D01*
X108062380Y-57061904D02*
X107062380Y-57061904D01*
X107062380Y-57442857D01*
X107110000Y-57538095D01*
X107157619Y-57585714D01*
X107252857Y-57633333D01*
X107395714Y-57633333D01*
X107490952Y-57585714D01*
X107538571Y-57538095D01*
X107586190Y-57442857D01*
X107586190Y-57061904D01*
X107062380Y-58490476D02*
X107062380Y-58300000D01*
X107110000Y-58204761D01*
X107157619Y-58157142D01*
X107300476Y-58061904D01*
X107490952Y-58014285D01*
X107871904Y-58014285D01*
X107967142Y-58061904D01*
X108014761Y-58109523D01*
X108062380Y-58204761D01*
X108062380Y-58395238D01*
X108014761Y-58490476D01*
X107967142Y-58538095D01*
X107871904Y-58585714D01*
X107633809Y-58585714D01*
X107538571Y-58538095D01*
X107490952Y-58490476D01*
X107443333Y-58395238D01*
X107443333Y-58204761D01*
X107490952Y-58109523D01*
X107538571Y-58061904D01*
X107633809Y-58014285D01*
X104102380Y-57633333D02*
X103626190Y-57300000D01*
X104102380Y-57061904D02*
X103102380Y-57061904D01*
X103102380Y-57442857D01*
X103150000Y-57538095D01*
X103197619Y-57585714D01*
X103292857Y-57633333D01*
X103435714Y-57633333D01*
X103530952Y-57585714D01*
X103578571Y-57538095D01*
X103626190Y-57442857D01*
X103626190Y-57061904D01*
X103102380Y-58538095D02*
X103102380Y-58061904D01*
X103578571Y-58014285D01*
X103530952Y-58061904D01*
X103483333Y-58157142D01*
X103483333Y-58395238D01*
X103530952Y-58490476D01*
X103578571Y-58538095D01*
X103673809Y-58585714D01*
X103911904Y-58585714D01*
X104007142Y-58538095D01*
X104054761Y-58490476D01*
X104102380Y-58395238D01*
X104102380Y-58157142D01*
X104054761Y-58061904D01*
X104007142Y-58014285D01*
X118488666Y-48907380D02*
X118822000Y-48431190D01*
X119060095Y-48907380D02*
X119060095Y-47907380D01*
X118679142Y-47907380D01*
X118583904Y-47955000D01*
X118536285Y-48002619D01*
X118488666Y-48097857D01*
X118488666Y-48240714D01*
X118536285Y-48335952D01*
X118583904Y-48383571D01*
X118679142Y-48431190D01*
X119060095Y-48431190D01*
X117631523Y-48240714D02*
X117631523Y-48907380D01*
X117869619Y-47859761D02*
X118107714Y-48574047D01*
X117488666Y-48574047D01*
X127988666Y-52207380D02*
X128322000Y-51731190D01*
X128560095Y-52207380D02*
X128560095Y-51207380D01*
X128179142Y-51207380D01*
X128083904Y-51255000D01*
X128036285Y-51302619D01*
X127988666Y-51397857D01*
X127988666Y-51540714D01*
X128036285Y-51635952D01*
X128083904Y-51683571D01*
X128179142Y-51731190D01*
X128560095Y-51731190D01*
X127655333Y-51207380D02*
X127036285Y-51207380D01*
X127369619Y-51588333D01*
X127226761Y-51588333D01*
X127131523Y-51635952D01*
X127083904Y-51683571D01*
X127036285Y-51778809D01*
X127036285Y-52016904D01*
X127083904Y-52112142D01*
X127131523Y-52159761D01*
X127226761Y-52207380D01*
X127512476Y-52207380D01*
X127607714Y-52159761D01*
X127655333Y-52112142D01*
X142238666Y-52207380D02*
X142572000Y-51731190D01*
X142810095Y-52207380D02*
X142810095Y-51207380D01*
X142429142Y-51207380D01*
X142333904Y-51255000D01*
X142286285Y-51302619D01*
X142238666Y-51397857D01*
X142238666Y-51540714D01*
X142286285Y-51635952D01*
X142333904Y-51683571D01*
X142429142Y-51731190D01*
X142810095Y-51731190D01*
X141857714Y-51302619D02*
X141810095Y-51255000D01*
X141714857Y-51207380D01*
X141476761Y-51207380D01*
X141381523Y-51255000D01*
X141333904Y-51302619D01*
X141286285Y-51397857D01*
X141286285Y-51493095D01*
X141333904Y-51635952D01*
X141905333Y-52207380D01*
X141286285Y-52207380D01*
X123488666Y-70207380D02*
X123822000Y-69731190D01*
X124060095Y-70207380D02*
X124060095Y-69207380D01*
X123679142Y-69207380D01*
X123583904Y-69255000D01*
X123536285Y-69302619D01*
X123488666Y-69397857D01*
X123488666Y-69540714D01*
X123536285Y-69635952D01*
X123583904Y-69683571D01*
X123679142Y-69731190D01*
X124060095Y-69731190D01*
X122536285Y-70207380D02*
X123107714Y-70207380D01*
X122822000Y-70207380D02*
X122822000Y-69207380D01*
X122917238Y-69350238D01*
X123012476Y-69445476D01*
X123107714Y-69493095D01*
X104313333Y-55149880D02*
X104313333Y-55864166D01*
X104360952Y-56007023D01*
X104456190Y-56102261D01*
X104599047Y-56149880D01*
X104694285Y-56149880D01*
X103313333Y-56149880D02*
X103884761Y-56149880D01*
X103599047Y-56149880D02*
X103599047Y-55149880D01*
X103694285Y-55292738D01*
X103789523Y-55387976D01*
X103884761Y-55435595D01*
X112833333Y-55908571D02*
X113166666Y-55908571D01*
X113166666Y-56432380D02*
X113166666Y-55432380D01*
X112690476Y-55432380D01*
X111785714Y-56432380D02*
X112357142Y-56432380D01*
X112071428Y-56432380D02*
X112071428Y-55432380D01*
X112166666Y-55575238D01*
X112261904Y-55670476D01*
X112357142Y-55718095D01*
X136151785Y-159264880D02*
X136151785Y-158264880D01*
X135913690Y-158264880D01*
X135770833Y-158312500D01*
X135675595Y-158407738D01*
X135627976Y-158502976D01*
X135580357Y-158693452D01*
X135580357Y-158836309D01*
X135627976Y-159026785D01*
X135675595Y-159122023D01*
X135770833Y-159217261D01*
X135913690Y-159264880D01*
X136151785Y-159264880D01*
X135199404Y-158360119D02*
X135151785Y-158312500D01*
X135056547Y-158264880D01*
X134818452Y-158264880D01*
X134723214Y-158312500D01*
X134675595Y-158360119D01*
X134627976Y-158455357D01*
X134627976Y-158550595D01*
X134675595Y-158693452D01*
X135247023Y-159264880D01*
X134627976Y-159264880D01*
X134294642Y-158264880D02*
X133627976Y-158264880D01*
X134056547Y-159264880D01*
X107576785Y-159264880D02*
X107576785Y-158264880D01*
X107338690Y-158264880D01*
X107195833Y-158312500D01*
X107100595Y-158407738D01*
X107052976Y-158502976D01*
X107005357Y-158693452D01*
X107005357Y-158836309D01*
X107052976Y-159026785D01*
X107100595Y-159122023D01*
X107195833Y-159217261D01*
X107338690Y-159264880D01*
X107576785Y-159264880D01*
X106624404Y-158360119D02*
X106576785Y-158312500D01*
X106481547Y-158264880D01*
X106243452Y-158264880D01*
X106148214Y-158312500D01*
X106100595Y-158360119D01*
X106052976Y-158455357D01*
X106052976Y-158550595D01*
X106100595Y-158693452D01*
X106672023Y-159264880D01*
X106052976Y-159264880D01*
X105195833Y-158264880D02*
X105386309Y-158264880D01*
X105481547Y-158312500D01*
X105529166Y-158360119D01*
X105624404Y-158502976D01*
X105672023Y-158693452D01*
X105672023Y-159074404D01*
X105624404Y-159169642D01*
X105576785Y-159217261D01*
X105481547Y-159264880D01*
X105291071Y-159264880D01*
X105195833Y-159217261D01*
X105148214Y-159169642D01*
X105100595Y-159074404D01*
X105100595Y-158836309D01*
X105148214Y-158741071D01*
X105195833Y-158693452D01*
X105291071Y-158645833D01*
X105481547Y-158645833D01*
X105576785Y-158693452D01*
X105624404Y-158741071D01*
X105672023Y-158836309D01*
X74239285Y-159264880D02*
X74239285Y-158264880D01*
X74001190Y-158264880D01*
X73858333Y-158312500D01*
X73763095Y-158407738D01*
X73715476Y-158502976D01*
X73667857Y-158693452D01*
X73667857Y-158836309D01*
X73715476Y-159026785D01*
X73763095Y-159122023D01*
X73858333Y-159217261D01*
X74001190Y-159264880D01*
X74239285Y-159264880D01*
X73286904Y-158360119D02*
X73239285Y-158312500D01*
X73144047Y-158264880D01*
X72905952Y-158264880D01*
X72810714Y-158312500D01*
X72763095Y-158360119D01*
X72715476Y-158455357D01*
X72715476Y-158550595D01*
X72763095Y-158693452D01*
X73334523Y-159264880D01*
X72715476Y-159264880D01*
X71810714Y-158264880D02*
X72286904Y-158264880D01*
X72334523Y-158741071D01*
X72286904Y-158693452D01*
X72191666Y-158645833D01*
X71953571Y-158645833D01*
X71858333Y-158693452D01*
X71810714Y-158741071D01*
X71763095Y-158836309D01*
X71763095Y-159074404D01*
X71810714Y-159169642D01*
X71858333Y-159217261D01*
X71953571Y-159264880D01*
X72191666Y-159264880D01*
X72286904Y-159217261D01*
X72334523Y-159169642D01*
X55189285Y-159264880D02*
X55189285Y-158264880D01*
X54951190Y-158264880D01*
X54808333Y-158312500D01*
X54713095Y-158407738D01*
X54665476Y-158502976D01*
X54617857Y-158693452D01*
X54617857Y-158836309D01*
X54665476Y-159026785D01*
X54713095Y-159122023D01*
X54808333Y-159217261D01*
X54951190Y-159264880D01*
X55189285Y-159264880D01*
X54236904Y-158360119D02*
X54189285Y-158312500D01*
X54094047Y-158264880D01*
X53855952Y-158264880D01*
X53760714Y-158312500D01*
X53713095Y-158360119D01*
X53665476Y-158455357D01*
X53665476Y-158550595D01*
X53713095Y-158693452D01*
X54284523Y-159264880D01*
X53665476Y-159264880D01*
X52808333Y-158598214D02*
X52808333Y-159264880D01*
X53046428Y-158217261D02*
X53284523Y-158931547D01*
X52665476Y-158931547D01*
X155201785Y-149739880D02*
X155201785Y-148739880D01*
X154963690Y-148739880D01*
X154820833Y-148787500D01*
X154725595Y-148882738D01*
X154677976Y-148977976D01*
X154630357Y-149168452D01*
X154630357Y-149311309D01*
X154677976Y-149501785D01*
X154725595Y-149597023D01*
X154820833Y-149692261D01*
X154963690Y-149739880D01*
X155201785Y-149739880D01*
X154249404Y-148835119D02*
X154201785Y-148787500D01*
X154106547Y-148739880D01*
X153868452Y-148739880D01*
X153773214Y-148787500D01*
X153725595Y-148835119D01*
X153677976Y-148930357D01*
X153677976Y-149025595D01*
X153725595Y-149168452D01*
X154297023Y-149739880D01*
X153677976Y-149739880D01*
X153344642Y-148739880D02*
X152725595Y-148739880D01*
X153058928Y-149120833D01*
X152916071Y-149120833D01*
X152820833Y-149168452D01*
X152773214Y-149216071D01*
X152725595Y-149311309D01*
X152725595Y-149549404D01*
X152773214Y-149644642D01*
X152820833Y-149692261D01*
X152916071Y-149739880D01*
X153201785Y-149739880D01*
X153297023Y-149692261D01*
X153344642Y-149644642D01*
X136151785Y-140214880D02*
X136151785Y-139214880D01*
X135913690Y-139214880D01*
X135770833Y-139262500D01*
X135675595Y-139357738D01*
X135627976Y-139452976D01*
X135580357Y-139643452D01*
X135580357Y-139786309D01*
X135627976Y-139976785D01*
X135675595Y-140072023D01*
X135770833Y-140167261D01*
X135913690Y-140214880D01*
X136151785Y-140214880D01*
X135199404Y-139310119D02*
X135151785Y-139262500D01*
X135056547Y-139214880D01*
X134818452Y-139214880D01*
X134723214Y-139262500D01*
X134675595Y-139310119D01*
X134627976Y-139405357D01*
X134627976Y-139500595D01*
X134675595Y-139643452D01*
X135247023Y-140214880D01*
X134627976Y-140214880D01*
X134247023Y-139310119D02*
X134199404Y-139262500D01*
X134104166Y-139214880D01*
X133866071Y-139214880D01*
X133770833Y-139262500D01*
X133723214Y-139310119D01*
X133675595Y-139405357D01*
X133675595Y-139500595D01*
X133723214Y-139643452D01*
X134294642Y-140214880D01*
X133675595Y-140214880D01*
X117101785Y-140214880D02*
X117101785Y-139214880D01*
X116863690Y-139214880D01*
X116720833Y-139262500D01*
X116625595Y-139357738D01*
X116577976Y-139452976D01*
X116530357Y-139643452D01*
X116530357Y-139786309D01*
X116577976Y-139976785D01*
X116625595Y-140072023D01*
X116720833Y-140167261D01*
X116863690Y-140214880D01*
X117101785Y-140214880D01*
X116149404Y-139310119D02*
X116101785Y-139262500D01*
X116006547Y-139214880D01*
X115768452Y-139214880D01*
X115673214Y-139262500D01*
X115625595Y-139310119D01*
X115577976Y-139405357D01*
X115577976Y-139500595D01*
X115625595Y-139643452D01*
X116197023Y-140214880D01*
X115577976Y-140214880D01*
X114625595Y-140214880D02*
X115197023Y-140214880D01*
X114911309Y-140214880D02*
X114911309Y-139214880D01*
X115006547Y-139357738D01*
X115101785Y-139452976D01*
X115197023Y-139500595D01*
X98051785Y-140214880D02*
X98051785Y-139214880D01*
X97813690Y-139214880D01*
X97670833Y-139262500D01*
X97575595Y-139357738D01*
X97527976Y-139452976D01*
X97480357Y-139643452D01*
X97480357Y-139786309D01*
X97527976Y-139976785D01*
X97575595Y-140072023D01*
X97670833Y-140167261D01*
X97813690Y-140214880D01*
X98051785Y-140214880D01*
X97099404Y-139310119D02*
X97051785Y-139262500D01*
X96956547Y-139214880D01*
X96718452Y-139214880D01*
X96623214Y-139262500D01*
X96575595Y-139310119D01*
X96527976Y-139405357D01*
X96527976Y-139500595D01*
X96575595Y-139643452D01*
X97147023Y-140214880D01*
X96527976Y-140214880D01*
X95908928Y-139214880D02*
X95813690Y-139214880D01*
X95718452Y-139262500D01*
X95670833Y-139310119D01*
X95623214Y-139405357D01*
X95575595Y-139595833D01*
X95575595Y-139833928D01*
X95623214Y-140024404D01*
X95670833Y-140119642D01*
X95718452Y-140167261D01*
X95813690Y-140214880D01*
X95908928Y-140214880D01*
X96004166Y-140167261D01*
X96051785Y-140119642D01*
X96099404Y-140024404D01*
X96147023Y-139833928D01*
X96147023Y-139595833D01*
X96099404Y-139405357D01*
X96051785Y-139310119D01*
X96004166Y-139262500D01*
X95908928Y-139214880D01*
X74239285Y-140214880D02*
X74239285Y-139214880D01*
X74001190Y-139214880D01*
X73858333Y-139262500D01*
X73763095Y-139357738D01*
X73715476Y-139452976D01*
X73667857Y-139643452D01*
X73667857Y-139786309D01*
X73715476Y-139976785D01*
X73763095Y-140072023D01*
X73858333Y-140167261D01*
X74001190Y-140214880D01*
X74239285Y-140214880D01*
X72715476Y-140214880D02*
X73286904Y-140214880D01*
X73001190Y-140214880D02*
X73001190Y-139214880D01*
X73096428Y-139357738D01*
X73191666Y-139452976D01*
X73286904Y-139500595D01*
X72239285Y-140214880D02*
X72048809Y-140214880D01*
X71953571Y-140167261D01*
X71905952Y-140119642D01*
X71810714Y-139976785D01*
X71763095Y-139786309D01*
X71763095Y-139405357D01*
X71810714Y-139310119D01*
X71858333Y-139262500D01*
X71953571Y-139214880D01*
X72144047Y-139214880D01*
X72239285Y-139262500D01*
X72286904Y-139310119D01*
X72334523Y-139405357D01*
X72334523Y-139643452D01*
X72286904Y-139738690D01*
X72239285Y-139786309D01*
X72144047Y-139833928D01*
X71953571Y-139833928D01*
X71858333Y-139786309D01*
X71810714Y-139738690D01*
X71763095Y-139643452D01*
X55189285Y-140214880D02*
X55189285Y-139214880D01*
X54951190Y-139214880D01*
X54808333Y-139262500D01*
X54713095Y-139357738D01*
X54665476Y-139452976D01*
X54617857Y-139643452D01*
X54617857Y-139786309D01*
X54665476Y-139976785D01*
X54713095Y-140072023D01*
X54808333Y-140167261D01*
X54951190Y-140214880D01*
X55189285Y-140214880D01*
X53665476Y-140214880D02*
X54236904Y-140214880D01*
X53951190Y-140214880D02*
X53951190Y-139214880D01*
X54046428Y-139357738D01*
X54141666Y-139452976D01*
X54236904Y-139500595D01*
X53094047Y-139643452D02*
X53189285Y-139595833D01*
X53236904Y-139548214D01*
X53284523Y-139452976D01*
X53284523Y-139405357D01*
X53236904Y-139310119D01*
X53189285Y-139262500D01*
X53094047Y-139214880D01*
X52903571Y-139214880D01*
X52808333Y-139262500D01*
X52760714Y-139310119D01*
X52713095Y-139405357D01*
X52713095Y-139452976D01*
X52760714Y-139548214D01*
X52808333Y-139595833D01*
X52903571Y-139643452D01*
X53094047Y-139643452D01*
X53189285Y-139691071D01*
X53236904Y-139738690D01*
X53284523Y-139833928D01*
X53284523Y-140024404D01*
X53236904Y-140119642D01*
X53189285Y-140167261D01*
X53094047Y-140214880D01*
X52903571Y-140214880D01*
X52808333Y-140167261D01*
X52760714Y-140119642D01*
X52713095Y-140024404D01*
X52713095Y-139833928D01*
X52760714Y-139738690D01*
X52808333Y-139691071D01*
X52903571Y-139643452D01*
X136151785Y-121164880D02*
X136151785Y-120164880D01*
X135913690Y-120164880D01*
X135770833Y-120212500D01*
X135675595Y-120307738D01*
X135627976Y-120402976D01*
X135580357Y-120593452D01*
X135580357Y-120736309D01*
X135627976Y-120926785D01*
X135675595Y-121022023D01*
X135770833Y-121117261D01*
X135913690Y-121164880D01*
X136151785Y-121164880D01*
X134627976Y-121164880D02*
X135199404Y-121164880D01*
X134913690Y-121164880D02*
X134913690Y-120164880D01*
X135008928Y-120307738D01*
X135104166Y-120402976D01*
X135199404Y-120450595D01*
X134294642Y-120164880D02*
X133627976Y-120164880D01*
X134056547Y-121164880D01*
X117101785Y-121164880D02*
X117101785Y-120164880D01*
X116863690Y-120164880D01*
X116720833Y-120212500D01*
X116625595Y-120307738D01*
X116577976Y-120402976D01*
X116530357Y-120593452D01*
X116530357Y-120736309D01*
X116577976Y-120926785D01*
X116625595Y-121022023D01*
X116720833Y-121117261D01*
X116863690Y-121164880D01*
X117101785Y-121164880D01*
X115577976Y-121164880D02*
X116149404Y-121164880D01*
X115863690Y-121164880D02*
X115863690Y-120164880D01*
X115958928Y-120307738D01*
X116054166Y-120402976D01*
X116149404Y-120450595D01*
X114720833Y-120164880D02*
X114911309Y-120164880D01*
X115006547Y-120212500D01*
X115054166Y-120260119D01*
X115149404Y-120402976D01*
X115197023Y-120593452D01*
X115197023Y-120974404D01*
X115149404Y-121069642D01*
X115101785Y-121117261D01*
X115006547Y-121164880D01*
X114816071Y-121164880D01*
X114720833Y-121117261D01*
X114673214Y-121069642D01*
X114625595Y-120974404D01*
X114625595Y-120736309D01*
X114673214Y-120641071D01*
X114720833Y-120593452D01*
X114816071Y-120545833D01*
X115006547Y-120545833D01*
X115101785Y-120593452D01*
X115149404Y-120641071D01*
X115197023Y-120736309D01*
X98051785Y-121164880D02*
X98051785Y-120164880D01*
X97813690Y-120164880D01*
X97670833Y-120212500D01*
X97575595Y-120307738D01*
X97527976Y-120402976D01*
X97480357Y-120593452D01*
X97480357Y-120736309D01*
X97527976Y-120926785D01*
X97575595Y-121022023D01*
X97670833Y-121117261D01*
X97813690Y-121164880D01*
X98051785Y-121164880D01*
X96527976Y-121164880D02*
X97099404Y-121164880D01*
X96813690Y-121164880D02*
X96813690Y-120164880D01*
X96908928Y-120307738D01*
X97004166Y-120402976D01*
X97099404Y-120450595D01*
X95623214Y-120164880D02*
X96099404Y-120164880D01*
X96147023Y-120641071D01*
X96099404Y-120593452D01*
X96004166Y-120545833D01*
X95766071Y-120545833D01*
X95670833Y-120593452D01*
X95623214Y-120641071D01*
X95575595Y-120736309D01*
X95575595Y-120974404D01*
X95623214Y-121069642D01*
X95670833Y-121117261D01*
X95766071Y-121164880D01*
X96004166Y-121164880D01*
X96099404Y-121117261D01*
X96147023Y-121069642D01*
X74239285Y-121164880D02*
X74239285Y-120164880D01*
X74001190Y-120164880D01*
X73858333Y-120212500D01*
X73763095Y-120307738D01*
X73715476Y-120402976D01*
X73667857Y-120593452D01*
X73667857Y-120736309D01*
X73715476Y-120926785D01*
X73763095Y-121022023D01*
X73858333Y-121117261D01*
X74001190Y-121164880D01*
X74239285Y-121164880D01*
X72715476Y-121164880D02*
X73286904Y-121164880D01*
X73001190Y-121164880D02*
X73001190Y-120164880D01*
X73096428Y-120307738D01*
X73191666Y-120402976D01*
X73286904Y-120450595D01*
X71858333Y-120498214D02*
X71858333Y-121164880D01*
X72096428Y-120117261D02*
X72334523Y-120831547D01*
X71715476Y-120831547D01*
X55189285Y-121164880D02*
X55189285Y-120164880D01*
X54951190Y-120164880D01*
X54808333Y-120212500D01*
X54713095Y-120307738D01*
X54665476Y-120402976D01*
X54617857Y-120593452D01*
X54617857Y-120736309D01*
X54665476Y-120926785D01*
X54713095Y-121022023D01*
X54808333Y-121117261D01*
X54951190Y-121164880D01*
X55189285Y-121164880D01*
X53665476Y-121164880D02*
X54236904Y-121164880D01*
X53951190Y-121164880D02*
X53951190Y-120164880D01*
X54046428Y-120307738D01*
X54141666Y-120402976D01*
X54236904Y-120450595D01*
X53332142Y-120164880D02*
X52713095Y-120164880D01*
X53046428Y-120545833D01*
X52903571Y-120545833D01*
X52808333Y-120593452D01*
X52760714Y-120641071D01*
X52713095Y-120736309D01*
X52713095Y-120974404D01*
X52760714Y-121069642D01*
X52808333Y-121117261D01*
X52903571Y-121164880D01*
X53189285Y-121164880D01*
X53284523Y-121117261D01*
X53332142Y-121069642D01*
X155201785Y-111639880D02*
X155201785Y-110639880D01*
X154963690Y-110639880D01*
X154820833Y-110687500D01*
X154725595Y-110782738D01*
X154677976Y-110877976D01*
X154630357Y-111068452D01*
X154630357Y-111211309D01*
X154677976Y-111401785D01*
X154725595Y-111497023D01*
X154820833Y-111592261D01*
X154963690Y-111639880D01*
X155201785Y-111639880D01*
X153677976Y-111639880D02*
X154249404Y-111639880D01*
X153963690Y-111639880D02*
X153963690Y-110639880D01*
X154058928Y-110782738D01*
X154154166Y-110877976D01*
X154249404Y-110925595D01*
X153297023Y-110735119D02*
X153249404Y-110687500D01*
X153154166Y-110639880D01*
X152916071Y-110639880D01*
X152820833Y-110687500D01*
X152773214Y-110735119D01*
X152725595Y-110830357D01*
X152725595Y-110925595D01*
X152773214Y-111068452D01*
X153344642Y-111639880D01*
X152725595Y-111639880D01*
X136151785Y-102114880D02*
X136151785Y-101114880D01*
X135913690Y-101114880D01*
X135770833Y-101162500D01*
X135675595Y-101257738D01*
X135627976Y-101352976D01*
X135580357Y-101543452D01*
X135580357Y-101686309D01*
X135627976Y-101876785D01*
X135675595Y-101972023D01*
X135770833Y-102067261D01*
X135913690Y-102114880D01*
X136151785Y-102114880D01*
X134627976Y-102114880D02*
X135199404Y-102114880D01*
X134913690Y-102114880D02*
X134913690Y-101114880D01*
X135008928Y-101257738D01*
X135104166Y-101352976D01*
X135199404Y-101400595D01*
X133675595Y-102114880D02*
X134247023Y-102114880D01*
X133961309Y-102114880D02*
X133961309Y-101114880D01*
X134056547Y-101257738D01*
X134151785Y-101352976D01*
X134247023Y-101400595D01*
X117101785Y-102114880D02*
X117101785Y-101114880D01*
X116863690Y-101114880D01*
X116720833Y-101162500D01*
X116625595Y-101257738D01*
X116577976Y-101352976D01*
X116530357Y-101543452D01*
X116530357Y-101686309D01*
X116577976Y-101876785D01*
X116625595Y-101972023D01*
X116720833Y-102067261D01*
X116863690Y-102114880D01*
X117101785Y-102114880D01*
X115577976Y-102114880D02*
X116149404Y-102114880D01*
X115863690Y-102114880D02*
X115863690Y-101114880D01*
X115958928Y-101257738D01*
X116054166Y-101352976D01*
X116149404Y-101400595D01*
X114958928Y-101114880D02*
X114863690Y-101114880D01*
X114768452Y-101162500D01*
X114720833Y-101210119D01*
X114673214Y-101305357D01*
X114625595Y-101495833D01*
X114625595Y-101733928D01*
X114673214Y-101924404D01*
X114720833Y-102019642D01*
X114768452Y-102067261D01*
X114863690Y-102114880D01*
X114958928Y-102114880D01*
X115054166Y-102067261D01*
X115101785Y-102019642D01*
X115149404Y-101924404D01*
X115197023Y-101733928D01*
X115197023Y-101495833D01*
X115149404Y-101305357D01*
X115101785Y-101210119D01*
X115054166Y-101162500D01*
X114958928Y-101114880D01*
X97575595Y-102114880D02*
X97575595Y-101114880D01*
X97337500Y-101114880D01*
X97194642Y-101162500D01*
X97099404Y-101257738D01*
X97051785Y-101352976D01*
X97004166Y-101543452D01*
X97004166Y-101686309D01*
X97051785Y-101876785D01*
X97099404Y-101972023D01*
X97194642Y-102067261D01*
X97337500Y-102114880D01*
X97575595Y-102114880D01*
X96527976Y-102114880D02*
X96337500Y-102114880D01*
X96242261Y-102067261D01*
X96194642Y-102019642D01*
X96099404Y-101876785D01*
X96051785Y-101686309D01*
X96051785Y-101305357D01*
X96099404Y-101210119D01*
X96147023Y-101162500D01*
X96242261Y-101114880D01*
X96432738Y-101114880D01*
X96527976Y-101162500D01*
X96575595Y-101210119D01*
X96623214Y-101305357D01*
X96623214Y-101543452D01*
X96575595Y-101638690D01*
X96527976Y-101686309D01*
X96432738Y-101733928D01*
X96242261Y-101733928D01*
X96147023Y-101686309D01*
X96099404Y-101638690D01*
X96051785Y-101543452D01*
X73763095Y-102114880D02*
X73763095Y-101114880D01*
X73525000Y-101114880D01*
X73382142Y-101162500D01*
X73286904Y-101257738D01*
X73239285Y-101352976D01*
X73191666Y-101543452D01*
X73191666Y-101686309D01*
X73239285Y-101876785D01*
X73286904Y-101972023D01*
X73382142Y-102067261D01*
X73525000Y-102114880D01*
X73763095Y-102114880D01*
X72620238Y-101543452D02*
X72715476Y-101495833D01*
X72763095Y-101448214D01*
X72810714Y-101352976D01*
X72810714Y-101305357D01*
X72763095Y-101210119D01*
X72715476Y-101162500D01*
X72620238Y-101114880D01*
X72429761Y-101114880D01*
X72334523Y-101162500D01*
X72286904Y-101210119D01*
X72239285Y-101305357D01*
X72239285Y-101352976D01*
X72286904Y-101448214D01*
X72334523Y-101495833D01*
X72429761Y-101543452D01*
X72620238Y-101543452D01*
X72715476Y-101591071D01*
X72763095Y-101638690D01*
X72810714Y-101733928D01*
X72810714Y-101924404D01*
X72763095Y-102019642D01*
X72715476Y-102067261D01*
X72620238Y-102114880D01*
X72429761Y-102114880D01*
X72334523Y-102067261D01*
X72286904Y-102019642D01*
X72239285Y-101924404D01*
X72239285Y-101733928D01*
X72286904Y-101638690D01*
X72334523Y-101591071D01*
X72429761Y-101543452D01*
X54713095Y-102114880D02*
X54713095Y-101114880D01*
X54475000Y-101114880D01*
X54332142Y-101162500D01*
X54236904Y-101257738D01*
X54189285Y-101352976D01*
X54141666Y-101543452D01*
X54141666Y-101686309D01*
X54189285Y-101876785D01*
X54236904Y-101972023D01*
X54332142Y-102067261D01*
X54475000Y-102114880D01*
X54713095Y-102114880D01*
X53808333Y-101114880D02*
X53141666Y-101114880D01*
X53570238Y-102114880D01*
X154725595Y-83064880D02*
X154725595Y-82064880D01*
X154487500Y-82064880D01*
X154344642Y-82112500D01*
X154249404Y-82207738D01*
X154201785Y-82302976D01*
X154154166Y-82493452D01*
X154154166Y-82636309D01*
X154201785Y-82826785D01*
X154249404Y-82922023D01*
X154344642Y-83017261D01*
X154487500Y-83064880D01*
X154725595Y-83064880D01*
X153297023Y-82064880D02*
X153487500Y-82064880D01*
X153582738Y-82112500D01*
X153630357Y-82160119D01*
X153725595Y-82302976D01*
X153773214Y-82493452D01*
X153773214Y-82874404D01*
X153725595Y-82969642D01*
X153677976Y-83017261D01*
X153582738Y-83064880D01*
X153392261Y-83064880D01*
X153297023Y-83017261D01*
X153249404Y-82969642D01*
X153201785Y-82874404D01*
X153201785Y-82636309D01*
X153249404Y-82541071D01*
X153297023Y-82493452D01*
X153392261Y-82445833D01*
X153582738Y-82445833D01*
X153677976Y-82493452D01*
X153725595Y-82541071D01*
X153773214Y-82636309D01*
X135675595Y-83064880D02*
X135675595Y-82064880D01*
X135437500Y-82064880D01*
X135294642Y-82112500D01*
X135199404Y-82207738D01*
X135151785Y-82302976D01*
X135104166Y-82493452D01*
X135104166Y-82636309D01*
X135151785Y-82826785D01*
X135199404Y-82922023D01*
X135294642Y-83017261D01*
X135437500Y-83064880D01*
X135675595Y-83064880D01*
X134199404Y-82064880D02*
X134675595Y-82064880D01*
X134723214Y-82541071D01*
X134675595Y-82493452D01*
X134580357Y-82445833D01*
X134342261Y-82445833D01*
X134247023Y-82493452D01*
X134199404Y-82541071D01*
X134151785Y-82636309D01*
X134151785Y-82874404D01*
X134199404Y-82969642D01*
X134247023Y-83017261D01*
X134342261Y-83064880D01*
X134580357Y-83064880D01*
X134675595Y-83017261D01*
X134723214Y-82969642D01*
X116625595Y-83064880D02*
X116625595Y-82064880D01*
X116387500Y-82064880D01*
X116244642Y-82112500D01*
X116149404Y-82207738D01*
X116101785Y-82302976D01*
X116054166Y-82493452D01*
X116054166Y-82636309D01*
X116101785Y-82826785D01*
X116149404Y-82922023D01*
X116244642Y-83017261D01*
X116387500Y-83064880D01*
X116625595Y-83064880D01*
X115197023Y-82398214D02*
X115197023Y-83064880D01*
X115435119Y-82017261D02*
X115673214Y-82731547D01*
X115054166Y-82731547D01*
X97575595Y-83064880D02*
X97575595Y-82064880D01*
X97337500Y-82064880D01*
X97194642Y-82112500D01*
X97099404Y-82207738D01*
X97051785Y-82302976D01*
X97004166Y-82493452D01*
X97004166Y-82636309D01*
X97051785Y-82826785D01*
X97099404Y-82922023D01*
X97194642Y-83017261D01*
X97337500Y-83064880D01*
X97575595Y-83064880D01*
X96670833Y-82064880D02*
X96051785Y-82064880D01*
X96385119Y-82445833D01*
X96242261Y-82445833D01*
X96147023Y-82493452D01*
X96099404Y-82541071D01*
X96051785Y-82636309D01*
X96051785Y-82874404D01*
X96099404Y-82969642D01*
X96147023Y-83017261D01*
X96242261Y-83064880D01*
X96527976Y-83064880D01*
X96623214Y-83017261D01*
X96670833Y-82969642D01*
X73763095Y-83064880D02*
X73763095Y-82064880D01*
X73525000Y-82064880D01*
X73382142Y-82112500D01*
X73286904Y-82207738D01*
X73239285Y-82302976D01*
X73191666Y-82493452D01*
X73191666Y-82636309D01*
X73239285Y-82826785D01*
X73286904Y-82922023D01*
X73382142Y-83017261D01*
X73525000Y-83064880D01*
X73763095Y-83064880D01*
X72810714Y-82160119D02*
X72763095Y-82112500D01*
X72667857Y-82064880D01*
X72429761Y-82064880D01*
X72334523Y-82112500D01*
X72286904Y-82160119D01*
X72239285Y-82255357D01*
X72239285Y-82350595D01*
X72286904Y-82493452D01*
X72858333Y-83064880D01*
X72239285Y-83064880D01*
X54713095Y-83064880D02*
X54713095Y-82064880D01*
X54475000Y-82064880D01*
X54332142Y-82112500D01*
X54236904Y-82207738D01*
X54189285Y-82302976D01*
X54141666Y-82493452D01*
X54141666Y-82636309D01*
X54189285Y-82826785D01*
X54236904Y-82922023D01*
X54332142Y-83017261D01*
X54475000Y-83064880D01*
X54713095Y-83064880D01*
X53189285Y-83064880D02*
X53760714Y-83064880D01*
X53475000Y-83064880D02*
X53475000Y-82064880D01*
X53570238Y-82207738D01*
X53665476Y-82302976D01*
X53760714Y-82350595D01*
X132738666Y-48812142D02*
X132786285Y-48859761D01*
X132929142Y-48907380D01*
X133024380Y-48907380D01*
X133167238Y-48859761D01*
X133262476Y-48764523D01*
X133310095Y-48669285D01*
X133357714Y-48478809D01*
X133357714Y-48335952D01*
X133310095Y-48145476D01*
X133262476Y-48050238D01*
X133167238Y-47955000D01*
X133024380Y-47907380D01*
X132929142Y-47907380D01*
X132786285Y-47955000D01*
X132738666Y-48002619D01*
X132405333Y-47907380D02*
X131738666Y-47907380D01*
X132167238Y-48907380D01*
X138488666Y-52812142D02*
X138536285Y-52859761D01*
X138679142Y-52907380D01*
X138774380Y-52907380D01*
X138917238Y-52859761D01*
X139012476Y-52764523D01*
X139060095Y-52669285D01*
X139107714Y-52478809D01*
X139107714Y-52335952D01*
X139060095Y-52145476D01*
X139012476Y-52050238D01*
X138917238Y-51955000D01*
X138774380Y-51907380D01*
X138679142Y-51907380D01*
X138536285Y-51955000D01*
X138488666Y-52002619D01*
X137631523Y-51907380D02*
X137822000Y-51907380D01*
X137917238Y-51955000D01*
X137964857Y-52002619D01*
X138060095Y-52145476D01*
X138107714Y-52335952D01*
X138107714Y-52716904D01*
X138060095Y-52812142D01*
X138012476Y-52859761D01*
X137917238Y-52907380D01*
X137726761Y-52907380D01*
X137631523Y-52859761D01*
X137583904Y-52812142D01*
X137536285Y-52716904D01*
X137536285Y-52478809D01*
X137583904Y-52383571D01*
X137631523Y-52335952D01*
X137726761Y-52288333D01*
X137917238Y-52288333D01*
X138012476Y-52335952D01*
X138060095Y-52383571D01*
X138107714Y-52478809D01*
X138488666Y-65112142D02*
X138536285Y-65159761D01*
X138679142Y-65207380D01*
X138774380Y-65207380D01*
X138917238Y-65159761D01*
X139012476Y-65064523D01*
X139060095Y-64969285D01*
X139107714Y-64778809D01*
X139107714Y-64635952D01*
X139060095Y-64445476D01*
X139012476Y-64350238D01*
X138917238Y-64255000D01*
X138774380Y-64207380D01*
X138679142Y-64207380D01*
X138536285Y-64255000D01*
X138488666Y-64302619D01*
X137583904Y-64207380D02*
X138060095Y-64207380D01*
X138107714Y-64683571D01*
X138060095Y-64635952D01*
X137964857Y-64588333D01*
X137726761Y-64588333D01*
X137631523Y-64635952D01*
X137583904Y-64683571D01*
X137536285Y-64778809D01*
X137536285Y-65016904D01*
X137583904Y-65112142D01*
X137631523Y-65159761D01*
X137726761Y-65207380D01*
X137964857Y-65207380D01*
X138060095Y-65159761D01*
X138107714Y-65112142D01*
X118029142Y-54938333D02*
X118076761Y-54890714D01*
X118124380Y-54747857D01*
X118124380Y-54652619D01*
X118076761Y-54509761D01*
X117981523Y-54414523D01*
X117886285Y-54366904D01*
X117695809Y-54319285D01*
X117552952Y-54319285D01*
X117362476Y-54366904D01*
X117267238Y-54414523D01*
X117172000Y-54509761D01*
X117124380Y-54652619D01*
X117124380Y-54747857D01*
X117172000Y-54890714D01*
X117219619Y-54938333D01*
X117457714Y-55795476D02*
X118124380Y-55795476D01*
X117076761Y-55557380D02*
X117791047Y-55319285D01*
X117791047Y-55938333D01*
X123238666Y-48812142D02*
X123286285Y-48859761D01*
X123429142Y-48907380D01*
X123524380Y-48907380D01*
X123667238Y-48859761D01*
X123762476Y-48764523D01*
X123810095Y-48669285D01*
X123857714Y-48478809D01*
X123857714Y-48335952D01*
X123810095Y-48145476D01*
X123762476Y-48050238D01*
X123667238Y-47955000D01*
X123524380Y-47907380D01*
X123429142Y-47907380D01*
X123286285Y-47955000D01*
X123238666Y-48002619D01*
X122905333Y-47907380D02*
X122286285Y-47907380D01*
X122619619Y-48288333D01*
X122476761Y-48288333D01*
X122381523Y-48335952D01*
X122333904Y-48383571D01*
X122286285Y-48478809D01*
X122286285Y-48716904D01*
X122333904Y-48812142D01*
X122381523Y-48859761D01*
X122476761Y-48907380D01*
X122762476Y-48907380D01*
X122857714Y-48859761D01*
X122905333Y-48812142D01*
X132488666Y-70112142D02*
X132536285Y-70159761D01*
X132679142Y-70207380D01*
X132774380Y-70207380D01*
X132917238Y-70159761D01*
X133012476Y-70064523D01*
X133060095Y-69969285D01*
X133107714Y-69778809D01*
X133107714Y-69635952D01*
X133060095Y-69445476D01*
X133012476Y-69350238D01*
X132917238Y-69255000D01*
X132774380Y-69207380D01*
X132679142Y-69207380D01*
X132536285Y-69255000D01*
X132488666Y-69302619D01*
X132107714Y-69302619D02*
X132060095Y-69255000D01*
X131964857Y-69207380D01*
X131726761Y-69207380D01*
X131631523Y-69255000D01*
X131583904Y-69302619D01*
X131536285Y-69397857D01*
X131536285Y-69493095D01*
X131583904Y-69635952D01*
X132155333Y-70207380D01*
X131536285Y-70207380D01*
X137488666Y-52112142D02*
X137536285Y-52159761D01*
X137679142Y-52207380D01*
X137774380Y-52207380D01*
X137917238Y-52159761D01*
X138012476Y-52064523D01*
X138060095Y-51969285D01*
X138107714Y-51778809D01*
X138107714Y-51635952D01*
X138060095Y-51445476D01*
X138012476Y-51350238D01*
X137917238Y-51255000D01*
X137774380Y-51207380D01*
X137679142Y-51207380D01*
X137536285Y-51255000D01*
X137488666Y-51302619D01*
X136536285Y-52207380D02*
X137107714Y-52207380D01*
X136822000Y-52207380D02*
X136822000Y-51207380D01*
X136917238Y-51350238D01*
X137012476Y-51445476D01*
X137107714Y-51493095D01*
%LPC*%
D12*
X108902500Y-146526250D03*
D13*
X106362500Y-151606250D03*
D12*
X102552500Y-149066250D03*
D14*
X101282500Y-151606250D03*
X111442500Y-151606250D03*
D15*
X118268750Y-158591250D03*
X94456250Y-158591250D03*
D13*
X118268750Y-143351250D03*
X94456250Y-143351250D03*
D12*
X156527500Y-137001250D03*
D13*
X153987500Y-142081250D03*
D12*
X150177500Y-139541250D03*
D14*
X148907500Y-142081250D03*
X159067500Y-142081250D03*
D15*
X160972500Y-130175000D03*
X160972500Y-153987500D03*
D13*
X145732500Y-130175000D03*
X145732500Y-153987500D03*
D12*
X156527500Y-98901250D03*
D13*
X153987500Y-103981250D03*
D12*
X150177500Y-101441250D03*
D14*
X148907500Y-103981250D03*
X159067500Y-103981250D03*
D15*
X160972500Y-92075000D03*
X160972500Y-115887500D03*
D13*
X145732500Y-92075000D03*
X145732500Y-115887500D03*
D16*
X139172000Y-59705000D03*
X139172000Y-57505000D03*
X137472000Y-57505000D03*
X137472000Y-59705000D03*
D12*
X137477500Y-146526250D03*
D13*
X134937500Y-151606250D03*
D12*
X131127500Y-149066250D03*
D14*
X129857500Y-151606250D03*
X140017500Y-151606250D03*
D17*
X122622000Y-55105000D03*
X122622000Y-55905000D03*
X122622000Y-56705000D03*
X122622000Y-57505000D03*
X122622000Y-58305000D03*
X122622000Y-59105000D03*
X122622000Y-59905000D03*
X122622000Y-60705000D03*
X122622000Y-61505000D03*
X122622000Y-62305000D03*
X122622000Y-63105000D03*
D18*
X124322000Y-64805000D03*
X125122000Y-64805000D03*
X125922000Y-64805000D03*
X126722000Y-64805000D03*
X127522000Y-64805000D03*
X128322000Y-64805000D03*
X129122000Y-64805000D03*
X129922000Y-64805000D03*
X130722000Y-64805000D03*
X131522000Y-64805000D03*
X132322000Y-64805000D03*
D17*
X134022000Y-63105000D03*
X134022000Y-62305000D03*
X134022000Y-61505000D03*
X134022000Y-60705000D03*
X134022000Y-59905000D03*
X134022000Y-59105000D03*
X134022000Y-58305000D03*
X134022000Y-57505000D03*
X134022000Y-56705000D03*
X134022000Y-55905000D03*
X134022000Y-55105000D03*
D18*
X132322000Y-53405000D03*
X131522000Y-53405000D03*
X130722000Y-53405000D03*
X129922000Y-53405000D03*
X129122000Y-53405000D03*
X128322000Y-53405000D03*
X127522000Y-53405000D03*
X126722000Y-53405000D03*
X125922000Y-53405000D03*
X125122000Y-53405000D03*
X124322000Y-53405000D03*
D19*
X147222000Y-61755000D03*
X147222000Y-55455000D03*
X143422000Y-61755000D03*
X143422000Y-55455000D03*
D20*
G36*
X106465505Y-56150311D02*
G01*
X106491925Y-56154230D01*
X106517835Y-56160720D01*
X106542983Y-56169718D01*
X106567128Y-56181138D01*
X106590038Y-56194869D01*
X106611492Y-56210780D01*
X106631282Y-56228718D01*
X106649220Y-56248508D01*
X106665131Y-56269962D01*
X106678862Y-56292872D01*
X106690282Y-56317017D01*
X106699280Y-56342165D01*
X106705770Y-56368075D01*
X106709689Y-56394495D01*
X106711000Y-56421173D01*
X106711000Y-57128827D01*
X106709689Y-57155505D01*
X106705770Y-57181925D01*
X106699280Y-57207835D01*
X106690282Y-57232983D01*
X106678862Y-57257128D01*
X106665131Y-57280038D01*
X106649220Y-57301492D01*
X106631282Y-57321282D01*
X106611492Y-57339220D01*
X106590038Y-57355131D01*
X106567128Y-57368862D01*
X106542983Y-57380282D01*
X106517835Y-57389280D01*
X106491925Y-57395770D01*
X106465505Y-57399689D01*
X106438827Y-57401000D01*
X105481173Y-57401000D01*
X105454495Y-57399689D01*
X105428075Y-57395770D01*
X105402165Y-57389280D01*
X105377017Y-57380282D01*
X105352872Y-57368862D01*
X105329962Y-57355131D01*
X105308508Y-57339220D01*
X105288718Y-57321282D01*
X105270780Y-57301492D01*
X105254869Y-57280038D01*
X105241138Y-57257128D01*
X105229718Y-57232983D01*
X105220720Y-57207835D01*
X105214230Y-57181925D01*
X105210311Y-57155505D01*
X105209000Y-57128827D01*
X105209000Y-56421173D01*
X105210311Y-56394495D01*
X105214230Y-56368075D01*
X105220720Y-56342165D01*
X105229718Y-56317017D01*
X105241138Y-56292872D01*
X105254869Y-56269962D01*
X105270780Y-56248508D01*
X105288718Y-56228718D01*
X105308508Y-56210780D01*
X105329962Y-56194869D01*
X105352872Y-56181138D01*
X105377017Y-56169718D01*
X105402165Y-56160720D01*
X105428075Y-56154230D01*
X105454495Y-56150311D01*
X105481173Y-56149000D01*
X106438827Y-56149000D01*
X106465505Y-56150311D01*
G37*
G36*
X106465505Y-58200311D02*
G01*
X106491925Y-58204230D01*
X106517835Y-58210720D01*
X106542983Y-58219718D01*
X106567128Y-58231138D01*
X106590038Y-58244869D01*
X106611492Y-58260780D01*
X106631282Y-58278718D01*
X106649220Y-58298508D01*
X106665131Y-58319962D01*
X106678862Y-58342872D01*
X106690282Y-58367017D01*
X106699280Y-58392165D01*
X106705770Y-58418075D01*
X106709689Y-58444495D01*
X106711000Y-58471173D01*
X106711000Y-59178827D01*
X106709689Y-59205505D01*
X106705770Y-59231925D01*
X106699280Y-59257835D01*
X106690282Y-59282983D01*
X106678862Y-59307128D01*
X106665131Y-59330038D01*
X106649220Y-59351492D01*
X106631282Y-59371282D01*
X106611492Y-59389220D01*
X106590038Y-59405131D01*
X106567128Y-59418862D01*
X106542983Y-59430282D01*
X106517835Y-59439280D01*
X106491925Y-59445770D01*
X106465505Y-59449689D01*
X106438827Y-59451000D01*
X105481173Y-59451000D01*
X105454495Y-59449689D01*
X105428075Y-59445770D01*
X105402165Y-59439280D01*
X105377017Y-59430282D01*
X105352872Y-59418862D01*
X105329962Y-59405131D01*
X105308508Y-59389220D01*
X105288718Y-59371282D01*
X105270780Y-59351492D01*
X105254869Y-59330038D01*
X105241138Y-59307128D01*
X105229718Y-59282983D01*
X105220720Y-59257835D01*
X105214230Y-59231925D01*
X105210311Y-59205505D01*
X105209000Y-59178827D01*
X105209000Y-58471173D01*
X105210311Y-58444495D01*
X105214230Y-58418075D01*
X105220720Y-58392165D01*
X105229718Y-58367017D01*
X105241138Y-58342872D01*
X105254869Y-58319962D01*
X105270780Y-58298508D01*
X105288718Y-58278718D01*
X105308508Y-58260780D01*
X105329962Y-58244869D01*
X105352872Y-58231138D01*
X105377017Y-58219718D01*
X105402165Y-58210720D01*
X105428075Y-58204230D01*
X105454495Y-58200311D01*
X105481173Y-58199000D01*
X106438827Y-58199000D01*
X106465505Y-58200311D01*
G37*
G36*
X102505505Y-56150311D02*
G01*
X102531925Y-56154230D01*
X102557835Y-56160720D01*
X102582983Y-56169718D01*
X102607128Y-56181138D01*
X102630038Y-56194869D01*
X102651492Y-56210780D01*
X102671282Y-56228718D01*
X102689220Y-56248508D01*
X102705131Y-56269962D01*
X102718862Y-56292872D01*
X102730282Y-56317017D01*
X102739280Y-56342165D01*
X102745770Y-56368075D01*
X102749689Y-56394495D01*
X102751000Y-56421173D01*
X102751000Y-57128827D01*
X102749689Y-57155505D01*
X102745770Y-57181925D01*
X102739280Y-57207835D01*
X102730282Y-57232983D01*
X102718862Y-57257128D01*
X102705131Y-57280038D01*
X102689220Y-57301492D01*
X102671282Y-57321282D01*
X102651492Y-57339220D01*
X102630038Y-57355131D01*
X102607128Y-57368862D01*
X102582983Y-57380282D01*
X102557835Y-57389280D01*
X102531925Y-57395770D01*
X102505505Y-57399689D01*
X102478827Y-57401000D01*
X101521173Y-57401000D01*
X101494495Y-57399689D01*
X101468075Y-57395770D01*
X101442165Y-57389280D01*
X101417017Y-57380282D01*
X101392872Y-57368862D01*
X101369962Y-57355131D01*
X101348508Y-57339220D01*
X101328718Y-57321282D01*
X101310780Y-57301492D01*
X101294869Y-57280038D01*
X101281138Y-57257128D01*
X101269718Y-57232983D01*
X101260720Y-57207835D01*
X101254230Y-57181925D01*
X101250311Y-57155505D01*
X101249000Y-57128827D01*
X101249000Y-56421173D01*
X101250311Y-56394495D01*
X101254230Y-56368075D01*
X101260720Y-56342165D01*
X101269718Y-56317017D01*
X101281138Y-56292872D01*
X101294869Y-56269962D01*
X101310780Y-56248508D01*
X101328718Y-56228718D01*
X101348508Y-56210780D01*
X101369962Y-56194869D01*
X101392872Y-56181138D01*
X101417017Y-56169718D01*
X101442165Y-56160720D01*
X101468075Y-56154230D01*
X101494495Y-56150311D01*
X101521173Y-56149000D01*
X102478827Y-56149000D01*
X102505505Y-56150311D01*
G37*
G36*
X102505505Y-58200311D02*
G01*
X102531925Y-58204230D01*
X102557835Y-58210720D01*
X102582983Y-58219718D01*
X102607128Y-58231138D01*
X102630038Y-58244869D01*
X102651492Y-58260780D01*
X102671282Y-58278718D01*
X102689220Y-58298508D01*
X102705131Y-58319962D01*
X102718862Y-58342872D01*
X102730282Y-58367017D01*
X102739280Y-58392165D01*
X102745770Y-58418075D01*
X102749689Y-58444495D01*
X102751000Y-58471173D01*
X102751000Y-59178827D01*
X102749689Y-59205505D01*
X102745770Y-59231925D01*
X102739280Y-59257835D01*
X102730282Y-59282983D01*
X102718862Y-59307128D01*
X102705131Y-59330038D01*
X102689220Y-59351492D01*
X102671282Y-59371282D01*
X102651492Y-59389220D01*
X102630038Y-59405131D01*
X102607128Y-59418862D01*
X102582983Y-59430282D01*
X102557835Y-59439280D01*
X102531925Y-59445770D01*
X102505505Y-59449689D01*
X102478827Y-59451000D01*
X101521173Y-59451000D01*
X101494495Y-59449689D01*
X101468075Y-59445770D01*
X101442165Y-59439280D01*
X101417017Y-59430282D01*
X101392872Y-59418862D01*
X101369962Y-59405131D01*
X101348508Y-59389220D01*
X101328718Y-59371282D01*
X101310780Y-59351492D01*
X101294869Y-59330038D01*
X101281138Y-59307128D01*
X101269718Y-59282983D01*
X101260720Y-59257835D01*
X101254230Y-59231925D01*
X101250311Y-59205505D01*
X101249000Y-59178827D01*
X101249000Y-58471173D01*
X101250311Y-58444495D01*
X101254230Y-58418075D01*
X101260720Y-58392165D01*
X101269718Y-58367017D01*
X101281138Y-58342872D01*
X101294869Y-58319962D01*
X101310780Y-58298508D01*
X101328718Y-58278718D01*
X101348508Y-58260780D01*
X101369962Y-58244869D01*
X101392872Y-58231138D01*
X101417017Y-58219718D01*
X101442165Y-58210720D01*
X101468075Y-58204230D01*
X101494495Y-58200311D01*
X101521173Y-58199000D01*
X102478827Y-58199000D01*
X102505505Y-58200311D01*
G37*
G36*
X119727505Y-49355311D02*
G01*
X119753925Y-49359230D01*
X119779835Y-49365720D01*
X119804983Y-49374718D01*
X119829128Y-49386138D01*
X119852038Y-49399869D01*
X119873492Y-49415780D01*
X119893282Y-49433718D01*
X119911220Y-49453508D01*
X119927131Y-49474962D01*
X119940862Y-49497872D01*
X119952282Y-49522017D01*
X119961280Y-49547165D01*
X119967770Y-49573075D01*
X119971689Y-49599495D01*
X119973000Y-49626173D01*
X119973000Y-50583827D01*
X119971689Y-50610505D01*
X119967770Y-50636925D01*
X119961280Y-50662835D01*
X119952282Y-50687983D01*
X119940862Y-50712128D01*
X119927131Y-50735038D01*
X119911220Y-50756492D01*
X119893282Y-50776282D01*
X119873492Y-50794220D01*
X119852038Y-50810131D01*
X119829128Y-50823862D01*
X119804983Y-50835282D01*
X119779835Y-50844280D01*
X119753925Y-50850770D01*
X119727505Y-50854689D01*
X119700827Y-50856000D01*
X118993173Y-50856000D01*
X118966495Y-50854689D01*
X118940075Y-50850770D01*
X118914165Y-50844280D01*
X118889017Y-50835282D01*
X118864872Y-50823862D01*
X118841962Y-50810131D01*
X118820508Y-50794220D01*
X118800718Y-50776282D01*
X118782780Y-50756492D01*
X118766869Y-50735038D01*
X118753138Y-50712128D01*
X118741718Y-50687983D01*
X118732720Y-50662835D01*
X118726230Y-50636925D01*
X118722311Y-50610505D01*
X118721000Y-50583827D01*
X118721000Y-49626173D01*
X118722311Y-49599495D01*
X118726230Y-49573075D01*
X118732720Y-49547165D01*
X118741718Y-49522017D01*
X118753138Y-49497872D01*
X118766869Y-49474962D01*
X118782780Y-49453508D01*
X118800718Y-49433718D01*
X118820508Y-49415780D01*
X118841962Y-49399869D01*
X118864872Y-49386138D01*
X118889017Y-49374718D01*
X118914165Y-49365720D01*
X118940075Y-49359230D01*
X118966495Y-49355311D01*
X118993173Y-49354000D01*
X119700827Y-49354000D01*
X119727505Y-49355311D01*
G37*
G36*
X117677505Y-49355311D02*
G01*
X117703925Y-49359230D01*
X117729835Y-49365720D01*
X117754983Y-49374718D01*
X117779128Y-49386138D01*
X117802038Y-49399869D01*
X117823492Y-49415780D01*
X117843282Y-49433718D01*
X117861220Y-49453508D01*
X117877131Y-49474962D01*
X117890862Y-49497872D01*
X117902282Y-49522017D01*
X117911280Y-49547165D01*
X117917770Y-49573075D01*
X117921689Y-49599495D01*
X117923000Y-49626173D01*
X117923000Y-50583827D01*
X117921689Y-50610505D01*
X117917770Y-50636925D01*
X117911280Y-50662835D01*
X117902282Y-50687983D01*
X117890862Y-50712128D01*
X117877131Y-50735038D01*
X117861220Y-50756492D01*
X117843282Y-50776282D01*
X117823492Y-50794220D01*
X117802038Y-50810131D01*
X117779128Y-50823862D01*
X117754983Y-50835282D01*
X117729835Y-50844280D01*
X117703925Y-50850770D01*
X117677505Y-50854689D01*
X117650827Y-50856000D01*
X116943173Y-50856000D01*
X116916495Y-50854689D01*
X116890075Y-50850770D01*
X116864165Y-50844280D01*
X116839017Y-50835282D01*
X116814872Y-50823862D01*
X116791962Y-50810131D01*
X116770508Y-50794220D01*
X116750718Y-50776282D01*
X116732780Y-50756492D01*
X116716869Y-50735038D01*
X116703138Y-50712128D01*
X116691718Y-50687983D01*
X116682720Y-50662835D01*
X116676230Y-50636925D01*
X116672311Y-50610505D01*
X116671000Y-50583827D01*
X116671000Y-49626173D01*
X116672311Y-49599495D01*
X116676230Y-49573075D01*
X116682720Y-49547165D01*
X116691718Y-49522017D01*
X116703138Y-49497872D01*
X116716869Y-49474962D01*
X116732780Y-49453508D01*
X116750718Y-49433718D01*
X116770508Y-49415780D01*
X116791962Y-49399869D01*
X116814872Y-49386138D01*
X116839017Y-49374718D01*
X116864165Y-49365720D01*
X116890075Y-49359230D01*
X116916495Y-49355311D01*
X116943173Y-49354000D01*
X117650827Y-49354000D01*
X117677505Y-49355311D01*
G37*
G36*
X129227505Y-49355311D02*
G01*
X129253925Y-49359230D01*
X129279835Y-49365720D01*
X129304983Y-49374718D01*
X129329128Y-49386138D01*
X129352038Y-49399869D01*
X129373492Y-49415780D01*
X129393282Y-49433718D01*
X129411220Y-49453508D01*
X129427131Y-49474962D01*
X129440862Y-49497872D01*
X129452282Y-49522017D01*
X129461280Y-49547165D01*
X129467770Y-49573075D01*
X129471689Y-49599495D01*
X129473000Y-49626173D01*
X129473000Y-50583827D01*
X129471689Y-50610505D01*
X129467770Y-50636925D01*
X129461280Y-50662835D01*
X129452282Y-50687983D01*
X129440862Y-50712128D01*
X129427131Y-50735038D01*
X129411220Y-50756492D01*
X129393282Y-50776282D01*
X129373492Y-50794220D01*
X129352038Y-50810131D01*
X129329128Y-50823862D01*
X129304983Y-50835282D01*
X129279835Y-50844280D01*
X129253925Y-50850770D01*
X129227505Y-50854689D01*
X129200827Y-50856000D01*
X128493173Y-50856000D01*
X128466495Y-50854689D01*
X128440075Y-50850770D01*
X128414165Y-50844280D01*
X128389017Y-50835282D01*
X128364872Y-50823862D01*
X128341962Y-50810131D01*
X128320508Y-50794220D01*
X128300718Y-50776282D01*
X128282780Y-50756492D01*
X128266869Y-50735038D01*
X128253138Y-50712128D01*
X128241718Y-50687983D01*
X128232720Y-50662835D01*
X128226230Y-50636925D01*
X128222311Y-50610505D01*
X128221000Y-50583827D01*
X128221000Y-49626173D01*
X128222311Y-49599495D01*
X128226230Y-49573075D01*
X128232720Y-49547165D01*
X128241718Y-49522017D01*
X128253138Y-49497872D01*
X128266869Y-49474962D01*
X128282780Y-49453508D01*
X128300718Y-49433718D01*
X128320508Y-49415780D01*
X128341962Y-49399869D01*
X128364872Y-49386138D01*
X128389017Y-49374718D01*
X128414165Y-49365720D01*
X128440075Y-49359230D01*
X128466495Y-49355311D01*
X128493173Y-49354000D01*
X129200827Y-49354000D01*
X129227505Y-49355311D01*
G37*
G36*
X127177505Y-49355311D02*
G01*
X127203925Y-49359230D01*
X127229835Y-49365720D01*
X127254983Y-49374718D01*
X127279128Y-49386138D01*
X127302038Y-49399869D01*
X127323492Y-49415780D01*
X127343282Y-49433718D01*
X127361220Y-49453508D01*
X127377131Y-49474962D01*
X127390862Y-49497872D01*
X127402282Y-49522017D01*
X127411280Y-49547165D01*
X127417770Y-49573075D01*
X127421689Y-49599495D01*
X127423000Y-49626173D01*
X127423000Y-50583827D01*
X127421689Y-50610505D01*
X127417770Y-50636925D01*
X127411280Y-50662835D01*
X127402282Y-50687983D01*
X127390862Y-50712128D01*
X127377131Y-50735038D01*
X127361220Y-50756492D01*
X127343282Y-50776282D01*
X127323492Y-50794220D01*
X127302038Y-50810131D01*
X127279128Y-50823862D01*
X127254983Y-50835282D01*
X127229835Y-50844280D01*
X127203925Y-50850770D01*
X127177505Y-50854689D01*
X127150827Y-50856000D01*
X126443173Y-50856000D01*
X126416495Y-50854689D01*
X126390075Y-50850770D01*
X126364165Y-50844280D01*
X126339017Y-50835282D01*
X126314872Y-50823862D01*
X126291962Y-50810131D01*
X126270508Y-50794220D01*
X126250718Y-50776282D01*
X126232780Y-50756492D01*
X126216869Y-50735038D01*
X126203138Y-50712128D01*
X126191718Y-50687983D01*
X126182720Y-50662835D01*
X126176230Y-50636925D01*
X126172311Y-50610505D01*
X126171000Y-50583827D01*
X126171000Y-49626173D01*
X126172311Y-49599495D01*
X126176230Y-49573075D01*
X126182720Y-49547165D01*
X126191718Y-49522017D01*
X126203138Y-49497872D01*
X126216869Y-49474962D01*
X126232780Y-49453508D01*
X126250718Y-49433718D01*
X126270508Y-49415780D01*
X126291962Y-49399869D01*
X126314872Y-49386138D01*
X126339017Y-49374718D01*
X126364165Y-49365720D01*
X126390075Y-49359230D01*
X126416495Y-49355311D01*
X126443173Y-49354000D01*
X127150827Y-49354000D01*
X127177505Y-49355311D01*
G37*
G36*
X143477505Y-49355311D02*
G01*
X143503925Y-49359230D01*
X143529835Y-49365720D01*
X143554983Y-49374718D01*
X143579128Y-49386138D01*
X143602038Y-49399869D01*
X143623492Y-49415780D01*
X143643282Y-49433718D01*
X143661220Y-49453508D01*
X143677131Y-49474962D01*
X143690862Y-49497872D01*
X143702282Y-49522017D01*
X143711280Y-49547165D01*
X143717770Y-49573075D01*
X143721689Y-49599495D01*
X143723000Y-49626173D01*
X143723000Y-50583827D01*
X143721689Y-50610505D01*
X143717770Y-50636925D01*
X143711280Y-50662835D01*
X143702282Y-50687983D01*
X143690862Y-50712128D01*
X143677131Y-50735038D01*
X143661220Y-50756492D01*
X143643282Y-50776282D01*
X143623492Y-50794220D01*
X143602038Y-50810131D01*
X143579128Y-50823862D01*
X143554983Y-50835282D01*
X143529835Y-50844280D01*
X143503925Y-50850770D01*
X143477505Y-50854689D01*
X143450827Y-50856000D01*
X142743173Y-50856000D01*
X142716495Y-50854689D01*
X142690075Y-50850770D01*
X142664165Y-50844280D01*
X142639017Y-50835282D01*
X142614872Y-50823862D01*
X142591962Y-50810131D01*
X142570508Y-50794220D01*
X142550718Y-50776282D01*
X142532780Y-50756492D01*
X142516869Y-50735038D01*
X142503138Y-50712128D01*
X142491718Y-50687983D01*
X142482720Y-50662835D01*
X142476230Y-50636925D01*
X142472311Y-50610505D01*
X142471000Y-50583827D01*
X142471000Y-49626173D01*
X142472311Y-49599495D01*
X142476230Y-49573075D01*
X142482720Y-49547165D01*
X142491718Y-49522017D01*
X142503138Y-49497872D01*
X142516869Y-49474962D01*
X142532780Y-49453508D01*
X142550718Y-49433718D01*
X142570508Y-49415780D01*
X142591962Y-49399869D01*
X142614872Y-49386138D01*
X142639017Y-49374718D01*
X142664165Y-49365720D01*
X142690075Y-49359230D01*
X142716495Y-49355311D01*
X142743173Y-49354000D01*
X143450827Y-49354000D01*
X143477505Y-49355311D01*
G37*
G36*
X141427505Y-49355311D02*
G01*
X141453925Y-49359230D01*
X141479835Y-49365720D01*
X141504983Y-49374718D01*
X141529128Y-49386138D01*
X141552038Y-49399869D01*
X141573492Y-49415780D01*
X141593282Y-49433718D01*
X141611220Y-49453508D01*
X141627131Y-49474962D01*
X141640862Y-49497872D01*
X141652282Y-49522017D01*
X141661280Y-49547165D01*
X141667770Y-49573075D01*
X141671689Y-49599495D01*
X141673000Y-49626173D01*
X141673000Y-50583827D01*
X141671689Y-50610505D01*
X141667770Y-50636925D01*
X141661280Y-50662835D01*
X141652282Y-50687983D01*
X141640862Y-50712128D01*
X141627131Y-50735038D01*
X141611220Y-50756492D01*
X141593282Y-50776282D01*
X141573492Y-50794220D01*
X141552038Y-50810131D01*
X141529128Y-50823862D01*
X141504983Y-50835282D01*
X141479835Y-50844280D01*
X141453925Y-50850770D01*
X141427505Y-50854689D01*
X141400827Y-50856000D01*
X140693173Y-50856000D01*
X140666495Y-50854689D01*
X140640075Y-50850770D01*
X140614165Y-50844280D01*
X140589017Y-50835282D01*
X140564872Y-50823862D01*
X140541962Y-50810131D01*
X140520508Y-50794220D01*
X140500718Y-50776282D01*
X140482780Y-50756492D01*
X140466869Y-50735038D01*
X140453138Y-50712128D01*
X140441718Y-50687983D01*
X140432720Y-50662835D01*
X140426230Y-50636925D01*
X140422311Y-50610505D01*
X140421000Y-50583827D01*
X140421000Y-49626173D01*
X140422311Y-49599495D01*
X140426230Y-49573075D01*
X140432720Y-49547165D01*
X140441718Y-49522017D01*
X140453138Y-49497872D01*
X140466869Y-49474962D01*
X140482780Y-49453508D01*
X140500718Y-49433718D01*
X140520508Y-49415780D01*
X140541962Y-49399869D01*
X140564872Y-49386138D01*
X140589017Y-49374718D01*
X140614165Y-49365720D01*
X140640075Y-49359230D01*
X140666495Y-49355311D01*
X140693173Y-49354000D01*
X141400827Y-49354000D01*
X141427505Y-49355311D01*
G37*
G36*
X124727505Y-67355311D02*
G01*
X124753925Y-67359230D01*
X124779835Y-67365720D01*
X124804983Y-67374718D01*
X124829128Y-67386138D01*
X124852038Y-67399869D01*
X124873492Y-67415780D01*
X124893282Y-67433718D01*
X124911220Y-67453508D01*
X124927131Y-67474962D01*
X124940862Y-67497872D01*
X124952282Y-67522017D01*
X124961280Y-67547165D01*
X124967770Y-67573075D01*
X124971689Y-67599495D01*
X124973000Y-67626173D01*
X124973000Y-68583827D01*
X124971689Y-68610505D01*
X124967770Y-68636925D01*
X124961280Y-68662835D01*
X124952282Y-68687983D01*
X124940862Y-68712128D01*
X124927131Y-68735038D01*
X124911220Y-68756492D01*
X124893282Y-68776282D01*
X124873492Y-68794220D01*
X124852038Y-68810131D01*
X124829128Y-68823862D01*
X124804983Y-68835282D01*
X124779835Y-68844280D01*
X124753925Y-68850770D01*
X124727505Y-68854689D01*
X124700827Y-68856000D01*
X123993173Y-68856000D01*
X123966495Y-68854689D01*
X123940075Y-68850770D01*
X123914165Y-68844280D01*
X123889017Y-68835282D01*
X123864872Y-68823862D01*
X123841962Y-68810131D01*
X123820508Y-68794220D01*
X123800718Y-68776282D01*
X123782780Y-68756492D01*
X123766869Y-68735038D01*
X123753138Y-68712128D01*
X123741718Y-68687983D01*
X123732720Y-68662835D01*
X123726230Y-68636925D01*
X123722311Y-68610505D01*
X123721000Y-68583827D01*
X123721000Y-67626173D01*
X123722311Y-67599495D01*
X123726230Y-67573075D01*
X123732720Y-67547165D01*
X123741718Y-67522017D01*
X123753138Y-67497872D01*
X123766869Y-67474962D01*
X123782780Y-67453508D01*
X123800718Y-67433718D01*
X123820508Y-67415780D01*
X123841962Y-67399869D01*
X123864872Y-67386138D01*
X123889017Y-67374718D01*
X123914165Y-67365720D01*
X123940075Y-67359230D01*
X123966495Y-67355311D01*
X123993173Y-67354000D01*
X124700827Y-67354000D01*
X124727505Y-67355311D01*
G37*
G36*
X122677505Y-67355311D02*
G01*
X122703925Y-67359230D01*
X122729835Y-67365720D01*
X122754983Y-67374718D01*
X122779128Y-67386138D01*
X122802038Y-67399869D01*
X122823492Y-67415780D01*
X122843282Y-67433718D01*
X122861220Y-67453508D01*
X122877131Y-67474962D01*
X122890862Y-67497872D01*
X122902282Y-67522017D01*
X122911280Y-67547165D01*
X122917770Y-67573075D01*
X122921689Y-67599495D01*
X122923000Y-67626173D01*
X122923000Y-68583827D01*
X122921689Y-68610505D01*
X122917770Y-68636925D01*
X122911280Y-68662835D01*
X122902282Y-68687983D01*
X122890862Y-68712128D01*
X122877131Y-68735038D01*
X122861220Y-68756492D01*
X122843282Y-68776282D01*
X122823492Y-68794220D01*
X122802038Y-68810131D01*
X122779128Y-68823862D01*
X122754983Y-68835282D01*
X122729835Y-68844280D01*
X122703925Y-68850770D01*
X122677505Y-68854689D01*
X122650827Y-68856000D01*
X121943173Y-68856000D01*
X121916495Y-68854689D01*
X121890075Y-68850770D01*
X121864165Y-68844280D01*
X121839017Y-68835282D01*
X121814872Y-68823862D01*
X121791962Y-68810131D01*
X121770508Y-68794220D01*
X121750718Y-68776282D01*
X121732780Y-68756492D01*
X121716869Y-68735038D01*
X121703138Y-68712128D01*
X121691718Y-68687983D01*
X121682720Y-68662835D01*
X121676230Y-68636925D01*
X121672311Y-68610505D01*
X121671000Y-68583827D01*
X121671000Y-67626173D01*
X121672311Y-67599495D01*
X121676230Y-67573075D01*
X121682720Y-67547165D01*
X121691718Y-67522017D01*
X121703138Y-67497872D01*
X121716869Y-67474962D01*
X121732780Y-67453508D01*
X121750718Y-67433718D01*
X121770508Y-67415780D01*
X121791962Y-67399869D01*
X121814872Y-67386138D01*
X121839017Y-67374718D01*
X121864165Y-67365720D01*
X121890075Y-67359230D01*
X121916495Y-67355311D01*
X121943173Y-67354000D01*
X122650827Y-67354000D01*
X122677505Y-67355311D01*
G37*
D12*
X75565000Y-146526250D03*
D13*
X73025000Y-151606250D03*
D12*
X69215000Y-149066250D03*
D14*
X67945000Y-151606250D03*
X78105000Y-151606250D03*
D12*
X56515000Y-146526250D03*
D13*
X53975000Y-151606250D03*
D12*
X50165000Y-149066250D03*
D14*
X48895000Y-151606250D03*
X59055000Y-151606250D03*
D12*
X137477500Y-127476250D03*
D13*
X134937500Y-132556250D03*
D12*
X131127500Y-130016250D03*
D14*
X129857500Y-132556250D03*
X140017500Y-132556250D03*
D12*
X118427500Y-127476250D03*
D13*
X115887500Y-132556250D03*
D12*
X112077500Y-130016250D03*
D14*
X110807500Y-132556250D03*
X120967500Y-132556250D03*
D12*
X99377500Y-127476250D03*
D13*
X96837500Y-132556250D03*
D12*
X93027500Y-130016250D03*
D14*
X91757500Y-132556250D03*
X101917500Y-132556250D03*
D12*
X75565000Y-127476250D03*
D13*
X73025000Y-132556250D03*
D12*
X69215000Y-130016250D03*
D14*
X67945000Y-132556250D03*
X78105000Y-132556250D03*
D12*
X56515000Y-127476250D03*
D13*
X53975000Y-132556250D03*
D12*
X50165000Y-130016250D03*
D14*
X48895000Y-132556250D03*
X59055000Y-132556250D03*
D12*
X137477500Y-108426250D03*
D13*
X134937500Y-113506250D03*
D12*
X131127500Y-110966250D03*
D14*
X129857500Y-113506250D03*
X140017500Y-113506250D03*
D12*
X118427500Y-108426250D03*
D13*
X115887500Y-113506250D03*
D12*
X112077500Y-110966250D03*
D14*
X110807500Y-113506250D03*
X120967500Y-113506250D03*
D12*
X99377500Y-108426250D03*
D13*
X96837500Y-113506250D03*
D12*
X93027500Y-110966250D03*
D14*
X91757500Y-113506250D03*
X101917500Y-113506250D03*
D12*
X75565000Y-108426250D03*
D13*
X73025000Y-113506250D03*
D12*
X69215000Y-110966250D03*
D14*
X67945000Y-113506250D03*
X78105000Y-113506250D03*
D12*
X56515000Y-108426250D03*
D13*
X53975000Y-113506250D03*
D12*
X50165000Y-110966250D03*
D14*
X48895000Y-113506250D03*
X59055000Y-113506250D03*
D12*
X137477500Y-89376250D03*
D13*
X134937500Y-94456250D03*
D12*
X131127500Y-91916250D03*
D14*
X129857500Y-94456250D03*
X140017500Y-94456250D03*
D12*
X118427500Y-89376250D03*
D13*
X115887500Y-94456250D03*
D12*
X112077500Y-91916250D03*
D14*
X110807500Y-94456250D03*
X120967500Y-94456250D03*
D12*
X99377500Y-89376250D03*
D13*
X96837500Y-94456250D03*
D12*
X93027500Y-91916250D03*
D14*
X91757500Y-94456250D03*
X101917500Y-94456250D03*
D12*
X75565000Y-89376250D03*
D13*
X73025000Y-94456250D03*
D12*
X69215000Y-91916250D03*
D14*
X67945000Y-94456250D03*
X78105000Y-94456250D03*
D12*
X56515000Y-89376250D03*
D13*
X53975000Y-94456250D03*
D12*
X50165000Y-91916250D03*
D14*
X48895000Y-94456250D03*
X59055000Y-94456250D03*
D12*
X156527500Y-70326250D03*
D13*
X153987500Y-75406250D03*
D12*
X150177500Y-72866250D03*
D14*
X148907500Y-75406250D03*
X159067500Y-75406250D03*
D12*
X137477500Y-70326250D03*
D13*
X134937500Y-75406250D03*
D12*
X131127500Y-72866250D03*
D14*
X129857500Y-75406250D03*
X140017500Y-75406250D03*
D12*
X118427500Y-70326250D03*
D13*
X115887500Y-75406250D03*
D12*
X112077500Y-72866250D03*
D14*
X110807500Y-75406250D03*
X120967500Y-75406250D03*
D12*
X99377500Y-70326250D03*
D13*
X96837500Y-75406250D03*
D12*
X93027500Y-72866250D03*
D14*
X91757500Y-75406250D03*
X101917500Y-75406250D03*
D12*
X75565000Y-70326250D03*
D13*
X73025000Y-75406250D03*
D12*
X69215000Y-72866250D03*
D14*
X67945000Y-75406250D03*
X78105000Y-75406250D03*
D12*
X56515000Y-70326250D03*
D13*
X53975000Y-75406250D03*
D12*
X50165000Y-72866250D03*
D14*
X48895000Y-75406250D03*
X59055000Y-75406250D03*
D21*
X102580000Y-49597500D03*
X105380000Y-49597500D03*
D22*
X108300000Y-49597500D03*
D23*
X106980000Y-52697500D03*
D22*
X99660000Y-49597500D03*
D24*
X100980000Y-52697500D03*
D25*
X99660000Y-53422500D03*
X108300000Y-53422500D03*
D26*
X103730000Y-53797500D03*
X105730000Y-53797500D03*
X105230000Y-53797500D03*
X104730000Y-53797500D03*
X104230000Y-53797500D03*
X103230000Y-53797500D03*
X102730000Y-53797500D03*
X102230000Y-53797500D03*
D27*
X107080000Y-53797500D03*
X106330000Y-53797500D03*
X101630000Y-53797500D03*
X100880000Y-53797500D03*
X100880000Y-53797500D03*
X101630000Y-53797500D03*
X106330000Y-53797500D03*
X107080000Y-53797500D03*
D20*
G36*
X111534363Y-56875290D02*
G01*
X111560369Y-56879148D01*
X111585871Y-56885535D01*
X111610624Y-56894392D01*
X111634390Y-56905633D01*
X111656939Y-56919148D01*
X111678056Y-56934809D01*
X111697535Y-56952465D01*
X111715191Y-56971944D01*
X111730852Y-56993061D01*
X111744367Y-57015610D01*
X111755608Y-57039376D01*
X111764465Y-57064129D01*
X111770852Y-57089631D01*
X111774710Y-57115637D01*
X111776000Y-57141895D01*
X111776000Y-58458105D01*
X111774710Y-58484363D01*
X111770852Y-58510369D01*
X111764465Y-58535871D01*
X111755608Y-58560624D01*
X111744367Y-58584390D01*
X111730852Y-58606939D01*
X111715191Y-58628056D01*
X111697535Y-58647535D01*
X111678056Y-58665191D01*
X111656939Y-58680852D01*
X111634390Y-58694367D01*
X111610624Y-58705608D01*
X111585871Y-58714465D01*
X111560369Y-58720852D01*
X111534363Y-58724710D01*
X111508105Y-58726000D01*
X110516895Y-58726000D01*
X110490637Y-58724710D01*
X110464631Y-58720852D01*
X110439129Y-58714465D01*
X110414376Y-58705608D01*
X110390610Y-58694367D01*
X110368061Y-58680852D01*
X110346944Y-58665191D01*
X110327465Y-58647535D01*
X110309809Y-58628056D01*
X110294148Y-58606939D01*
X110280633Y-58584390D01*
X110269392Y-58560624D01*
X110260535Y-58535871D01*
X110254148Y-58510369D01*
X110250290Y-58484363D01*
X110249000Y-58458105D01*
X110249000Y-57141895D01*
X110250290Y-57115637D01*
X110254148Y-57089631D01*
X110260535Y-57064129D01*
X110269392Y-57039376D01*
X110280633Y-57015610D01*
X110294148Y-56993061D01*
X110309809Y-56971944D01*
X110327465Y-56952465D01*
X110346944Y-56934809D01*
X110368061Y-56919148D01*
X110390610Y-56905633D01*
X110414376Y-56894392D01*
X110439129Y-56885535D01*
X110464631Y-56879148D01*
X110490637Y-56875290D01*
X110516895Y-56874000D01*
X111508105Y-56874000D01*
X111534363Y-56875290D01*
G37*
G36*
X114509363Y-56875290D02*
G01*
X114535369Y-56879148D01*
X114560871Y-56885535D01*
X114585624Y-56894392D01*
X114609390Y-56905633D01*
X114631939Y-56919148D01*
X114653056Y-56934809D01*
X114672535Y-56952465D01*
X114690191Y-56971944D01*
X114705852Y-56993061D01*
X114719367Y-57015610D01*
X114730608Y-57039376D01*
X114739465Y-57064129D01*
X114745852Y-57089631D01*
X114749710Y-57115637D01*
X114751000Y-57141895D01*
X114751000Y-58458105D01*
X114749710Y-58484363D01*
X114745852Y-58510369D01*
X114739465Y-58535871D01*
X114730608Y-58560624D01*
X114719367Y-58584390D01*
X114705852Y-58606939D01*
X114690191Y-58628056D01*
X114672535Y-58647535D01*
X114653056Y-58665191D01*
X114631939Y-58680852D01*
X114609390Y-58694367D01*
X114585624Y-58705608D01*
X114560871Y-58714465D01*
X114535369Y-58720852D01*
X114509363Y-58724710D01*
X114483105Y-58726000D01*
X113491895Y-58726000D01*
X113465637Y-58724710D01*
X113439631Y-58720852D01*
X113414129Y-58714465D01*
X113389376Y-58705608D01*
X113365610Y-58694367D01*
X113343061Y-58680852D01*
X113321944Y-58665191D01*
X113302465Y-58647535D01*
X113284809Y-58628056D01*
X113269148Y-58606939D01*
X113255633Y-58584390D01*
X113244392Y-58560624D01*
X113235535Y-58535871D01*
X113229148Y-58510369D01*
X113225290Y-58484363D01*
X113224000Y-58458105D01*
X113224000Y-57141895D01*
X113225290Y-57115637D01*
X113229148Y-57089631D01*
X113235535Y-57064129D01*
X113244392Y-57039376D01*
X113255633Y-57015610D01*
X113269148Y-56993061D01*
X113284809Y-56971944D01*
X113302465Y-56952465D01*
X113321944Y-56934809D01*
X113343061Y-56919148D01*
X113365610Y-56905633D01*
X113389376Y-56894392D01*
X113414129Y-56885535D01*
X113439631Y-56879148D01*
X113465637Y-56875290D01*
X113491895Y-56874000D01*
X114483105Y-56874000D01*
X114509363Y-56875290D01*
G37*
G36*
X136343005Y-156412811D02*
G01*
X136369425Y-156416730D01*
X136395335Y-156423220D01*
X136420483Y-156432218D01*
X136444628Y-156443638D01*
X136467538Y-156457369D01*
X136488992Y-156473280D01*
X136508782Y-156491218D01*
X136526720Y-156511008D01*
X136542631Y-156532462D01*
X136556362Y-156555372D01*
X136567782Y-156579517D01*
X136576780Y-156604665D01*
X136583270Y-156630575D01*
X136587189Y-156656995D01*
X136588500Y-156683673D01*
X136588500Y-157641327D01*
X136587189Y-157668005D01*
X136583270Y-157694425D01*
X136576780Y-157720335D01*
X136567782Y-157745483D01*
X136556362Y-157769628D01*
X136542631Y-157792538D01*
X136526720Y-157813992D01*
X136508782Y-157833782D01*
X136488992Y-157851720D01*
X136467538Y-157867631D01*
X136444628Y-157881362D01*
X136420483Y-157892782D01*
X136395335Y-157901780D01*
X136369425Y-157908270D01*
X136343005Y-157912189D01*
X136316327Y-157913500D01*
X135608673Y-157913500D01*
X135581995Y-157912189D01*
X135555575Y-157908270D01*
X135529665Y-157901780D01*
X135504517Y-157892782D01*
X135480372Y-157881362D01*
X135457462Y-157867631D01*
X135436008Y-157851720D01*
X135416218Y-157833782D01*
X135398280Y-157813992D01*
X135382369Y-157792538D01*
X135368638Y-157769628D01*
X135357218Y-157745483D01*
X135348220Y-157720335D01*
X135341730Y-157694425D01*
X135337811Y-157668005D01*
X135336500Y-157641327D01*
X135336500Y-156683673D01*
X135337811Y-156656995D01*
X135341730Y-156630575D01*
X135348220Y-156604665D01*
X135357218Y-156579517D01*
X135368638Y-156555372D01*
X135382369Y-156532462D01*
X135398280Y-156511008D01*
X135416218Y-156491218D01*
X135436008Y-156473280D01*
X135457462Y-156457369D01*
X135480372Y-156443638D01*
X135504517Y-156432218D01*
X135529665Y-156423220D01*
X135555575Y-156416730D01*
X135581995Y-156412811D01*
X135608673Y-156411500D01*
X136316327Y-156411500D01*
X136343005Y-156412811D01*
G37*
G36*
X134293005Y-156412811D02*
G01*
X134319425Y-156416730D01*
X134345335Y-156423220D01*
X134370483Y-156432218D01*
X134394628Y-156443638D01*
X134417538Y-156457369D01*
X134438992Y-156473280D01*
X134458782Y-156491218D01*
X134476720Y-156511008D01*
X134492631Y-156532462D01*
X134506362Y-156555372D01*
X134517782Y-156579517D01*
X134526780Y-156604665D01*
X134533270Y-156630575D01*
X134537189Y-156656995D01*
X134538500Y-156683673D01*
X134538500Y-157641327D01*
X134537189Y-157668005D01*
X134533270Y-157694425D01*
X134526780Y-157720335D01*
X134517782Y-157745483D01*
X134506362Y-157769628D01*
X134492631Y-157792538D01*
X134476720Y-157813992D01*
X134458782Y-157833782D01*
X134438992Y-157851720D01*
X134417538Y-157867631D01*
X134394628Y-157881362D01*
X134370483Y-157892782D01*
X134345335Y-157901780D01*
X134319425Y-157908270D01*
X134293005Y-157912189D01*
X134266327Y-157913500D01*
X133558673Y-157913500D01*
X133531995Y-157912189D01*
X133505575Y-157908270D01*
X133479665Y-157901780D01*
X133454517Y-157892782D01*
X133430372Y-157881362D01*
X133407462Y-157867631D01*
X133386008Y-157851720D01*
X133366218Y-157833782D01*
X133348280Y-157813992D01*
X133332369Y-157792538D01*
X133318638Y-157769628D01*
X133307218Y-157745483D01*
X133298220Y-157720335D01*
X133291730Y-157694425D01*
X133287811Y-157668005D01*
X133286500Y-157641327D01*
X133286500Y-156683673D01*
X133287811Y-156656995D01*
X133291730Y-156630575D01*
X133298220Y-156604665D01*
X133307218Y-156579517D01*
X133318638Y-156555372D01*
X133332369Y-156532462D01*
X133348280Y-156511008D01*
X133366218Y-156491218D01*
X133386008Y-156473280D01*
X133407462Y-156457369D01*
X133430372Y-156443638D01*
X133454517Y-156432218D01*
X133479665Y-156423220D01*
X133505575Y-156416730D01*
X133531995Y-156412811D01*
X133558673Y-156411500D01*
X134266327Y-156411500D01*
X134293005Y-156412811D01*
G37*
G36*
X107768005Y-156412811D02*
G01*
X107794425Y-156416730D01*
X107820335Y-156423220D01*
X107845483Y-156432218D01*
X107869628Y-156443638D01*
X107892538Y-156457369D01*
X107913992Y-156473280D01*
X107933782Y-156491218D01*
X107951720Y-156511008D01*
X107967631Y-156532462D01*
X107981362Y-156555372D01*
X107992782Y-156579517D01*
X108001780Y-156604665D01*
X108008270Y-156630575D01*
X108012189Y-156656995D01*
X108013500Y-156683673D01*
X108013500Y-157641327D01*
X108012189Y-157668005D01*
X108008270Y-157694425D01*
X108001780Y-157720335D01*
X107992782Y-157745483D01*
X107981362Y-157769628D01*
X107967631Y-157792538D01*
X107951720Y-157813992D01*
X107933782Y-157833782D01*
X107913992Y-157851720D01*
X107892538Y-157867631D01*
X107869628Y-157881362D01*
X107845483Y-157892782D01*
X107820335Y-157901780D01*
X107794425Y-157908270D01*
X107768005Y-157912189D01*
X107741327Y-157913500D01*
X107033673Y-157913500D01*
X107006995Y-157912189D01*
X106980575Y-157908270D01*
X106954665Y-157901780D01*
X106929517Y-157892782D01*
X106905372Y-157881362D01*
X106882462Y-157867631D01*
X106861008Y-157851720D01*
X106841218Y-157833782D01*
X106823280Y-157813992D01*
X106807369Y-157792538D01*
X106793638Y-157769628D01*
X106782218Y-157745483D01*
X106773220Y-157720335D01*
X106766730Y-157694425D01*
X106762811Y-157668005D01*
X106761500Y-157641327D01*
X106761500Y-156683673D01*
X106762811Y-156656995D01*
X106766730Y-156630575D01*
X106773220Y-156604665D01*
X106782218Y-156579517D01*
X106793638Y-156555372D01*
X106807369Y-156532462D01*
X106823280Y-156511008D01*
X106841218Y-156491218D01*
X106861008Y-156473280D01*
X106882462Y-156457369D01*
X106905372Y-156443638D01*
X106929517Y-156432218D01*
X106954665Y-156423220D01*
X106980575Y-156416730D01*
X107006995Y-156412811D01*
X107033673Y-156411500D01*
X107741327Y-156411500D01*
X107768005Y-156412811D01*
G37*
G36*
X105718005Y-156412811D02*
G01*
X105744425Y-156416730D01*
X105770335Y-156423220D01*
X105795483Y-156432218D01*
X105819628Y-156443638D01*
X105842538Y-156457369D01*
X105863992Y-156473280D01*
X105883782Y-156491218D01*
X105901720Y-156511008D01*
X105917631Y-156532462D01*
X105931362Y-156555372D01*
X105942782Y-156579517D01*
X105951780Y-156604665D01*
X105958270Y-156630575D01*
X105962189Y-156656995D01*
X105963500Y-156683673D01*
X105963500Y-157641327D01*
X105962189Y-157668005D01*
X105958270Y-157694425D01*
X105951780Y-157720335D01*
X105942782Y-157745483D01*
X105931362Y-157769628D01*
X105917631Y-157792538D01*
X105901720Y-157813992D01*
X105883782Y-157833782D01*
X105863992Y-157851720D01*
X105842538Y-157867631D01*
X105819628Y-157881362D01*
X105795483Y-157892782D01*
X105770335Y-157901780D01*
X105744425Y-157908270D01*
X105718005Y-157912189D01*
X105691327Y-157913500D01*
X104983673Y-157913500D01*
X104956995Y-157912189D01*
X104930575Y-157908270D01*
X104904665Y-157901780D01*
X104879517Y-157892782D01*
X104855372Y-157881362D01*
X104832462Y-157867631D01*
X104811008Y-157851720D01*
X104791218Y-157833782D01*
X104773280Y-157813992D01*
X104757369Y-157792538D01*
X104743638Y-157769628D01*
X104732218Y-157745483D01*
X104723220Y-157720335D01*
X104716730Y-157694425D01*
X104712811Y-157668005D01*
X104711500Y-157641327D01*
X104711500Y-156683673D01*
X104712811Y-156656995D01*
X104716730Y-156630575D01*
X104723220Y-156604665D01*
X104732218Y-156579517D01*
X104743638Y-156555372D01*
X104757369Y-156532462D01*
X104773280Y-156511008D01*
X104791218Y-156491218D01*
X104811008Y-156473280D01*
X104832462Y-156457369D01*
X104855372Y-156443638D01*
X104879517Y-156432218D01*
X104904665Y-156423220D01*
X104930575Y-156416730D01*
X104956995Y-156412811D01*
X104983673Y-156411500D01*
X105691327Y-156411500D01*
X105718005Y-156412811D01*
G37*
G36*
X74430505Y-156412811D02*
G01*
X74456925Y-156416730D01*
X74482835Y-156423220D01*
X74507983Y-156432218D01*
X74532128Y-156443638D01*
X74555038Y-156457369D01*
X74576492Y-156473280D01*
X74596282Y-156491218D01*
X74614220Y-156511008D01*
X74630131Y-156532462D01*
X74643862Y-156555372D01*
X74655282Y-156579517D01*
X74664280Y-156604665D01*
X74670770Y-156630575D01*
X74674689Y-156656995D01*
X74676000Y-156683673D01*
X74676000Y-157641327D01*
X74674689Y-157668005D01*
X74670770Y-157694425D01*
X74664280Y-157720335D01*
X74655282Y-157745483D01*
X74643862Y-157769628D01*
X74630131Y-157792538D01*
X74614220Y-157813992D01*
X74596282Y-157833782D01*
X74576492Y-157851720D01*
X74555038Y-157867631D01*
X74532128Y-157881362D01*
X74507983Y-157892782D01*
X74482835Y-157901780D01*
X74456925Y-157908270D01*
X74430505Y-157912189D01*
X74403827Y-157913500D01*
X73696173Y-157913500D01*
X73669495Y-157912189D01*
X73643075Y-157908270D01*
X73617165Y-157901780D01*
X73592017Y-157892782D01*
X73567872Y-157881362D01*
X73544962Y-157867631D01*
X73523508Y-157851720D01*
X73503718Y-157833782D01*
X73485780Y-157813992D01*
X73469869Y-157792538D01*
X73456138Y-157769628D01*
X73444718Y-157745483D01*
X73435720Y-157720335D01*
X73429230Y-157694425D01*
X73425311Y-157668005D01*
X73424000Y-157641327D01*
X73424000Y-156683673D01*
X73425311Y-156656995D01*
X73429230Y-156630575D01*
X73435720Y-156604665D01*
X73444718Y-156579517D01*
X73456138Y-156555372D01*
X73469869Y-156532462D01*
X73485780Y-156511008D01*
X73503718Y-156491218D01*
X73523508Y-156473280D01*
X73544962Y-156457369D01*
X73567872Y-156443638D01*
X73592017Y-156432218D01*
X73617165Y-156423220D01*
X73643075Y-156416730D01*
X73669495Y-156412811D01*
X73696173Y-156411500D01*
X74403827Y-156411500D01*
X74430505Y-156412811D01*
G37*
G36*
X72380505Y-156412811D02*
G01*
X72406925Y-156416730D01*
X72432835Y-156423220D01*
X72457983Y-156432218D01*
X72482128Y-156443638D01*
X72505038Y-156457369D01*
X72526492Y-156473280D01*
X72546282Y-156491218D01*
X72564220Y-156511008D01*
X72580131Y-156532462D01*
X72593862Y-156555372D01*
X72605282Y-156579517D01*
X72614280Y-156604665D01*
X72620770Y-156630575D01*
X72624689Y-156656995D01*
X72626000Y-156683673D01*
X72626000Y-157641327D01*
X72624689Y-157668005D01*
X72620770Y-157694425D01*
X72614280Y-157720335D01*
X72605282Y-157745483D01*
X72593862Y-157769628D01*
X72580131Y-157792538D01*
X72564220Y-157813992D01*
X72546282Y-157833782D01*
X72526492Y-157851720D01*
X72505038Y-157867631D01*
X72482128Y-157881362D01*
X72457983Y-157892782D01*
X72432835Y-157901780D01*
X72406925Y-157908270D01*
X72380505Y-157912189D01*
X72353827Y-157913500D01*
X71646173Y-157913500D01*
X71619495Y-157912189D01*
X71593075Y-157908270D01*
X71567165Y-157901780D01*
X71542017Y-157892782D01*
X71517872Y-157881362D01*
X71494962Y-157867631D01*
X71473508Y-157851720D01*
X71453718Y-157833782D01*
X71435780Y-157813992D01*
X71419869Y-157792538D01*
X71406138Y-157769628D01*
X71394718Y-157745483D01*
X71385720Y-157720335D01*
X71379230Y-157694425D01*
X71375311Y-157668005D01*
X71374000Y-157641327D01*
X71374000Y-156683673D01*
X71375311Y-156656995D01*
X71379230Y-156630575D01*
X71385720Y-156604665D01*
X71394718Y-156579517D01*
X71406138Y-156555372D01*
X71419869Y-156532462D01*
X71435780Y-156511008D01*
X71453718Y-156491218D01*
X71473508Y-156473280D01*
X71494962Y-156457369D01*
X71517872Y-156443638D01*
X71542017Y-156432218D01*
X71567165Y-156423220D01*
X71593075Y-156416730D01*
X71619495Y-156412811D01*
X71646173Y-156411500D01*
X72353827Y-156411500D01*
X72380505Y-156412811D01*
G37*
G36*
X55380505Y-156412811D02*
G01*
X55406925Y-156416730D01*
X55432835Y-156423220D01*
X55457983Y-156432218D01*
X55482128Y-156443638D01*
X55505038Y-156457369D01*
X55526492Y-156473280D01*
X55546282Y-156491218D01*
X55564220Y-156511008D01*
X55580131Y-156532462D01*
X55593862Y-156555372D01*
X55605282Y-156579517D01*
X55614280Y-156604665D01*
X55620770Y-156630575D01*
X55624689Y-156656995D01*
X55626000Y-156683673D01*
X55626000Y-157641327D01*
X55624689Y-157668005D01*
X55620770Y-157694425D01*
X55614280Y-157720335D01*
X55605282Y-157745483D01*
X55593862Y-157769628D01*
X55580131Y-157792538D01*
X55564220Y-157813992D01*
X55546282Y-157833782D01*
X55526492Y-157851720D01*
X55505038Y-157867631D01*
X55482128Y-157881362D01*
X55457983Y-157892782D01*
X55432835Y-157901780D01*
X55406925Y-157908270D01*
X55380505Y-157912189D01*
X55353827Y-157913500D01*
X54646173Y-157913500D01*
X54619495Y-157912189D01*
X54593075Y-157908270D01*
X54567165Y-157901780D01*
X54542017Y-157892782D01*
X54517872Y-157881362D01*
X54494962Y-157867631D01*
X54473508Y-157851720D01*
X54453718Y-157833782D01*
X54435780Y-157813992D01*
X54419869Y-157792538D01*
X54406138Y-157769628D01*
X54394718Y-157745483D01*
X54385720Y-157720335D01*
X54379230Y-157694425D01*
X54375311Y-157668005D01*
X54374000Y-157641327D01*
X54374000Y-156683673D01*
X54375311Y-156656995D01*
X54379230Y-156630575D01*
X54385720Y-156604665D01*
X54394718Y-156579517D01*
X54406138Y-156555372D01*
X54419869Y-156532462D01*
X54435780Y-156511008D01*
X54453718Y-156491218D01*
X54473508Y-156473280D01*
X54494962Y-156457369D01*
X54517872Y-156443638D01*
X54542017Y-156432218D01*
X54567165Y-156423220D01*
X54593075Y-156416730D01*
X54619495Y-156412811D01*
X54646173Y-156411500D01*
X55353827Y-156411500D01*
X55380505Y-156412811D01*
G37*
G36*
X53330505Y-156412811D02*
G01*
X53356925Y-156416730D01*
X53382835Y-156423220D01*
X53407983Y-156432218D01*
X53432128Y-156443638D01*
X53455038Y-156457369D01*
X53476492Y-156473280D01*
X53496282Y-156491218D01*
X53514220Y-156511008D01*
X53530131Y-156532462D01*
X53543862Y-156555372D01*
X53555282Y-156579517D01*
X53564280Y-156604665D01*
X53570770Y-156630575D01*
X53574689Y-156656995D01*
X53576000Y-156683673D01*
X53576000Y-157641327D01*
X53574689Y-157668005D01*
X53570770Y-157694425D01*
X53564280Y-157720335D01*
X53555282Y-157745483D01*
X53543862Y-157769628D01*
X53530131Y-157792538D01*
X53514220Y-157813992D01*
X53496282Y-157833782D01*
X53476492Y-157851720D01*
X53455038Y-157867631D01*
X53432128Y-157881362D01*
X53407983Y-157892782D01*
X53382835Y-157901780D01*
X53356925Y-157908270D01*
X53330505Y-157912189D01*
X53303827Y-157913500D01*
X52596173Y-157913500D01*
X52569495Y-157912189D01*
X52543075Y-157908270D01*
X52517165Y-157901780D01*
X52492017Y-157892782D01*
X52467872Y-157881362D01*
X52444962Y-157867631D01*
X52423508Y-157851720D01*
X52403718Y-157833782D01*
X52385780Y-157813992D01*
X52369869Y-157792538D01*
X52356138Y-157769628D01*
X52344718Y-157745483D01*
X52335720Y-157720335D01*
X52329230Y-157694425D01*
X52325311Y-157668005D01*
X52324000Y-157641327D01*
X52324000Y-156683673D01*
X52325311Y-156656995D01*
X52329230Y-156630575D01*
X52335720Y-156604665D01*
X52344718Y-156579517D01*
X52356138Y-156555372D01*
X52369869Y-156532462D01*
X52385780Y-156511008D01*
X52403718Y-156491218D01*
X52423508Y-156473280D01*
X52444962Y-156457369D01*
X52467872Y-156443638D01*
X52492017Y-156432218D01*
X52517165Y-156423220D01*
X52543075Y-156416730D01*
X52569495Y-156412811D01*
X52596173Y-156411500D01*
X53303827Y-156411500D01*
X53330505Y-156412811D01*
G37*
G36*
X155393005Y-146887811D02*
G01*
X155419425Y-146891730D01*
X155445335Y-146898220D01*
X155470483Y-146907218D01*
X155494628Y-146918638D01*
X155517538Y-146932369D01*
X155538992Y-146948280D01*
X155558782Y-146966218D01*
X155576720Y-146986008D01*
X155592631Y-147007462D01*
X155606362Y-147030372D01*
X155617782Y-147054517D01*
X155626780Y-147079665D01*
X155633270Y-147105575D01*
X155637189Y-147131995D01*
X155638500Y-147158673D01*
X155638500Y-148116327D01*
X155637189Y-148143005D01*
X155633270Y-148169425D01*
X155626780Y-148195335D01*
X155617782Y-148220483D01*
X155606362Y-148244628D01*
X155592631Y-148267538D01*
X155576720Y-148288992D01*
X155558782Y-148308782D01*
X155538992Y-148326720D01*
X155517538Y-148342631D01*
X155494628Y-148356362D01*
X155470483Y-148367782D01*
X155445335Y-148376780D01*
X155419425Y-148383270D01*
X155393005Y-148387189D01*
X155366327Y-148388500D01*
X154658673Y-148388500D01*
X154631995Y-148387189D01*
X154605575Y-148383270D01*
X154579665Y-148376780D01*
X154554517Y-148367782D01*
X154530372Y-148356362D01*
X154507462Y-148342631D01*
X154486008Y-148326720D01*
X154466218Y-148308782D01*
X154448280Y-148288992D01*
X154432369Y-148267538D01*
X154418638Y-148244628D01*
X154407218Y-148220483D01*
X154398220Y-148195335D01*
X154391730Y-148169425D01*
X154387811Y-148143005D01*
X154386500Y-148116327D01*
X154386500Y-147158673D01*
X154387811Y-147131995D01*
X154391730Y-147105575D01*
X154398220Y-147079665D01*
X154407218Y-147054517D01*
X154418638Y-147030372D01*
X154432369Y-147007462D01*
X154448280Y-146986008D01*
X154466218Y-146966218D01*
X154486008Y-146948280D01*
X154507462Y-146932369D01*
X154530372Y-146918638D01*
X154554517Y-146907218D01*
X154579665Y-146898220D01*
X154605575Y-146891730D01*
X154631995Y-146887811D01*
X154658673Y-146886500D01*
X155366327Y-146886500D01*
X155393005Y-146887811D01*
G37*
G36*
X153343005Y-146887811D02*
G01*
X153369425Y-146891730D01*
X153395335Y-146898220D01*
X153420483Y-146907218D01*
X153444628Y-146918638D01*
X153467538Y-146932369D01*
X153488992Y-146948280D01*
X153508782Y-146966218D01*
X153526720Y-146986008D01*
X153542631Y-147007462D01*
X153556362Y-147030372D01*
X153567782Y-147054517D01*
X153576780Y-147079665D01*
X153583270Y-147105575D01*
X153587189Y-147131995D01*
X153588500Y-147158673D01*
X153588500Y-148116327D01*
X153587189Y-148143005D01*
X153583270Y-148169425D01*
X153576780Y-148195335D01*
X153567782Y-148220483D01*
X153556362Y-148244628D01*
X153542631Y-148267538D01*
X153526720Y-148288992D01*
X153508782Y-148308782D01*
X153488992Y-148326720D01*
X153467538Y-148342631D01*
X153444628Y-148356362D01*
X153420483Y-148367782D01*
X153395335Y-148376780D01*
X153369425Y-148383270D01*
X153343005Y-148387189D01*
X153316327Y-148388500D01*
X152608673Y-148388500D01*
X152581995Y-148387189D01*
X152555575Y-148383270D01*
X152529665Y-148376780D01*
X152504517Y-148367782D01*
X152480372Y-148356362D01*
X152457462Y-148342631D01*
X152436008Y-148326720D01*
X152416218Y-148308782D01*
X152398280Y-148288992D01*
X152382369Y-148267538D01*
X152368638Y-148244628D01*
X152357218Y-148220483D01*
X152348220Y-148195335D01*
X152341730Y-148169425D01*
X152337811Y-148143005D01*
X152336500Y-148116327D01*
X152336500Y-147158673D01*
X152337811Y-147131995D01*
X152341730Y-147105575D01*
X152348220Y-147079665D01*
X152357218Y-147054517D01*
X152368638Y-147030372D01*
X152382369Y-147007462D01*
X152398280Y-146986008D01*
X152416218Y-146966218D01*
X152436008Y-146948280D01*
X152457462Y-146932369D01*
X152480372Y-146918638D01*
X152504517Y-146907218D01*
X152529665Y-146898220D01*
X152555575Y-146891730D01*
X152581995Y-146887811D01*
X152608673Y-146886500D01*
X153316327Y-146886500D01*
X153343005Y-146887811D01*
G37*
G36*
X136343005Y-137362811D02*
G01*
X136369425Y-137366730D01*
X136395335Y-137373220D01*
X136420483Y-137382218D01*
X136444628Y-137393638D01*
X136467538Y-137407369D01*
X136488992Y-137423280D01*
X136508782Y-137441218D01*
X136526720Y-137461008D01*
X136542631Y-137482462D01*
X136556362Y-137505372D01*
X136567782Y-137529517D01*
X136576780Y-137554665D01*
X136583270Y-137580575D01*
X136587189Y-137606995D01*
X136588500Y-137633673D01*
X136588500Y-138591327D01*
X136587189Y-138618005D01*
X136583270Y-138644425D01*
X136576780Y-138670335D01*
X136567782Y-138695483D01*
X136556362Y-138719628D01*
X136542631Y-138742538D01*
X136526720Y-138763992D01*
X136508782Y-138783782D01*
X136488992Y-138801720D01*
X136467538Y-138817631D01*
X136444628Y-138831362D01*
X136420483Y-138842782D01*
X136395335Y-138851780D01*
X136369425Y-138858270D01*
X136343005Y-138862189D01*
X136316327Y-138863500D01*
X135608673Y-138863500D01*
X135581995Y-138862189D01*
X135555575Y-138858270D01*
X135529665Y-138851780D01*
X135504517Y-138842782D01*
X135480372Y-138831362D01*
X135457462Y-138817631D01*
X135436008Y-138801720D01*
X135416218Y-138783782D01*
X135398280Y-138763992D01*
X135382369Y-138742538D01*
X135368638Y-138719628D01*
X135357218Y-138695483D01*
X135348220Y-138670335D01*
X135341730Y-138644425D01*
X135337811Y-138618005D01*
X135336500Y-138591327D01*
X135336500Y-137633673D01*
X135337811Y-137606995D01*
X135341730Y-137580575D01*
X135348220Y-137554665D01*
X135357218Y-137529517D01*
X135368638Y-137505372D01*
X135382369Y-137482462D01*
X135398280Y-137461008D01*
X135416218Y-137441218D01*
X135436008Y-137423280D01*
X135457462Y-137407369D01*
X135480372Y-137393638D01*
X135504517Y-137382218D01*
X135529665Y-137373220D01*
X135555575Y-137366730D01*
X135581995Y-137362811D01*
X135608673Y-137361500D01*
X136316327Y-137361500D01*
X136343005Y-137362811D01*
G37*
G36*
X134293005Y-137362811D02*
G01*
X134319425Y-137366730D01*
X134345335Y-137373220D01*
X134370483Y-137382218D01*
X134394628Y-137393638D01*
X134417538Y-137407369D01*
X134438992Y-137423280D01*
X134458782Y-137441218D01*
X134476720Y-137461008D01*
X134492631Y-137482462D01*
X134506362Y-137505372D01*
X134517782Y-137529517D01*
X134526780Y-137554665D01*
X134533270Y-137580575D01*
X134537189Y-137606995D01*
X134538500Y-137633673D01*
X134538500Y-138591327D01*
X134537189Y-138618005D01*
X134533270Y-138644425D01*
X134526780Y-138670335D01*
X134517782Y-138695483D01*
X134506362Y-138719628D01*
X134492631Y-138742538D01*
X134476720Y-138763992D01*
X134458782Y-138783782D01*
X134438992Y-138801720D01*
X134417538Y-138817631D01*
X134394628Y-138831362D01*
X134370483Y-138842782D01*
X134345335Y-138851780D01*
X134319425Y-138858270D01*
X134293005Y-138862189D01*
X134266327Y-138863500D01*
X133558673Y-138863500D01*
X133531995Y-138862189D01*
X133505575Y-138858270D01*
X133479665Y-138851780D01*
X133454517Y-138842782D01*
X133430372Y-138831362D01*
X133407462Y-138817631D01*
X133386008Y-138801720D01*
X133366218Y-138783782D01*
X133348280Y-138763992D01*
X133332369Y-138742538D01*
X133318638Y-138719628D01*
X133307218Y-138695483D01*
X133298220Y-138670335D01*
X133291730Y-138644425D01*
X133287811Y-138618005D01*
X133286500Y-138591327D01*
X133286500Y-137633673D01*
X133287811Y-137606995D01*
X133291730Y-137580575D01*
X133298220Y-137554665D01*
X133307218Y-137529517D01*
X133318638Y-137505372D01*
X133332369Y-137482462D01*
X133348280Y-137461008D01*
X133366218Y-137441218D01*
X133386008Y-137423280D01*
X133407462Y-137407369D01*
X133430372Y-137393638D01*
X133454517Y-137382218D01*
X133479665Y-137373220D01*
X133505575Y-137366730D01*
X133531995Y-137362811D01*
X133558673Y-137361500D01*
X134266327Y-137361500D01*
X134293005Y-137362811D01*
G37*
G36*
X117293005Y-137362811D02*
G01*
X117319425Y-137366730D01*
X117345335Y-137373220D01*
X117370483Y-137382218D01*
X117394628Y-137393638D01*
X117417538Y-137407369D01*
X117438992Y-137423280D01*
X117458782Y-137441218D01*
X117476720Y-137461008D01*
X117492631Y-137482462D01*
X117506362Y-137505372D01*
X117517782Y-137529517D01*
X117526780Y-137554665D01*
X117533270Y-137580575D01*
X117537189Y-137606995D01*
X117538500Y-137633673D01*
X117538500Y-138591327D01*
X117537189Y-138618005D01*
X117533270Y-138644425D01*
X117526780Y-138670335D01*
X117517782Y-138695483D01*
X117506362Y-138719628D01*
X117492631Y-138742538D01*
X117476720Y-138763992D01*
X117458782Y-138783782D01*
X117438992Y-138801720D01*
X117417538Y-138817631D01*
X117394628Y-138831362D01*
X117370483Y-138842782D01*
X117345335Y-138851780D01*
X117319425Y-138858270D01*
X117293005Y-138862189D01*
X117266327Y-138863500D01*
X116558673Y-138863500D01*
X116531995Y-138862189D01*
X116505575Y-138858270D01*
X116479665Y-138851780D01*
X116454517Y-138842782D01*
X116430372Y-138831362D01*
X116407462Y-138817631D01*
X116386008Y-138801720D01*
X116366218Y-138783782D01*
X116348280Y-138763992D01*
X116332369Y-138742538D01*
X116318638Y-138719628D01*
X116307218Y-138695483D01*
X116298220Y-138670335D01*
X116291730Y-138644425D01*
X116287811Y-138618005D01*
X116286500Y-138591327D01*
X116286500Y-137633673D01*
X116287811Y-137606995D01*
X116291730Y-137580575D01*
X116298220Y-137554665D01*
X116307218Y-137529517D01*
X116318638Y-137505372D01*
X116332369Y-137482462D01*
X116348280Y-137461008D01*
X116366218Y-137441218D01*
X116386008Y-137423280D01*
X116407462Y-137407369D01*
X116430372Y-137393638D01*
X116454517Y-137382218D01*
X116479665Y-137373220D01*
X116505575Y-137366730D01*
X116531995Y-137362811D01*
X116558673Y-137361500D01*
X117266327Y-137361500D01*
X117293005Y-137362811D01*
G37*
G36*
X115243005Y-137362811D02*
G01*
X115269425Y-137366730D01*
X115295335Y-137373220D01*
X115320483Y-137382218D01*
X115344628Y-137393638D01*
X115367538Y-137407369D01*
X115388992Y-137423280D01*
X115408782Y-137441218D01*
X115426720Y-137461008D01*
X115442631Y-137482462D01*
X115456362Y-137505372D01*
X115467782Y-137529517D01*
X115476780Y-137554665D01*
X115483270Y-137580575D01*
X115487189Y-137606995D01*
X115488500Y-137633673D01*
X115488500Y-138591327D01*
X115487189Y-138618005D01*
X115483270Y-138644425D01*
X115476780Y-138670335D01*
X115467782Y-138695483D01*
X115456362Y-138719628D01*
X115442631Y-138742538D01*
X115426720Y-138763992D01*
X115408782Y-138783782D01*
X115388992Y-138801720D01*
X115367538Y-138817631D01*
X115344628Y-138831362D01*
X115320483Y-138842782D01*
X115295335Y-138851780D01*
X115269425Y-138858270D01*
X115243005Y-138862189D01*
X115216327Y-138863500D01*
X114508673Y-138863500D01*
X114481995Y-138862189D01*
X114455575Y-138858270D01*
X114429665Y-138851780D01*
X114404517Y-138842782D01*
X114380372Y-138831362D01*
X114357462Y-138817631D01*
X114336008Y-138801720D01*
X114316218Y-138783782D01*
X114298280Y-138763992D01*
X114282369Y-138742538D01*
X114268638Y-138719628D01*
X114257218Y-138695483D01*
X114248220Y-138670335D01*
X114241730Y-138644425D01*
X114237811Y-138618005D01*
X114236500Y-138591327D01*
X114236500Y-137633673D01*
X114237811Y-137606995D01*
X114241730Y-137580575D01*
X114248220Y-137554665D01*
X114257218Y-137529517D01*
X114268638Y-137505372D01*
X114282369Y-137482462D01*
X114298280Y-137461008D01*
X114316218Y-137441218D01*
X114336008Y-137423280D01*
X114357462Y-137407369D01*
X114380372Y-137393638D01*
X114404517Y-137382218D01*
X114429665Y-137373220D01*
X114455575Y-137366730D01*
X114481995Y-137362811D01*
X114508673Y-137361500D01*
X115216327Y-137361500D01*
X115243005Y-137362811D01*
G37*
G36*
X98243005Y-137362811D02*
G01*
X98269425Y-137366730D01*
X98295335Y-137373220D01*
X98320483Y-137382218D01*
X98344628Y-137393638D01*
X98367538Y-137407369D01*
X98388992Y-137423280D01*
X98408782Y-137441218D01*
X98426720Y-137461008D01*
X98442631Y-137482462D01*
X98456362Y-137505372D01*
X98467782Y-137529517D01*
X98476780Y-137554665D01*
X98483270Y-137580575D01*
X98487189Y-137606995D01*
X98488500Y-137633673D01*
X98488500Y-138591327D01*
X98487189Y-138618005D01*
X98483270Y-138644425D01*
X98476780Y-138670335D01*
X98467782Y-138695483D01*
X98456362Y-138719628D01*
X98442631Y-138742538D01*
X98426720Y-138763992D01*
X98408782Y-138783782D01*
X98388992Y-138801720D01*
X98367538Y-138817631D01*
X98344628Y-138831362D01*
X98320483Y-138842782D01*
X98295335Y-138851780D01*
X98269425Y-138858270D01*
X98243005Y-138862189D01*
X98216327Y-138863500D01*
X97508673Y-138863500D01*
X97481995Y-138862189D01*
X97455575Y-138858270D01*
X97429665Y-138851780D01*
X97404517Y-138842782D01*
X97380372Y-138831362D01*
X97357462Y-138817631D01*
X97336008Y-138801720D01*
X97316218Y-138783782D01*
X97298280Y-138763992D01*
X97282369Y-138742538D01*
X97268638Y-138719628D01*
X97257218Y-138695483D01*
X97248220Y-138670335D01*
X97241730Y-138644425D01*
X97237811Y-138618005D01*
X97236500Y-138591327D01*
X97236500Y-137633673D01*
X97237811Y-137606995D01*
X97241730Y-137580575D01*
X97248220Y-137554665D01*
X97257218Y-137529517D01*
X97268638Y-137505372D01*
X97282369Y-137482462D01*
X97298280Y-137461008D01*
X97316218Y-137441218D01*
X97336008Y-137423280D01*
X97357462Y-137407369D01*
X97380372Y-137393638D01*
X97404517Y-137382218D01*
X97429665Y-137373220D01*
X97455575Y-137366730D01*
X97481995Y-137362811D01*
X97508673Y-137361500D01*
X98216327Y-137361500D01*
X98243005Y-137362811D01*
G37*
G36*
X96193005Y-137362811D02*
G01*
X96219425Y-137366730D01*
X96245335Y-137373220D01*
X96270483Y-137382218D01*
X96294628Y-137393638D01*
X96317538Y-137407369D01*
X96338992Y-137423280D01*
X96358782Y-137441218D01*
X96376720Y-137461008D01*
X96392631Y-137482462D01*
X96406362Y-137505372D01*
X96417782Y-137529517D01*
X96426780Y-137554665D01*
X96433270Y-137580575D01*
X96437189Y-137606995D01*
X96438500Y-137633673D01*
X96438500Y-138591327D01*
X96437189Y-138618005D01*
X96433270Y-138644425D01*
X96426780Y-138670335D01*
X96417782Y-138695483D01*
X96406362Y-138719628D01*
X96392631Y-138742538D01*
X96376720Y-138763992D01*
X96358782Y-138783782D01*
X96338992Y-138801720D01*
X96317538Y-138817631D01*
X96294628Y-138831362D01*
X96270483Y-138842782D01*
X96245335Y-138851780D01*
X96219425Y-138858270D01*
X96193005Y-138862189D01*
X96166327Y-138863500D01*
X95458673Y-138863500D01*
X95431995Y-138862189D01*
X95405575Y-138858270D01*
X95379665Y-138851780D01*
X95354517Y-138842782D01*
X95330372Y-138831362D01*
X95307462Y-138817631D01*
X95286008Y-138801720D01*
X95266218Y-138783782D01*
X95248280Y-138763992D01*
X95232369Y-138742538D01*
X95218638Y-138719628D01*
X95207218Y-138695483D01*
X95198220Y-138670335D01*
X95191730Y-138644425D01*
X95187811Y-138618005D01*
X95186500Y-138591327D01*
X95186500Y-137633673D01*
X95187811Y-137606995D01*
X95191730Y-137580575D01*
X95198220Y-137554665D01*
X95207218Y-137529517D01*
X95218638Y-137505372D01*
X95232369Y-137482462D01*
X95248280Y-137461008D01*
X95266218Y-137441218D01*
X95286008Y-137423280D01*
X95307462Y-137407369D01*
X95330372Y-137393638D01*
X95354517Y-137382218D01*
X95379665Y-137373220D01*
X95405575Y-137366730D01*
X95431995Y-137362811D01*
X95458673Y-137361500D01*
X96166327Y-137361500D01*
X96193005Y-137362811D01*
G37*
G36*
X74430505Y-137362811D02*
G01*
X74456925Y-137366730D01*
X74482835Y-137373220D01*
X74507983Y-137382218D01*
X74532128Y-137393638D01*
X74555038Y-137407369D01*
X74576492Y-137423280D01*
X74596282Y-137441218D01*
X74614220Y-137461008D01*
X74630131Y-137482462D01*
X74643862Y-137505372D01*
X74655282Y-137529517D01*
X74664280Y-137554665D01*
X74670770Y-137580575D01*
X74674689Y-137606995D01*
X74676000Y-137633673D01*
X74676000Y-138591327D01*
X74674689Y-138618005D01*
X74670770Y-138644425D01*
X74664280Y-138670335D01*
X74655282Y-138695483D01*
X74643862Y-138719628D01*
X74630131Y-138742538D01*
X74614220Y-138763992D01*
X74596282Y-138783782D01*
X74576492Y-138801720D01*
X74555038Y-138817631D01*
X74532128Y-138831362D01*
X74507983Y-138842782D01*
X74482835Y-138851780D01*
X74456925Y-138858270D01*
X74430505Y-138862189D01*
X74403827Y-138863500D01*
X73696173Y-138863500D01*
X73669495Y-138862189D01*
X73643075Y-138858270D01*
X73617165Y-138851780D01*
X73592017Y-138842782D01*
X73567872Y-138831362D01*
X73544962Y-138817631D01*
X73523508Y-138801720D01*
X73503718Y-138783782D01*
X73485780Y-138763992D01*
X73469869Y-138742538D01*
X73456138Y-138719628D01*
X73444718Y-138695483D01*
X73435720Y-138670335D01*
X73429230Y-138644425D01*
X73425311Y-138618005D01*
X73424000Y-138591327D01*
X73424000Y-137633673D01*
X73425311Y-137606995D01*
X73429230Y-137580575D01*
X73435720Y-137554665D01*
X73444718Y-137529517D01*
X73456138Y-137505372D01*
X73469869Y-137482462D01*
X73485780Y-137461008D01*
X73503718Y-137441218D01*
X73523508Y-137423280D01*
X73544962Y-137407369D01*
X73567872Y-137393638D01*
X73592017Y-137382218D01*
X73617165Y-137373220D01*
X73643075Y-137366730D01*
X73669495Y-137362811D01*
X73696173Y-137361500D01*
X74403827Y-137361500D01*
X74430505Y-137362811D01*
G37*
G36*
X72380505Y-137362811D02*
G01*
X72406925Y-137366730D01*
X72432835Y-137373220D01*
X72457983Y-137382218D01*
X72482128Y-137393638D01*
X72505038Y-137407369D01*
X72526492Y-137423280D01*
X72546282Y-137441218D01*
X72564220Y-137461008D01*
X72580131Y-137482462D01*
X72593862Y-137505372D01*
X72605282Y-137529517D01*
X72614280Y-137554665D01*
X72620770Y-137580575D01*
X72624689Y-137606995D01*
X72626000Y-137633673D01*
X72626000Y-138591327D01*
X72624689Y-138618005D01*
X72620770Y-138644425D01*
X72614280Y-138670335D01*
X72605282Y-138695483D01*
X72593862Y-138719628D01*
X72580131Y-138742538D01*
X72564220Y-138763992D01*
X72546282Y-138783782D01*
X72526492Y-138801720D01*
X72505038Y-138817631D01*
X72482128Y-138831362D01*
X72457983Y-138842782D01*
X72432835Y-138851780D01*
X72406925Y-138858270D01*
X72380505Y-138862189D01*
X72353827Y-138863500D01*
X71646173Y-138863500D01*
X71619495Y-138862189D01*
X71593075Y-138858270D01*
X71567165Y-138851780D01*
X71542017Y-138842782D01*
X71517872Y-138831362D01*
X71494962Y-138817631D01*
X71473508Y-138801720D01*
X71453718Y-138783782D01*
X71435780Y-138763992D01*
X71419869Y-138742538D01*
X71406138Y-138719628D01*
X71394718Y-138695483D01*
X71385720Y-138670335D01*
X71379230Y-138644425D01*
X71375311Y-138618005D01*
X71374000Y-138591327D01*
X71374000Y-137633673D01*
X71375311Y-137606995D01*
X71379230Y-137580575D01*
X71385720Y-137554665D01*
X71394718Y-137529517D01*
X71406138Y-137505372D01*
X71419869Y-137482462D01*
X71435780Y-137461008D01*
X71453718Y-137441218D01*
X71473508Y-137423280D01*
X71494962Y-137407369D01*
X71517872Y-137393638D01*
X71542017Y-137382218D01*
X71567165Y-137373220D01*
X71593075Y-137366730D01*
X71619495Y-137362811D01*
X71646173Y-137361500D01*
X72353827Y-137361500D01*
X72380505Y-137362811D01*
G37*
G36*
X55380505Y-137362811D02*
G01*
X55406925Y-137366730D01*
X55432835Y-137373220D01*
X55457983Y-137382218D01*
X55482128Y-137393638D01*
X55505038Y-137407369D01*
X55526492Y-137423280D01*
X55546282Y-137441218D01*
X55564220Y-137461008D01*
X55580131Y-137482462D01*
X55593862Y-137505372D01*
X55605282Y-137529517D01*
X55614280Y-137554665D01*
X55620770Y-137580575D01*
X55624689Y-137606995D01*
X55626000Y-137633673D01*
X55626000Y-138591327D01*
X55624689Y-138618005D01*
X55620770Y-138644425D01*
X55614280Y-138670335D01*
X55605282Y-138695483D01*
X55593862Y-138719628D01*
X55580131Y-138742538D01*
X55564220Y-138763992D01*
X55546282Y-138783782D01*
X55526492Y-138801720D01*
X55505038Y-138817631D01*
X55482128Y-138831362D01*
X55457983Y-138842782D01*
X55432835Y-138851780D01*
X55406925Y-138858270D01*
X55380505Y-138862189D01*
X55353827Y-138863500D01*
X54646173Y-138863500D01*
X54619495Y-138862189D01*
X54593075Y-138858270D01*
X54567165Y-138851780D01*
X54542017Y-138842782D01*
X54517872Y-138831362D01*
X54494962Y-138817631D01*
X54473508Y-138801720D01*
X54453718Y-138783782D01*
X54435780Y-138763992D01*
X54419869Y-138742538D01*
X54406138Y-138719628D01*
X54394718Y-138695483D01*
X54385720Y-138670335D01*
X54379230Y-138644425D01*
X54375311Y-138618005D01*
X54374000Y-138591327D01*
X54374000Y-137633673D01*
X54375311Y-137606995D01*
X54379230Y-137580575D01*
X54385720Y-137554665D01*
X54394718Y-137529517D01*
X54406138Y-137505372D01*
X54419869Y-137482462D01*
X54435780Y-137461008D01*
X54453718Y-137441218D01*
X54473508Y-137423280D01*
X54494962Y-137407369D01*
X54517872Y-137393638D01*
X54542017Y-137382218D01*
X54567165Y-137373220D01*
X54593075Y-137366730D01*
X54619495Y-137362811D01*
X54646173Y-137361500D01*
X55353827Y-137361500D01*
X55380505Y-137362811D01*
G37*
G36*
X53330505Y-137362811D02*
G01*
X53356925Y-137366730D01*
X53382835Y-137373220D01*
X53407983Y-137382218D01*
X53432128Y-137393638D01*
X53455038Y-137407369D01*
X53476492Y-137423280D01*
X53496282Y-137441218D01*
X53514220Y-137461008D01*
X53530131Y-137482462D01*
X53543862Y-137505372D01*
X53555282Y-137529517D01*
X53564280Y-137554665D01*
X53570770Y-137580575D01*
X53574689Y-137606995D01*
X53576000Y-137633673D01*
X53576000Y-138591327D01*
X53574689Y-138618005D01*
X53570770Y-138644425D01*
X53564280Y-138670335D01*
X53555282Y-138695483D01*
X53543862Y-138719628D01*
X53530131Y-138742538D01*
X53514220Y-138763992D01*
X53496282Y-138783782D01*
X53476492Y-138801720D01*
X53455038Y-138817631D01*
X53432128Y-138831362D01*
X53407983Y-138842782D01*
X53382835Y-138851780D01*
X53356925Y-138858270D01*
X53330505Y-138862189D01*
X53303827Y-138863500D01*
X52596173Y-138863500D01*
X52569495Y-138862189D01*
X52543075Y-138858270D01*
X52517165Y-138851780D01*
X52492017Y-138842782D01*
X52467872Y-138831362D01*
X52444962Y-138817631D01*
X52423508Y-138801720D01*
X52403718Y-138783782D01*
X52385780Y-138763992D01*
X52369869Y-138742538D01*
X52356138Y-138719628D01*
X52344718Y-138695483D01*
X52335720Y-138670335D01*
X52329230Y-138644425D01*
X52325311Y-138618005D01*
X52324000Y-138591327D01*
X52324000Y-137633673D01*
X52325311Y-137606995D01*
X52329230Y-137580575D01*
X52335720Y-137554665D01*
X52344718Y-137529517D01*
X52356138Y-137505372D01*
X52369869Y-137482462D01*
X52385780Y-137461008D01*
X52403718Y-137441218D01*
X52423508Y-137423280D01*
X52444962Y-137407369D01*
X52467872Y-137393638D01*
X52492017Y-137382218D01*
X52517165Y-137373220D01*
X52543075Y-137366730D01*
X52569495Y-137362811D01*
X52596173Y-137361500D01*
X53303827Y-137361500D01*
X53330505Y-137362811D01*
G37*
G36*
X136343005Y-118312811D02*
G01*
X136369425Y-118316730D01*
X136395335Y-118323220D01*
X136420483Y-118332218D01*
X136444628Y-118343638D01*
X136467538Y-118357369D01*
X136488992Y-118373280D01*
X136508782Y-118391218D01*
X136526720Y-118411008D01*
X136542631Y-118432462D01*
X136556362Y-118455372D01*
X136567782Y-118479517D01*
X136576780Y-118504665D01*
X136583270Y-118530575D01*
X136587189Y-118556995D01*
X136588500Y-118583673D01*
X136588500Y-119541327D01*
X136587189Y-119568005D01*
X136583270Y-119594425D01*
X136576780Y-119620335D01*
X136567782Y-119645483D01*
X136556362Y-119669628D01*
X136542631Y-119692538D01*
X136526720Y-119713992D01*
X136508782Y-119733782D01*
X136488992Y-119751720D01*
X136467538Y-119767631D01*
X136444628Y-119781362D01*
X136420483Y-119792782D01*
X136395335Y-119801780D01*
X136369425Y-119808270D01*
X136343005Y-119812189D01*
X136316327Y-119813500D01*
X135608673Y-119813500D01*
X135581995Y-119812189D01*
X135555575Y-119808270D01*
X135529665Y-119801780D01*
X135504517Y-119792782D01*
X135480372Y-119781362D01*
X135457462Y-119767631D01*
X135436008Y-119751720D01*
X135416218Y-119733782D01*
X135398280Y-119713992D01*
X135382369Y-119692538D01*
X135368638Y-119669628D01*
X135357218Y-119645483D01*
X135348220Y-119620335D01*
X135341730Y-119594425D01*
X135337811Y-119568005D01*
X135336500Y-119541327D01*
X135336500Y-118583673D01*
X135337811Y-118556995D01*
X135341730Y-118530575D01*
X135348220Y-118504665D01*
X135357218Y-118479517D01*
X135368638Y-118455372D01*
X135382369Y-118432462D01*
X135398280Y-118411008D01*
X135416218Y-118391218D01*
X135436008Y-118373280D01*
X135457462Y-118357369D01*
X135480372Y-118343638D01*
X135504517Y-118332218D01*
X135529665Y-118323220D01*
X135555575Y-118316730D01*
X135581995Y-118312811D01*
X135608673Y-118311500D01*
X136316327Y-118311500D01*
X136343005Y-118312811D01*
G37*
G36*
X134293005Y-118312811D02*
G01*
X134319425Y-118316730D01*
X134345335Y-118323220D01*
X134370483Y-118332218D01*
X134394628Y-118343638D01*
X134417538Y-118357369D01*
X134438992Y-118373280D01*
X134458782Y-118391218D01*
X134476720Y-118411008D01*
X134492631Y-118432462D01*
X134506362Y-118455372D01*
X134517782Y-118479517D01*
X134526780Y-118504665D01*
X134533270Y-118530575D01*
X134537189Y-118556995D01*
X134538500Y-118583673D01*
X134538500Y-119541327D01*
X134537189Y-119568005D01*
X134533270Y-119594425D01*
X134526780Y-119620335D01*
X134517782Y-119645483D01*
X134506362Y-119669628D01*
X134492631Y-119692538D01*
X134476720Y-119713992D01*
X134458782Y-119733782D01*
X134438992Y-119751720D01*
X134417538Y-119767631D01*
X134394628Y-119781362D01*
X134370483Y-119792782D01*
X134345335Y-119801780D01*
X134319425Y-119808270D01*
X134293005Y-119812189D01*
X134266327Y-119813500D01*
X133558673Y-119813500D01*
X133531995Y-119812189D01*
X133505575Y-119808270D01*
X133479665Y-119801780D01*
X133454517Y-119792782D01*
X133430372Y-119781362D01*
X133407462Y-119767631D01*
X133386008Y-119751720D01*
X133366218Y-119733782D01*
X133348280Y-119713992D01*
X133332369Y-119692538D01*
X133318638Y-119669628D01*
X133307218Y-119645483D01*
X133298220Y-119620335D01*
X133291730Y-119594425D01*
X133287811Y-119568005D01*
X133286500Y-119541327D01*
X133286500Y-118583673D01*
X133287811Y-118556995D01*
X133291730Y-118530575D01*
X133298220Y-118504665D01*
X133307218Y-118479517D01*
X133318638Y-118455372D01*
X133332369Y-118432462D01*
X133348280Y-118411008D01*
X133366218Y-118391218D01*
X133386008Y-118373280D01*
X133407462Y-118357369D01*
X133430372Y-118343638D01*
X133454517Y-118332218D01*
X133479665Y-118323220D01*
X133505575Y-118316730D01*
X133531995Y-118312811D01*
X133558673Y-118311500D01*
X134266327Y-118311500D01*
X134293005Y-118312811D01*
G37*
G36*
X117293005Y-118312811D02*
G01*
X117319425Y-118316730D01*
X117345335Y-118323220D01*
X117370483Y-118332218D01*
X117394628Y-118343638D01*
X117417538Y-118357369D01*
X117438992Y-118373280D01*
X117458782Y-118391218D01*
X117476720Y-118411008D01*
X117492631Y-118432462D01*
X117506362Y-118455372D01*
X117517782Y-118479517D01*
X117526780Y-118504665D01*
X117533270Y-118530575D01*
X117537189Y-118556995D01*
X117538500Y-118583673D01*
X117538500Y-119541327D01*
X117537189Y-119568005D01*
X117533270Y-119594425D01*
X117526780Y-119620335D01*
X117517782Y-119645483D01*
X117506362Y-119669628D01*
X117492631Y-119692538D01*
X117476720Y-119713992D01*
X117458782Y-119733782D01*
X117438992Y-119751720D01*
X117417538Y-119767631D01*
X117394628Y-119781362D01*
X117370483Y-119792782D01*
X117345335Y-119801780D01*
X117319425Y-119808270D01*
X117293005Y-119812189D01*
X117266327Y-119813500D01*
X116558673Y-119813500D01*
X116531995Y-119812189D01*
X116505575Y-119808270D01*
X116479665Y-119801780D01*
X116454517Y-119792782D01*
X116430372Y-119781362D01*
X116407462Y-119767631D01*
X116386008Y-119751720D01*
X116366218Y-119733782D01*
X116348280Y-119713992D01*
X116332369Y-119692538D01*
X116318638Y-119669628D01*
X116307218Y-119645483D01*
X116298220Y-119620335D01*
X116291730Y-119594425D01*
X116287811Y-119568005D01*
X116286500Y-119541327D01*
X116286500Y-118583673D01*
X116287811Y-118556995D01*
X116291730Y-118530575D01*
X116298220Y-118504665D01*
X116307218Y-118479517D01*
X116318638Y-118455372D01*
X116332369Y-118432462D01*
X116348280Y-118411008D01*
X116366218Y-118391218D01*
X116386008Y-118373280D01*
X116407462Y-118357369D01*
X116430372Y-118343638D01*
X116454517Y-118332218D01*
X116479665Y-118323220D01*
X116505575Y-118316730D01*
X116531995Y-118312811D01*
X116558673Y-118311500D01*
X117266327Y-118311500D01*
X117293005Y-118312811D01*
G37*
G36*
X115243005Y-118312811D02*
G01*
X115269425Y-118316730D01*
X115295335Y-118323220D01*
X115320483Y-118332218D01*
X115344628Y-118343638D01*
X115367538Y-118357369D01*
X115388992Y-118373280D01*
X115408782Y-118391218D01*
X115426720Y-118411008D01*
X115442631Y-118432462D01*
X115456362Y-118455372D01*
X115467782Y-118479517D01*
X115476780Y-118504665D01*
X115483270Y-118530575D01*
X115487189Y-118556995D01*
X115488500Y-118583673D01*
X115488500Y-119541327D01*
X115487189Y-119568005D01*
X115483270Y-119594425D01*
X115476780Y-119620335D01*
X115467782Y-119645483D01*
X115456362Y-119669628D01*
X115442631Y-119692538D01*
X115426720Y-119713992D01*
X115408782Y-119733782D01*
X115388992Y-119751720D01*
X115367538Y-119767631D01*
X115344628Y-119781362D01*
X115320483Y-119792782D01*
X115295335Y-119801780D01*
X115269425Y-119808270D01*
X115243005Y-119812189D01*
X115216327Y-119813500D01*
X114508673Y-119813500D01*
X114481995Y-119812189D01*
X114455575Y-119808270D01*
X114429665Y-119801780D01*
X114404517Y-119792782D01*
X114380372Y-119781362D01*
X114357462Y-119767631D01*
X114336008Y-119751720D01*
X114316218Y-119733782D01*
X114298280Y-119713992D01*
X114282369Y-119692538D01*
X114268638Y-119669628D01*
X114257218Y-119645483D01*
X114248220Y-119620335D01*
X114241730Y-119594425D01*
X114237811Y-119568005D01*
X114236500Y-119541327D01*
X114236500Y-118583673D01*
X114237811Y-118556995D01*
X114241730Y-118530575D01*
X114248220Y-118504665D01*
X114257218Y-118479517D01*
X114268638Y-118455372D01*
X114282369Y-118432462D01*
X114298280Y-118411008D01*
X114316218Y-118391218D01*
X114336008Y-118373280D01*
X114357462Y-118357369D01*
X114380372Y-118343638D01*
X114404517Y-118332218D01*
X114429665Y-118323220D01*
X114455575Y-118316730D01*
X114481995Y-118312811D01*
X114508673Y-118311500D01*
X115216327Y-118311500D01*
X115243005Y-118312811D01*
G37*
G36*
X98243005Y-118312811D02*
G01*
X98269425Y-118316730D01*
X98295335Y-118323220D01*
X98320483Y-118332218D01*
X98344628Y-118343638D01*
X98367538Y-118357369D01*
X98388992Y-118373280D01*
X98408782Y-118391218D01*
X98426720Y-118411008D01*
X98442631Y-118432462D01*
X98456362Y-118455372D01*
X98467782Y-118479517D01*
X98476780Y-118504665D01*
X98483270Y-118530575D01*
X98487189Y-118556995D01*
X98488500Y-118583673D01*
X98488500Y-119541327D01*
X98487189Y-119568005D01*
X98483270Y-119594425D01*
X98476780Y-119620335D01*
X98467782Y-119645483D01*
X98456362Y-119669628D01*
X98442631Y-119692538D01*
X98426720Y-119713992D01*
X98408782Y-119733782D01*
X98388992Y-119751720D01*
X98367538Y-119767631D01*
X98344628Y-119781362D01*
X98320483Y-119792782D01*
X98295335Y-119801780D01*
X98269425Y-119808270D01*
X98243005Y-119812189D01*
X98216327Y-119813500D01*
X97508673Y-119813500D01*
X97481995Y-119812189D01*
X97455575Y-119808270D01*
X97429665Y-119801780D01*
X97404517Y-119792782D01*
X97380372Y-119781362D01*
X97357462Y-119767631D01*
X97336008Y-119751720D01*
X97316218Y-119733782D01*
X97298280Y-119713992D01*
X97282369Y-119692538D01*
X97268638Y-119669628D01*
X97257218Y-119645483D01*
X97248220Y-119620335D01*
X97241730Y-119594425D01*
X97237811Y-119568005D01*
X97236500Y-119541327D01*
X97236500Y-118583673D01*
X97237811Y-118556995D01*
X97241730Y-118530575D01*
X97248220Y-118504665D01*
X97257218Y-118479517D01*
X97268638Y-118455372D01*
X97282369Y-118432462D01*
X97298280Y-118411008D01*
X97316218Y-118391218D01*
X97336008Y-118373280D01*
X97357462Y-118357369D01*
X97380372Y-118343638D01*
X97404517Y-118332218D01*
X97429665Y-118323220D01*
X97455575Y-118316730D01*
X97481995Y-118312811D01*
X97508673Y-118311500D01*
X98216327Y-118311500D01*
X98243005Y-118312811D01*
G37*
G36*
X96193005Y-118312811D02*
G01*
X96219425Y-118316730D01*
X96245335Y-118323220D01*
X96270483Y-118332218D01*
X96294628Y-118343638D01*
X96317538Y-118357369D01*
X96338992Y-118373280D01*
X96358782Y-118391218D01*
X96376720Y-118411008D01*
X96392631Y-118432462D01*
X96406362Y-118455372D01*
X96417782Y-118479517D01*
X96426780Y-118504665D01*
X96433270Y-118530575D01*
X96437189Y-118556995D01*
X96438500Y-118583673D01*
X96438500Y-119541327D01*
X96437189Y-119568005D01*
X96433270Y-119594425D01*
X96426780Y-119620335D01*
X96417782Y-119645483D01*
X96406362Y-119669628D01*
X96392631Y-119692538D01*
X96376720Y-119713992D01*
X96358782Y-119733782D01*
X96338992Y-119751720D01*
X96317538Y-119767631D01*
X96294628Y-119781362D01*
X96270483Y-119792782D01*
X96245335Y-119801780D01*
X96219425Y-119808270D01*
X96193005Y-119812189D01*
X96166327Y-119813500D01*
X95458673Y-119813500D01*
X95431995Y-119812189D01*
X95405575Y-119808270D01*
X95379665Y-119801780D01*
X95354517Y-119792782D01*
X95330372Y-119781362D01*
X95307462Y-119767631D01*
X95286008Y-119751720D01*
X95266218Y-119733782D01*
X95248280Y-119713992D01*
X95232369Y-119692538D01*
X95218638Y-119669628D01*
X95207218Y-119645483D01*
X95198220Y-119620335D01*
X95191730Y-119594425D01*
X95187811Y-119568005D01*
X95186500Y-119541327D01*
X95186500Y-118583673D01*
X95187811Y-118556995D01*
X95191730Y-118530575D01*
X95198220Y-118504665D01*
X95207218Y-118479517D01*
X95218638Y-118455372D01*
X95232369Y-118432462D01*
X95248280Y-118411008D01*
X95266218Y-118391218D01*
X95286008Y-118373280D01*
X95307462Y-118357369D01*
X95330372Y-118343638D01*
X95354517Y-118332218D01*
X95379665Y-118323220D01*
X95405575Y-118316730D01*
X95431995Y-118312811D01*
X95458673Y-118311500D01*
X96166327Y-118311500D01*
X96193005Y-118312811D01*
G37*
G36*
X74430505Y-118312811D02*
G01*
X74456925Y-118316730D01*
X74482835Y-118323220D01*
X74507983Y-118332218D01*
X74532128Y-118343638D01*
X74555038Y-118357369D01*
X74576492Y-118373280D01*
X74596282Y-118391218D01*
X74614220Y-118411008D01*
X74630131Y-118432462D01*
X74643862Y-118455372D01*
X74655282Y-118479517D01*
X74664280Y-118504665D01*
X74670770Y-118530575D01*
X74674689Y-118556995D01*
X74676000Y-118583673D01*
X74676000Y-119541327D01*
X74674689Y-119568005D01*
X74670770Y-119594425D01*
X74664280Y-119620335D01*
X74655282Y-119645483D01*
X74643862Y-119669628D01*
X74630131Y-119692538D01*
X74614220Y-119713992D01*
X74596282Y-119733782D01*
X74576492Y-119751720D01*
X74555038Y-119767631D01*
X74532128Y-119781362D01*
X74507983Y-119792782D01*
X74482835Y-119801780D01*
X74456925Y-119808270D01*
X74430505Y-119812189D01*
X74403827Y-119813500D01*
X73696173Y-119813500D01*
X73669495Y-119812189D01*
X73643075Y-119808270D01*
X73617165Y-119801780D01*
X73592017Y-119792782D01*
X73567872Y-119781362D01*
X73544962Y-119767631D01*
X73523508Y-119751720D01*
X73503718Y-119733782D01*
X73485780Y-119713992D01*
X73469869Y-119692538D01*
X73456138Y-119669628D01*
X73444718Y-119645483D01*
X73435720Y-119620335D01*
X73429230Y-119594425D01*
X73425311Y-119568005D01*
X73424000Y-119541327D01*
X73424000Y-118583673D01*
X73425311Y-118556995D01*
X73429230Y-118530575D01*
X73435720Y-118504665D01*
X73444718Y-118479517D01*
X73456138Y-118455372D01*
X73469869Y-118432462D01*
X73485780Y-118411008D01*
X73503718Y-118391218D01*
X73523508Y-118373280D01*
X73544962Y-118357369D01*
X73567872Y-118343638D01*
X73592017Y-118332218D01*
X73617165Y-118323220D01*
X73643075Y-118316730D01*
X73669495Y-118312811D01*
X73696173Y-118311500D01*
X74403827Y-118311500D01*
X74430505Y-118312811D01*
G37*
G36*
X72380505Y-118312811D02*
G01*
X72406925Y-118316730D01*
X72432835Y-118323220D01*
X72457983Y-118332218D01*
X72482128Y-118343638D01*
X72505038Y-118357369D01*
X72526492Y-118373280D01*
X72546282Y-118391218D01*
X72564220Y-118411008D01*
X72580131Y-118432462D01*
X72593862Y-118455372D01*
X72605282Y-118479517D01*
X72614280Y-118504665D01*
X72620770Y-118530575D01*
X72624689Y-118556995D01*
X72626000Y-118583673D01*
X72626000Y-119541327D01*
X72624689Y-119568005D01*
X72620770Y-119594425D01*
X72614280Y-119620335D01*
X72605282Y-119645483D01*
X72593862Y-119669628D01*
X72580131Y-119692538D01*
X72564220Y-119713992D01*
X72546282Y-119733782D01*
X72526492Y-119751720D01*
X72505038Y-119767631D01*
X72482128Y-119781362D01*
X72457983Y-119792782D01*
X72432835Y-119801780D01*
X72406925Y-119808270D01*
X72380505Y-119812189D01*
X72353827Y-119813500D01*
X71646173Y-119813500D01*
X71619495Y-119812189D01*
X71593075Y-119808270D01*
X71567165Y-119801780D01*
X71542017Y-119792782D01*
X71517872Y-119781362D01*
X71494962Y-119767631D01*
X71473508Y-119751720D01*
X71453718Y-119733782D01*
X71435780Y-119713992D01*
X71419869Y-119692538D01*
X71406138Y-119669628D01*
X71394718Y-119645483D01*
X71385720Y-119620335D01*
X71379230Y-119594425D01*
X71375311Y-119568005D01*
X71374000Y-119541327D01*
X71374000Y-118583673D01*
X71375311Y-118556995D01*
X71379230Y-118530575D01*
X71385720Y-118504665D01*
X71394718Y-118479517D01*
X71406138Y-118455372D01*
X71419869Y-118432462D01*
X71435780Y-118411008D01*
X71453718Y-118391218D01*
X71473508Y-118373280D01*
X71494962Y-118357369D01*
X71517872Y-118343638D01*
X71542017Y-118332218D01*
X71567165Y-118323220D01*
X71593075Y-118316730D01*
X71619495Y-118312811D01*
X71646173Y-118311500D01*
X72353827Y-118311500D01*
X72380505Y-118312811D01*
G37*
G36*
X55380505Y-118312811D02*
G01*
X55406925Y-118316730D01*
X55432835Y-118323220D01*
X55457983Y-118332218D01*
X55482128Y-118343638D01*
X55505038Y-118357369D01*
X55526492Y-118373280D01*
X55546282Y-118391218D01*
X55564220Y-118411008D01*
X55580131Y-118432462D01*
X55593862Y-118455372D01*
X55605282Y-118479517D01*
X55614280Y-118504665D01*
X55620770Y-118530575D01*
X55624689Y-118556995D01*
X55626000Y-118583673D01*
X55626000Y-119541327D01*
X55624689Y-119568005D01*
X55620770Y-119594425D01*
X55614280Y-119620335D01*
X55605282Y-119645483D01*
X55593862Y-119669628D01*
X55580131Y-119692538D01*
X55564220Y-119713992D01*
X55546282Y-119733782D01*
X55526492Y-119751720D01*
X55505038Y-119767631D01*
X55482128Y-119781362D01*
X55457983Y-119792782D01*
X55432835Y-119801780D01*
X55406925Y-119808270D01*
X55380505Y-119812189D01*
X55353827Y-119813500D01*
X54646173Y-119813500D01*
X54619495Y-119812189D01*
X54593075Y-119808270D01*
X54567165Y-119801780D01*
X54542017Y-119792782D01*
X54517872Y-119781362D01*
X54494962Y-119767631D01*
X54473508Y-119751720D01*
X54453718Y-119733782D01*
X54435780Y-119713992D01*
X54419869Y-119692538D01*
X54406138Y-119669628D01*
X54394718Y-119645483D01*
X54385720Y-119620335D01*
X54379230Y-119594425D01*
X54375311Y-119568005D01*
X54374000Y-119541327D01*
X54374000Y-118583673D01*
X54375311Y-118556995D01*
X54379230Y-118530575D01*
X54385720Y-118504665D01*
X54394718Y-118479517D01*
X54406138Y-118455372D01*
X54419869Y-118432462D01*
X54435780Y-118411008D01*
X54453718Y-118391218D01*
X54473508Y-118373280D01*
X54494962Y-118357369D01*
X54517872Y-118343638D01*
X54542017Y-118332218D01*
X54567165Y-118323220D01*
X54593075Y-118316730D01*
X54619495Y-118312811D01*
X54646173Y-118311500D01*
X55353827Y-118311500D01*
X55380505Y-118312811D01*
G37*
G36*
X53330505Y-118312811D02*
G01*
X53356925Y-118316730D01*
X53382835Y-118323220D01*
X53407983Y-118332218D01*
X53432128Y-118343638D01*
X53455038Y-118357369D01*
X53476492Y-118373280D01*
X53496282Y-118391218D01*
X53514220Y-118411008D01*
X53530131Y-118432462D01*
X53543862Y-118455372D01*
X53555282Y-118479517D01*
X53564280Y-118504665D01*
X53570770Y-118530575D01*
X53574689Y-118556995D01*
X53576000Y-118583673D01*
X53576000Y-119541327D01*
X53574689Y-119568005D01*
X53570770Y-119594425D01*
X53564280Y-119620335D01*
X53555282Y-119645483D01*
X53543862Y-119669628D01*
X53530131Y-119692538D01*
X53514220Y-119713992D01*
X53496282Y-119733782D01*
X53476492Y-119751720D01*
X53455038Y-119767631D01*
X53432128Y-119781362D01*
X53407983Y-119792782D01*
X53382835Y-119801780D01*
X53356925Y-119808270D01*
X53330505Y-119812189D01*
X53303827Y-119813500D01*
X52596173Y-119813500D01*
X52569495Y-119812189D01*
X52543075Y-119808270D01*
X52517165Y-119801780D01*
X52492017Y-119792782D01*
X52467872Y-119781362D01*
X52444962Y-119767631D01*
X52423508Y-119751720D01*
X52403718Y-119733782D01*
X52385780Y-119713992D01*
X52369869Y-119692538D01*
X52356138Y-119669628D01*
X52344718Y-119645483D01*
X52335720Y-119620335D01*
X52329230Y-119594425D01*
X52325311Y-119568005D01*
X52324000Y-119541327D01*
X52324000Y-118583673D01*
X52325311Y-118556995D01*
X52329230Y-118530575D01*
X52335720Y-118504665D01*
X52344718Y-118479517D01*
X52356138Y-118455372D01*
X52369869Y-118432462D01*
X52385780Y-118411008D01*
X52403718Y-118391218D01*
X52423508Y-118373280D01*
X52444962Y-118357369D01*
X52467872Y-118343638D01*
X52492017Y-118332218D01*
X52517165Y-118323220D01*
X52543075Y-118316730D01*
X52569495Y-118312811D01*
X52596173Y-118311500D01*
X53303827Y-118311500D01*
X53330505Y-118312811D01*
G37*
G36*
X155393005Y-108787811D02*
G01*
X155419425Y-108791730D01*
X155445335Y-108798220D01*
X155470483Y-108807218D01*
X155494628Y-108818638D01*
X155517538Y-108832369D01*
X155538992Y-108848280D01*
X155558782Y-108866218D01*
X155576720Y-108886008D01*
X155592631Y-108907462D01*
X155606362Y-108930372D01*
X155617782Y-108954517D01*
X155626780Y-108979665D01*
X155633270Y-109005575D01*
X155637189Y-109031995D01*
X155638500Y-109058673D01*
X155638500Y-110016327D01*
X155637189Y-110043005D01*
X155633270Y-110069425D01*
X155626780Y-110095335D01*
X155617782Y-110120483D01*
X155606362Y-110144628D01*
X155592631Y-110167538D01*
X155576720Y-110188992D01*
X155558782Y-110208782D01*
X155538992Y-110226720D01*
X155517538Y-110242631D01*
X155494628Y-110256362D01*
X155470483Y-110267782D01*
X155445335Y-110276780D01*
X155419425Y-110283270D01*
X155393005Y-110287189D01*
X155366327Y-110288500D01*
X154658673Y-110288500D01*
X154631995Y-110287189D01*
X154605575Y-110283270D01*
X154579665Y-110276780D01*
X154554517Y-110267782D01*
X154530372Y-110256362D01*
X154507462Y-110242631D01*
X154486008Y-110226720D01*
X154466218Y-110208782D01*
X154448280Y-110188992D01*
X154432369Y-110167538D01*
X154418638Y-110144628D01*
X154407218Y-110120483D01*
X154398220Y-110095335D01*
X154391730Y-110069425D01*
X154387811Y-110043005D01*
X154386500Y-110016327D01*
X154386500Y-109058673D01*
X154387811Y-109031995D01*
X154391730Y-109005575D01*
X154398220Y-108979665D01*
X154407218Y-108954517D01*
X154418638Y-108930372D01*
X154432369Y-108907462D01*
X154448280Y-108886008D01*
X154466218Y-108866218D01*
X154486008Y-108848280D01*
X154507462Y-108832369D01*
X154530372Y-108818638D01*
X154554517Y-108807218D01*
X154579665Y-108798220D01*
X154605575Y-108791730D01*
X154631995Y-108787811D01*
X154658673Y-108786500D01*
X155366327Y-108786500D01*
X155393005Y-108787811D01*
G37*
G36*
X153343005Y-108787811D02*
G01*
X153369425Y-108791730D01*
X153395335Y-108798220D01*
X153420483Y-108807218D01*
X153444628Y-108818638D01*
X153467538Y-108832369D01*
X153488992Y-108848280D01*
X153508782Y-108866218D01*
X153526720Y-108886008D01*
X153542631Y-108907462D01*
X153556362Y-108930372D01*
X153567782Y-108954517D01*
X153576780Y-108979665D01*
X153583270Y-109005575D01*
X153587189Y-109031995D01*
X153588500Y-109058673D01*
X153588500Y-110016327D01*
X153587189Y-110043005D01*
X153583270Y-110069425D01*
X153576780Y-110095335D01*
X153567782Y-110120483D01*
X153556362Y-110144628D01*
X153542631Y-110167538D01*
X153526720Y-110188992D01*
X153508782Y-110208782D01*
X153488992Y-110226720D01*
X153467538Y-110242631D01*
X153444628Y-110256362D01*
X153420483Y-110267782D01*
X153395335Y-110276780D01*
X153369425Y-110283270D01*
X153343005Y-110287189D01*
X153316327Y-110288500D01*
X152608673Y-110288500D01*
X152581995Y-110287189D01*
X152555575Y-110283270D01*
X152529665Y-110276780D01*
X152504517Y-110267782D01*
X152480372Y-110256362D01*
X152457462Y-110242631D01*
X152436008Y-110226720D01*
X152416218Y-110208782D01*
X152398280Y-110188992D01*
X152382369Y-110167538D01*
X152368638Y-110144628D01*
X152357218Y-110120483D01*
X152348220Y-110095335D01*
X152341730Y-110069425D01*
X152337811Y-110043005D01*
X152336500Y-110016327D01*
X152336500Y-109058673D01*
X152337811Y-109031995D01*
X152341730Y-109005575D01*
X152348220Y-108979665D01*
X152357218Y-108954517D01*
X152368638Y-108930372D01*
X152382369Y-108907462D01*
X152398280Y-108886008D01*
X152416218Y-108866218D01*
X152436008Y-108848280D01*
X152457462Y-108832369D01*
X152480372Y-108818638D01*
X152504517Y-108807218D01*
X152529665Y-108798220D01*
X152555575Y-108791730D01*
X152581995Y-108787811D01*
X152608673Y-108786500D01*
X153316327Y-108786500D01*
X153343005Y-108787811D01*
G37*
G36*
X136343005Y-99262811D02*
G01*
X136369425Y-99266730D01*
X136395335Y-99273220D01*
X136420483Y-99282218D01*
X136444628Y-99293638D01*
X136467538Y-99307369D01*
X136488992Y-99323280D01*
X136508782Y-99341218D01*
X136526720Y-99361008D01*
X136542631Y-99382462D01*
X136556362Y-99405372D01*
X136567782Y-99429517D01*
X136576780Y-99454665D01*
X136583270Y-99480575D01*
X136587189Y-99506995D01*
X136588500Y-99533673D01*
X136588500Y-100491327D01*
X136587189Y-100518005D01*
X136583270Y-100544425D01*
X136576780Y-100570335D01*
X136567782Y-100595483D01*
X136556362Y-100619628D01*
X136542631Y-100642538D01*
X136526720Y-100663992D01*
X136508782Y-100683782D01*
X136488992Y-100701720D01*
X136467538Y-100717631D01*
X136444628Y-100731362D01*
X136420483Y-100742782D01*
X136395335Y-100751780D01*
X136369425Y-100758270D01*
X136343005Y-100762189D01*
X136316327Y-100763500D01*
X135608673Y-100763500D01*
X135581995Y-100762189D01*
X135555575Y-100758270D01*
X135529665Y-100751780D01*
X135504517Y-100742782D01*
X135480372Y-100731362D01*
X135457462Y-100717631D01*
X135436008Y-100701720D01*
X135416218Y-100683782D01*
X135398280Y-100663992D01*
X135382369Y-100642538D01*
X135368638Y-100619628D01*
X135357218Y-100595483D01*
X135348220Y-100570335D01*
X135341730Y-100544425D01*
X135337811Y-100518005D01*
X135336500Y-100491327D01*
X135336500Y-99533673D01*
X135337811Y-99506995D01*
X135341730Y-99480575D01*
X135348220Y-99454665D01*
X135357218Y-99429517D01*
X135368638Y-99405372D01*
X135382369Y-99382462D01*
X135398280Y-99361008D01*
X135416218Y-99341218D01*
X135436008Y-99323280D01*
X135457462Y-99307369D01*
X135480372Y-99293638D01*
X135504517Y-99282218D01*
X135529665Y-99273220D01*
X135555575Y-99266730D01*
X135581995Y-99262811D01*
X135608673Y-99261500D01*
X136316327Y-99261500D01*
X136343005Y-99262811D01*
G37*
G36*
X134293005Y-99262811D02*
G01*
X134319425Y-99266730D01*
X134345335Y-99273220D01*
X134370483Y-99282218D01*
X134394628Y-99293638D01*
X134417538Y-99307369D01*
X134438992Y-99323280D01*
X134458782Y-99341218D01*
X134476720Y-99361008D01*
X134492631Y-99382462D01*
X134506362Y-99405372D01*
X134517782Y-99429517D01*
X134526780Y-99454665D01*
X134533270Y-99480575D01*
X134537189Y-99506995D01*
X134538500Y-99533673D01*
X134538500Y-100491327D01*
X134537189Y-100518005D01*
X134533270Y-100544425D01*
X134526780Y-100570335D01*
X134517782Y-100595483D01*
X134506362Y-100619628D01*
X134492631Y-100642538D01*
X134476720Y-100663992D01*
X134458782Y-100683782D01*
X134438992Y-100701720D01*
X134417538Y-100717631D01*
X134394628Y-100731362D01*
X134370483Y-100742782D01*
X134345335Y-100751780D01*
X134319425Y-100758270D01*
X134293005Y-100762189D01*
X134266327Y-100763500D01*
X133558673Y-100763500D01*
X133531995Y-100762189D01*
X133505575Y-100758270D01*
X133479665Y-100751780D01*
X133454517Y-100742782D01*
X133430372Y-100731362D01*
X133407462Y-100717631D01*
X133386008Y-100701720D01*
X133366218Y-100683782D01*
X133348280Y-100663992D01*
X133332369Y-100642538D01*
X133318638Y-100619628D01*
X133307218Y-100595483D01*
X133298220Y-100570335D01*
X133291730Y-100544425D01*
X133287811Y-100518005D01*
X133286500Y-100491327D01*
X133286500Y-99533673D01*
X133287811Y-99506995D01*
X133291730Y-99480575D01*
X133298220Y-99454665D01*
X133307218Y-99429517D01*
X133318638Y-99405372D01*
X133332369Y-99382462D01*
X133348280Y-99361008D01*
X133366218Y-99341218D01*
X133386008Y-99323280D01*
X133407462Y-99307369D01*
X133430372Y-99293638D01*
X133454517Y-99282218D01*
X133479665Y-99273220D01*
X133505575Y-99266730D01*
X133531995Y-99262811D01*
X133558673Y-99261500D01*
X134266327Y-99261500D01*
X134293005Y-99262811D01*
G37*
G36*
X117293005Y-99262811D02*
G01*
X117319425Y-99266730D01*
X117345335Y-99273220D01*
X117370483Y-99282218D01*
X117394628Y-99293638D01*
X117417538Y-99307369D01*
X117438992Y-99323280D01*
X117458782Y-99341218D01*
X117476720Y-99361008D01*
X117492631Y-99382462D01*
X117506362Y-99405372D01*
X117517782Y-99429517D01*
X117526780Y-99454665D01*
X117533270Y-99480575D01*
X117537189Y-99506995D01*
X117538500Y-99533673D01*
X117538500Y-100491327D01*
X117537189Y-100518005D01*
X117533270Y-100544425D01*
X117526780Y-100570335D01*
X117517782Y-100595483D01*
X117506362Y-100619628D01*
X117492631Y-100642538D01*
X117476720Y-100663992D01*
X117458782Y-100683782D01*
X117438992Y-100701720D01*
X117417538Y-100717631D01*
X117394628Y-100731362D01*
X117370483Y-100742782D01*
X117345335Y-100751780D01*
X117319425Y-100758270D01*
X117293005Y-100762189D01*
X117266327Y-100763500D01*
X116558673Y-100763500D01*
X116531995Y-100762189D01*
X116505575Y-100758270D01*
X116479665Y-100751780D01*
X116454517Y-100742782D01*
X116430372Y-100731362D01*
X116407462Y-100717631D01*
X116386008Y-100701720D01*
X116366218Y-100683782D01*
X116348280Y-100663992D01*
X116332369Y-100642538D01*
X116318638Y-100619628D01*
X116307218Y-100595483D01*
X116298220Y-100570335D01*
X116291730Y-100544425D01*
X116287811Y-100518005D01*
X116286500Y-100491327D01*
X116286500Y-99533673D01*
X116287811Y-99506995D01*
X116291730Y-99480575D01*
X116298220Y-99454665D01*
X116307218Y-99429517D01*
X116318638Y-99405372D01*
X116332369Y-99382462D01*
X116348280Y-99361008D01*
X116366218Y-99341218D01*
X116386008Y-99323280D01*
X116407462Y-99307369D01*
X116430372Y-99293638D01*
X116454517Y-99282218D01*
X116479665Y-99273220D01*
X116505575Y-99266730D01*
X116531995Y-99262811D01*
X116558673Y-99261500D01*
X117266327Y-99261500D01*
X117293005Y-99262811D01*
G37*
G36*
X115243005Y-99262811D02*
G01*
X115269425Y-99266730D01*
X115295335Y-99273220D01*
X115320483Y-99282218D01*
X115344628Y-99293638D01*
X115367538Y-99307369D01*
X115388992Y-99323280D01*
X115408782Y-99341218D01*
X115426720Y-99361008D01*
X115442631Y-99382462D01*
X115456362Y-99405372D01*
X115467782Y-99429517D01*
X115476780Y-99454665D01*
X115483270Y-99480575D01*
X115487189Y-99506995D01*
X115488500Y-99533673D01*
X115488500Y-100491327D01*
X115487189Y-100518005D01*
X115483270Y-100544425D01*
X115476780Y-100570335D01*
X115467782Y-100595483D01*
X115456362Y-100619628D01*
X115442631Y-100642538D01*
X115426720Y-100663992D01*
X115408782Y-100683782D01*
X115388992Y-100701720D01*
X115367538Y-100717631D01*
X115344628Y-100731362D01*
X115320483Y-100742782D01*
X115295335Y-100751780D01*
X115269425Y-100758270D01*
X115243005Y-100762189D01*
X115216327Y-100763500D01*
X114508673Y-100763500D01*
X114481995Y-100762189D01*
X114455575Y-100758270D01*
X114429665Y-100751780D01*
X114404517Y-100742782D01*
X114380372Y-100731362D01*
X114357462Y-100717631D01*
X114336008Y-100701720D01*
X114316218Y-100683782D01*
X114298280Y-100663992D01*
X114282369Y-100642538D01*
X114268638Y-100619628D01*
X114257218Y-100595483D01*
X114248220Y-100570335D01*
X114241730Y-100544425D01*
X114237811Y-100518005D01*
X114236500Y-100491327D01*
X114236500Y-99533673D01*
X114237811Y-99506995D01*
X114241730Y-99480575D01*
X114248220Y-99454665D01*
X114257218Y-99429517D01*
X114268638Y-99405372D01*
X114282369Y-99382462D01*
X114298280Y-99361008D01*
X114316218Y-99341218D01*
X114336008Y-99323280D01*
X114357462Y-99307369D01*
X114380372Y-99293638D01*
X114404517Y-99282218D01*
X114429665Y-99273220D01*
X114455575Y-99266730D01*
X114481995Y-99262811D01*
X114508673Y-99261500D01*
X115216327Y-99261500D01*
X115243005Y-99262811D01*
G37*
G36*
X98243005Y-99262811D02*
G01*
X98269425Y-99266730D01*
X98295335Y-99273220D01*
X98320483Y-99282218D01*
X98344628Y-99293638D01*
X98367538Y-99307369D01*
X98388992Y-99323280D01*
X98408782Y-99341218D01*
X98426720Y-99361008D01*
X98442631Y-99382462D01*
X98456362Y-99405372D01*
X98467782Y-99429517D01*
X98476780Y-99454665D01*
X98483270Y-99480575D01*
X98487189Y-99506995D01*
X98488500Y-99533673D01*
X98488500Y-100491327D01*
X98487189Y-100518005D01*
X98483270Y-100544425D01*
X98476780Y-100570335D01*
X98467782Y-100595483D01*
X98456362Y-100619628D01*
X98442631Y-100642538D01*
X98426720Y-100663992D01*
X98408782Y-100683782D01*
X98388992Y-100701720D01*
X98367538Y-100717631D01*
X98344628Y-100731362D01*
X98320483Y-100742782D01*
X98295335Y-100751780D01*
X98269425Y-100758270D01*
X98243005Y-100762189D01*
X98216327Y-100763500D01*
X97508673Y-100763500D01*
X97481995Y-100762189D01*
X97455575Y-100758270D01*
X97429665Y-100751780D01*
X97404517Y-100742782D01*
X97380372Y-100731362D01*
X97357462Y-100717631D01*
X97336008Y-100701720D01*
X97316218Y-100683782D01*
X97298280Y-100663992D01*
X97282369Y-100642538D01*
X97268638Y-100619628D01*
X97257218Y-100595483D01*
X97248220Y-100570335D01*
X97241730Y-100544425D01*
X97237811Y-100518005D01*
X97236500Y-100491327D01*
X97236500Y-99533673D01*
X97237811Y-99506995D01*
X97241730Y-99480575D01*
X97248220Y-99454665D01*
X97257218Y-99429517D01*
X97268638Y-99405372D01*
X97282369Y-99382462D01*
X97298280Y-99361008D01*
X97316218Y-99341218D01*
X97336008Y-99323280D01*
X97357462Y-99307369D01*
X97380372Y-99293638D01*
X97404517Y-99282218D01*
X97429665Y-99273220D01*
X97455575Y-99266730D01*
X97481995Y-99262811D01*
X97508673Y-99261500D01*
X98216327Y-99261500D01*
X98243005Y-99262811D01*
G37*
G36*
X96193005Y-99262811D02*
G01*
X96219425Y-99266730D01*
X96245335Y-99273220D01*
X96270483Y-99282218D01*
X96294628Y-99293638D01*
X96317538Y-99307369D01*
X96338992Y-99323280D01*
X96358782Y-99341218D01*
X96376720Y-99361008D01*
X96392631Y-99382462D01*
X96406362Y-99405372D01*
X96417782Y-99429517D01*
X96426780Y-99454665D01*
X96433270Y-99480575D01*
X96437189Y-99506995D01*
X96438500Y-99533673D01*
X96438500Y-100491327D01*
X96437189Y-100518005D01*
X96433270Y-100544425D01*
X96426780Y-100570335D01*
X96417782Y-100595483D01*
X96406362Y-100619628D01*
X96392631Y-100642538D01*
X96376720Y-100663992D01*
X96358782Y-100683782D01*
X96338992Y-100701720D01*
X96317538Y-100717631D01*
X96294628Y-100731362D01*
X96270483Y-100742782D01*
X96245335Y-100751780D01*
X96219425Y-100758270D01*
X96193005Y-100762189D01*
X96166327Y-100763500D01*
X95458673Y-100763500D01*
X95431995Y-100762189D01*
X95405575Y-100758270D01*
X95379665Y-100751780D01*
X95354517Y-100742782D01*
X95330372Y-100731362D01*
X95307462Y-100717631D01*
X95286008Y-100701720D01*
X95266218Y-100683782D01*
X95248280Y-100663992D01*
X95232369Y-100642538D01*
X95218638Y-100619628D01*
X95207218Y-100595483D01*
X95198220Y-100570335D01*
X95191730Y-100544425D01*
X95187811Y-100518005D01*
X95186500Y-100491327D01*
X95186500Y-99533673D01*
X95187811Y-99506995D01*
X95191730Y-99480575D01*
X95198220Y-99454665D01*
X95207218Y-99429517D01*
X95218638Y-99405372D01*
X95232369Y-99382462D01*
X95248280Y-99361008D01*
X95266218Y-99341218D01*
X95286008Y-99323280D01*
X95307462Y-99307369D01*
X95330372Y-99293638D01*
X95354517Y-99282218D01*
X95379665Y-99273220D01*
X95405575Y-99266730D01*
X95431995Y-99262811D01*
X95458673Y-99261500D01*
X96166327Y-99261500D01*
X96193005Y-99262811D01*
G37*
G36*
X74430505Y-99262811D02*
G01*
X74456925Y-99266730D01*
X74482835Y-99273220D01*
X74507983Y-99282218D01*
X74532128Y-99293638D01*
X74555038Y-99307369D01*
X74576492Y-99323280D01*
X74596282Y-99341218D01*
X74614220Y-99361008D01*
X74630131Y-99382462D01*
X74643862Y-99405372D01*
X74655282Y-99429517D01*
X74664280Y-99454665D01*
X74670770Y-99480575D01*
X74674689Y-99506995D01*
X74676000Y-99533673D01*
X74676000Y-100491327D01*
X74674689Y-100518005D01*
X74670770Y-100544425D01*
X74664280Y-100570335D01*
X74655282Y-100595483D01*
X74643862Y-100619628D01*
X74630131Y-100642538D01*
X74614220Y-100663992D01*
X74596282Y-100683782D01*
X74576492Y-100701720D01*
X74555038Y-100717631D01*
X74532128Y-100731362D01*
X74507983Y-100742782D01*
X74482835Y-100751780D01*
X74456925Y-100758270D01*
X74430505Y-100762189D01*
X74403827Y-100763500D01*
X73696173Y-100763500D01*
X73669495Y-100762189D01*
X73643075Y-100758270D01*
X73617165Y-100751780D01*
X73592017Y-100742782D01*
X73567872Y-100731362D01*
X73544962Y-100717631D01*
X73523508Y-100701720D01*
X73503718Y-100683782D01*
X73485780Y-100663992D01*
X73469869Y-100642538D01*
X73456138Y-100619628D01*
X73444718Y-100595483D01*
X73435720Y-100570335D01*
X73429230Y-100544425D01*
X73425311Y-100518005D01*
X73424000Y-100491327D01*
X73424000Y-99533673D01*
X73425311Y-99506995D01*
X73429230Y-99480575D01*
X73435720Y-99454665D01*
X73444718Y-99429517D01*
X73456138Y-99405372D01*
X73469869Y-99382462D01*
X73485780Y-99361008D01*
X73503718Y-99341218D01*
X73523508Y-99323280D01*
X73544962Y-99307369D01*
X73567872Y-99293638D01*
X73592017Y-99282218D01*
X73617165Y-99273220D01*
X73643075Y-99266730D01*
X73669495Y-99262811D01*
X73696173Y-99261500D01*
X74403827Y-99261500D01*
X74430505Y-99262811D01*
G37*
G36*
X72380505Y-99262811D02*
G01*
X72406925Y-99266730D01*
X72432835Y-99273220D01*
X72457983Y-99282218D01*
X72482128Y-99293638D01*
X72505038Y-99307369D01*
X72526492Y-99323280D01*
X72546282Y-99341218D01*
X72564220Y-99361008D01*
X72580131Y-99382462D01*
X72593862Y-99405372D01*
X72605282Y-99429517D01*
X72614280Y-99454665D01*
X72620770Y-99480575D01*
X72624689Y-99506995D01*
X72626000Y-99533673D01*
X72626000Y-100491327D01*
X72624689Y-100518005D01*
X72620770Y-100544425D01*
X72614280Y-100570335D01*
X72605282Y-100595483D01*
X72593862Y-100619628D01*
X72580131Y-100642538D01*
X72564220Y-100663992D01*
X72546282Y-100683782D01*
X72526492Y-100701720D01*
X72505038Y-100717631D01*
X72482128Y-100731362D01*
X72457983Y-100742782D01*
X72432835Y-100751780D01*
X72406925Y-100758270D01*
X72380505Y-100762189D01*
X72353827Y-100763500D01*
X71646173Y-100763500D01*
X71619495Y-100762189D01*
X71593075Y-100758270D01*
X71567165Y-100751780D01*
X71542017Y-100742782D01*
X71517872Y-100731362D01*
X71494962Y-100717631D01*
X71473508Y-100701720D01*
X71453718Y-100683782D01*
X71435780Y-100663992D01*
X71419869Y-100642538D01*
X71406138Y-100619628D01*
X71394718Y-100595483D01*
X71385720Y-100570335D01*
X71379230Y-100544425D01*
X71375311Y-100518005D01*
X71374000Y-100491327D01*
X71374000Y-99533673D01*
X71375311Y-99506995D01*
X71379230Y-99480575D01*
X71385720Y-99454665D01*
X71394718Y-99429517D01*
X71406138Y-99405372D01*
X71419869Y-99382462D01*
X71435780Y-99361008D01*
X71453718Y-99341218D01*
X71473508Y-99323280D01*
X71494962Y-99307369D01*
X71517872Y-99293638D01*
X71542017Y-99282218D01*
X71567165Y-99273220D01*
X71593075Y-99266730D01*
X71619495Y-99262811D01*
X71646173Y-99261500D01*
X72353827Y-99261500D01*
X72380505Y-99262811D01*
G37*
G36*
X55380505Y-99262811D02*
G01*
X55406925Y-99266730D01*
X55432835Y-99273220D01*
X55457983Y-99282218D01*
X55482128Y-99293638D01*
X55505038Y-99307369D01*
X55526492Y-99323280D01*
X55546282Y-99341218D01*
X55564220Y-99361008D01*
X55580131Y-99382462D01*
X55593862Y-99405372D01*
X55605282Y-99429517D01*
X55614280Y-99454665D01*
X55620770Y-99480575D01*
X55624689Y-99506995D01*
X55626000Y-99533673D01*
X55626000Y-100491327D01*
X55624689Y-100518005D01*
X55620770Y-100544425D01*
X55614280Y-100570335D01*
X55605282Y-100595483D01*
X55593862Y-100619628D01*
X55580131Y-100642538D01*
X55564220Y-100663992D01*
X55546282Y-100683782D01*
X55526492Y-100701720D01*
X55505038Y-100717631D01*
X55482128Y-100731362D01*
X55457983Y-100742782D01*
X55432835Y-100751780D01*
X55406925Y-100758270D01*
X55380505Y-100762189D01*
X55353827Y-100763500D01*
X54646173Y-100763500D01*
X54619495Y-100762189D01*
X54593075Y-100758270D01*
X54567165Y-100751780D01*
X54542017Y-100742782D01*
X54517872Y-100731362D01*
X54494962Y-100717631D01*
X54473508Y-100701720D01*
X54453718Y-100683782D01*
X54435780Y-100663992D01*
X54419869Y-100642538D01*
X54406138Y-100619628D01*
X54394718Y-100595483D01*
X54385720Y-100570335D01*
X54379230Y-100544425D01*
X54375311Y-100518005D01*
X54374000Y-100491327D01*
X54374000Y-99533673D01*
X54375311Y-99506995D01*
X54379230Y-99480575D01*
X54385720Y-99454665D01*
X54394718Y-99429517D01*
X54406138Y-99405372D01*
X54419869Y-99382462D01*
X54435780Y-99361008D01*
X54453718Y-99341218D01*
X54473508Y-99323280D01*
X54494962Y-99307369D01*
X54517872Y-99293638D01*
X54542017Y-99282218D01*
X54567165Y-99273220D01*
X54593075Y-99266730D01*
X54619495Y-99262811D01*
X54646173Y-99261500D01*
X55353827Y-99261500D01*
X55380505Y-99262811D01*
G37*
G36*
X53330505Y-99262811D02*
G01*
X53356925Y-99266730D01*
X53382835Y-99273220D01*
X53407983Y-99282218D01*
X53432128Y-99293638D01*
X53455038Y-99307369D01*
X53476492Y-99323280D01*
X53496282Y-99341218D01*
X53514220Y-99361008D01*
X53530131Y-99382462D01*
X53543862Y-99405372D01*
X53555282Y-99429517D01*
X53564280Y-99454665D01*
X53570770Y-99480575D01*
X53574689Y-99506995D01*
X53576000Y-99533673D01*
X53576000Y-100491327D01*
X53574689Y-100518005D01*
X53570770Y-100544425D01*
X53564280Y-100570335D01*
X53555282Y-100595483D01*
X53543862Y-100619628D01*
X53530131Y-100642538D01*
X53514220Y-100663992D01*
X53496282Y-100683782D01*
X53476492Y-100701720D01*
X53455038Y-100717631D01*
X53432128Y-100731362D01*
X53407983Y-100742782D01*
X53382835Y-100751780D01*
X53356925Y-100758270D01*
X53330505Y-100762189D01*
X53303827Y-100763500D01*
X52596173Y-100763500D01*
X52569495Y-100762189D01*
X52543075Y-100758270D01*
X52517165Y-100751780D01*
X52492017Y-100742782D01*
X52467872Y-100731362D01*
X52444962Y-100717631D01*
X52423508Y-100701720D01*
X52403718Y-100683782D01*
X52385780Y-100663992D01*
X52369869Y-100642538D01*
X52356138Y-100619628D01*
X52344718Y-100595483D01*
X52335720Y-100570335D01*
X52329230Y-100544425D01*
X52325311Y-100518005D01*
X52324000Y-100491327D01*
X52324000Y-99533673D01*
X52325311Y-99506995D01*
X52329230Y-99480575D01*
X52335720Y-99454665D01*
X52344718Y-99429517D01*
X52356138Y-99405372D01*
X52369869Y-99382462D01*
X52385780Y-99361008D01*
X52403718Y-99341218D01*
X52423508Y-99323280D01*
X52444962Y-99307369D01*
X52467872Y-99293638D01*
X52492017Y-99282218D01*
X52517165Y-99273220D01*
X52543075Y-99266730D01*
X52569495Y-99262811D01*
X52596173Y-99261500D01*
X53303827Y-99261500D01*
X53330505Y-99262811D01*
G37*
G36*
X155393005Y-80212811D02*
G01*
X155419425Y-80216730D01*
X155445335Y-80223220D01*
X155470483Y-80232218D01*
X155494628Y-80243638D01*
X155517538Y-80257369D01*
X155538992Y-80273280D01*
X155558782Y-80291218D01*
X155576720Y-80311008D01*
X155592631Y-80332462D01*
X155606362Y-80355372D01*
X155617782Y-80379517D01*
X155626780Y-80404665D01*
X155633270Y-80430575D01*
X155637189Y-80456995D01*
X155638500Y-80483673D01*
X155638500Y-81441327D01*
X155637189Y-81468005D01*
X155633270Y-81494425D01*
X155626780Y-81520335D01*
X155617782Y-81545483D01*
X155606362Y-81569628D01*
X155592631Y-81592538D01*
X155576720Y-81613992D01*
X155558782Y-81633782D01*
X155538992Y-81651720D01*
X155517538Y-81667631D01*
X155494628Y-81681362D01*
X155470483Y-81692782D01*
X155445335Y-81701780D01*
X155419425Y-81708270D01*
X155393005Y-81712189D01*
X155366327Y-81713500D01*
X154658673Y-81713500D01*
X154631995Y-81712189D01*
X154605575Y-81708270D01*
X154579665Y-81701780D01*
X154554517Y-81692782D01*
X154530372Y-81681362D01*
X154507462Y-81667631D01*
X154486008Y-81651720D01*
X154466218Y-81633782D01*
X154448280Y-81613992D01*
X154432369Y-81592538D01*
X154418638Y-81569628D01*
X154407218Y-81545483D01*
X154398220Y-81520335D01*
X154391730Y-81494425D01*
X154387811Y-81468005D01*
X154386500Y-81441327D01*
X154386500Y-80483673D01*
X154387811Y-80456995D01*
X154391730Y-80430575D01*
X154398220Y-80404665D01*
X154407218Y-80379517D01*
X154418638Y-80355372D01*
X154432369Y-80332462D01*
X154448280Y-80311008D01*
X154466218Y-80291218D01*
X154486008Y-80273280D01*
X154507462Y-80257369D01*
X154530372Y-80243638D01*
X154554517Y-80232218D01*
X154579665Y-80223220D01*
X154605575Y-80216730D01*
X154631995Y-80212811D01*
X154658673Y-80211500D01*
X155366327Y-80211500D01*
X155393005Y-80212811D01*
G37*
G36*
X153343005Y-80212811D02*
G01*
X153369425Y-80216730D01*
X153395335Y-80223220D01*
X153420483Y-80232218D01*
X153444628Y-80243638D01*
X153467538Y-80257369D01*
X153488992Y-80273280D01*
X153508782Y-80291218D01*
X153526720Y-80311008D01*
X153542631Y-80332462D01*
X153556362Y-80355372D01*
X153567782Y-80379517D01*
X153576780Y-80404665D01*
X153583270Y-80430575D01*
X153587189Y-80456995D01*
X153588500Y-80483673D01*
X153588500Y-81441327D01*
X153587189Y-81468005D01*
X153583270Y-81494425D01*
X153576780Y-81520335D01*
X153567782Y-81545483D01*
X153556362Y-81569628D01*
X153542631Y-81592538D01*
X153526720Y-81613992D01*
X153508782Y-81633782D01*
X153488992Y-81651720D01*
X153467538Y-81667631D01*
X153444628Y-81681362D01*
X153420483Y-81692782D01*
X153395335Y-81701780D01*
X153369425Y-81708270D01*
X153343005Y-81712189D01*
X153316327Y-81713500D01*
X152608673Y-81713500D01*
X152581995Y-81712189D01*
X152555575Y-81708270D01*
X152529665Y-81701780D01*
X152504517Y-81692782D01*
X152480372Y-81681362D01*
X152457462Y-81667631D01*
X152436008Y-81651720D01*
X152416218Y-81633782D01*
X152398280Y-81613992D01*
X152382369Y-81592538D01*
X152368638Y-81569628D01*
X152357218Y-81545483D01*
X152348220Y-81520335D01*
X152341730Y-81494425D01*
X152337811Y-81468005D01*
X152336500Y-81441327D01*
X152336500Y-80483673D01*
X152337811Y-80456995D01*
X152341730Y-80430575D01*
X152348220Y-80404665D01*
X152357218Y-80379517D01*
X152368638Y-80355372D01*
X152382369Y-80332462D01*
X152398280Y-80311008D01*
X152416218Y-80291218D01*
X152436008Y-80273280D01*
X152457462Y-80257369D01*
X152480372Y-80243638D01*
X152504517Y-80232218D01*
X152529665Y-80223220D01*
X152555575Y-80216730D01*
X152581995Y-80212811D01*
X152608673Y-80211500D01*
X153316327Y-80211500D01*
X153343005Y-80212811D01*
G37*
G36*
X136343005Y-80212811D02*
G01*
X136369425Y-80216730D01*
X136395335Y-80223220D01*
X136420483Y-80232218D01*
X136444628Y-80243638D01*
X136467538Y-80257369D01*
X136488992Y-80273280D01*
X136508782Y-80291218D01*
X136526720Y-80311008D01*
X136542631Y-80332462D01*
X136556362Y-80355372D01*
X136567782Y-80379517D01*
X136576780Y-80404665D01*
X136583270Y-80430575D01*
X136587189Y-80456995D01*
X136588500Y-80483673D01*
X136588500Y-81441327D01*
X136587189Y-81468005D01*
X136583270Y-81494425D01*
X136576780Y-81520335D01*
X136567782Y-81545483D01*
X136556362Y-81569628D01*
X136542631Y-81592538D01*
X136526720Y-81613992D01*
X136508782Y-81633782D01*
X136488992Y-81651720D01*
X136467538Y-81667631D01*
X136444628Y-81681362D01*
X136420483Y-81692782D01*
X136395335Y-81701780D01*
X136369425Y-81708270D01*
X136343005Y-81712189D01*
X136316327Y-81713500D01*
X135608673Y-81713500D01*
X135581995Y-81712189D01*
X135555575Y-81708270D01*
X135529665Y-81701780D01*
X135504517Y-81692782D01*
X135480372Y-81681362D01*
X135457462Y-81667631D01*
X135436008Y-81651720D01*
X135416218Y-81633782D01*
X135398280Y-81613992D01*
X135382369Y-81592538D01*
X135368638Y-81569628D01*
X135357218Y-81545483D01*
X135348220Y-81520335D01*
X135341730Y-81494425D01*
X135337811Y-81468005D01*
X135336500Y-81441327D01*
X135336500Y-80483673D01*
X135337811Y-80456995D01*
X135341730Y-80430575D01*
X135348220Y-80404665D01*
X135357218Y-80379517D01*
X135368638Y-80355372D01*
X135382369Y-80332462D01*
X135398280Y-80311008D01*
X135416218Y-80291218D01*
X135436008Y-80273280D01*
X135457462Y-80257369D01*
X135480372Y-80243638D01*
X135504517Y-80232218D01*
X135529665Y-80223220D01*
X135555575Y-80216730D01*
X135581995Y-80212811D01*
X135608673Y-80211500D01*
X136316327Y-80211500D01*
X136343005Y-80212811D01*
G37*
G36*
X134293005Y-80212811D02*
G01*
X134319425Y-80216730D01*
X134345335Y-80223220D01*
X134370483Y-80232218D01*
X134394628Y-80243638D01*
X134417538Y-80257369D01*
X134438992Y-80273280D01*
X134458782Y-80291218D01*
X134476720Y-80311008D01*
X134492631Y-80332462D01*
X134506362Y-80355372D01*
X134517782Y-80379517D01*
X134526780Y-80404665D01*
X134533270Y-80430575D01*
X134537189Y-80456995D01*
X134538500Y-80483673D01*
X134538500Y-81441327D01*
X134537189Y-81468005D01*
X134533270Y-81494425D01*
X134526780Y-81520335D01*
X134517782Y-81545483D01*
X134506362Y-81569628D01*
X134492631Y-81592538D01*
X134476720Y-81613992D01*
X134458782Y-81633782D01*
X134438992Y-81651720D01*
X134417538Y-81667631D01*
X134394628Y-81681362D01*
X134370483Y-81692782D01*
X134345335Y-81701780D01*
X134319425Y-81708270D01*
X134293005Y-81712189D01*
X134266327Y-81713500D01*
X133558673Y-81713500D01*
X133531995Y-81712189D01*
X133505575Y-81708270D01*
X133479665Y-81701780D01*
X133454517Y-81692782D01*
X133430372Y-81681362D01*
X133407462Y-81667631D01*
X133386008Y-81651720D01*
X133366218Y-81633782D01*
X133348280Y-81613992D01*
X133332369Y-81592538D01*
X133318638Y-81569628D01*
X133307218Y-81545483D01*
X133298220Y-81520335D01*
X133291730Y-81494425D01*
X133287811Y-81468005D01*
X133286500Y-81441327D01*
X133286500Y-80483673D01*
X133287811Y-80456995D01*
X133291730Y-80430575D01*
X133298220Y-80404665D01*
X133307218Y-80379517D01*
X133318638Y-80355372D01*
X133332369Y-80332462D01*
X133348280Y-80311008D01*
X133366218Y-80291218D01*
X133386008Y-80273280D01*
X133407462Y-80257369D01*
X133430372Y-80243638D01*
X133454517Y-80232218D01*
X133479665Y-80223220D01*
X133505575Y-80216730D01*
X133531995Y-80212811D01*
X133558673Y-80211500D01*
X134266327Y-80211500D01*
X134293005Y-80212811D01*
G37*
G36*
X117293005Y-80212811D02*
G01*
X117319425Y-80216730D01*
X117345335Y-80223220D01*
X117370483Y-80232218D01*
X117394628Y-80243638D01*
X117417538Y-80257369D01*
X117438992Y-80273280D01*
X117458782Y-80291218D01*
X117476720Y-80311008D01*
X117492631Y-80332462D01*
X117506362Y-80355372D01*
X117517782Y-80379517D01*
X117526780Y-80404665D01*
X117533270Y-80430575D01*
X117537189Y-80456995D01*
X117538500Y-80483673D01*
X117538500Y-81441327D01*
X117537189Y-81468005D01*
X117533270Y-81494425D01*
X117526780Y-81520335D01*
X117517782Y-81545483D01*
X117506362Y-81569628D01*
X117492631Y-81592538D01*
X117476720Y-81613992D01*
X117458782Y-81633782D01*
X117438992Y-81651720D01*
X117417538Y-81667631D01*
X117394628Y-81681362D01*
X117370483Y-81692782D01*
X117345335Y-81701780D01*
X117319425Y-81708270D01*
X117293005Y-81712189D01*
X117266327Y-81713500D01*
X116558673Y-81713500D01*
X116531995Y-81712189D01*
X116505575Y-81708270D01*
X116479665Y-81701780D01*
X116454517Y-81692782D01*
X116430372Y-81681362D01*
X116407462Y-81667631D01*
X116386008Y-81651720D01*
X116366218Y-81633782D01*
X116348280Y-81613992D01*
X116332369Y-81592538D01*
X116318638Y-81569628D01*
X116307218Y-81545483D01*
X116298220Y-81520335D01*
X116291730Y-81494425D01*
X116287811Y-81468005D01*
X116286500Y-81441327D01*
X116286500Y-80483673D01*
X116287811Y-80456995D01*
X116291730Y-80430575D01*
X116298220Y-80404665D01*
X116307218Y-80379517D01*
X116318638Y-80355372D01*
X116332369Y-80332462D01*
X116348280Y-80311008D01*
X116366218Y-80291218D01*
X116386008Y-80273280D01*
X116407462Y-80257369D01*
X116430372Y-80243638D01*
X116454517Y-80232218D01*
X116479665Y-80223220D01*
X116505575Y-80216730D01*
X116531995Y-80212811D01*
X116558673Y-80211500D01*
X117266327Y-80211500D01*
X117293005Y-80212811D01*
G37*
G36*
X115243005Y-80212811D02*
G01*
X115269425Y-80216730D01*
X115295335Y-80223220D01*
X115320483Y-80232218D01*
X115344628Y-80243638D01*
X115367538Y-80257369D01*
X115388992Y-80273280D01*
X115408782Y-80291218D01*
X115426720Y-80311008D01*
X115442631Y-80332462D01*
X115456362Y-80355372D01*
X115467782Y-80379517D01*
X115476780Y-80404665D01*
X115483270Y-80430575D01*
X115487189Y-80456995D01*
X115488500Y-80483673D01*
X115488500Y-81441327D01*
X115487189Y-81468005D01*
X115483270Y-81494425D01*
X115476780Y-81520335D01*
X115467782Y-81545483D01*
X115456362Y-81569628D01*
X115442631Y-81592538D01*
X115426720Y-81613992D01*
X115408782Y-81633782D01*
X115388992Y-81651720D01*
X115367538Y-81667631D01*
X115344628Y-81681362D01*
X115320483Y-81692782D01*
X115295335Y-81701780D01*
X115269425Y-81708270D01*
X115243005Y-81712189D01*
X115216327Y-81713500D01*
X114508673Y-81713500D01*
X114481995Y-81712189D01*
X114455575Y-81708270D01*
X114429665Y-81701780D01*
X114404517Y-81692782D01*
X114380372Y-81681362D01*
X114357462Y-81667631D01*
X114336008Y-81651720D01*
X114316218Y-81633782D01*
X114298280Y-81613992D01*
X114282369Y-81592538D01*
X114268638Y-81569628D01*
X114257218Y-81545483D01*
X114248220Y-81520335D01*
X114241730Y-81494425D01*
X114237811Y-81468005D01*
X114236500Y-81441327D01*
X114236500Y-80483673D01*
X114237811Y-80456995D01*
X114241730Y-80430575D01*
X114248220Y-80404665D01*
X114257218Y-80379517D01*
X114268638Y-80355372D01*
X114282369Y-80332462D01*
X114298280Y-80311008D01*
X114316218Y-80291218D01*
X114336008Y-80273280D01*
X114357462Y-80257369D01*
X114380372Y-80243638D01*
X114404517Y-80232218D01*
X114429665Y-80223220D01*
X114455575Y-80216730D01*
X114481995Y-80212811D01*
X114508673Y-80211500D01*
X115216327Y-80211500D01*
X115243005Y-80212811D01*
G37*
G36*
X98243005Y-80212811D02*
G01*
X98269425Y-80216730D01*
X98295335Y-80223220D01*
X98320483Y-80232218D01*
X98344628Y-80243638D01*
X98367538Y-80257369D01*
X98388992Y-80273280D01*
X98408782Y-80291218D01*
X98426720Y-80311008D01*
X98442631Y-80332462D01*
X98456362Y-80355372D01*
X98467782Y-80379517D01*
X98476780Y-80404665D01*
X98483270Y-80430575D01*
X98487189Y-80456995D01*
X98488500Y-80483673D01*
X98488500Y-81441327D01*
X98487189Y-81468005D01*
X98483270Y-81494425D01*
X98476780Y-81520335D01*
X98467782Y-81545483D01*
X98456362Y-81569628D01*
X98442631Y-81592538D01*
X98426720Y-81613992D01*
X98408782Y-81633782D01*
X98388992Y-81651720D01*
X98367538Y-81667631D01*
X98344628Y-81681362D01*
X98320483Y-81692782D01*
X98295335Y-81701780D01*
X98269425Y-81708270D01*
X98243005Y-81712189D01*
X98216327Y-81713500D01*
X97508673Y-81713500D01*
X97481995Y-81712189D01*
X97455575Y-81708270D01*
X97429665Y-81701780D01*
X97404517Y-81692782D01*
X97380372Y-81681362D01*
X97357462Y-81667631D01*
X97336008Y-81651720D01*
X97316218Y-81633782D01*
X97298280Y-81613992D01*
X97282369Y-81592538D01*
X97268638Y-81569628D01*
X97257218Y-81545483D01*
X97248220Y-81520335D01*
X97241730Y-81494425D01*
X97237811Y-81468005D01*
X97236500Y-81441327D01*
X97236500Y-80483673D01*
X97237811Y-80456995D01*
X97241730Y-80430575D01*
X97248220Y-80404665D01*
X97257218Y-80379517D01*
X97268638Y-80355372D01*
X97282369Y-80332462D01*
X97298280Y-80311008D01*
X97316218Y-80291218D01*
X97336008Y-80273280D01*
X97357462Y-80257369D01*
X97380372Y-80243638D01*
X97404517Y-80232218D01*
X97429665Y-80223220D01*
X97455575Y-80216730D01*
X97481995Y-80212811D01*
X97508673Y-80211500D01*
X98216327Y-80211500D01*
X98243005Y-80212811D01*
G37*
G36*
X96193005Y-80212811D02*
G01*
X96219425Y-80216730D01*
X96245335Y-80223220D01*
X96270483Y-80232218D01*
X96294628Y-80243638D01*
X96317538Y-80257369D01*
X96338992Y-80273280D01*
X96358782Y-80291218D01*
X96376720Y-80311008D01*
X96392631Y-80332462D01*
X96406362Y-80355372D01*
X96417782Y-80379517D01*
X96426780Y-80404665D01*
X96433270Y-80430575D01*
X96437189Y-80456995D01*
X96438500Y-80483673D01*
X96438500Y-81441327D01*
X96437189Y-81468005D01*
X96433270Y-81494425D01*
X96426780Y-81520335D01*
X96417782Y-81545483D01*
X96406362Y-81569628D01*
X96392631Y-81592538D01*
X96376720Y-81613992D01*
X96358782Y-81633782D01*
X96338992Y-81651720D01*
X96317538Y-81667631D01*
X96294628Y-81681362D01*
X96270483Y-81692782D01*
X96245335Y-81701780D01*
X96219425Y-81708270D01*
X96193005Y-81712189D01*
X96166327Y-81713500D01*
X95458673Y-81713500D01*
X95431995Y-81712189D01*
X95405575Y-81708270D01*
X95379665Y-81701780D01*
X95354517Y-81692782D01*
X95330372Y-81681362D01*
X95307462Y-81667631D01*
X95286008Y-81651720D01*
X95266218Y-81633782D01*
X95248280Y-81613992D01*
X95232369Y-81592538D01*
X95218638Y-81569628D01*
X95207218Y-81545483D01*
X95198220Y-81520335D01*
X95191730Y-81494425D01*
X95187811Y-81468005D01*
X95186500Y-81441327D01*
X95186500Y-80483673D01*
X95187811Y-80456995D01*
X95191730Y-80430575D01*
X95198220Y-80404665D01*
X95207218Y-80379517D01*
X95218638Y-80355372D01*
X95232369Y-80332462D01*
X95248280Y-80311008D01*
X95266218Y-80291218D01*
X95286008Y-80273280D01*
X95307462Y-80257369D01*
X95330372Y-80243638D01*
X95354517Y-80232218D01*
X95379665Y-80223220D01*
X95405575Y-80216730D01*
X95431995Y-80212811D01*
X95458673Y-80211500D01*
X96166327Y-80211500D01*
X96193005Y-80212811D01*
G37*
G36*
X74430505Y-80212811D02*
G01*
X74456925Y-80216730D01*
X74482835Y-80223220D01*
X74507983Y-80232218D01*
X74532128Y-80243638D01*
X74555038Y-80257369D01*
X74576492Y-80273280D01*
X74596282Y-80291218D01*
X74614220Y-80311008D01*
X74630131Y-80332462D01*
X74643862Y-80355372D01*
X74655282Y-80379517D01*
X74664280Y-80404665D01*
X74670770Y-80430575D01*
X74674689Y-80456995D01*
X74676000Y-80483673D01*
X74676000Y-81441327D01*
X74674689Y-81468005D01*
X74670770Y-81494425D01*
X74664280Y-81520335D01*
X74655282Y-81545483D01*
X74643862Y-81569628D01*
X74630131Y-81592538D01*
X74614220Y-81613992D01*
X74596282Y-81633782D01*
X74576492Y-81651720D01*
X74555038Y-81667631D01*
X74532128Y-81681362D01*
X74507983Y-81692782D01*
X74482835Y-81701780D01*
X74456925Y-81708270D01*
X74430505Y-81712189D01*
X74403827Y-81713500D01*
X73696173Y-81713500D01*
X73669495Y-81712189D01*
X73643075Y-81708270D01*
X73617165Y-81701780D01*
X73592017Y-81692782D01*
X73567872Y-81681362D01*
X73544962Y-81667631D01*
X73523508Y-81651720D01*
X73503718Y-81633782D01*
X73485780Y-81613992D01*
X73469869Y-81592538D01*
X73456138Y-81569628D01*
X73444718Y-81545483D01*
X73435720Y-81520335D01*
X73429230Y-81494425D01*
X73425311Y-81468005D01*
X73424000Y-81441327D01*
X73424000Y-80483673D01*
X73425311Y-80456995D01*
X73429230Y-80430575D01*
X73435720Y-80404665D01*
X73444718Y-80379517D01*
X73456138Y-80355372D01*
X73469869Y-80332462D01*
X73485780Y-80311008D01*
X73503718Y-80291218D01*
X73523508Y-80273280D01*
X73544962Y-80257369D01*
X73567872Y-80243638D01*
X73592017Y-80232218D01*
X73617165Y-80223220D01*
X73643075Y-80216730D01*
X73669495Y-80212811D01*
X73696173Y-80211500D01*
X74403827Y-80211500D01*
X74430505Y-80212811D01*
G37*
G36*
X72380505Y-80212811D02*
G01*
X72406925Y-80216730D01*
X72432835Y-80223220D01*
X72457983Y-80232218D01*
X72482128Y-80243638D01*
X72505038Y-80257369D01*
X72526492Y-80273280D01*
X72546282Y-80291218D01*
X72564220Y-80311008D01*
X72580131Y-80332462D01*
X72593862Y-80355372D01*
X72605282Y-80379517D01*
X72614280Y-80404665D01*
X72620770Y-80430575D01*
X72624689Y-80456995D01*
X72626000Y-80483673D01*
X72626000Y-81441327D01*
X72624689Y-81468005D01*
X72620770Y-81494425D01*
X72614280Y-81520335D01*
X72605282Y-81545483D01*
X72593862Y-81569628D01*
X72580131Y-81592538D01*
X72564220Y-81613992D01*
X72546282Y-81633782D01*
X72526492Y-81651720D01*
X72505038Y-81667631D01*
X72482128Y-81681362D01*
X72457983Y-81692782D01*
X72432835Y-81701780D01*
X72406925Y-81708270D01*
X72380505Y-81712189D01*
X72353827Y-81713500D01*
X71646173Y-81713500D01*
X71619495Y-81712189D01*
X71593075Y-81708270D01*
X71567165Y-81701780D01*
X71542017Y-81692782D01*
X71517872Y-81681362D01*
X71494962Y-81667631D01*
X71473508Y-81651720D01*
X71453718Y-81633782D01*
X71435780Y-81613992D01*
X71419869Y-81592538D01*
X71406138Y-81569628D01*
X71394718Y-81545483D01*
X71385720Y-81520335D01*
X71379230Y-81494425D01*
X71375311Y-81468005D01*
X71374000Y-81441327D01*
X71374000Y-80483673D01*
X71375311Y-80456995D01*
X71379230Y-80430575D01*
X71385720Y-80404665D01*
X71394718Y-80379517D01*
X71406138Y-80355372D01*
X71419869Y-80332462D01*
X71435780Y-80311008D01*
X71453718Y-80291218D01*
X71473508Y-80273280D01*
X71494962Y-80257369D01*
X71517872Y-80243638D01*
X71542017Y-80232218D01*
X71567165Y-80223220D01*
X71593075Y-80216730D01*
X71619495Y-80212811D01*
X71646173Y-80211500D01*
X72353827Y-80211500D01*
X72380505Y-80212811D01*
G37*
G36*
X55380505Y-80212811D02*
G01*
X55406925Y-80216730D01*
X55432835Y-80223220D01*
X55457983Y-80232218D01*
X55482128Y-80243638D01*
X55505038Y-80257369D01*
X55526492Y-80273280D01*
X55546282Y-80291218D01*
X55564220Y-80311008D01*
X55580131Y-80332462D01*
X55593862Y-80355372D01*
X55605282Y-80379517D01*
X55614280Y-80404665D01*
X55620770Y-80430575D01*
X55624689Y-80456995D01*
X55626000Y-80483673D01*
X55626000Y-81441327D01*
X55624689Y-81468005D01*
X55620770Y-81494425D01*
X55614280Y-81520335D01*
X55605282Y-81545483D01*
X55593862Y-81569628D01*
X55580131Y-81592538D01*
X55564220Y-81613992D01*
X55546282Y-81633782D01*
X55526492Y-81651720D01*
X55505038Y-81667631D01*
X55482128Y-81681362D01*
X55457983Y-81692782D01*
X55432835Y-81701780D01*
X55406925Y-81708270D01*
X55380505Y-81712189D01*
X55353827Y-81713500D01*
X54646173Y-81713500D01*
X54619495Y-81712189D01*
X54593075Y-81708270D01*
X54567165Y-81701780D01*
X54542017Y-81692782D01*
X54517872Y-81681362D01*
X54494962Y-81667631D01*
X54473508Y-81651720D01*
X54453718Y-81633782D01*
X54435780Y-81613992D01*
X54419869Y-81592538D01*
X54406138Y-81569628D01*
X54394718Y-81545483D01*
X54385720Y-81520335D01*
X54379230Y-81494425D01*
X54375311Y-81468005D01*
X54374000Y-81441327D01*
X54374000Y-80483673D01*
X54375311Y-80456995D01*
X54379230Y-80430575D01*
X54385720Y-80404665D01*
X54394718Y-80379517D01*
X54406138Y-80355372D01*
X54419869Y-80332462D01*
X54435780Y-80311008D01*
X54453718Y-80291218D01*
X54473508Y-80273280D01*
X54494962Y-80257369D01*
X54517872Y-80243638D01*
X54542017Y-80232218D01*
X54567165Y-80223220D01*
X54593075Y-80216730D01*
X54619495Y-80212811D01*
X54646173Y-80211500D01*
X55353827Y-80211500D01*
X55380505Y-80212811D01*
G37*
G36*
X53330505Y-80212811D02*
G01*
X53356925Y-80216730D01*
X53382835Y-80223220D01*
X53407983Y-80232218D01*
X53432128Y-80243638D01*
X53455038Y-80257369D01*
X53476492Y-80273280D01*
X53496282Y-80291218D01*
X53514220Y-80311008D01*
X53530131Y-80332462D01*
X53543862Y-80355372D01*
X53555282Y-80379517D01*
X53564280Y-80404665D01*
X53570770Y-80430575D01*
X53574689Y-80456995D01*
X53576000Y-80483673D01*
X53576000Y-81441327D01*
X53574689Y-81468005D01*
X53570770Y-81494425D01*
X53564280Y-81520335D01*
X53555282Y-81545483D01*
X53543862Y-81569628D01*
X53530131Y-81592538D01*
X53514220Y-81613992D01*
X53496282Y-81633782D01*
X53476492Y-81651720D01*
X53455038Y-81667631D01*
X53432128Y-81681362D01*
X53407983Y-81692782D01*
X53382835Y-81701780D01*
X53356925Y-81708270D01*
X53330505Y-81712189D01*
X53303827Y-81713500D01*
X52596173Y-81713500D01*
X52569495Y-81712189D01*
X52543075Y-81708270D01*
X52517165Y-81701780D01*
X52492017Y-81692782D01*
X52467872Y-81681362D01*
X52444962Y-81667631D01*
X52423508Y-81651720D01*
X52403718Y-81633782D01*
X52385780Y-81613992D01*
X52369869Y-81592538D01*
X52356138Y-81569628D01*
X52344718Y-81545483D01*
X52335720Y-81520335D01*
X52329230Y-81494425D01*
X52325311Y-81468005D01*
X52324000Y-81441327D01*
X52324000Y-80483673D01*
X52325311Y-80456995D01*
X52329230Y-80430575D01*
X52335720Y-80404665D01*
X52344718Y-80379517D01*
X52356138Y-80355372D01*
X52369869Y-80332462D01*
X52385780Y-80311008D01*
X52403718Y-80291218D01*
X52423508Y-80273280D01*
X52444962Y-80257369D01*
X52467872Y-80243638D01*
X52492017Y-80232218D01*
X52517165Y-80223220D01*
X52543075Y-80216730D01*
X52569495Y-80212811D01*
X52596173Y-80211500D01*
X53303827Y-80211500D01*
X53330505Y-80212811D01*
G37*
G36*
X131927505Y-49355311D02*
G01*
X131953925Y-49359230D01*
X131979835Y-49365720D01*
X132004983Y-49374718D01*
X132029128Y-49386138D01*
X132052038Y-49399869D01*
X132073492Y-49415780D01*
X132093282Y-49433718D01*
X132111220Y-49453508D01*
X132127131Y-49474962D01*
X132140862Y-49497872D01*
X132152282Y-49522017D01*
X132161280Y-49547165D01*
X132167770Y-49573075D01*
X132171689Y-49599495D01*
X132173000Y-49626173D01*
X132173000Y-50583827D01*
X132171689Y-50610505D01*
X132167770Y-50636925D01*
X132161280Y-50662835D01*
X132152282Y-50687983D01*
X132140862Y-50712128D01*
X132127131Y-50735038D01*
X132111220Y-50756492D01*
X132093282Y-50776282D01*
X132073492Y-50794220D01*
X132052038Y-50810131D01*
X132029128Y-50823862D01*
X132004983Y-50835282D01*
X131979835Y-50844280D01*
X131953925Y-50850770D01*
X131927505Y-50854689D01*
X131900827Y-50856000D01*
X131193173Y-50856000D01*
X131166495Y-50854689D01*
X131140075Y-50850770D01*
X131114165Y-50844280D01*
X131089017Y-50835282D01*
X131064872Y-50823862D01*
X131041962Y-50810131D01*
X131020508Y-50794220D01*
X131000718Y-50776282D01*
X130982780Y-50756492D01*
X130966869Y-50735038D01*
X130953138Y-50712128D01*
X130941718Y-50687983D01*
X130932720Y-50662835D01*
X130926230Y-50636925D01*
X130922311Y-50610505D01*
X130921000Y-50583827D01*
X130921000Y-49626173D01*
X130922311Y-49599495D01*
X130926230Y-49573075D01*
X130932720Y-49547165D01*
X130941718Y-49522017D01*
X130953138Y-49497872D01*
X130966869Y-49474962D01*
X130982780Y-49453508D01*
X131000718Y-49433718D01*
X131020508Y-49415780D01*
X131041962Y-49399869D01*
X131064872Y-49386138D01*
X131089017Y-49374718D01*
X131114165Y-49365720D01*
X131140075Y-49359230D01*
X131166495Y-49355311D01*
X131193173Y-49354000D01*
X131900827Y-49354000D01*
X131927505Y-49355311D01*
G37*
G36*
X133977505Y-49355311D02*
G01*
X134003925Y-49359230D01*
X134029835Y-49365720D01*
X134054983Y-49374718D01*
X134079128Y-49386138D01*
X134102038Y-49399869D01*
X134123492Y-49415780D01*
X134143282Y-49433718D01*
X134161220Y-49453508D01*
X134177131Y-49474962D01*
X134190862Y-49497872D01*
X134202282Y-49522017D01*
X134211280Y-49547165D01*
X134217770Y-49573075D01*
X134221689Y-49599495D01*
X134223000Y-49626173D01*
X134223000Y-50583827D01*
X134221689Y-50610505D01*
X134217770Y-50636925D01*
X134211280Y-50662835D01*
X134202282Y-50687983D01*
X134190862Y-50712128D01*
X134177131Y-50735038D01*
X134161220Y-50756492D01*
X134143282Y-50776282D01*
X134123492Y-50794220D01*
X134102038Y-50810131D01*
X134079128Y-50823862D01*
X134054983Y-50835282D01*
X134029835Y-50844280D01*
X134003925Y-50850770D01*
X133977505Y-50854689D01*
X133950827Y-50856000D01*
X133243173Y-50856000D01*
X133216495Y-50854689D01*
X133190075Y-50850770D01*
X133164165Y-50844280D01*
X133139017Y-50835282D01*
X133114872Y-50823862D01*
X133091962Y-50810131D01*
X133070508Y-50794220D01*
X133050718Y-50776282D01*
X133032780Y-50756492D01*
X133016869Y-50735038D01*
X133003138Y-50712128D01*
X132991718Y-50687983D01*
X132982720Y-50662835D01*
X132976230Y-50636925D01*
X132972311Y-50610505D01*
X132971000Y-50583827D01*
X132971000Y-49626173D01*
X132972311Y-49599495D01*
X132976230Y-49573075D01*
X132982720Y-49547165D01*
X132991718Y-49522017D01*
X133003138Y-49497872D01*
X133016869Y-49474962D01*
X133032780Y-49453508D01*
X133050718Y-49433718D01*
X133070508Y-49415780D01*
X133091962Y-49399869D01*
X133114872Y-49386138D01*
X133139017Y-49374718D01*
X133164165Y-49365720D01*
X133190075Y-49359230D01*
X133216495Y-49355311D01*
X133243173Y-49354000D01*
X133950827Y-49354000D01*
X133977505Y-49355311D01*
G37*
G36*
X137677505Y-53355311D02*
G01*
X137703925Y-53359230D01*
X137729835Y-53365720D01*
X137754983Y-53374718D01*
X137779128Y-53386138D01*
X137802038Y-53399869D01*
X137823492Y-53415780D01*
X137843282Y-53433718D01*
X137861220Y-53453508D01*
X137877131Y-53474962D01*
X137890862Y-53497872D01*
X137902282Y-53522017D01*
X137911280Y-53547165D01*
X137917770Y-53573075D01*
X137921689Y-53599495D01*
X137923000Y-53626173D01*
X137923000Y-54583827D01*
X137921689Y-54610505D01*
X137917770Y-54636925D01*
X137911280Y-54662835D01*
X137902282Y-54687983D01*
X137890862Y-54712128D01*
X137877131Y-54735038D01*
X137861220Y-54756492D01*
X137843282Y-54776282D01*
X137823492Y-54794220D01*
X137802038Y-54810131D01*
X137779128Y-54823862D01*
X137754983Y-54835282D01*
X137729835Y-54844280D01*
X137703925Y-54850770D01*
X137677505Y-54854689D01*
X137650827Y-54856000D01*
X136943173Y-54856000D01*
X136916495Y-54854689D01*
X136890075Y-54850770D01*
X136864165Y-54844280D01*
X136839017Y-54835282D01*
X136814872Y-54823862D01*
X136791962Y-54810131D01*
X136770508Y-54794220D01*
X136750718Y-54776282D01*
X136732780Y-54756492D01*
X136716869Y-54735038D01*
X136703138Y-54712128D01*
X136691718Y-54687983D01*
X136682720Y-54662835D01*
X136676230Y-54636925D01*
X136672311Y-54610505D01*
X136671000Y-54583827D01*
X136671000Y-53626173D01*
X136672311Y-53599495D01*
X136676230Y-53573075D01*
X136682720Y-53547165D01*
X136691718Y-53522017D01*
X136703138Y-53497872D01*
X136716869Y-53474962D01*
X136732780Y-53453508D01*
X136750718Y-53433718D01*
X136770508Y-53415780D01*
X136791962Y-53399869D01*
X136814872Y-53386138D01*
X136839017Y-53374718D01*
X136864165Y-53365720D01*
X136890075Y-53359230D01*
X136916495Y-53355311D01*
X136943173Y-53354000D01*
X137650827Y-53354000D01*
X137677505Y-53355311D01*
G37*
G36*
X139727505Y-53355311D02*
G01*
X139753925Y-53359230D01*
X139779835Y-53365720D01*
X139804983Y-53374718D01*
X139829128Y-53386138D01*
X139852038Y-53399869D01*
X139873492Y-53415780D01*
X139893282Y-53433718D01*
X139911220Y-53453508D01*
X139927131Y-53474962D01*
X139940862Y-53497872D01*
X139952282Y-53522017D01*
X139961280Y-53547165D01*
X139967770Y-53573075D01*
X139971689Y-53599495D01*
X139973000Y-53626173D01*
X139973000Y-54583827D01*
X139971689Y-54610505D01*
X139967770Y-54636925D01*
X139961280Y-54662835D01*
X139952282Y-54687983D01*
X139940862Y-54712128D01*
X139927131Y-54735038D01*
X139911220Y-54756492D01*
X139893282Y-54776282D01*
X139873492Y-54794220D01*
X139852038Y-54810131D01*
X139829128Y-54823862D01*
X139804983Y-54835282D01*
X139779835Y-54844280D01*
X139753925Y-54850770D01*
X139727505Y-54854689D01*
X139700827Y-54856000D01*
X138993173Y-54856000D01*
X138966495Y-54854689D01*
X138940075Y-54850770D01*
X138914165Y-54844280D01*
X138889017Y-54835282D01*
X138864872Y-54823862D01*
X138841962Y-54810131D01*
X138820508Y-54794220D01*
X138800718Y-54776282D01*
X138782780Y-54756492D01*
X138766869Y-54735038D01*
X138753138Y-54712128D01*
X138741718Y-54687983D01*
X138732720Y-54662835D01*
X138726230Y-54636925D01*
X138722311Y-54610505D01*
X138721000Y-54583827D01*
X138721000Y-53626173D01*
X138722311Y-53599495D01*
X138726230Y-53573075D01*
X138732720Y-53547165D01*
X138741718Y-53522017D01*
X138753138Y-53497872D01*
X138766869Y-53474962D01*
X138782780Y-53453508D01*
X138800718Y-53433718D01*
X138820508Y-53415780D01*
X138841962Y-53399869D01*
X138864872Y-53386138D01*
X138889017Y-53374718D01*
X138914165Y-53365720D01*
X138940075Y-53359230D01*
X138966495Y-53355311D01*
X138993173Y-53354000D01*
X139700827Y-53354000D01*
X139727505Y-53355311D01*
G37*
G36*
X139727505Y-62355311D02*
G01*
X139753925Y-62359230D01*
X139779835Y-62365720D01*
X139804983Y-62374718D01*
X139829128Y-62386138D01*
X139852038Y-62399869D01*
X139873492Y-62415780D01*
X139893282Y-62433718D01*
X139911220Y-62453508D01*
X139927131Y-62474962D01*
X139940862Y-62497872D01*
X139952282Y-62522017D01*
X139961280Y-62547165D01*
X139967770Y-62573075D01*
X139971689Y-62599495D01*
X139973000Y-62626173D01*
X139973000Y-63583827D01*
X139971689Y-63610505D01*
X139967770Y-63636925D01*
X139961280Y-63662835D01*
X139952282Y-63687983D01*
X139940862Y-63712128D01*
X139927131Y-63735038D01*
X139911220Y-63756492D01*
X139893282Y-63776282D01*
X139873492Y-63794220D01*
X139852038Y-63810131D01*
X139829128Y-63823862D01*
X139804983Y-63835282D01*
X139779835Y-63844280D01*
X139753925Y-63850770D01*
X139727505Y-63854689D01*
X139700827Y-63856000D01*
X138993173Y-63856000D01*
X138966495Y-63854689D01*
X138940075Y-63850770D01*
X138914165Y-63844280D01*
X138889017Y-63835282D01*
X138864872Y-63823862D01*
X138841962Y-63810131D01*
X138820508Y-63794220D01*
X138800718Y-63776282D01*
X138782780Y-63756492D01*
X138766869Y-63735038D01*
X138753138Y-63712128D01*
X138741718Y-63687983D01*
X138732720Y-63662835D01*
X138726230Y-63636925D01*
X138722311Y-63610505D01*
X138721000Y-63583827D01*
X138721000Y-62626173D01*
X138722311Y-62599495D01*
X138726230Y-62573075D01*
X138732720Y-62547165D01*
X138741718Y-62522017D01*
X138753138Y-62497872D01*
X138766869Y-62474962D01*
X138782780Y-62453508D01*
X138800718Y-62433718D01*
X138820508Y-62415780D01*
X138841962Y-62399869D01*
X138864872Y-62386138D01*
X138889017Y-62374718D01*
X138914165Y-62365720D01*
X138940075Y-62359230D01*
X138966495Y-62355311D01*
X138993173Y-62354000D01*
X139700827Y-62354000D01*
X139727505Y-62355311D01*
G37*
G36*
X137677505Y-62355311D02*
G01*
X137703925Y-62359230D01*
X137729835Y-62365720D01*
X137754983Y-62374718D01*
X137779128Y-62386138D01*
X137802038Y-62399869D01*
X137823492Y-62415780D01*
X137843282Y-62433718D01*
X137861220Y-62453508D01*
X137877131Y-62474962D01*
X137890862Y-62497872D01*
X137902282Y-62522017D01*
X137911280Y-62547165D01*
X137917770Y-62573075D01*
X137921689Y-62599495D01*
X137923000Y-62626173D01*
X137923000Y-63583827D01*
X137921689Y-63610505D01*
X137917770Y-63636925D01*
X137911280Y-63662835D01*
X137902282Y-63687983D01*
X137890862Y-63712128D01*
X137877131Y-63735038D01*
X137861220Y-63756492D01*
X137843282Y-63776282D01*
X137823492Y-63794220D01*
X137802038Y-63810131D01*
X137779128Y-63823862D01*
X137754983Y-63835282D01*
X137729835Y-63844280D01*
X137703925Y-63850770D01*
X137677505Y-63854689D01*
X137650827Y-63856000D01*
X136943173Y-63856000D01*
X136916495Y-63854689D01*
X136890075Y-63850770D01*
X136864165Y-63844280D01*
X136839017Y-63835282D01*
X136814872Y-63823862D01*
X136791962Y-63810131D01*
X136770508Y-63794220D01*
X136750718Y-63776282D01*
X136732780Y-63756492D01*
X136716869Y-63735038D01*
X136703138Y-63712128D01*
X136691718Y-63687983D01*
X136682720Y-63662835D01*
X136676230Y-63636925D01*
X136672311Y-63610505D01*
X136671000Y-63583827D01*
X136671000Y-62626173D01*
X136672311Y-62599495D01*
X136676230Y-62573075D01*
X136682720Y-62547165D01*
X136691718Y-62522017D01*
X136703138Y-62497872D01*
X136716869Y-62474962D01*
X136732780Y-62453508D01*
X136750718Y-62433718D01*
X136770508Y-62415780D01*
X136791962Y-62399869D01*
X136814872Y-62386138D01*
X136839017Y-62374718D01*
X136864165Y-62365720D01*
X136890075Y-62359230D01*
X136916495Y-62355311D01*
X136943173Y-62354000D01*
X137650827Y-62354000D01*
X137677505Y-62355311D01*
G37*
G36*
X119827505Y-55505311D02*
G01*
X119853925Y-55509230D01*
X119879835Y-55515720D01*
X119904983Y-55524718D01*
X119929128Y-55536138D01*
X119952038Y-55549869D01*
X119973492Y-55565780D01*
X119993282Y-55583718D01*
X120011220Y-55603508D01*
X120027131Y-55624962D01*
X120040862Y-55647872D01*
X120052282Y-55672017D01*
X120061280Y-55697165D01*
X120067770Y-55723075D01*
X120071689Y-55749495D01*
X120073000Y-55776173D01*
X120073000Y-56483827D01*
X120071689Y-56510505D01*
X120067770Y-56536925D01*
X120061280Y-56562835D01*
X120052282Y-56587983D01*
X120040862Y-56612128D01*
X120027131Y-56635038D01*
X120011220Y-56656492D01*
X119993282Y-56676282D01*
X119973492Y-56694220D01*
X119952038Y-56710131D01*
X119929128Y-56723862D01*
X119904983Y-56735282D01*
X119879835Y-56744280D01*
X119853925Y-56750770D01*
X119827505Y-56754689D01*
X119800827Y-56756000D01*
X118843173Y-56756000D01*
X118816495Y-56754689D01*
X118790075Y-56750770D01*
X118764165Y-56744280D01*
X118739017Y-56735282D01*
X118714872Y-56723862D01*
X118691962Y-56710131D01*
X118670508Y-56694220D01*
X118650718Y-56676282D01*
X118632780Y-56656492D01*
X118616869Y-56635038D01*
X118603138Y-56612128D01*
X118591718Y-56587983D01*
X118582720Y-56562835D01*
X118576230Y-56536925D01*
X118572311Y-56510505D01*
X118571000Y-56483827D01*
X118571000Y-55776173D01*
X118572311Y-55749495D01*
X118576230Y-55723075D01*
X118582720Y-55697165D01*
X118591718Y-55672017D01*
X118603138Y-55647872D01*
X118616869Y-55624962D01*
X118632780Y-55603508D01*
X118650718Y-55583718D01*
X118670508Y-55565780D01*
X118691962Y-55549869D01*
X118714872Y-55536138D01*
X118739017Y-55524718D01*
X118764165Y-55515720D01*
X118790075Y-55509230D01*
X118816495Y-55505311D01*
X118843173Y-55504000D01*
X119800827Y-55504000D01*
X119827505Y-55505311D01*
G37*
G36*
X119827505Y-53455311D02*
G01*
X119853925Y-53459230D01*
X119879835Y-53465720D01*
X119904983Y-53474718D01*
X119929128Y-53486138D01*
X119952038Y-53499869D01*
X119973492Y-53515780D01*
X119993282Y-53533718D01*
X120011220Y-53553508D01*
X120027131Y-53574962D01*
X120040862Y-53597872D01*
X120052282Y-53622017D01*
X120061280Y-53647165D01*
X120067770Y-53673075D01*
X120071689Y-53699495D01*
X120073000Y-53726173D01*
X120073000Y-54433827D01*
X120071689Y-54460505D01*
X120067770Y-54486925D01*
X120061280Y-54512835D01*
X120052282Y-54537983D01*
X120040862Y-54562128D01*
X120027131Y-54585038D01*
X120011220Y-54606492D01*
X119993282Y-54626282D01*
X119973492Y-54644220D01*
X119952038Y-54660131D01*
X119929128Y-54673862D01*
X119904983Y-54685282D01*
X119879835Y-54694280D01*
X119853925Y-54700770D01*
X119827505Y-54704689D01*
X119800827Y-54706000D01*
X118843173Y-54706000D01*
X118816495Y-54704689D01*
X118790075Y-54700770D01*
X118764165Y-54694280D01*
X118739017Y-54685282D01*
X118714872Y-54673862D01*
X118691962Y-54660131D01*
X118670508Y-54644220D01*
X118650718Y-54626282D01*
X118632780Y-54606492D01*
X118616869Y-54585038D01*
X118603138Y-54562128D01*
X118591718Y-54537983D01*
X118582720Y-54512835D01*
X118576230Y-54486925D01*
X118572311Y-54460505D01*
X118571000Y-54433827D01*
X118571000Y-53726173D01*
X118572311Y-53699495D01*
X118576230Y-53673075D01*
X118582720Y-53647165D01*
X118591718Y-53622017D01*
X118603138Y-53597872D01*
X118616869Y-53574962D01*
X118632780Y-53553508D01*
X118650718Y-53533718D01*
X118670508Y-53515780D01*
X118691962Y-53499869D01*
X118714872Y-53486138D01*
X118739017Y-53474718D01*
X118764165Y-53465720D01*
X118790075Y-53459230D01*
X118816495Y-53455311D01*
X118843173Y-53454000D01*
X119800827Y-53454000D01*
X119827505Y-53455311D01*
G37*
G36*
X122427505Y-49355311D02*
G01*
X122453925Y-49359230D01*
X122479835Y-49365720D01*
X122504983Y-49374718D01*
X122529128Y-49386138D01*
X122552038Y-49399869D01*
X122573492Y-49415780D01*
X122593282Y-49433718D01*
X122611220Y-49453508D01*
X122627131Y-49474962D01*
X122640862Y-49497872D01*
X122652282Y-49522017D01*
X122661280Y-49547165D01*
X122667770Y-49573075D01*
X122671689Y-49599495D01*
X122673000Y-49626173D01*
X122673000Y-50583827D01*
X122671689Y-50610505D01*
X122667770Y-50636925D01*
X122661280Y-50662835D01*
X122652282Y-50687983D01*
X122640862Y-50712128D01*
X122627131Y-50735038D01*
X122611220Y-50756492D01*
X122593282Y-50776282D01*
X122573492Y-50794220D01*
X122552038Y-50810131D01*
X122529128Y-50823862D01*
X122504983Y-50835282D01*
X122479835Y-50844280D01*
X122453925Y-50850770D01*
X122427505Y-50854689D01*
X122400827Y-50856000D01*
X121693173Y-50856000D01*
X121666495Y-50854689D01*
X121640075Y-50850770D01*
X121614165Y-50844280D01*
X121589017Y-50835282D01*
X121564872Y-50823862D01*
X121541962Y-50810131D01*
X121520508Y-50794220D01*
X121500718Y-50776282D01*
X121482780Y-50756492D01*
X121466869Y-50735038D01*
X121453138Y-50712128D01*
X121441718Y-50687983D01*
X121432720Y-50662835D01*
X121426230Y-50636925D01*
X121422311Y-50610505D01*
X121421000Y-50583827D01*
X121421000Y-49626173D01*
X121422311Y-49599495D01*
X121426230Y-49573075D01*
X121432720Y-49547165D01*
X121441718Y-49522017D01*
X121453138Y-49497872D01*
X121466869Y-49474962D01*
X121482780Y-49453508D01*
X121500718Y-49433718D01*
X121520508Y-49415780D01*
X121541962Y-49399869D01*
X121564872Y-49386138D01*
X121589017Y-49374718D01*
X121614165Y-49365720D01*
X121640075Y-49359230D01*
X121666495Y-49355311D01*
X121693173Y-49354000D01*
X122400827Y-49354000D01*
X122427505Y-49355311D01*
G37*
G36*
X124477505Y-49355311D02*
G01*
X124503925Y-49359230D01*
X124529835Y-49365720D01*
X124554983Y-49374718D01*
X124579128Y-49386138D01*
X124602038Y-49399869D01*
X124623492Y-49415780D01*
X124643282Y-49433718D01*
X124661220Y-49453508D01*
X124677131Y-49474962D01*
X124690862Y-49497872D01*
X124702282Y-49522017D01*
X124711280Y-49547165D01*
X124717770Y-49573075D01*
X124721689Y-49599495D01*
X124723000Y-49626173D01*
X124723000Y-50583827D01*
X124721689Y-50610505D01*
X124717770Y-50636925D01*
X124711280Y-50662835D01*
X124702282Y-50687983D01*
X124690862Y-50712128D01*
X124677131Y-50735038D01*
X124661220Y-50756492D01*
X124643282Y-50776282D01*
X124623492Y-50794220D01*
X124602038Y-50810131D01*
X124579128Y-50823862D01*
X124554983Y-50835282D01*
X124529835Y-50844280D01*
X124503925Y-50850770D01*
X124477505Y-50854689D01*
X124450827Y-50856000D01*
X123743173Y-50856000D01*
X123716495Y-50854689D01*
X123690075Y-50850770D01*
X123664165Y-50844280D01*
X123639017Y-50835282D01*
X123614872Y-50823862D01*
X123591962Y-50810131D01*
X123570508Y-50794220D01*
X123550718Y-50776282D01*
X123532780Y-50756492D01*
X123516869Y-50735038D01*
X123503138Y-50712128D01*
X123491718Y-50687983D01*
X123482720Y-50662835D01*
X123476230Y-50636925D01*
X123472311Y-50610505D01*
X123471000Y-50583827D01*
X123471000Y-49626173D01*
X123472311Y-49599495D01*
X123476230Y-49573075D01*
X123482720Y-49547165D01*
X123491718Y-49522017D01*
X123503138Y-49497872D01*
X123516869Y-49474962D01*
X123532780Y-49453508D01*
X123550718Y-49433718D01*
X123570508Y-49415780D01*
X123591962Y-49399869D01*
X123614872Y-49386138D01*
X123639017Y-49374718D01*
X123664165Y-49365720D01*
X123690075Y-49359230D01*
X123716495Y-49355311D01*
X123743173Y-49354000D01*
X124450827Y-49354000D01*
X124477505Y-49355311D01*
G37*
G36*
X133727505Y-67355311D02*
G01*
X133753925Y-67359230D01*
X133779835Y-67365720D01*
X133804983Y-67374718D01*
X133829128Y-67386138D01*
X133852038Y-67399869D01*
X133873492Y-67415780D01*
X133893282Y-67433718D01*
X133911220Y-67453508D01*
X133927131Y-67474962D01*
X133940862Y-67497872D01*
X133952282Y-67522017D01*
X133961280Y-67547165D01*
X133967770Y-67573075D01*
X133971689Y-67599495D01*
X133973000Y-67626173D01*
X133973000Y-68583827D01*
X133971689Y-68610505D01*
X133967770Y-68636925D01*
X133961280Y-68662835D01*
X133952282Y-68687983D01*
X133940862Y-68712128D01*
X133927131Y-68735038D01*
X133911220Y-68756492D01*
X133893282Y-68776282D01*
X133873492Y-68794220D01*
X133852038Y-68810131D01*
X133829128Y-68823862D01*
X133804983Y-68835282D01*
X133779835Y-68844280D01*
X133753925Y-68850770D01*
X133727505Y-68854689D01*
X133700827Y-68856000D01*
X132993173Y-68856000D01*
X132966495Y-68854689D01*
X132940075Y-68850770D01*
X132914165Y-68844280D01*
X132889017Y-68835282D01*
X132864872Y-68823862D01*
X132841962Y-68810131D01*
X132820508Y-68794220D01*
X132800718Y-68776282D01*
X132782780Y-68756492D01*
X132766869Y-68735038D01*
X132753138Y-68712128D01*
X132741718Y-68687983D01*
X132732720Y-68662835D01*
X132726230Y-68636925D01*
X132722311Y-68610505D01*
X132721000Y-68583827D01*
X132721000Y-67626173D01*
X132722311Y-67599495D01*
X132726230Y-67573075D01*
X132732720Y-67547165D01*
X132741718Y-67522017D01*
X132753138Y-67497872D01*
X132766869Y-67474962D01*
X132782780Y-67453508D01*
X132800718Y-67433718D01*
X132820508Y-67415780D01*
X132841962Y-67399869D01*
X132864872Y-67386138D01*
X132889017Y-67374718D01*
X132914165Y-67365720D01*
X132940075Y-67359230D01*
X132966495Y-67355311D01*
X132993173Y-67354000D01*
X133700827Y-67354000D01*
X133727505Y-67355311D01*
G37*
G36*
X131677505Y-67355311D02*
G01*
X131703925Y-67359230D01*
X131729835Y-67365720D01*
X131754983Y-67374718D01*
X131779128Y-67386138D01*
X131802038Y-67399869D01*
X131823492Y-67415780D01*
X131843282Y-67433718D01*
X131861220Y-67453508D01*
X131877131Y-67474962D01*
X131890862Y-67497872D01*
X131902282Y-67522017D01*
X131911280Y-67547165D01*
X131917770Y-67573075D01*
X131921689Y-67599495D01*
X131923000Y-67626173D01*
X131923000Y-68583827D01*
X131921689Y-68610505D01*
X131917770Y-68636925D01*
X131911280Y-68662835D01*
X131902282Y-68687983D01*
X131890862Y-68712128D01*
X131877131Y-68735038D01*
X131861220Y-68756492D01*
X131843282Y-68776282D01*
X131823492Y-68794220D01*
X131802038Y-68810131D01*
X131779128Y-68823862D01*
X131754983Y-68835282D01*
X131729835Y-68844280D01*
X131703925Y-68850770D01*
X131677505Y-68854689D01*
X131650827Y-68856000D01*
X130943173Y-68856000D01*
X130916495Y-68854689D01*
X130890075Y-68850770D01*
X130864165Y-68844280D01*
X130839017Y-68835282D01*
X130814872Y-68823862D01*
X130791962Y-68810131D01*
X130770508Y-68794220D01*
X130750718Y-68776282D01*
X130732780Y-68756492D01*
X130716869Y-68735038D01*
X130703138Y-68712128D01*
X130691718Y-68687983D01*
X130682720Y-68662835D01*
X130676230Y-68636925D01*
X130672311Y-68610505D01*
X130671000Y-68583827D01*
X130671000Y-67626173D01*
X130672311Y-67599495D01*
X130676230Y-67573075D01*
X130682720Y-67547165D01*
X130691718Y-67522017D01*
X130703138Y-67497872D01*
X130716869Y-67474962D01*
X130732780Y-67453508D01*
X130750718Y-67433718D01*
X130770508Y-67415780D01*
X130791962Y-67399869D01*
X130814872Y-67386138D01*
X130839017Y-67374718D01*
X130864165Y-67365720D01*
X130890075Y-67359230D01*
X130916495Y-67355311D01*
X130943173Y-67354000D01*
X131650827Y-67354000D01*
X131677505Y-67355311D01*
G37*
G36*
X138727505Y-49355311D02*
G01*
X138753925Y-49359230D01*
X138779835Y-49365720D01*
X138804983Y-49374718D01*
X138829128Y-49386138D01*
X138852038Y-49399869D01*
X138873492Y-49415780D01*
X138893282Y-49433718D01*
X138911220Y-49453508D01*
X138927131Y-49474962D01*
X138940862Y-49497872D01*
X138952282Y-49522017D01*
X138961280Y-49547165D01*
X138967770Y-49573075D01*
X138971689Y-49599495D01*
X138973000Y-49626173D01*
X138973000Y-50583827D01*
X138971689Y-50610505D01*
X138967770Y-50636925D01*
X138961280Y-50662835D01*
X138952282Y-50687983D01*
X138940862Y-50712128D01*
X138927131Y-50735038D01*
X138911220Y-50756492D01*
X138893282Y-50776282D01*
X138873492Y-50794220D01*
X138852038Y-50810131D01*
X138829128Y-50823862D01*
X138804983Y-50835282D01*
X138779835Y-50844280D01*
X138753925Y-50850770D01*
X138727505Y-50854689D01*
X138700827Y-50856000D01*
X137993173Y-50856000D01*
X137966495Y-50854689D01*
X137940075Y-50850770D01*
X137914165Y-50844280D01*
X137889017Y-50835282D01*
X137864872Y-50823862D01*
X137841962Y-50810131D01*
X137820508Y-50794220D01*
X137800718Y-50776282D01*
X137782780Y-50756492D01*
X137766869Y-50735038D01*
X137753138Y-50712128D01*
X137741718Y-50687983D01*
X137732720Y-50662835D01*
X137726230Y-50636925D01*
X137722311Y-50610505D01*
X137721000Y-50583827D01*
X137721000Y-49626173D01*
X137722311Y-49599495D01*
X137726230Y-49573075D01*
X137732720Y-49547165D01*
X137741718Y-49522017D01*
X137753138Y-49497872D01*
X137766869Y-49474962D01*
X137782780Y-49453508D01*
X137800718Y-49433718D01*
X137820508Y-49415780D01*
X137841962Y-49399869D01*
X137864872Y-49386138D01*
X137889017Y-49374718D01*
X137914165Y-49365720D01*
X137940075Y-49359230D01*
X137966495Y-49355311D01*
X137993173Y-49354000D01*
X138700827Y-49354000D01*
X138727505Y-49355311D01*
G37*
G36*
X136677505Y-49355311D02*
G01*
X136703925Y-49359230D01*
X136729835Y-49365720D01*
X136754983Y-49374718D01*
X136779128Y-49386138D01*
X136802038Y-49399869D01*
X136823492Y-49415780D01*
X136843282Y-49433718D01*
X136861220Y-49453508D01*
X136877131Y-49474962D01*
X136890862Y-49497872D01*
X136902282Y-49522017D01*
X136911280Y-49547165D01*
X136917770Y-49573075D01*
X136921689Y-49599495D01*
X136923000Y-49626173D01*
X136923000Y-50583827D01*
X136921689Y-50610505D01*
X136917770Y-50636925D01*
X136911280Y-50662835D01*
X136902282Y-50687983D01*
X136890862Y-50712128D01*
X136877131Y-50735038D01*
X136861220Y-50756492D01*
X136843282Y-50776282D01*
X136823492Y-50794220D01*
X136802038Y-50810131D01*
X136779128Y-50823862D01*
X136754983Y-50835282D01*
X136729835Y-50844280D01*
X136703925Y-50850770D01*
X136677505Y-50854689D01*
X136650827Y-50856000D01*
X135943173Y-50856000D01*
X135916495Y-50854689D01*
X135890075Y-50850770D01*
X135864165Y-50844280D01*
X135839017Y-50835282D01*
X135814872Y-50823862D01*
X135791962Y-50810131D01*
X135770508Y-50794220D01*
X135750718Y-50776282D01*
X135732780Y-50756492D01*
X135716869Y-50735038D01*
X135703138Y-50712128D01*
X135691718Y-50687983D01*
X135682720Y-50662835D01*
X135676230Y-50636925D01*
X135672311Y-50610505D01*
X135671000Y-50583827D01*
X135671000Y-49626173D01*
X135672311Y-49599495D01*
X135676230Y-49573075D01*
X135682720Y-49547165D01*
X135691718Y-49522017D01*
X135703138Y-49497872D01*
X135716869Y-49474962D01*
X135732780Y-49453508D01*
X135750718Y-49433718D01*
X135770508Y-49415780D01*
X135791962Y-49399869D01*
X135814872Y-49386138D01*
X135839017Y-49374718D01*
X135864165Y-49365720D01*
X135890075Y-49359230D01*
X135916495Y-49355311D01*
X135943173Y-49354000D01*
X136650827Y-49354000D01*
X136677505Y-49355311D01*
G37*
M02*
