M48
; DRILL file {KiCad (5.1.5)-3} date 08/10/2020 21:20:37
; FORMAT={-:-/ absolute / inch / decimal}
; #@! TF.CreationDate,2020-10-08T21:20:37+02:00
; #@! TF.GenerationSoftware,Kicad,Pcbnew,(5.1.5)-3
; #@! TF.FileFunction,Plated,1,2,PTH
FMAT,2
INCH
T1C0.0157
T2C0.0236
T3C0.0579
%
G90
G05
T1
X3.9962Y-2.175
X4.1278Y-2.1783
X4.245Y-2.275
X4.56Y-2.29
X4.75Y-2.0
X4.7601Y-2.4844
X4.83Y-2.615
X4.9178Y-2.0504
X4.985Y-1.915
X5.045Y-2.68
X5.095Y-2.05
X5.205Y-2.17
X5.3125Y-2.8438
X5.3189Y-2.065
X5.38Y-1.9311
X5.405Y-2.025
X5.525Y-1.925
X5.5625Y-2.8438
X5.61Y-2.065
T3
X5.1625Y-5.1187
X5.4125Y-5.0187
X3.6625Y-4.3687
X3.9125Y-4.2687
X1.975Y-3.6187
X2.225Y-3.5187
X4.4125Y-5.1187
X4.6625Y-5.0187
X5.9125Y-3.9937
X6.1625Y-3.8937
X5.1625Y-4.3687
X5.4125Y-4.2687
X5.1625Y-3.6187
X5.4125Y-3.5187
X2.725Y-4.3687
X2.975Y-4.2687
X5.1625Y-2.8687
X5.4125Y-2.7687
X4.4125Y-4.3687
X4.6625Y-4.2687
X1.975Y-4.3687
X2.225Y-4.2687
X3.6625Y-3.6187
X3.9125Y-3.5187
X1.975Y-2.8687
X2.225Y-2.7687
X5.9125Y-5.4937
X6.1625Y-5.3937
X3.6625Y-5.1187
X3.9125Y-5.0187
X4.4125Y-2.8687
X4.6625Y-2.7687
X4.4125Y-3.6187
X4.6625Y-3.5187
X1.975Y-5.8687
X2.225Y-5.7687
X2.725Y-5.1187
X2.975Y-5.0187
X5.9125Y-2.8687
X6.1625Y-2.7687
X2.725Y-3.6187
X2.975Y-3.5187
X4.0375Y-5.8687
X4.2875Y-5.7687
X2.725Y-5.8687
X2.975Y-5.7687
X5.1625Y-5.8687
X5.4125Y-5.7687
X1.975Y-5.1187
X2.225Y-5.0187
X2.725Y-2.8687
X2.975Y-2.7687
X3.6625Y-2.8687
X3.9125Y-2.7687
T2
G00X3.9236Y-1.9271
M15
G01X3.9236Y-1.9782
M16
G05
G00X3.9236Y-2.0836
M15
G01X3.9236Y-2.1229
M16
G05
G00X4.2638Y-1.9271
M15
G01X4.2638Y-1.9782
M16
G05
G00X4.2638Y-2.0836
M15
G01X4.2638Y-2.1229
M16
G05
T0
M30
