M48
; DRILL file {KiCad (5.1.5)-3} date 08/10/2020 21:20:37
; FORMAT={-:-/ absolute / inch / decimal}
; #@! TF.CreationDate,2020-10-08T21:20:37+02:00
; #@! TF.GenerationSoftware,Kicad,Pcbnew,(5.1.5)-3
; #@! TF.FileFunction,NonPlated,1,2,NPTH
FMAT,2
INCH
T1C0.0236
T2C0.0689
T3C0.1200
T4C0.1570
%
G90
G05
T1
X3.9756Y-2.0747
T2
X5.1125Y-2.9688
X5.5125Y-2.9688
X4.3625Y-4.4688
X4.7625Y-4.4688
X1.925Y-4.4688
X2.325Y-4.4688
X3.6125Y-3.7188
X4.0125Y-3.7188
X1.925Y-2.9688
X2.325Y-2.9688
X5.8625Y-5.5938
X6.2625Y-5.5938
X3.6125Y-5.2188
X4.0125Y-5.2188
X4.3625Y-2.9688
X4.7625Y-2.9688
X4.3625Y-3.7188
X4.7625Y-3.7188
X1.925Y-5.9688
X2.325Y-5.9688
X2.675Y-5.2188
X3.075Y-5.2188
X5.8625Y-2.9688
X6.2625Y-2.9688
X2.675Y-3.7188
X3.075Y-3.7188
X3.9875Y-5.9688
X4.3875Y-5.9688
X2.675Y-5.9688
X3.075Y-5.9688
X5.1125Y-5.9688
X5.5125Y-5.9688
X1.925Y-5.2188
X2.325Y-5.2188
X2.675Y-2.9688
X3.075Y-2.9688
X3.6125Y-2.9688
X4.0125Y-2.9688
X5.1125Y-5.2188
X5.5125Y-5.2188
X3.6125Y-4.4688
X4.0125Y-4.4688
X1.925Y-3.7188
X2.325Y-3.7188
X4.3625Y-5.2188
X4.7625Y-5.2188
X5.8625Y-4.0938
X6.2625Y-4.0938
X5.1125Y-4.4688
X5.5125Y-4.4688
X5.1125Y-3.7188
X5.5125Y-3.7188
X2.675Y-4.4688
X3.075Y-4.4688
T3
X6.3375Y-5.125
X3.7188Y-6.2437
X4.6562Y-6.2437
X6.3375Y-3.625
X6.3375Y-4.5625
X6.3375Y-6.0625
T4
X5.3125Y-2.9688
X4.5625Y-4.4688
X2.125Y-4.4688
X3.8125Y-3.7188
X2.125Y-2.9688
X5.7375Y-5.125
X5.7375Y-6.0625
X6.0625Y-5.5938
X3.8125Y-5.2188
X4.5625Y-2.9688
X4.5625Y-3.7188
X2.125Y-5.9688
X2.875Y-5.2188
X6.0625Y-2.9688
X2.875Y-3.7188
X3.7188Y-5.6437
X4.1875Y-5.9688
X4.6562Y-5.6437
X2.875Y-5.9688
X5.3125Y-5.9688
X2.125Y-5.2188
X2.875Y-2.9688
X3.8125Y-2.9688
X5.3125Y-5.2188
X3.8125Y-4.4688
X2.125Y-3.7188
X4.5625Y-5.2188
X5.7375Y-3.625
X5.7375Y-4.5625
X6.0625Y-4.0938
X5.3125Y-4.4688
X5.3125Y-3.7188
X2.875Y-4.4688
T1
G00X4.2069Y-2.0747
M15
G01X4.2167Y-2.0747
M16
G05
T0
M30
