G04 #@! TF.GenerationSoftware,KiCad,Pcbnew,(5.1.5)-3*
G04 #@! TF.CreationDate,2020-10-08T21:20:27+02:00*
G04 #@! TF.ProjectId,NumPad,4e756d50-6164-42e6-9b69-6361645f7063,rev?*
G04 #@! TF.SameCoordinates,Original*
G04 #@! TF.FileFunction,Legend,Top*
G04 #@! TF.FilePolarity,Positive*
%FSLAX46Y46*%
G04 Gerber Fmt 4.6, Leading zero omitted, Abs format (unit mm)*
G04 Created by KiCad (PCBNEW (5.1.5)-3) date 2020-10-08 21:20:27*
%MOMM*%
%LPD*%
G04 APERTURE LIST*
%ADD10C,4.089800*%
%ADD11C,1.852000*%
%ADD12C,3.150000*%
%ADD13O,1.102000X2.402000*%
%ADD14O,0.952000X0.702000*%
%ADD15C,0.702000*%
%ADD16O,1.102000X2.102000*%
G04 APERTURE END LIST*
%LPC*%
D10*
X106362500Y-151606250D03*
D11*
X101282500Y-151606250D03*
X111442500Y-151606250D03*
D12*
X118268750Y-158591250D03*
X94456250Y-158591250D03*
D10*
X118268750Y-143351250D03*
X94456250Y-143351250D03*
X153987500Y-142081250D03*
D11*
X148907500Y-142081250D03*
X159067500Y-142081250D03*
D12*
X160972500Y-130175000D03*
X160972500Y-153987500D03*
D10*
X145732500Y-130175000D03*
X145732500Y-153987500D03*
X153987500Y-103981250D03*
D11*
X148907500Y-103981250D03*
X159067500Y-103981250D03*
D12*
X160972500Y-92075000D03*
X160972500Y-115887500D03*
D10*
X145732500Y-92075000D03*
X145732500Y-115887500D03*
X134937500Y-151606250D03*
D11*
X129857500Y-151606250D03*
X140017500Y-151606250D03*
D10*
X73025000Y-151606250D03*
D11*
X67945000Y-151606250D03*
X78105000Y-151606250D03*
D10*
X53975000Y-151606250D03*
D11*
X48895000Y-151606250D03*
X59055000Y-151606250D03*
D10*
X134937500Y-132556250D03*
D11*
X129857500Y-132556250D03*
X140017500Y-132556250D03*
D10*
X115887500Y-132556250D03*
D11*
X110807500Y-132556250D03*
X120967500Y-132556250D03*
D10*
X96837500Y-132556250D03*
D11*
X91757500Y-132556250D03*
X101917500Y-132556250D03*
D10*
X73025000Y-132556250D03*
D11*
X67945000Y-132556250D03*
X78105000Y-132556250D03*
D10*
X53975000Y-132556250D03*
D11*
X48895000Y-132556250D03*
X59055000Y-132556250D03*
D10*
X134937500Y-113506250D03*
D11*
X129857500Y-113506250D03*
X140017500Y-113506250D03*
D10*
X115887500Y-113506250D03*
D11*
X110807500Y-113506250D03*
X120967500Y-113506250D03*
D10*
X96837500Y-113506250D03*
D11*
X91757500Y-113506250D03*
X101917500Y-113506250D03*
D10*
X73025000Y-113506250D03*
D11*
X67945000Y-113506250D03*
X78105000Y-113506250D03*
D10*
X53975000Y-113506250D03*
D11*
X48895000Y-113506250D03*
X59055000Y-113506250D03*
D10*
X134937500Y-94456250D03*
D11*
X129857500Y-94456250D03*
X140017500Y-94456250D03*
D10*
X115887500Y-94456250D03*
D11*
X110807500Y-94456250D03*
X120967500Y-94456250D03*
D10*
X96837500Y-94456250D03*
D11*
X91757500Y-94456250D03*
X101917500Y-94456250D03*
D10*
X73025000Y-94456250D03*
D11*
X67945000Y-94456250D03*
X78105000Y-94456250D03*
D10*
X53975000Y-94456250D03*
D11*
X48895000Y-94456250D03*
X59055000Y-94456250D03*
D10*
X153987500Y-75406250D03*
D11*
X148907500Y-75406250D03*
X159067500Y-75406250D03*
D10*
X134937500Y-75406250D03*
D11*
X129857500Y-75406250D03*
X140017500Y-75406250D03*
D10*
X115887500Y-75406250D03*
D11*
X110807500Y-75406250D03*
X120967500Y-75406250D03*
D10*
X96837500Y-75406250D03*
D11*
X91757500Y-75406250D03*
X101917500Y-75406250D03*
D10*
X73025000Y-75406250D03*
D11*
X67945000Y-75406250D03*
X78105000Y-75406250D03*
D10*
X53975000Y-75406250D03*
D11*
X48895000Y-75406250D03*
X59055000Y-75406250D03*
D13*
X108300000Y-49597500D03*
D14*
X106980000Y-52697500D03*
D13*
X99660000Y-49597500D03*
D15*
X100980000Y-52697500D03*
D16*
X99660000Y-53422500D03*
X108300000Y-53422500D03*
M02*
