G04 #@! TF.GenerationSoftware,KiCad,Pcbnew,(5.1.5)-3*
G04 #@! TF.CreationDate,2020-10-08T21:20:26+02:00*
G04 #@! TF.ProjectId,NumPad,4e756d50-6164-42e6-9b69-6361645f7063,rev?*
G04 #@! TF.SameCoordinates,Original*
G04 #@! TF.FileFunction,Paste,Bot*
G04 #@! TF.FilePolarity,Positive*
%FSLAX46Y46*%
G04 Gerber Fmt 4.6, Leading zero omitted, Abs format (unit mm)*
G04 Created by KiCad (PCBNEW (5.1.5)-3) date 2020-10-08 21:20:27*
%MOMM*%
%LPD*%
G04 APERTURE LIST*
%ADD10R,1.200000X1.400000*%
%ADD11R,1.500000X0.550000*%
%ADD12R,0.550000X1.500000*%
%ADD13R,1.000000X1.700000*%
%ADD14C,0.100000*%
%ADD15R,1.000000X2.000000*%
%ADD16R,0.270000X1.000000*%
%ADD17R,0.520000X1.000000*%
G04 APERTURE END LIST*
D10*
X139172000Y-59705000D03*
X139172000Y-57505000D03*
X137472000Y-57505000D03*
X137472000Y-59705000D03*
D11*
X122622000Y-55105000D03*
X122622000Y-55905000D03*
X122622000Y-56705000D03*
X122622000Y-57505000D03*
X122622000Y-58305000D03*
X122622000Y-59105000D03*
X122622000Y-59905000D03*
X122622000Y-60705000D03*
X122622000Y-61505000D03*
X122622000Y-62305000D03*
X122622000Y-63105000D03*
D12*
X124322000Y-64805000D03*
X125122000Y-64805000D03*
X125922000Y-64805000D03*
X126722000Y-64805000D03*
X127522000Y-64805000D03*
X128322000Y-64805000D03*
X129122000Y-64805000D03*
X129922000Y-64805000D03*
X130722000Y-64805000D03*
X131522000Y-64805000D03*
X132322000Y-64805000D03*
D11*
X134022000Y-63105000D03*
X134022000Y-62305000D03*
X134022000Y-61505000D03*
X134022000Y-60705000D03*
X134022000Y-59905000D03*
X134022000Y-59105000D03*
X134022000Y-58305000D03*
X134022000Y-57505000D03*
X134022000Y-56705000D03*
X134022000Y-55905000D03*
X134022000Y-55105000D03*
D12*
X132322000Y-53405000D03*
X131522000Y-53405000D03*
X130722000Y-53405000D03*
X129922000Y-53405000D03*
X129122000Y-53405000D03*
X128322000Y-53405000D03*
X127522000Y-53405000D03*
X126722000Y-53405000D03*
X125922000Y-53405000D03*
X125122000Y-53405000D03*
X124322000Y-53405000D03*
D13*
X147222000Y-61755000D03*
X147222000Y-55455000D03*
X143422000Y-61755000D03*
X143422000Y-55455000D03*
D14*
G36*
X106434505Y-56201204D02*
G01*
X106458773Y-56204804D01*
X106482572Y-56210765D01*
X106505671Y-56219030D01*
X106527850Y-56229520D01*
X106548893Y-56242132D01*
X106568599Y-56256747D01*
X106586777Y-56273223D01*
X106603253Y-56291401D01*
X106617868Y-56311107D01*
X106630480Y-56332150D01*
X106640970Y-56354329D01*
X106649235Y-56377428D01*
X106655196Y-56401227D01*
X106658796Y-56425495D01*
X106660000Y-56449999D01*
X106660000Y-57100001D01*
X106658796Y-57124505D01*
X106655196Y-57148773D01*
X106649235Y-57172572D01*
X106640970Y-57195671D01*
X106630480Y-57217850D01*
X106617868Y-57238893D01*
X106603253Y-57258599D01*
X106586777Y-57276777D01*
X106568599Y-57293253D01*
X106548893Y-57307868D01*
X106527850Y-57320480D01*
X106505671Y-57330970D01*
X106482572Y-57339235D01*
X106458773Y-57345196D01*
X106434505Y-57348796D01*
X106410001Y-57350000D01*
X105509999Y-57350000D01*
X105485495Y-57348796D01*
X105461227Y-57345196D01*
X105437428Y-57339235D01*
X105414329Y-57330970D01*
X105392150Y-57320480D01*
X105371107Y-57307868D01*
X105351401Y-57293253D01*
X105333223Y-57276777D01*
X105316747Y-57258599D01*
X105302132Y-57238893D01*
X105289520Y-57217850D01*
X105279030Y-57195671D01*
X105270765Y-57172572D01*
X105264804Y-57148773D01*
X105261204Y-57124505D01*
X105260000Y-57100001D01*
X105260000Y-56449999D01*
X105261204Y-56425495D01*
X105264804Y-56401227D01*
X105270765Y-56377428D01*
X105279030Y-56354329D01*
X105289520Y-56332150D01*
X105302132Y-56311107D01*
X105316747Y-56291401D01*
X105333223Y-56273223D01*
X105351401Y-56256747D01*
X105371107Y-56242132D01*
X105392150Y-56229520D01*
X105414329Y-56219030D01*
X105437428Y-56210765D01*
X105461227Y-56204804D01*
X105485495Y-56201204D01*
X105509999Y-56200000D01*
X106410001Y-56200000D01*
X106434505Y-56201204D01*
G37*
G36*
X106434505Y-58251204D02*
G01*
X106458773Y-58254804D01*
X106482572Y-58260765D01*
X106505671Y-58269030D01*
X106527850Y-58279520D01*
X106548893Y-58292132D01*
X106568599Y-58306747D01*
X106586777Y-58323223D01*
X106603253Y-58341401D01*
X106617868Y-58361107D01*
X106630480Y-58382150D01*
X106640970Y-58404329D01*
X106649235Y-58427428D01*
X106655196Y-58451227D01*
X106658796Y-58475495D01*
X106660000Y-58499999D01*
X106660000Y-59150001D01*
X106658796Y-59174505D01*
X106655196Y-59198773D01*
X106649235Y-59222572D01*
X106640970Y-59245671D01*
X106630480Y-59267850D01*
X106617868Y-59288893D01*
X106603253Y-59308599D01*
X106586777Y-59326777D01*
X106568599Y-59343253D01*
X106548893Y-59357868D01*
X106527850Y-59370480D01*
X106505671Y-59380970D01*
X106482572Y-59389235D01*
X106458773Y-59395196D01*
X106434505Y-59398796D01*
X106410001Y-59400000D01*
X105509999Y-59400000D01*
X105485495Y-59398796D01*
X105461227Y-59395196D01*
X105437428Y-59389235D01*
X105414329Y-59380970D01*
X105392150Y-59370480D01*
X105371107Y-59357868D01*
X105351401Y-59343253D01*
X105333223Y-59326777D01*
X105316747Y-59308599D01*
X105302132Y-59288893D01*
X105289520Y-59267850D01*
X105279030Y-59245671D01*
X105270765Y-59222572D01*
X105264804Y-59198773D01*
X105261204Y-59174505D01*
X105260000Y-59150001D01*
X105260000Y-58499999D01*
X105261204Y-58475495D01*
X105264804Y-58451227D01*
X105270765Y-58427428D01*
X105279030Y-58404329D01*
X105289520Y-58382150D01*
X105302132Y-58361107D01*
X105316747Y-58341401D01*
X105333223Y-58323223D01*
X105351401Y-58306747D01*
X105371107Y-58292132D01*
X105392150Y-58279520D01*
X105414329Y-58269030D01*
X105437428Y-58260765D01*
X105461227Y-58254804D01*
X105485495Y-58251204D01*
X105509999Y-58250000D01*
X106410001Y-58250000D01*
X106434505Y-58251204D01*
G37*
G36*
X102474505Y-56201204D02*
G01*
X102498773Y-56204804D01*
X102522572Y-56210765D01*
X102545671Y-56219030D01*
X102567850Y-56229520D01*
X102588893Y-56242132D01*
X102608599Y-56256747D01*
X102626777Y-56273223D01*
X102643253Y-56291401D01*
X102657868Y-56311107D01*
X102670480Y-56332150D01*
X102680970Y-56354329D01*
X102689235Y-56377428D01*
X102695196Y-56401227D01*
X102698796Y-56425495D01*
X102700000Y-56449999D01*
X102700000Y-57100001D01*
X102698796Y-57124505D01*
X102695196Y-57148773D01*
X102689235Y-57172572D01*
X102680970Y-57195671D01*
X102670480Y-57217850D01*
X102657868Y-57238893D01*
X102643253Y-57258599D01*
X102626777Y-57276777D01*
X102608599Y-57293253D01*
X102588893Y-57307868D01*
X102567850Y-57320480D01*
X102545671Y-57330970D01*
X102522572Y-57339235D01*
X102498773Y-57345196D01*
X102474505Y-57348796D01*
X102450001Y-57350000D01*
X101549999Y-57350000D01*
X101525495Y-57348796D01*
X101501227Y-57345196D01*
X101477428Y-57339235D01*
X101454329Y-57330970D01*
X101432150Y-57320480D01*
X101411107Y-57307868D01*
X101391401Y-57293253D01*
X101373223Y-57276777D01*
X101356747Y-57258599D01*
X101342132Y-57238893D01*
X101329520Y-57217850D01*
X101319030Y-57195671D01*
X101310765Y-57172572D01*
X101304804Y-57148773D01*
X101301204Y-57124505D01*
X101300000Y-57100001D01*
X101300000Y-56449999D01*
X101301204Y-56425495D01*
X101304804Y-56401227D01*
X101310765Y-56377428D01*
X101319030Y-56354329D01*
X101329520Y-56332150D01*
X101342132Y-56311107D01*
X101356747Y-56291401D01*
X101373223Y-56273223D01*
X101391401Y-56256747D01*
X101411107Y-56242132D01*
X101432150Y-56229520D01*
X101454329Y-56219030D01*
X101477428Y-56210765D01*
X101501227Y-56204804D01*
X101525495Y-56201204D01*
X101549999Y-56200000D01*
X102450001Y-56200000D01*
X102474505Y-56201204D01*
G37*
G36*
X102474505Y-58251204D02*
G01*
X102498773Y-58254804D01*
X102522572Y-58260765D01*
X102545671Y-58269030D01*
X102567850Y-58279520D01*
X102588893Y-58292132D01*
X102608599Y-58306747D01*
X102626777Y-58323223D01*
X102643253Y-58341401D01*
X102657868Y-58361107D01*
X102670480Y-58382150D01*
X102680970Y-58404329D01*
X102689235Y-58427428D01*
X102695196Y-58451227D01*
X102698796Y-58475495D01*
X102700000Y-58499999D01*
X102700000Y-59150001D01*
X102698796Y-59174505D01*
X102695196Y-59198773D01*
X102689235Y-59222572D01*
X102680970Y-59245671D01*
X102670480Y-59267850D01*
X102657868Y-59288893D01*
X102643253Y-59308599D01*
X102626777Y-59326777D01*
X102608599Y-59343253D01*
X102588893Y-59357868D01*
X102567850Y-59370480D01*
X102545671Y-59380970D01*
X102522572Y-59389235D01*
X102498773Y-59395196D01*
X102474505Y-59398796D01*
X102450001Y-59400000D01*
X101549999Y-59400000D01*
X101525495Y-59398796D01*
X101501227Y-59395196D01*
X101477428Y-59389235D01*
X101454329Y-59380970D01*
X101432150Y-59370480D01*
X101411107Y-59357868D01*
X101391401Y-59343253D01*
X101373223Y-59326777D01*
X101356747Y-59308599D01*
X101342132Y-59288893D01*
X101329520Y-59267850D01*
X101319030Y-59245671D01*
X101310765Y-59222572D01*
X101304804Y-59198773D01*
X101301204Y-59174505D01*
X101300000Y-59150001D01*
X101300000Y-58499999D01*
X101301204Y-58475495D01*
X101304804Y-58451227D01*
X101310765Y-58427428D01*
X101319030Y-58404329D01*
X101329520Y-58382150D01*
X101342132Y-58361107D01*
X101356747Y-58341401D01*
X101373223Y-58323223D01*
X101391401Y-58306747D01*
X101411107Y-58292132D01*
X101432150Y-58279520D01*
X101454329Y-58269030D01*
X101477428Y-58260765D01*
X101501227Y-58254804D01*
X101525495Y-58251204D01*
X101549999Y-58250000D01*
X102450001Y-58250000D01*
X102474505Y-58251204D01*
G37*
G36*
X119696505Y-49406204D02*
G01*
X119720773Y-49409804D01*
X119744572Y-49415765D01*
X119767671Y-49424030D01*
X119789850Y-49434520D01*
X119810893Y-49447132D01*
X119830599Y-49461747D01*
X119848777Y-49478223D01*
X119865253Y-49496401D01*
X119879868Y-49516107D01*
X119892480Y-49537150D01*
X119902970Y-49559329D01*
X119911235Y-49582428D01*
X119917196Y-49606227D01*
X119920796Y-49630495D01*
X119922000Y-49654999D01*
X119922000Y-50555001D01*
X119920796Y-50579505D01*
X119917196Y-50603773D01*
X119911235Y-50627572D01*
X119902970Y-50650671D01*
X119892480Y-50672850D01*
X119879868Y-50693893D01*
X119865253Y-50713599D01*
X119848777Y-50731777D01*
X119830599Y-50748253D01*
X119810893Y-50762868D01*
X119789850Y-50775480D01*
X119767671Y-50785970D01*
X119744572Y-50794235D01*
X119720773Y-50800196D01*
X119696505Y-50803796D01*
X119672001Y-50805000D01*
X119021999Y-50805000D01*
X118997495Y-50803796D01*
X118973227Y-50800196D01*
X118949428Y-50794235D01*
X118926329Y-50785970D01*
X118904150Y-50775480D01*
X118883107Y-50762868D01*
X118863401Y-50748253D01*
X118845223Y-50731777D01*
X118828747Y-50713599D01*
X118814132Y-50693893D01*
X118801520Y-50672850D01*
X118791030Y-50650671D01*
X118782765Y-50627572D01*
X118776804Y-50603773D01*
X118773204Y-50579505D01*
X118772000Y-50555001D01*
X118772000Y-49654999D01*
X118773204Y-49630495D01*
X118776804Y-49606227D01*
X118782765Y-49582428D01*
X118791030Y-49559329D01*
X118801520Y-49537150D01*
X118814132Y-49516107D01*
X118828747Y-49496401D01*
X118845223Y-49478223D01*
X118863401Y-49461747D01*
X118883107Y-49447132D01*
X118904150Y-49434520D01*
X118926329Y-49424030D01*
X118949428Y-49415765D01*
X118973227Y-49409804D01*
X118997495Y-49406204D01*
X119021999Y-49405000D01*
X119672001Y-49405000D01*
X119696505Y-49406204D01*
G37*
G36*
X117646505Y-49406204D02*
G01*
X117670773Y-49409804D01*
X117694572Y-49415765D01*
X117717671Y-49424030D01*
X117739850Y-49434520D01*
X117760893Y-49447132D01*
X117780599Y-49461747D01*
X117798777Y-49478223D01*
X117815253Y-49496401D01*
X117829868Y-49516107D01*
X117842480Y-49537150D01*
X117852970Y-49559329D01*
X117861235Y-49582428D01*
X117867196Y-49606227D01*
X117870796Y-49630495D01*
X117872000Y-49654999D01*
X117872000Y-50555001D01*
X117870796Y-50579505D01*
X117867196Y-50603773D01*
X117861235Y-50627572D01*
X117852970Y-50650671D01*
X117842480Y-50672850D01*
X117829868Y-50693893D01*
X117815253Y-50713599D01*
X117798777Y-50731777D01*
X117780599Y-50748253D01*
X117760893Y-50762868D01*
X117739850Y-50775480D01*
X117717671Y-50785970D01*
X117694572Y-50794235D01*
X117670773Y-50800196D01*
X117646505Y-50803796D01*
X117622001Y-50805000D01*
X116971999Y-50805000D01*
X116947495Y-50803796D01*
X116923227Y-50800196D01*
X116899428Y-50794235D01*
X116876329Y-50785970D01*
X116854150Y-50775480D01*
X116833107Y-50762868D01*
X116813401Y-50748253D01*
X116795223Y-50731777D01*
X116778747Y-50713599D01*
X116764132Y-50693893D01*
X116751520Y-50672850D01*
X116741030Y-50650671D01*
X116732765Y-50627572D01*
X116726804Y-50603773D01*
X116723204Y-50579505D01*
X116722000Y-50555001D01*
X116722000Y-49654999D01*
X116723204Y-49630495D01*
X116726804Y-49606227D01*
X116732765Y-49582428D01*
X116741030Y-49559329D01*
X116751520Y-49537150D01*
X116764132Y-49516107D01*
X116778747Y-49496401D01*
X116795223Y-49478223D01*
X116813401Y-49461747D01*
X116833107Y-49447132D01*
X116854150Y-49434520D01*
X116876329Y-49424030D01*
X116899428Y-49415765D01*
X116923227Y-49409804D01*
X116947495Y-49406204D01*
X116971999Y-49405000D01*
X117622001Y-49405000D01*
X117646505Y-49406204D01*
G37*
G36*
X129196505Y-49406204D02*
G01*
X129220773Y-49409804D01*
X129244572Y-49415765D01*
X129267671Y-49424030D01*
X129289850Y-49434520D01*
X129310893Y-49447132D01*
X129330599Y-49461747D01*
X129348777Y-49478223D01*
X129365253Y-49496401D01*
X129379868Y-49516107D01*
X129392480Y-49537150D01*
X129402970Y-49559329D01*
X129411235Y-49582428D01*
X129417196Y-49606227D01*
X129420796Y-49630495D01*
X129422000Y-49654999D01*
X129422000Y-50555001D01*
X129420796Y-50579505D01*
X129417196Y-50603773D01*
X129411235Y-50627572D01*
X129402970Y-50650671D01*
X129392480Y-50672850D01*
X129379868Y-50693893D01*
X129365253Y-50713599D01*
X129348777Y-50731777D01*
X129330599Y-50748253D01*
X129310893Y-50762868D01*
X129289850Y-50775480D01*
X129267671Y-50785970D01*
X129244572Y-50794235D01*
X129220773Y-50800196D01*
X129196505Y-50803796D01*
X129172001Y-50805000D01*
X128521999Y-50805000D01*
X128497495Y-50803796D01*
X128473227Y-50800196D01*
X128449428Y-50794235D01*
X128426329Y-50785970D01*
X128404150Y-50775480D01*
X128383107Y-50762868D01*
X128363401Y-50748253D01*
X128345223Y-50731777D01*
X128328747Y-50713599D01*
X128314132Y-50693893D01*
X128301520Y-50672850D01*
X128291030Y-50650671D01*
X128282765Y-50627572D01*
X128276804Y-50603773D01*
X128273204Y-50579505D01*
X128272000Y-50555001D01*
X128272000Y-49654999D01*
X128273204Y-49630495D01*
X128276804Y-49606227D01*
X128282765Y-49582428D01*
X128291030Y-49559329D01*
X128301520Y-49537150D01*
X128314132Y-49516107D01*
X128328747Y-49496401D01*
X128345223Y-49478223D01*
X128363401Y-49461747D01*
X128383107Y-49447132D01*
X128404150Y-49434520D01*
X128426329Y-49424030D01*
X128449428Y-49415765D01*
X128473227Y-49409804D01*
X128497495Y-49406204D01*
X128521999Y-49405000D01*
X129172001Y-49405000D01*
X129196505Y-49406204D01*
G37*
G36*
X127146505Y-49406204D02*
G01*
X127170773Y-49409804D01*
X127194572Y-49415765D01*
X127217671Y-49424030D01*
X127239850Y-49434520D01*
X127260893Y-49447132D01*
X127280599Y-49461747D01*
X127298777Y-49478223D01*
X127315253Y-49496401D01*
X127329868Y-49516107D01*
X127342480Y-49537150D01*
X127352970Y-49559329D01*
X127361235Y-49582428D01*
X127367196Y-49606227D01*
X127370796Y-49630495D01*
X127372000Y-49654999D01*
X127372000Y-50555001D01*
X127370796Y-50579505D01*
X127367196Y-50603773D01*
X127361235Y-50627572D01*
X127352970Y-50650671D01*
X127342480Y-50672850D01*
X127329868Y-50693893D01*
X127315253Y-50713599D01*
X127298777Y-50731777D01*
X127280599Y-50748253D01*
X127260893Y-50762868D01*
X127239850Y-50775480D01*
X127217671Y-50785970D01*
X127194572Y-50794235D01*
X127170773Y-50800196D01*
X127146505Y-50803796D01*
X127122001Y-50805000D01*
X126471999Y-50805000D01*
X126447495Y-50803796D01*
X126423227Y-50800196D01*
X126399428Y-50794235D01*
X126376329Y-50785970D01*
X126354150Y-50775480D01*
X126333107Y-50762868D01*
X126313401Y-50748253D01*
X126295223Y-50731777D01*
X126278747Y-50713599D01*
X126264132Y-50693893D01*
X126251520Y-50672850D01*
X126241030Y-50650671D01*
X126232765Y-50627572D01*
X126226804Y-50603773D01*
X126223204Y-50579505D01*
X126222000Y-50555001D01*
X126222000Y-49654999D01*
X126223204Y-49630495D01*
X126226804Y-49606227D01*
X126232765Y-49582428D01*
X126241030Y-49559329D01*
X126251520Y-49537150D01*
X126264132Y-49516107D01*
X126278747Y-49496401D01*
X126295223Y-49478223D01*
X126313401Y-49461747D01*
X126333107Y-49447132D01*
X126354150Y-49434520D01*
X126376329Y-49424030D01*
X126399428Y-49415765D01*
X126423227Y-49409804D01*
X126447495Y-49406204D01*
X126471999Y-49405000D01*
X127122001Y-49405000D01*
X127146505Y-49406204D01*
G37*
G36*
X143446505Y-49406204D02*
G01*
X143470773Y-49409804D01*
X143494572Y-49415765D01*
X143517671Y-49424030D01*
X143539850Y-49434520D01*
X143560893Y-49447132D01*
X143580599Y-49461747D01*
X143598777Y-49478223D01*
X143615253Y-49496401D01*
X143629868Y-49516107D01*
X143642480Y-49537150D01*
X143652970Y-49559329D01*
X143661235Y-49582428D01*
X143667196Y-49606227D01*
X143670796Y-49630495D01*
X143672000Y-49654999D01*
X143672000Y-50555001D01*
X143670796Y-50579505D01*
X143667196Y-50603773D01*
X143661235Y-50627572D01*
X143652970Y-50650671D01*
X143642480Y-50672850D01*
X143629868Y-50693893D01*
X143615253Y-50713599D01*
X143598777Y-50731777D01*
X143580599Y-50748253D01*
X143560893Y-50762868D01*
X143539850Y-50775480D01*
X143517671Y-50785970D01*
X143494572Y-50794235D01*
X143470773Y-50800196D01*
X143446505Y-50803796D01*
X143422001Y-50805000D01*
X142771999Y-50805000D01*
X142747495Y-50803796D01*
X142723227Y-50800196D01*
X142699428Y-50794235D01*
X142676329Y-50785970D01*
X142654150Y-50775480D01*
X142633107Y-50762868D01*
X142613401Y-50748253D01*
X142595223Y-50731777D01*
X142578747Y-50713599D01*
X142564132Y-50693893D01*
X142551520Y-50672850D01*
X142541030Y-50650671D01*
X142532765Y-50627572D01*
X142526804Y-50603773D01*
X142523204Y-50579505D01*
X142522000Y-50555001D01*
X142522000Y-49654999D01*
X142523204Y-49630495D01*
X142526804Y-49606227D01*
X142532765Y-49582428D01*
X142541030Y-49559329D01*
X142551520Y-49537150D01*
X142564132Y-49516107D01*
X142578747Y-49496401D01*
X142595223Y-49478223D01*
X142613401Y-49461747D01*
X142633107Y-49447132D01*
X142654150Y-49434520D01*
X142676329Y-49424030D01*
X142699428Y-49415765D01*
X142723227Y-49409804D01*
X142747495Y-49406204D01*
X142771999Y-49405000D01*
X143422001Y-49405000D01*
X143446505Y-49406204D01*
G37*
G36*
X141396505Y-49406204D02*
G01*
X141420773Y-49409804D01*
X141444572Y-49415765D01*
X141467671Y-49424030D01*
X141489850Y-49434520D01*
X141510893Y-49447132D01*
X141530599Y-49461747D01*
X141548777Y-49478223D01*
X141565253Y-49496401D01*
X141579868Y-49516107D01*
X141592480Y-49537150D01*
X141602970Y-49559329D01*
X141611235Y-49582428D01*
X141617196Y-49606227D01*
X141620796Y-49630495D01*
X141622000Y-49654999D01*
X141622000Y-50555001D01*
X141620796Y-50579505D01*
X141617196Y-50603773D01*
X141611235Y-50627572D01*
X141602970Y-50650671D01*
X141592480Y-50672850D01*
X141579868Y-50693893D01*
X141565253Y-50713599D01*
X141548777Y-50731777D01*
X141530599Y-50748253D01*
X141510893Y-50762868D01*
X141489850Y-50775480D01*
X141467671Y-50785970D01*
X141444572Y-50794235D01*
X141420773Y-50800196D01*
X141396505Y-50803796D01*
X141372001Y-50805000D01*
X140721999Y-50805000D01*
X140697495Y-50803796D01*
X140673227Y-50800196D01*
X140649428Y-50794235D01*
X140626329Y-50785970D01*
X140604150Y-50775480D01*
X140583107Y-50762868D01*
X140563401Y-50748253D01*
X140545223Y-50731777D01*
X140528747Y-50713599D01*
X140514132Y-50693893D01*
X140501520Y-50672850D01*
X140491030Y-50650671D01*
X140482765Y-50627572D01*
X140476804Y-50603773D01*
X140473204Y-50579505D01*
X140472000Y-50555001D01*
X140472000Y-49654999D01*
X140473204Y-49630495D01*
X140476804Y-49606227D01*
X140482765Y-49582428D01*
X140491030Y-49559329D01*
X140501520Y-49537150D01*
X140514132Y-49516107D01*
X140528747Y-49496401D01*
X140545223Y-49478223D01*
X140563401Y-49461747D01*
X140583107Y-49447132D01*
X140604150Y-49434520D01*
X140626329Y-49424030D01*
X140649428Y-49415765D01*
X140673227Y-49409804D01*
X140697495Y-49406204D01*
X140721999Y-49405000D01*
X141372001Y-49405000D01*
X141396505Y-49406204D01*
G37*
G36*
X124696505Y-67406204D02*
G01*
X124720773Y-67409804D01*
X124744572Y-67415765D01*
X124767671Y-67424030D01*
X124789850Y-67434520D01*
X124810893Y-67447132D01*
X124830599Y-67461747D01*
X124848777Y-67478223D01*
X124865253Y-67496401D01*
X124879868Y-67516107D01*
X124892480Y-67537150D01*
X124902970Y-67559329D01*
X124911235Y-67582428D01*
X124917196Y-67606227D01*
X124920796Y-67630495D01*
X124922000Y-67654999D01*
X124922000Y-68555001D01*
X124920796Y-68579505D01*
X124917196Y-68603773D01*
X124911235Y-68627572D01*
X124902970Y-68650671D01*
X124892480Y-68672850D01*
X124879868Y-68693893D01*
X124865253Y-68713599D01*
X124848777Y-68731777D01*
X124830599Y-68748253D01*
X124810893Y-68762868D01*
X124789850Y-68775480D01*
X124767671Y-68785970D01*
X124744572Y-68794235D01*
X124720773Y-68800196D01*
X124696505Y-68803796D01*
X124672001Y-68805000D01*
X124021999Y-68805000D01*
X123997495Y-68803796D01*
X123973227Y-68800196D01*
X123949428Y-68794235D01*
X123926329Y-68785970D01*
X123904150Y-68775480D01*
X123883107Y-68762868D01*
X123863401Y-68748253D01*
X123845223Y-68731777D01*
X123828747Y-68713599D01*
X123814132Y-68693893D01*
X123801520Y-68672850D01*
X123791030Y-68650671D01*
X123782765Y-68627572D01*
X123776804Y-68603773D01*
X123773204Y-68579505D01*
X123772000Y-68555001D01*
X123772000Y-67654999D01*
X123773204Y-67630495D01*
X123776804Y-67606227D01*
X123782765Y-67582428D01*
X123791030Y-67559329D01*
X123801520Y-67537150D01*
X123814132Y-67516107D01*
X123828747Y-67496401D01*
X123845223Y-67478223D01*
X123863401Y-67461747D01*
X123883107Y-67447132D01*
X123904150Y-67434520D01*
X123926329Y-67424030D01*
X123949428Y-67415765D01*
X123973227Y-67409804D01*
X123997495Y-67406204D01*
X124021999Y-67405000D01*
X124672001Y-67405000D01*
X124696505Y-67406204D01*
G37*
G36*
X122646505Y-67406204D02*
G01*
X122670773Y-67409804D01*
X122694572Y-67415765D01*
X122717671Y-67424030D01*
X122739850Y-67434520D01*
X122760893Y-67447132D01*
X122780599Y-67461747D01*
X122798777Y-67478223D01*
X122815253Y-67496401D01*
X122829868Y-67516107D01*
X122842480Y-67537150D01*
X122852970Y-67559329D01*
X122861235Y-67582428D01*
X122867196Y-67606227D01*
X122870796Y-67630495D01*
X122872000Y-67654999D01*
X122872000Y-68555001D01*
X122870796Y-68579505D01*
X122867196Y-68603773D01*
X122861235Y-68627572D01*
X122852970Y-68650671D01*
X122842480Y-68672850D01*
X122829868Y-68693893D01*
X122815253Y-68713599D01*
X122798777Y-68731777D01*
X122780599Y-68748253D01*
X122760893Y-68762868D01*
X122739850Y-68775480D01*
X122717671Y-68785970D01*
X122694572Y-68794235D01*
X122670773Y-68800196D01*
X122646505Y-68803796D01*
X122622001Y-68805000D01*
X121971999Y-68805000D01*
X121947495Y-68803796D01*
X121923227Y-68800196D01*
X121899428Y-68794235D01*
X121876329Y-68785970D01*
X121854150Y-68775480D01*
X121833107Y-68762868D01*
X121813401Y-68748253D01*
X121795223Y-68731777D01*
X121778747Y-68713599D01*
X121764132Y-68693893D01*
X121751520Y-68672850D01*
X121741030Y-68650671D01*
X121732765Y-68627572D01*
X121726804Y-68603773D01*
X121723204Y-68579505D01*
X121722000Y-68555001D01*
X121722000Y-67654999D01*
X121723204Y-67630495D01*
X121726804Y-67606227D01*
X121732765Y-67582428D01*
X121741030Y-67559329D01*
X121751520Y-67537150D01*
X121764132Y-67516107D01*
X121778747Y-67496401D01*
X121795223Y-67478223D01*
X121813401Y-67461747D01*
X121833107Y-67447132D01*
X121854150Y-67434520D01*
X121876329Y-67424030D01*
X121899428Y-67415765D01*
X121923227Y-67409804D01*
X121947495Y-67406204D01*
X121971999Y-67405000D01*
X122622001Y-67405000D01*
X122646505Y-67406204D01*
G37*
D15*
X102580000Y-49597500D03*
X105380000Y-49597500D03*
D16*
X103730000Y-53797500D03*
X105730000Y-53797500D03*
X105230000Y-53797500D03*
X104730000Y-53797500D03*
X104230000Y-53797500D03*
X103230000Y-53797500D03*
X102730000Y-53797500D03*
X102230000Y-53797500D03*
D17*
X107080000Y-53797500D03*
X106330000Y-53797500D03*
X101630000Y-53797500D03*
X100880000Y-53797500D03*
X100880000Y-53797500D03*
X101630000Y-53797500D03*
X106330000Y-53797500D03*
X107080000Y-53797500D03*
D14*
G36*
X111499504Y-56926204D02*
G01*
X111523773Y-56929804D01*
X111547571Y-56935765D01*
X111570671Y-56944030D01*
X111592849Y-56954520D01*
X111613893Y-56967133D01*
X111633598Y-56981747D01*
X111651777Y-56998223D01*
X111668253Y-57016402D01*
X111682867Y-57036107D01*
X111695480Y-57057151D01*
X111705970Y-57079329D01*
X111714235Y-57102429D01*
X111720196Y-57126227D01*
X111723796Y-57150496D01*
X111725000Y-57175000D01*
X111725000Y-58425000D01*
X111723796Y-58449504D01*
X111720196Y-58473773D01*
X111714235Y-58497571D01*
X111705970Y-58520671D01*
X111695480Y-58542849D01*
X111682867Y-58563893D01*
X111668253Y-58583598D01*
X111651777Y-58601777D01*
X111633598Y-58618253D01*
X111613893Y-58632867D01*
X111592849Y-58645480D01*
X111570671Y-58655970D01*
X111547571Y-58664235D01*
X111523773Y-58670196D01*
X111499504Y-58673796D01*
X111475000Y-58675000D01*
X110550000Y-58675000D01*
X110525496Y-58673796D01*
X110501227Y-58670196D01*
X110477429Y-58664235D01*
X110454329Y-58655970D01*
X110432151Y-58645480D01*
X110411107Y-58632867D01*
X110391402Y-58618253D01*
X110373223Y-58601777D01*
X110356747Y-58583598D01*
X110342133Y-58563893D01*
X110329520Y-58542849D01*
X110319030Y-58520671D01*
X110310765Y-58497571D01*
X110304804Y-58473773D01*
X110301204Y-58449504D01*
X110300000Y-58425000D01*
X110300000Y-57175000D01*
X110301204Y-57150496D01*
X110304804Y-57126227D01*
X110310765Y-57102429D01*
X110319030Y-57079329D01*
X110329520Y-57057151D01*
X110342133Y-57036107D01*
X110356747Y-57016402D01*
X110373223Y-56998223D01*
X110391402Y-56981747D01*
X110411107Y-56967133D01*
X110432151Y-56954520D01*
X110454329Y-56944030D01*
X110477429Y-56935765D01*
X110501227Y-56929804D01*
X110525496Y-56926204D01*
X110550000Y-56925000D01*
X111475000Y-56925000D01*
X111499504Y-56926204D01*
G37*
G36*
X114474504Y-56926204D02*
G01*
X114498773Y-56929804D01*
X114522571Y-56935765D01*
X114545671Y-56944030D01*
X114567849Y-56954520D01*
X114588893Y-56967133D01*
X114608598Y-56981747D01*
X114626777Y-56998223D01*
X114643253Y-57016402D01*
X114657867Y-57036107D01*
X114670480Y-57057151D01*
X114680970Y-57079329D01*
X114689235Y-57102429D01*
X114695196Y-57126227D01*
X114698796Y-57150496D01*
X114700000Y-57175000D01*
X114700000Y-58425000D01*
X114698796Y-58449504D01*
X114695196Y-58473773D01*
X114689235Y-58497571D01*
X114680970Y-58520671D01*
X114670480Y-58542849D01*
X114657867Y-58563893D01*
X114643253Y-58583598D01*
X114626777Y-58601777D01*
X114608598Y-58618253D01*
X114588893Y-58632867D01*
X114567849Y-58645480D01*
X114545671Y-58655970D01*
X114522571Y-58664235D01*
X114498773Y-58670196D01*
X114474504Y-58673796D01*
X114450000Y-58675000D01*
X113525000Y-58675000D01*
X113500496Y-58673796D01*
X113476227Y-58670196D01*
X113452429Y-58664235D01*
X113429329Y-58655970D01*
X113407151Y-58645480D01*
X113386107Y-58632867D01*
X113366402Y-58618253D01*
X113348223Y-58601777D01*
X113331747Y-58583598D01*
X113317133Y-58563893D01*
X113304520Y-58542849D01*
X113294030Y-58520671D01*
X113285765Y-58497571D01*
X113279804Y-58473773D01*
X113276204Y-58449504D01*
X113275000Y-58425000D01*
X113275000Y-57175000D01*
X113276204Y-57150496D01*
X113279804Y-57126227D01*
X113285765Y-57102429D01*
X113294030Y-57079329D01*
X113304520Y-57057151D01*
X113317133Y-57036107D01*
X113331747Y-57016402D01*
X113348223Y-56998223D01*
X113366402Y-56981747D01*
X113386107Y-56967133D01*
X113407151Y-56954520D01*
X113429329Y-56944030D01*
X113452429Y-56935765D01*
X113476227Y-56929804D01*
X113500496Y-56926204D01*
X113525000Y-56925000D01*
X114450000Y-56925000D01*
X114474504Y-56926204D01*
G37*
G36*
X136312005Y-156463704D02*
G01*
X136336273Y-156467304D01*
X136360072Y-156473265D01*
X136383171Y-156481530D01*
X136405350Y-156492020D01*
X136426393Y-156504632D01*
X136446099Y-156519247D01*
X136464277Y-156535723D01*
X136480753Y-156553901D01*
X136495368Y-156573607D01*
X136507980Y-156594650D01*
X136518470Y-156616829D01*
X136526735Y-156639928D01*
X136532696Y-156663727D01*
X136536296Y-156687995D01*
X136537500Y-156712499D01*
X136537500Y-157612501D01*
X136536296Y-157637005D01*
X136532696Y-157661273D01*
X136526735Y-157685072D01*
X136518470Y-157708171D01*
X136507980Y-157730350D01*
X136495368Y-157751393D01*
X136480753Y-157771099D01*
X136464277Y-157789277D01*
X136446099Y-157805753D01*
X136426393Y-157820368D01*
X136405350Y-157832980D01*
X136383171Y-157843470D01*
X136360072Y-157851735D01*
X136336273Y-157857696D01*
X136312005Y-157861296D01*
X136287501Y-157862500D01*
X135637499Y-157862500D01*
X135612995Y-157861296D01*
X135588727Y-157857696D01*
X135564928Y-157851735D01*
X135541829Y-157843470D01*
X135519650Y-157832980D01*
X135498607Y-157820368D01*
X135478901Y-157805753D01*
X135460723Y-157789277D01*
X135444247Y-157771099D01*
X135429632Y-157751393D01*
X135417020Y-157730350D01*
X135406530Y-157708171D01*
X135398265Y-157685072D01*
X135392304Y-157661273D01*
X135388704Y-157637005D01*
X135387500Y-157612501D01*
X135387500Y-156712499D01*
X135388704Y-156687995D01*
X135392304Y-156663727D01*
X135398265Y-156639928D01*
X135406530Y-156616829D01*
X135417020Y-156594650D01*
X135429632Y-156573607D01*
X135444247Y-156553901D01*
X135460723Y-156535723D01*
X135478901Y-156519247D01*
X135498607Y-156504632D01*
X135519650Y-156492020D01*
X135541829Y-156481530D01*
X135564928Y-156473265D01*
X135588727Y-156467304D01*
X135612995Y-156463704D01*
X135637499Y-156462500D01*
X136287501Y-156462500D01*
X136312005Y-156463704D01*
G37*
G36*
X134262005Y-156463704D02*
G01*
X134286273Y-156467304D01*
X134310072Y-156473265D01*
X134333171Y-156481530D01*
X134355350Y-156492020D01*
X134376393Y-156504632D01*
X134396099Y-156519247D01*
X134414277Y-156535723D01*
X134430753Y-156553901D01*
X134445368Y-156573607D01*
X134457980Y-156594650D01*
X134468470Y-156616829D01*
X134476735Y-156639928D01*
X134482696Y-156663727D01*
X134486296Y-156687995D01*
X134487500Y-156712499D01*
X134487500Y-157612501D01*
X134486296Y-157637005D01*
X134482696Y-157661273D01*
X134476735Y-157685072D01*
X134468470Y-157708171D01*
X134457980Y-157730350D01*
X134445368Y-157751393D01*
X134430753Y-157771099D01*
X134414277Y-157789277D01*
X134396099Y-157805753D01*
X134376393Y-157820368D01*
X134355350Y-157832980D01*
X134333171Y-157843470D01*
X134310072Y-157851735D01*
X134286273Y-157857696D01*
X134262005Y-157861296D01*
X134237501Y-157862500D01*
X133587499Y-157862500D01*
X133562995Y-157861296D01*
X133538727Y-157857696D01*
X133514928Y-157851735D01*
X133491829Y-157843470D01*
X133469650Y-157832980D01*
X133448607Y-157820368D01*
X133428901Y-157805753D01*
X133410723Y-157789277D01*
X133394247Y-157771099D01*
X133379632Y-157751393D01*
X133367020Y-157730350D01*
X133356530Y-157708171D01*
X133348265Y-157685072D01*
X133342304Y-157661273D01*
X133338704Y-157637005D01*
X133337500Y-157612501D01*
X133337500Y-156712499D01*
X133338704Y-156687995D01*
X133342304Y-156663727D01*
X133348265Y-156639928D01*
X133356530Y-156616829D01*
X133367020Y-156594650D01*
X133379632Y-156573607D01*
X133394247Y-156553901D01*
X133410723Y-156535723D01*
X133428901Y-156519247D01*
X133448607Y-156504632D01*
X133469650Y-156492020D01*
X133491829Y-156481530D01*
X133514928Y-156473265D01*
X133538727Y-156467304D01*
X133562995Y-156463704D01*
X133587499Y-156462500D01*
X134237501Y-156462500D01*
X134262005Y-156463704D01*
G37*
G36*
X107737005Y-156463704D02*
G01*
X107761273Y-156467304D01*
X107785072Y-156473265D01*
X107808171Y-156481530D01*
X107830350Y-156492020D01*
X107851393Y-156504632D01*
X107871099Y-156519247D01*
X107889277Y-156535723D01*
X107905753Y-156553901D01*
X107920368Y-156573607D01*
X107932980Y-156594650D01*
X107943470Y-156616829D01*
X107951735Y-156639928D01*
X107957696Y-156663727D01*
X107961296Y-156687995D01*
X107962500Y-156712499D01*
X107962500Y-157612501D01*
X107961296Y-157637005D01*
X107957696Y-157661273D01*
X107951735Y-157685072D01*
X107943470Y-157708171D01*
X107932980Y-157730350D01*
X107920368Y-157751393D01*
X107905753Y-157771099D01*
X107889277Y-157789277D01*
X107871099Y-157805753D01*
X107851393Y-157820368D01*
X107830350Y-157832980D01*
X107808171Y-157843470D01*
X107785072Y-157851735D01*
X107761273Y-157857696D01*
X107737005Y-157861296D01*
X107712501Y-157862500D01*
X107062499Y-157862500D01*
X107037995Y-157861296D01*
X107013727Y-157857696D01*
X106989928Y-157851735D01*
X106966829Y-157843470D01*
X106944650Y-157832980D01*
X106923607Y-157820368D01*
X106903901Y-157805753D01*
X106885723Y-157789277D01*
X106869247Y-157771099D01*
X106854632Y-157751393D01*
X106842020Y-157730350D01*
X106831530Y-157708171D01*
X106823265Y-157685072D01*
X106817304Y-157661273D01*
X106813704Y-157637005D01*
X106812500Y-157612501D01*
X106812500Y-156712499D01*
X106813704Y-156687995D01*
X106817304Y-156663727D01*
X106823265Y-156639928D01*
X106831530Y-156616829D01*
X106842020Y-156594650D01*
X106854632Y-156573607D01*
X106869247Y-156553901D01*
X106885723Y-156535723D01*
X106903901Y-156519247D01*
X106923607Y-156504632D01*
X106944650Y-156492020D01*
X106966829Y-156481530D01*
X106989928Y-156473265D01*
X107013727Y-156467304D01*
X107037995Y-156463704D01*
X107062499Y-156462500D01*
X107712501Y-156462500D01*
X107737005Y-156463704D01*
G37*
G36*
X105687005Y-156463704D02*
G01*
X105711273Y-156467304D01*
X105735072Y-156473265D01*
X105758171Y-156481530D01*
X105780350Y-156492020D01*
X105801393Y-156504632D01*
X105821099Y-156519247D01*
X105839277Y-156535723D01*
X105855753Y-156553901D01*
X105870368Y-156573607D01*
X105882980Y-156594650D01*
X105893470Y-156616829D01*
X105901735Y-156639928D01*
X105907696Y-156663727D01*
X105911296Y-156687995D01*
X105912500Y-156712499D01*
X105912500Y-157612501D01*
X105911296Y-157637005D01*
X105907696Y-157661273D01*
X105901735Y-157685072D01*
X105893470Y-157708171D01*
X105882980Y-157730350D01*
X105870368Y-157751393D01*
X105855753Y-157771099D01*
X105839277Y-157789277D01*
X105821099Y-157805753D01*
X105801393Y-157820368D01*
X105780350Y-157832980D01*
X105758171Y-157843470D01*
X105735072Y-157851735D01*
X105711273Y-157857696D01*
X105687005Y-157861296D01*
X105662501Y-157862500D01*
X105012499Y-157862500D01*
X104987995Y-157861296D01*
X104963727Y-157857696D01*
X104939928Y-157851735D01*
X104916829Y-157843470D01*
X104894650Y-157832980D01*
X104873607Y-157820368D01*
X104853901Y-157805753D01*
X104835723Y-157789277D01*
X104819247Y-157771099D01*
X104804632Y-157751393D01*
X104792020Y-157730350D01*
X104781530Y-157708171D01*
X104773265Y-157685072D01*
X104767304Y-157661273D01*
X104763704Y-157637005D01*
X104762500Y-157612501D01*
X104762500Y-156712499D01*
X104763704Y-156687995D01*
X104767304Y-156663727D01*
X104773265Y-156639928D01*
X104781530Y-156616829D01*
X104792020Y-156594650D01*
X104804632Y-156573607D01*
X104819247Y-156553901D01*
X104835723Y-156535723D01*
X104853901Y-156519247D01*
X104873607Y-156504632D01*
X104894650Y-156492020D01*
X104916829Y-156481530D01*
X104939928Y-156473265D01*
X104963727Y-156467304D01*
X104987995Y-156463704D01*
X105012499Y-156462500D01*
X105662501Y-156462500D01*
X105687005Y-156463704D01*
G37*
G36*
X74399505Y-156463704D02*
G01*
X74423773Y-156467304D01*
X74447572Y-156473265D01*
X74470671Y-156481530D01*
X74492850Y-156492020D01*
X74513893Y-156504632D01*
X74533599Y-156519247D01*
X74551777Y-156535723D01*
X74568253Y-156553901D01*
X74582868Y-156573607D01*
X74595480Y-156594650D01*
X74605970Y-156616829D01*
X74614235Y-156639928D01*
X74620196Y-156663727D01*
X74623796Y-156687995D01*
X74625000Y-156712499D01*
X74625000Y-157612501D01*
X74623796Y-157637005D01*
X74620196Y-157661273D01*
X74614235Y-157685072D01*
X74605970Y-157708171D01*
X74595480Y-157730350D01*
X74582868Y-157751393D01*
X74568253Y-157771099D01*
X74551777Y-157789277D01*
X74533599Y-157805753D01*
X74513893Y-157820368D01*
X74492850Y-157832980D01*
X74470671Y-157843470D01*
X74447572Y-157851735D01*
X74423773Y-157857696D01*
X74399505Y-157861296D01*
X74375001Y-157862500D01*
X73724999Y-157862500D01*
X73700495Y-157861296D01*
X73676227Y-157857696D01*
X73652428Y-157851735D01*
X73629329Y-157843470D01*
X73607150Y-157832980D01*
X73586107Y-157820368D01*
X73566401Y-157805753D01*
X73548223Y-157789277D01*
X73531747Y-157771099D01*
X73517132Y-157751393D01*
X73504520Y-157730350D01*
X73494030Y-157708171D01*
X73485765Y-157685072D01*
X73479804Y-157661273D01*
X73476204Y-157637005D01*
X73475000Y-157612501D01*
X73475000Y-156712499D01*
X73476204Y-156687995D01*
X73479804Y-156663727D01*
X73485765Y-156639928D01*
X73494030Y-156616829D01*
X73504520Y-156594650D01*
X73517132Y-156573607D01*
X73531747Y-156553901D01*
X73548223Y-156535723D01*
X73566401Y-156519247D01*
X73586107Y-156504632D01*
X73607150Y-156492020D01*
X73629329Y-156481530D01*
X73652428Y-156473265D01*
X73676227Y-156467304D01*
X73700495Y-156463704D01*
X73724999Y-156462500D01*
X74375001Y-156462500D01*
X74399505Y-156463704D01*
G37*
G36*
X72349505Y-156463704D02*
G01*
X72373773Y-156467304D01*
X72397572Y-156473265D01*
X72420671Y-156481530D01*
X72442850Y-156492020D01*
X72463893Y-156504632D01*
X72483599Y-156519247D01*
X72501777Y-156535723D01*
X72518253Y-156553901D01*
X72532868Y-156573607D01*
X72545480Y-156594650D01*
X72555970Y-156616829D01*
X72564235Y-156639928D01*
X72570196Y-156663727D01*
X72573796Y-156687995D01*
X72575000Y-156712499D01*
X72575000Y-157612501D01*
X72573796Y-157637005D01*
X72570196Y-157661273D01*
X72564235Y-157685072D01*
X72555970Y-157708171D01*
X72545480Y-157730350D01*
X72532868Y-157751393D01*
X72518253Y-157771099D01*
X72501777Y-157789277D01*
X72483599Y-157805753D01*
X72463893Y-157820368D01*
X72442850Y-157832980D01*
X72420671Y-157843470D01*
X72397572Y-157851735D01*
X72373773Y-157857696D01*
X72349505Y-157861296D01*
X72325001Y-157862500D01*
X71674999Y-157862500D01*
X71650495Y-157861296D01*
X71626227Y-157857696D01*
X71602428Y-157851735D01*
X71579329Y-157843470D01*
X71557150Y-157832980D01*
X71536107Y-157820368D01*
X71516401Y-157805753D01*
X71498223Y-157789277D01*
X71481747Y-157771099D01*
X71467132Y-157751393D01*
X71454520Y-157730350D01*
X71444030Y-157708171D01*
X71435765Y-157685072D01*
X71429804Y-157661273D01*
X71426204Y-157637005D01*
X71425000Y-157612501D01*
X71425000Y-156712499D01*
X71426204Y-156687995D01*
X71429804Y-156663727D01*
X71435765Y-156639928D01*
X71444030Y-156616829D01*
X71454520Y-156594650D01*
X71467132Y-156573607D01*
X71481747Y-156553901D01*
X71498223Y-156535723D01*
X71516401Y-156519247D01*
X71536107Y-156504632D01*
X71557150Y-156492020D01*
X71579329Y-156481530D01*
X71602428Y-156473265D01*
X71626227Y-156467304D01*
X71650495Y-156463704D01*
X71674999Y-156462500D01*
X72325001Y-156462500D01*
X72349505Y-156463704D01*
G37*
G36*
X55349505Y-156463704D02*
G01*
X55373773Y-156467304D01*
X55397572Y-156473265D01*
X55420671Y-156481530D01*
X55442850Y-156492020D01*
X55463893Y-156504632D01*
X55483599Y-156519247D01*
X55501777Y-156535723D01*
X55518253Y-156553901D01*
X55532868Y-156573607D01*
X55545480Y-156594650D01*
X55555970Y-156616829D01*
X55564235Y-156639928D01*
X55570196Y-156663727D01*
X55573796Y-156687995D01*
X55575000Y-156712499D01*
X55575000Y-157612501D01*
X55573796Y-157637005D01*
X55570196Y-157661273D01*
X55564235Y-157685072D01*
X55555970Y-157708171D01*
X55545480Y-157730350D01*
X55532868Y-157751393D01*
X55518253Y-157771099D01*
X55501777Y-157789277D01*
X55483599Y-157805753D01*
X55463893Y-157820368D01*
X55442850Y-157832980D01*
X55420671Y-157843470D01*
X55397572Y-157851735D01*
X55373773Y-157857696D01*
X55349505Y-157861296D01*
X55325001Y-157862500D01*
X54674999Y-157862500D01*
X54650495Y-157861296D01*
X54626227Y-157857696D01*
X54602428Y-157851735D01*
X54579329Y-157843470D01*
X54557150Y-157832980D01*
X54536107Y-157820368D01*
X54516401Y-157805753D01*
X54498223Y-157789277D01*
X54481747Y-157771099D01*
X54467132Y-157751393D01*
X54454520Y-157730350D01*
X54444030Y-157708171D01*
X54435765Y-157685072D01*
X54429804Y-157661273D01*
X54426204Y-157637005D01*
X54425000Y-157612501D01*
X54425000Y-156712499D01*
X54426204Y-156687995D01*
X54429804Y-156663727D01*
X54435765Y-156639928D01*
X54444030Y-156616829D01*
X54454520Y-156594650D01*
X54467132Y-156573607D01*
X54481747Y-156553901D01*
X54498223Y-156535723D01*
X54516401Y-156519247D01*
X54536107Y-156504632D01*
X54557150Y-156492020D01*
X54579329Y-156481530D01*
X54602428Y-156473265D01*
X54626227Y-156467304D01*
X54650495Y-156463704D01*
X54674999Y-156462500D01*
X55325001Y-156462500D01*
X55349505Y-156463704D01*
G37*
G36*
X53299505Y-156463704D02*
G01*
X53323773Y-156467304D01*
X53347572Y-156473265D01*
X53370671Y-156481530D01*
X53392850Y-156492020D01*
X53413893Y-156504632D01*
X53433599Y-156519247D01*
X53451777Y-156535723D01*
X53468253Y-156553901D01*
X53482868Y-156573607D01*
X53495480Y-156594650D01*
X53505970Y-156616829D01*
X53514235Y-156639928D01*
X53520196Y-156663727D01*
X53523796Y-156687995D01*
X53525000Y-156712499D01*
X53525000Y-157612501D01*
X53523796Y-157637005D01*
X53520196Y-157661273D01*
X53514235Y-157685072D01*
X53505970Y-157708171D01*
X53495480Y-157730350D01*
X53482868Y-157751393D01*
X53468253Y-157771099D01*
X53451777Y-157789277D01*
X53433599Y-157805753D01*
X53413893Y-157820368D01*
X53392850Y-157832980D01*
X53370671Y-157843470D01*
X53347572Y-157851735D01*
X53323773Y-157857696D01*
X53299505Y-157861296D01*
X53275001Y-157862500D01*
X52624999Y-157862500D01*
X52600495Y-157861296D01*
X52576227Y-157857696D01*
X52552428Y-157851735D01*
X52529329Y-157843470D01*
X52507150Y-157832980D01*
X52486107Y-157820368D01*
X52466401Y-157805753D01*
X52448223Y-157789277D01*
X52431747Y-157771099D01*
X52417132Y-157751393D01*
X52404520Y-157730350D01*
X52394030Y-157708171D01*
X52385765Y-157685072D01*
X52379804Y-157661273D01*
X52376204Y-157637005D01*
X52375000Y-157612501D01*
X52375000Y-156712499D01*
X52376204Y-156687995D01*
X52379804Y-156663727D01*
X52385765Y-156639928D01*
X52394030Y-156616829D01*
X52404520Y-156594650D01*
X52417132Y-156573607D01*
X52431747Y-156553901D01*
X52448223Y-156535723D01*
X52466401Y-156519247D01*
X52486107Y-156504632D01*
X52507150Y-156492020D01*
X52529329Y-156481530D01*
X52552428Y-156473265D01*
X52576227Y-156467304D01*
X52600495Y-156463704D01*
X52624999Y-156462500D01*
X53275001Y-156462500D01*
X53299505Y-156463704D01*
G37*
G36*
X155362005Y-146938704D02*
G01*
X155386273Y-146942304D01*
X155410072Y-146948265D01*
X155433171Y-146956530D01*
X155455350Y-146967020D01*
X155476393Y-146979632D01*
X155496099Y-146994247D01*
X155514277Y-147010723D01*
X155530753Y-147028901D01*
X155545368Y-147048607D01*
X155557980Y-147069650D01*
X155568470Y-147091829D01*
X155576735Y-147114928D01*
X155582696Y-147138727D01*
X155586296Y-147162995D01*
X155587500Y-147187499D01*
X155587500Y-148087501D01*
X155586296Y-148112005D01*
X155582696Y-148136273D01*
X155576735Y-148160072D01*
X155568470Y-148183171D01*
X155557980Y-148205350D01*
X155545368Y-148226393D01*
X155530753Y-148246099D01*
X155514277Y-148264277D01*
X155496099Y-148280753D01*
X155476393Y-148295368D01*
X155455350Y-148307980D01*
X155433171Y-148318470D01*
X155410072Y-148326735D01*
X155386273Y-148332696D01*
X155362005Y-148336296D01*
X155337501Y-148337500D01*
X154687499Y-148337500D01*
X154662995Y-148336296D01*
X154638727Y-148332696D01*
X154614928Y-148326735D01*
X154591829Y-148318470D01*
X154569650Y-148307980D01*
X154548607Y-148295368D01*
X154528901Y-148280753D01*
X154510723Y-148264277D01*
X154494247Y-148246099D01*
X154479632Y-148226393D01*
X154467020Y-148205350D01*
X154456530Y-148183171D01*
X154448265Y-148160072D01*
X154442304Y-148136273D01*
X154438704Y-148112005D01*
X154437500Y-148087501D01*
X154437500Y-147187499D01*
X154438704Y-147162995D01*
X154442304Y-147138727D01*
X154448265Y-147114928D01*
X154456530Y-147091829D01*
X154467020Y-147069650D01*
X154479632Y-147048607D01*
X154494247Y-147028901D01*
X154510723Y-147010723D01*
X154528901Y-146994247D01*
X154548607Y-146979632D01*
X154569650Y-146967020D01*
X154591829Y-146956530D01*
X154614928Y-146948265D01*
X154638727Y-146942304D01*
X154662995Y-146938704D01*
X154687499Y-146937500D01*
X155337501Y-146937500D01*
X155362005Y-146938704D01*
G37*
G36*
X153312005Y-146938704D02*
G01*
X153336273Y-146942304D01*
X153360072Y-146948265D01*
X153383171Y-146956530D01*
X153405350Y-146967020D01*
X153426393Y-146979632D01*
X153446099Y-146994247D01*
X153464277Y-147010723D01*
X153480753Y-147028901D01*
X153495368Y-147048607D01*
X153507980Y-147069650D01*
X153518470Y-147091829D01*
X153526735Y-147114928D01*
X153532696Y-147138727D01*
X153536296Y-147162995D01*
X153537500Y-147187499D01*
X153537500Y-148087501D01*
X153536296Y-148112005D01*
X153532696Y-148136273D01*
X153526735Y-148160072D01*
X153518470Y-148183171D01*
X153507980Y-148205350D01*
X153495368Y-148226393D01*
X153480753Y-148246099D01*
X153464277Y-148264277D01*
X153446099Y-148280753D01*
X153426393Y-148295368D01*
X153405350Y-148307980D01*
X153383171Y-148318470D01*
X153360072Y-148326735D01*
X153336273Y-148332696D01*
X153312005Y-148336296D01*
X153287501Y-148337500D01*
X152637499Y-148337500D01*
X152612995Y-148336296D01*
X152588727Y-148332696D01*
X152564928Y-148326735D01*
X152541829Y-148318470D01*
X152519650Y-148307980D01*
X152498607Y-148295368D01*
X152478901Y-148280753D01*
X152460723Y-148264277D01*
X152444247Y-148246099D01*
X152429632Y-148226393D01*
X152417020Y-148205350D01*
X152406530Y-148183171D01*
X152398265Y-148160072D01*
X152392304Y-148136273D01*
X152388704Y-148112005D01*
X152387500Y-148087501D01*
X152387500Y-147187499D01*
X152388704Y-147162995D01*
X152392304Y-147138727D01*
X152398265Y-147114928D01*
X152406530Y-147091829D01*
X152417020Y-147069650D01*
X152429632Y-147048607D01*
X152444247Y-147028901D01*
X152460723Y-147010723D01*
X152478901Y-146994247D01*
X152498607Y-146979632D01*
X152519650Y-146967020D01*
X152541829Y-146956530D01*
X152564928Y-146948265D01*
X152588727Y-146942304D01*
X152612995Y-146938704D01*
X152637499Y-146937500D01*
X153287501Y-146937500D01*
X153312005Y-146938704D01*
G37*
G36*
X136312005Y-137413704D02*
G01*
X136336273Y-137417304D01*
X136360072Y-137423265D01*
X136383171Y-137431530D01*
X136405350Y-137442020D01*
X136426393Y-137454632D01*
X136446099Y-137469247D01*
X136464277Y-137485723D01*
X136480753Y-137503901D01*
X136495368Y-137523607D01*
X136507980Y-137544650D01*
X136518470Y-137566829D01*
X136526735Y-137589928D01*
X136532696Y-137613727D01*
X136536296Y-137637995D01*
X136537500Y-137662499D01*
X136537500Y-138562501D01*
X136536296Y-138587005D01*
X136532696Y-138611273D01*
X136526735Y-138635072D01*
X136518470Y-138658171D01*
X136507980Y-138680350D01*
X136495368Y-138701393D01*
X136480753Y-138721099D01*
X136464277Y-138739277D01*
X136446099Y-138755753D01*
X136426393Y-138770368D01*
X136405350Y-138782980D01*
X136383171Y-138793470D01*
X136360072Y-138801735D01*
X136336273Y-138807696D01*
X136312005Y-138811296D01*
X136287501Y-138812500D01*
X135637499Y-138812500D01*
X135612995Y-138811296D01*
X135588727Y-138807696D01*
X135564928Y-138801735D01*
X135541829Y-138793470D01*
X135519650Y-138782980D01*
X135498607Y-138770368D01*
X135478901Y-138755753D01*
X135460723Y-138739277D01*
X135444247Y-138721099D01*
X135429632Y-138701393D01*
X135417020Y-138680350D01*
X135406530Y-138658171D01*
X135398265Y-138635072D01*
X135392304Y-138611273D01*
X135388704Y-138587005D01*
X135387500Y-138562501D01*
X135387500Y-137662499D01*
X135388704Y-137637995D01*
X135392304Y-137613727D01*
X135398265Y-137589928D01*
X135406530Y-137566829D01*
X135417020Y-137544650D01*
X135429632Y-137523607D01*
X135444247Y-137503901D01*
X135460723Y-137485723D01*
X135478901Y-137469247D01*
X135498607Y-137454632D01*
X135519650Y-137442020D01*
X135541829Y-137431530D01*
X135564928Y-137423265D01*
X135588727Y-137417304D01*
X135612995Y-137413704D01*
X135637499Y-137412500D01*
X136287501Y-137412500D01*
X136312005Y-137413704D01*
G37*
G36*
X134262005Y-137413704D02*
G01*
X134286273Y-137417304D01*
X134310072Y-137423265D01*
X134333171Y-137431530D01*
X134355350Y-137442020D01*
X134376393Y-137454632D01*
X134396099Y-137469247D01*
X134414277Y-137485723D01*
X134430753Y-137503901D01*
X134445368Y-137523607D01*
X134457980Y-137544650D01*
X134468470Y-137566829D01*
X134476735Y-137589928D01*
X134482696Y-137613727D01*
X134486296Y-137637995D01*
X134487500Y-137662499D01*
X134487500Y-138562501D01*
X134486296Y-138587005D01*
X134482696Y-138611273D01*
X134476735Y-138635072D01*
X134468470Y-138658171D01*
X134457980Y-138680350D01*
X134445368Y-138701393D01*
X134430753Y-138721099D01*
X134414277Y-138739277D01*
X134396099Y-138755753D01*
X134376393Y-138770368D01*
X134355350Y-138782980D01*
X134333171Y-138793470D01*
X134310072Y-138801735D01*
X134286273Y-138807696D01*
X134262005Y-138811296D01*
X134237501Y-138812500D01*
X133587499Y-138812500D01*
X133562995Y-138811296D01*
X133538727Y-138807696D01*
X133514928Y-138801735D01*
X133491829Y-138793470D01*
X133469650Y-138782980D01*
X133448607Y-138770368D01*
X133428901Y-138755753D01*
X133410723Y-138739277D01*
X133394247Y-138721099D01*
X133379632Y-138701393D01*
X133367020Y-138680350D01*
X133356530Y-138658171D01*
X133348265Y-138635072D01*
X133342304Y-138611273D01*
X133338704Y-138587005D01*
X133337500Y-138562501D01*
X133337500Y-137662499D01*
X133338704Y-137637995D01*
X133342304Y-137613727D01*
X133348265Y-137589928D01*
X133356530Y-137566829D01*
X133367020Y-137544650D01*
X133379632Y-137523607D01*
X133394247Y-137503901D01*
X133410723Y-137485723D01*
X133428901Y-137469247D01*
X133448607Y-137454632D01*
X133469650Y-137442020D01*
X133491829Y-137431530D01*
X133514928Y-137423265D01*
X133538727Y-137417304D01*
X133562995Y-137413704D01*
X133587499Y-137412500D01*
X134237501Y-137412500D01*
X134262005Y-137413704D01*
G37*
G36*
X117262005Y-137413704D02*
G01*
X117286273Y-137417304D01*
X117310072Y-137423265D01*
X117333171Y-137431530D01*
X117355350Y-137442020D01*
X117376393Y-137454632D01*
X117396099Y-137469247D01*
X117414277Y-137485723D01*
X117430753Y-137503901D01*
X117445368Y-137523607D01*
X117457980Y-137544650D01*
X117468470Y-137566829D01*
X117476735Y-137589928D01*
X117482696Y-137613727D01*
X117486296Y-137637995D01*
X117487500Y-137662499D01*
X117487500Y-138562501D01*
X117486296Y-138587005D01*
X117482696Y-138611273D01*
X117476735Y-138635072D01*
X117468470Y-138658171D01*
X117457980Y-138680350D01*
X117445368Y-138701393D01*
X117430753Y-138721099D01*
X117414277Y-138739277D01*
X117396099Y-138755753D01*
X117376393Y-138770368D01*
X117355350Y-138782980D01*
X117333171Y-138793470D01*
X117310072Y-138801735D01*
X117286273Y-138807696D01*
X117262005Y-138811296D01*
X117237501Y-138812500D01*
X116587499Y-138812500D01*
X116562995Y-138811296D01*
X116538727Y-138807696D01*
X116514928Y-138801735D01*
X116491829Y-138793470D01*
X116469650Y-138782980D01*
X116448607Y-138770368D01*
X116428901Y-138755753D01*
X116410723Y-138739277D01*
X116394247Y-138721099D01*
X116379632Y-138701393D01*
X116367020Y-138680350D01*
X116356530Y-138658171D01*
X116348265Y-138635072D01*
X116342304Y-138611273D01*
X116338704Y-138587005D01*
X116337500Y-138562501D01*
X116337500Y-137662499D01*
X116338704Y-137637995D01*
X116342304Y-137613727D01*
X116348265Y-137589928D01*
X116356530Y-137566829D01*
X116367020Y-137544650D01*
X116379632Y-137523607D01*
X116394247Y-137503901D01*
X116410723Y-137485723D01*
X116428901Y-137469247D01*
X116448607Y-137454632D01*
X116469650Y-137442020D01*
X116491829Y-137431530D01*
X116514928Y-137423265D01*
X116538727Y-137417304D01*
X116562995Y-137413704D01*
X116587499Y-137412500D01*
X117237501Y-137412500D01*
X117262005Y-137413704D01*
G37*
G36*
X115212005Y-137413704D02*
G01*
X115236273Y-137417304D01*
X115260072Y-137423265D01*
X115283171Y-137431530D01*
X115305350Y-137442020D01*
X115326393Y-137454632D01*
X115346099Y-137469247D01*
X115364277Y-137485723D01*
X115380753Y-137503901D01*
X115395368Y-137523607D01*
X115407980Y-137544650D01*
X115418470Y-137566829D01*
X115426735Y-137589928D01*
X115432696Y-137613727D01*
X115436296Y-137637995D01*
X115437500Y-137662499D01*
X115437500Y-138562501D01*
X115436296Y-138587005D01*
X115432696Y-138611273D01*
X115426735Y-138635072D01*
X115418470Y-138658171D01*
X115407980Y-138680350D01*
X115395368Y-138701393D01*
X115380753Y-138721099D01*
X115364277Y-138739277D01*
X115346099Y-138755753D01*
X115326393Y-138770368D01*
X115305350Y-138782980D01*
X115283171Y-138793470D01*
X115260072Y-138801735D01*
X115236273Y-138807696D01*
X115212005Y-138811296D01*
X115187501Y-138812500D01*
X114537499Y-138812500D01*
X114512995Y-138811296D01*
X114488727Y-138807696D01*
X114464928Y-138801735D01*
X114441829Y-138793470D01*
X114419650Y-138782980D01*
X114398607Y-138770368D01*
X114378901Y-138755753D01*
X114360723Y-138739277D01*
X114344247Y-138721099D01*
X114329632Y-138701393D01*
X114317020Y-138680350D01*
X114306530Y-138658171D01*
X114298265Y-138635072D01*
X114292304Y-138611273D01*
X114288704Y-138587005D01*
X114287500Y-138562501D01*
X114287500Y-137662499D01*
X114288704Y-137637995D01*
X114292304Y-137613727D01*
X114298265Y-137589928D01*
X114306530Y-137566829D01*
X114317020Y-137544650D01*
X114329632Y-137523607D01*
X114344247Y-137503901D01*
X114360723Y-137485723D01*
X114378901Y-137469247D01*
X114398607Y-137454632D01*
X114419650Y-137442020D01*
X114441829Y-137431530D01*
X114464928Y-137423265D01*
X114488727Y-137417304D01*
X114512995Y-137413704D01*
X114537499Y-137412500D01*
X115187501Y-137412500D01*
X115212005Y-137413704D01*
G37*
G36*
X98212005Y-137413704D02*
G01*
X98236273Y-137417304D01*
X98260072Y-137423265D01*
X98283171Y-137431530D01*
X98305350Y-137442020D01*
X98326393Y-137454632D01*
X98346099Y-137469247D01*
X98364277Y-137485723D01*
X98380753Y-137503901D01*
X98395368Y-137523607D01*
X98407980Y-137544650D01*
X98418470Y-137566829D01*
X98426735Y-137589928D01*
X98432696Y-137613727D01*
X98436296Y-137637995D01*
X98437500Y-137662499D01*
X98437500Y-138562501D01*
X98436296Y-138587005D01*
X98432696Y-138611273D01*
X98426735Y-138635072D01*
X98418470Y-138658171D01*
X98407980Y-138680350D01*
X98395368Y-138701393D01*
X98380753Y-138721099D01*
X98364277Y-138739277D01*
X98346099Y-138755753D01*
X98326393Y-138770368D01*
X98305350Y-138782980D01*
X98283171Y-138793470D01*
X98260072Y-138801735D01*
X98236273Y-138807696D01*
X98212005Y-138811296D01*
X98187501Y-138812500D01*
X97537499Y-138812500D01*
X97512995Y-138811296D01*
X97488727Y-138807696D01*
X97464928Y-138801735D01*
X97441829Y-138793470D01*
X97419650Y-138782980D01*
X97398607Y-138770368D01*
X97378901Y-138755753D01*
X97360723Y-138739277D01*
X97344247Y-138721099D01*
X97329632Y-138701393D01*
X97317020Y-138680350D01*
X97306530Y-138658171D01*
X97298265Y-138635072D01*
X97292304Y-138611273D01*
X97288704Y-138587005D01*
X97287500Y-138562501D01*
X97287500Y-137662499D01*
X97288704Y-137637995D01*
X97292304Y-137613727D01*
X97298265Y-137589928D01*
X97306530Y-137566829D01*
X97317020Y-137544650D01*
X97329632Y-137523607D01*
X97344247Y-137503901D01*
X97360723Y-137485723D01*
X97378901Y-137469247D01*
X97398607Y-137454632D01*
X97419650Y-137442020D01*
X97441829Y-137431530D01*
X97464928Y-137423265D01*
X97488727Y-137417304D01*
X97512995Y-137413704D01*
X97537499Y-137412500D01*
X98187501Y-137412500D01*
X98212005Y-137413704D01*
G37*
G36*
X96162005Y-137413704D02*
G01*
X96186273Y-137417304D01*
X96210072Y-137423265D01*
X96233171Y-137431530D01*
X96255350Y-137442020D01*
X96276393Y-137454632D01*
X96296099Y-137469247D01*
X96314277Y-137485723D01*
X96330753Y-137503901D01*
X96345368Y-137523607D01*
X96357980Y-137544650D01*
X96368470Y-137566829D01*
X96376735Y-137589928D01*
X96382696Y-137613727D01*
X96386296Y-137637995D01*
X96387500Y-137662499D01*
X96387500Y-138562501D01*
X96386296Y-138587005D01*
X96382696Y-138611273D01*
X96376735Y-138635072D01*
X96368470Y-138658171D01*
X96357980Y-138680350D01*
X96345368Y-138701393D01*
X96330753Y-138721099D01*
X96314277Y-138739277D01*
X96296099Y-138755753D01*
X96276393Y-138770368D01*
X96255350Y-138782980D01*
X96233171Y-138793470D01*
X96210072Y-138801735D01*
X96186273Y-138807696D01*
X96162005Y-138811296D01*
X96137501Y-138812500D01*
X95487499Y-138812500D01*
X95462995Y-138811296D01*
X95438727Y-138807696D01*
X95414928Y-138801735D01*
X95391829Y-138793470D01*
X95369650Y-138782980D01*
X95348607Y-138770368D01*
X95328901Y-138755753D01*
X95310723Y-138739277D01*
X95294247Y-138721099D01*
X95279632Y-138701393D01*
X95267020Y-138680350D01*
X95256530Y-138658171D01*
X95248265Y-138635072D01*
X95242304Y-138611273D01*
X95238704Y-138587005D01*
X95237500Y-138562501D01*
X95237500Y-137662499D01*
X95238704Y-137637995D01*
X95242304Y-137613727D01*
X95248265Y-137589928D01*
X95256530Y-137566829D01*
X95267020Y-137544650D01*
X95279632Y-137523607D01*
X95294247Y-137503901D01*
X95310723Y-137485723D01*
X95328901Y-137469247D01*
X95348607Y-137454632D01*
X95369650Y-137442020D01*
X95391829Y-137431530D01*
X95414928Y-137423265D01*
X95438727Y-137417304D01*
X95462995Y-137413704D01*
X95487499Y-137412500D01*
X96137501Y-137412500D01*
X96162005Y-137413704D01*
G37*
G36*
X74399505Y-137413704D02*
G01*
X74423773Y-137417304D01*
X74447572Y-137423265D01*
X74470671Y-137431530D01*
X74492850Y-137442020D01*
X74513893Y-137454632D01*
X74533599Y-137469247D01*
X74551777Y-137485723D01*
X74568253Y-137503901D01*
X74582868Y-137523607D01*
X74595480Y-137544650D01*
X74605970Y-137566829D01*
X74614235Y-137589928D01*
X74620196Y-137613727D01*
X74623796Y-137637995D01*
X74625000Y-137662499D01*
X74625000Y-138562501D01*
X74623796Y-138587005D01*
X74620196Y-138611273D01*
X74614235Y-138635072D01*
X74605970Y-138658171D01*
X74595480Y-138680350D01*
X74582868Y-138701393D01*
X74568253Y-138721099D01*
X74551777Y-138739277D01*
X74533599Y-138755753D01*
X74513893Y-138770368D01*
X74492850Y-138782980D01*
X74470671Y-138793470D01*
X74447572Y-138801735D01*
X74423773Y-138807696D01*
X74399505Y-138811296D01*
X74375001Y-138812500D01*
X73724999Y-138812500D01*
X73700495Y-138811296D01*
X73676227Y-138807696D01*
X73652428Y-138801735D01*
X73629329Y-138793470D01*
X73607150Y-138782980D01*
X73586107Y-138770368D01*
X73566401Y-138755753D01*
X73548223Y-138739277D01*
X73531747Y-138721099D01*
X73517132Y-138701393D01*
X73504520Y-138680350D01*
X73494030Y-138658171D01*
X73485765Y-138635072D01*
X73479804Y-138611273D01*
X73476204Y-138587005D01*
X73475000Y-138562501D01*
X73475000Y-137662499D01*
X73476204Y-137637995D01*
X73479804Y-137613727D01*
X73485765Y-137589928D01*
X73494030Y-137566829D01*
X73504520Y-137544650D01*
X73517132Y-137523607D01*
X73531747Y-137503901D01*
X73548223Y-137485723D01*
X73566401Y-137469247D01*
X73586107Y-137454632D01*
X73607150Y-137442020D01*
X73629329Y-137431530D01*
X73652428Y-137423265D01*
X73676227Y-137417304D01*
X73700495Y-137413704D01*
X73724999Y-137412500D01*
X74375001Y-137412500D01*
X74399505Y-137413704D01*
G37*
G36*
X72349505Y-137413704D02*
G01*
X72373773Y-137417304D01*
X72397572Y-137423265D01*
X72420671Y-137431530D01*
X72442850Y-137442020D01*
X72463893Y-137454632D01*
X72483599Y-137469247D01*
X72501777Y-137485723D01*
X72518253Y-137503901D01*
X72532868Y-137523607D01*
X72545480Y-137544650D01*
X72555970Y-137566829D01*
X72564235Y-137589928D01*
X72570196Y-137613727D01*
X72573796Y-137637995D01*
X72575000Y-137662499D01*
X72575000Y-138562501D01*
X72573796Y-138587005D01*
X72570196Y-138611273D01*
X72564235Y-138635072D01*
X72555970Y-138658171D01*
X72545480Y-138680350D01*
X72532868Y-138701393D01*
X72518253Y-138721099D01*
X72501777Y-138739277D01*
X72483599Y-138755753D01*
X72463893Y-138770368D01*
X72442850Y-138782980D01*
X72420671Y-138793470D01*
X72397572Y-138801735D01*
X72373773Y-138807696D01*
X72349505Y-138811296D01*
X72325001Y-138812500D01*
X71674999Y-138812500D01*
X71650495Y-138811296D01*
X71626227Y-138807696D01*
X71602428Y-138801735D01*
X71579329Y-138793470D01*
X71557150Y-138782980D01*
X71536107Y-138770368D01*
X71516401Y-138755753D01*
X71498223Y-138739277D01*
X71481747Y-138721099D01*
X71467132Y-138701393D01*
X71454520Y-138680350D01*
X71444030Y-138658171D01*
X71435765Y-138635072D01*
X71429804Y-138611273D01*
X71426204Y-138587005D01*
X71425000Y-138562501D01*
X71425000Y-137662499D01*
X71426204Y-137637995D01*
X71429804Y-137613727D01*
X71435765Y-137589928D01*
X71444030Y-137566829D01*
X71454520Y-137544650D01*
X71467132Y-137523607D01*
X71481747Y-137503901D01*
X71498223Y-137485723D01*
X71516401Y-137469247D01*
X71536107Y-137454632D01*
X71557150Y-137442020D01*
X71579329Y-137431530D01*
X71602428Y-137423265D01*
X71626227Y-137417304D01*
X71650495Y-137413704D01*
X71674999Y-137412500D01*
X72325001Y-137412500D01*
X72349505Y-137413704D01*
G37*
G36*
X55349505Y-137413704D02*
G01*
X55373773Y-137417304D01*
X55397572Y-137423265D01*
X55420671Y-137431530D01*
X55442850Y-137442020D01*
X55463893Y-137454632D01*
X55483599Y-137469247D01*
X55501777Y-137485723D01*
X55518253Y-137503901D01*
X55532868Y-137523607D01*
X55545480Y-137544650D01*
X55555970Y-137566829D01*
X55564235Y-137589928D01*
X55570196Y-137613727D01*
X55573796Y-137637995D01*
X55575000Y-137662499D01*
X55575000Y-138562501D01*
X55573796Y-138587005D01*
X55570196Y-138611273D01*
X55564235Y-138635072D01*
X55555970Y-138658171D01*
X55545480Y-138680350D01*
X55532868Y-138701393D01*
X55518253Y-138721099D01*
X55501777Y-138739277D01*
X55483599Y-138755753D01*
X55463893Y-138770368D01*
X55442850Y-138782980D01*
X55420671Y-138793470D01*
X55397572Y-138801735D01*
X55373773Y-138807696D01*
X55349505Y-138811296D01*
X55325001Y-138812500D01*
X54674999Y-138812500D01*
X54650495Y-138811296D01*
X54626227Y-138807696D01*
X54602428Y-138801735D01*
X54579329Y-138793470D01*
X54557150Y-138782980D01*
X54536107Y-138770368D01*
X54516401Y-138755753D01*
X54498223Y-138739277D01*
X54481747Y-138721099D01*
X54467132Y-138701393D01*
X54454520Y-138680350D01*
X54444030Y-138658171D01*
X54435765Y-138635072D01*
X54429804Y-138611273D01*
X54426204Y-138587005D01*
X54425000Y-138562501D01*
X54425000Y-137662499D01*
X54426204Y-137637995D01*
X54429804Y-137613727D01*
X54435765Y-137589928D01*
X54444030Y-137566829D01*
X54454520Y-137544650D01*
X54467132Y-137523607D01*
X54481747Y-137503901D01*
X54498223Y-137485723D01*
X54516401Y-137469247D01*
X54536107Y-137454632D01*
X54557150Y-137442020D01*
X54579329Y-137431530D01*
X54602428Y-137423265D01*
X54626227Y-137417304D01*
X54650495Y-137413704D01*
X54674999Y-137412500D01*
X55325001Y-137412500D01*
X55349505Y-137413704D01*
G37*
G36*
X53299505Y-137413704D02*
G01*
X53323773Y-137417304D01*
X53347572Y-137423265D01*
X53370671Y-137431530D01*
X53392850Y-137442020D01*
X53413893Y-137454632D01*
X53433599Y-137469247D01*
X53451777Y-137485723D01*
X53468253Y-137503901D01*
X53482868Y-137523607D01*
X53495480Y-137544650D01*
X53505970Y-137566829D01*
X53514235Y-137589928D01*
X53520196Y-137613727D01*
X53523796Y-137637995D01*
X53525000Y-137662499D01*
X53525000Y-138562501D01*
X53523796Y-138587005D01*
X53520196Y-138611273D01*
X53514235Y-138635072D01*
X53505970Y-138658171D01*
X53495480Y-138680350D01*
X53482868Y-138701393D01*
X53468253Y-138721099D01*
X53451777Y-138739277D01*
X53433599Y-138755753D01*
X53413893Y-138770368D01*
X53392850Y-138782980D01*
X53370671Y-138793470D01*
X53347572Y-138801735D01*
X53323773Y-138807696D01*
X53299505Y-138811296D01*
X53275001Y-138812500D01*
X52624999Y-138812500D01*
X52600495Y-138811296D01*
X52576227Y-138807696D01*
X52552428Y-138801735D01*
X52529329Y-138793470D01*
X52507150Y-138782980D01*
X52486107Y-138770368D01*
X52466401Y-138755753D01*
X52448223Y-138739277D01*
X52431747Y-138721099D01*
X52417132Y-138701393D01*
X52404520Y-138680350D01*
X52394030Y-138658171D01*
X52385765Y-138635072D01*
X52379804Y-138611273D01*
X52376204Y-138587005D01*
X52375000Y-138562501D01*
X52375000Y-137662499D01*
X52376204Y-137637995D01*
X52379804Y-137613727D01*
X52385765Y-137589928D01*
X52394030Y-137566829D01*
X52404520Y-137544650D01*
X52417132Y-137523607D01*
X52431747Y-137503901D01*
X52448223Y-137485723D01*
X52466401Y-137469247D01*
X52486107Y-137454632D01*
X52507150Y-137442020D01*
X52529329Y-137431530D01*
X52552428Y-137423265D01*
X52576227Y-137417304D01*
X52600495Y-137413704D01*
X52624999Y-137412500D01*
X53275001Y-137412500D01*
X53299505Y-137413704D01*
G37*
G36*
X136312005Y-118363704D02*
G01*
X136336273Y-118367304D01*
X136360072Y-118373265D01*
X136383171Y-118381530D01*
X136405350Y-118392020D01*
X136426393Y-118404632D01*
X136446099Y-118419247D01*
X136464277Y-118435723D01*
X136480753Y-118453901D01*
X136495368Y-118473607D01*
X136507980Y-118494650D01*
X136518470Y-118516829D01*
X136526735Y-118539928D01*
X136532696Y-118563727D01*
X136536296Y-118587995D01*
X136537500Y-118612499D01*
X136537500Y-119512501D01*
X136536296Y-119537005D01*
X136532696Y-119561273D01*
X136526735Y-119585072D01*
X136518470Y-119608171D01*
X136507980Y-119630350D01*
X136495368Y-119651393D01*
X136480753Y-119671099D01*
X136464277Y-119689277D01*
X136446099Y-119705753D01*
X136426393Y-119720368D01*
X136405350Y-119732980D01*
X136383171Y-119743470D01*
X136360072Y-119751735D01*
X136336273Y-119757696D01*
X136312005Y-119761296D01*
X136287501Y-119762500D01*
X135637499Y-119762500D01*
X135612995Y-119761296D01*
X135588727Y-119757696D01*
X135564928Y-119751735D01*
X135541829Y-119743470D01*
X135519650Y-119732980D01*
X135498607Y-119720368D01*
X135478901Y-119705753D01*
X135460723Y-119689277D01*
X135444247Y-119671099D01*
X135429632Y-119651393D01*
X135417020Y-119630350D01*
X135406530Y-119608171D01*
X135398265Y-119585072D01*
X135392304Y-119561273D01*
X135388704Y-119537005D01*
X135387500Y-119512501D01*
X135387500Y-118612499D01*
X135388704Y-118587995D01*
X135392304Y-118563727D01*
X135398265Y-118539928D01*
X135406530Y-118516829D01*
X135417020Y-118494650D01*
X135429632Y-118473607D01*
X135444247Y-118453901D01*
X135460723Y-118435723D01*
X135478901Y-118419247D01*
X135498607Y-118404632D01*
X135519650Y-118392020D01*
X135541829Y-118381530D01*
X135564928Y-118373265D01*
X135588727Y-118367304D01*
X135612995Y-118363704D01*
X135637499Y-118362500D01*
X136287501Y-118362500D01*
X136312005Y-118363704D01*
G37*
G36*
X134262005Y-118363704D02*
G01*
X134286273Y-118367304D01*
X134310072Y-118373265D01*
X134333171Y-118381530D01*
X134355350Y-118392020D01*
X134376393Y-118404632D01*
X134396099Y-118419247D01*
X134414277Y-118435723D01*
X134430753Y-118453901D01*
X134445368Y-118473607D01*
X134457980Y-118494650D01*
X134468470Y-118516829D01*
X134476735Y-118539928D01*
X134482696Y-118563727D01*
X134486296Y-118587995D01*
X134487500Y-118612499D01*
X134487500Y-119512501D01*
X134486296Y-119537005D01*
X134482696Y-119561273D01*
X134476735Y-119585072D01*
X134468470Y-119608171D01*
X134457980Y-119630350D01*
X134445368Y-119651393D01*
X134430753Y-119671099D01*
X134414277Y-119689277D01*
X134396099Y-119705753D01*
X134376393Y-119720368D01*
X134355350Y-119732980D01*
X134333171Y-119743470D01*
X134310072Y-119751735D01*
X134286273Y-119757696D01*
X134262005Y-119761296D01*
X134237501Y-119762500D01*
X133587499Y-119762500D01*
X133562995Y-119761296D01*
X133538727Y-119757696D01*
X133514928Y-119751735D01*
X133491829Y-119743470D01*
X133469650Y-119732980D01*
X133448607Y-119720368D01*
X133428901Y-119705753D01*
X133410723Y-119689277D01*
X133394247Y-119671099D01*
X133379632Y-119651393D01*
X133367020Y-119630350D01*
X133356530Y-119608171D01*
X133348265Y-119585072D01*
X133342304Y-119561273D01*
X133338704Y-119537005D01*
X133337500Y-119512501D01*
X133337500Y-118612499D01*
X133338704Y-118587995D01*
X133342304Y-118563727D01*
X133348265Y-118539928D01*
X133356530Y-118516829D01*
X133367020Y-118494650D01*
X133379632Y-118473607D01*
X133394247Y-118453901D01*
X133410723Y-118435723D01*
X133428901Y-118419247D01*
X133448607Y-118404632D01*
X133469650Y-118392020D01*
X133491829Y-118381530D01*
X133514928Y-118373265D01*
X133538727Y-118367304D01*
X133562995Y-118363704D01*
X133587499Y-118362500D01*
X134237501Y-118362500D01*
X134262005Y-118363704D01*
G37*
G36*
X117262005Y-118363704D02*
G01*
X117286273Y-118367304D01*
X117310072Y-118373265D01*
X117333171Y-118381530D01*
X117355350Y-118392020D01*
X117376393Y-118404632D01*
X117396099Y-118419247D01*
X117414277Y-118435723D01*
X117430753Y-118453901D01*
X117445368Y-118473607D01*
X117457980Y-118494650D01*
X117468470Y-118516829D01*
X117476735Y-118539928D01*
X117482696Y-118563727D01*
X117486296Y-118587995D01*
X117487500Y-118612499D01*
X117487500Y-119512501D01*
X117486296Y-119537005D01*
X117482696Y-119561273D01*
X117476735Y-119585072D01*
X117468470Y-119608171D01*
X117457980Y-119630350D01*
X117445368Y-119651393D01*
X117430753Y-119671099D01*
X117414277Y-119689277D01*
X117396099Y-119705753D01*
X117376393Y-119720368D01*
X117355350Y-119732980D01*
X117333171Y-119743470D01*
X117310072Y-119751735D01*
X117286273Y-119757696D01*
X117262005Y-119761296D01*
X117237501Y-119762500D01*
X116587499Y-119762500D01*
X116562995Y-119761296D01*
X116538727Y-119757696D01*
X116514928Y-119751735D01*
X116491829Y-119743470D01*
X116469650Y-119732980D01*
X116448607Y-119720368D01*
X116428901Y-119705753D01*
X116410723Y-119689277D01*
X116394247Y-119671099D01*
X116379632Y-119651393D01*
X116367020Y-119630350D01*
X116356530Y-119608171D01*
X116348265Y-119585072D01*
X116342304Y-119561273D01*
X116338704Y-119537005D01*
X116337500Y-119512501D01*
X116337500Y-118612499D01*
X116338704Y-118587995D01*
X116342304Y-118563727D01*
X116348265Y-118539928D01*
X116356530Y-118516829D01*
X116367020Y-118494650D01*
X116379632Y-118473607D01*
X116394247Y-118453901D01*
X116410723Y-118435723D01*
X116428901Y-118419247D01*
X116448607Y-118404632D01*
X116469650Y-118392020D01*
X116491829Y-118381530D01*
X116514928Y-118373265D01*
X116538727Y-118367304D01*
X116562995Y-118363704D01*
X116587499Y-118362500D01*
X117237501Y-118362500D01*
X117262005Y-118363704D01*
G37*
G36*
X115212005Y-118363704D02*
G01*
X115236273Y-118367304D01*
X115260072Y-118373265D01*
X115283171Y-118381530D01*
X115305350Y-118392020D01*
X115326393Y-118404632D01*
X115346099Y-118419247D01*
X115364277Y-118435723D01*
X115380753Y-118453901D01*
X115395368Y-118473607D01*
X115407980Y-118494650D01*
X115418470Y-118516829D01*
X115426735Y-118539928D01*
X115432696Y-118563727D01*
X115436296Y-118587995D01*
X115437500Y-118612499D01*
X115437500Y-119512501D01*
X115436296Y-119537005D01*
X115432696Y-119561273D01*
X115426735Y-119585072D01*
X115418470Y-119608171D01*
X115407980Y-119630350D01*
X115395368Y-119651393D01*
X115380753Y-119671099D01*
X115364277Y-119689277D01*
X115346099Y-119705753D01*
X115326393Y-119720368D01*
X115305350Y-119732980D01*
X115283171Y-119743470D01*
X115260072Y-119751735D01*
X115236273Y-119757696D01*
X115212005Y-119761296D01*
X115187501Y-119762500D01*
X114537499Y-119762500D01*
X114512995Y-119761296D01*
X114488727Y-119757696D01*
X114464928Y-119751735D01*
X114441829Y-119743470D01*
X114419650Y-119732980D01*
X114398607Y-119720368D01*
X114378901Y-119705753D01*
X114360723Y-119689277D01*
X114344247Y-119671099D01*
X114329632Y-119651393D01*
X114317020Y-119630350D01*
X114306530Y-119608171D01*
X114298265Y-119585072D01*
X114292304Y-119561273D01*
X114288704Y-119537005D01*
X114287500Y-119512501D01*
X114287500Y-118612499D01*
X114288704Y-118587995D01*
X114292304Y-118563727D01*
X114298265Y-118539928D01*
X114306530Y-118516829D01*
X114317020Y-118494650D01*
X114329632Y-118473607D01*
X114344247Y-118453901D01*
X114360723Y-118435723D01*
X114378901Y-118419247D01*
X114398607Y-118404632D01*
X114419650Y-118392020D01*
X114441829Y-118381530D01*
X114464928Y-118373265D01*
X114488727Y-118367304D01*
X114512995Y-118363704D01*
X114537499Y-118362500D01*
X115187501Y-118362500D01*
X115212005Y-118363704D01*
G37*
G36*
X98212005Y-118363704D02*
G01*
X98236273Y-118367304D01*
X98260072Y-118373265D01*
X98283171Y-118381530D01*
X98305350Y-118392020D01*
X98326393Y-118404632D01*
X98346099Y-118419247D01*
X98364277Y-118435723D01*
X98380753Y-118453901D01*
X98395368Y-118473607D01*
X98407980Y-118494650D01*
X98418470Y-118516829D01*
X98426735Y-118539928D01*
X98432696Y-118563727D01*
X98436296Y-118587995D01*
X98437500Y-118612499D01*
X98437500Y-119512501D01*
X98436296Y-119537005D01*
X98432696Y-119561273D01*
X98426735Y-119585072D01*
X98418470Y-119608171D01*
X98407980Y-119630350D01*
X98395368Y-119651393D01*
X98380753Y-119671099D01*
X98364277Y-119689277D01*
X98346099Y-119705753D01*
X98326393Y-119720368D01*
X98305350Y-119732980D01*
X98283171Y-119743470D01*
X98260072Y-119751735D01*
X98236273Y-119757696D01*
X98212005Y-119761296D01*
X98187501Y-119762500D01*
X97537499Y-119762500D01*
X97512995Y-119761296D01*
X97488727Y-119757696D01*
X97464928Y-119751735D01*
X97441829Y-119743470D01*
X97419650Y-119732980D01*
X97398607Y-119720368D01*
X97378901Y-119705753D01*
X97360723Y-119689277D01*
X97344247Y-119671099D01*
X97329632Y-119651393D01*
X97317020Y-119630350D01*
X97306530Y-119608171D01*
X97298265Y-119585072D01*
X97292304Y-119561273D01*
X97288704Y-119537005D01*
X97287500Y-119512501D01*
X97287500Y-118612499D01*
X97288704Y-118587995D01*
X97292304Y-118563727D01*
X97298265Y-118539928D01*
X97306530Y-118516829D01*
X97317020Y-118494650D01*
X97329632Y-118473607D01*
X97344247Y-118453901D01*
X97360723Y-118435723D01*
X97378901Y-118419247D01*
X97398607Y-118404632D01*
X97419650Y-118392020D01*
X97441829Y-118381530D01*
X97464928Y-118373265D01*
X97488727Y-118367304D01*
X97512995Y-118363704D01*
X97537499Y-118362500D01*
X98187501Y-118362500D01*
X98212005Y-118363704D01*
G37*
G36*
X96162005Y-118363704D02*
G01*
X96186273Y-118367304D01*
X96210072Y-118373265D01*
X96233171Y-118381530D01*
X96255350Y-118392020D01*
X96276393Y-118404632D01*
X96296099Y-118419247D01*
X96314277Y-118435723D01*
X96330753Y-118453901D01*
X96345368Y-118473607D01*
X96357980Y-118494650D01*
X96368470Y-118516829D01*
X96376735Y-118539928D01*
X96382696Y-118563727D01*
X96386296Y-118587995D01*
X96387500Y-118612499D01*
X96387500Y-119512501D01*
X96386296Y-119537005D01*
X96382696Y-119561273D01*
X96376735Y-119585072D01*
X96368470Y-119608171D01*
X96357980Y-119630350D01*
X96345368Y-119651393D01*
X96330753Y-119671099D01*
X96314277Y-119689277D01*
X96296099Y-119705753D01*
X96276393Y-119720368D01*
X96255350Y-119732980D01*
X96233171Y-119743470D01*
X96210072Y-119751735D01*
X96186273Y-119757696D01*
X96162005Y-119761296D01*
X96137501Y-119762500D01*
X95487499Y-119762500D01*
X95462995Y-119761296D01*
X95438727Y-119757696D01*
X95414928Y-119751735D01*
X95391829Y-119743470D01*
X95369650Y-119732980D01*
X95348607Y-119720368D01*
X95328901Y-119705753D01*
X95310723Y-119689277D01*
X95294247Y-119671099D01*
X95279632Y-119651393D01*
X95267020Y-119630350D01*
X95256530Y-119608171D01*
X95248265Y-119585072D01*
X95242304Y-119561273D01*
X95238704Y-119537005D01*
X95237500Y-119512501D01*
X95237500Y-118612499D01*
X95238704Y-118587995D01*
X95242304Y-118563727D01*
X95248265Y-118539928D01*
X95256530Y-118516829D01*
X95267020Y-118494650D01*
X95279632Y-118473607D01*
X95294247Y-118453901D01*
X95310723Y-118435723D01*
X95328901Y-118419247D01*
X95348607Y-118404632D01*
X95369650Y-118392020D01*
X95391829Y-118381530D01*
X95414928Y-118373265D01*
X95438727Y-118367304D01*
X95462995Y-118363704D01*
X95487499Y-118362500D01*
X96137501Y-118362500D01*
X96162005Y-118363704D01*
G37*
G36*
X74399505Y-118363704D02*
G01*
X74423773Y-118367304D01*
X74447572Y-118373265D01*
X74470671Y-118381530D01*
X74492850Y-118392020D01*
X74513893Y-118404632D01*
X74533599Y-118419247D01*
X74551777Y-118435723D01*
X74568253Y-118453901D01*
X74582868Y-118473607D01*
X74595480Y-118494650D01*
X74605970Y-118516829D01*
X74614235Y-118539928D01*
X74620196Y-118563727D01*
X74623796Y-118587995D01*
X74625000Y-118612499D01*
X74625000Y-119512501D01*
X74623796Y-119537005D01*
X74620196Y-119561273D01*
X74614235Y-119585072D01*
X74605970Y-119608171D01*
X74595480Y-119630350D01*
X74582868Y-119651393D01*
X74568253Y-119671099D01*
X74551777Y-119689277D01*
X74533599Y-119705753D01*
X74513893Y-119720368D01*
X74492850Y-119732980D01*
X74470671Y-119743470D01*
X74447572Y-119751735D01*
X74423773Y-119757696D01*
X74399505Y-119761296D01*
X74375001Y-119762500D01*
X73724999Y-119762500D01*
X73700495Y-119761296D01*
X73676227Y-119757696D01*
X73652428Y-119751735D01*
X73629329Y-119743470D01*
X73607150Y-119732980D01*
X73586107Y-119720368D01*
X73566401Y-119705753D01*
X73548223Y-119689277D01*
X73531747Y-119671099D01*
X73517132Y-119651393D01*
X73504520Y-119630350D01*
X73494030Y-119608171D01*
X73485765Y-119585072D01*
X73479804Y-119561273D01*
X73476204Y-119537005D01*
X73475000Y-119512501D01*
X73475000Y-118612499D01*
X73476204Y-118587995D01*
X73479804Y-118563727D01*
X73485765Y-118539928D01*
X73494030Y-118516829D01*
X73504520Y-118494650D01*
X73517132Y-118473607D01*
X73531747Y-118453901D01*
X73548223Y-118435723D01*
X73566401Y-118419247D01*
X73586107Y-118404632D01*
X73607150Y-118392020D01*
X73629329Y-118381530D01*
X73652428Y-118373265D01*
X73676227Y-118367304D01*
X73700495Y-118363704D01*
X73724999Y-118362500D01*
X74375001Y-118362500D01*
X74399505Y-118363704D01*
G37*
G36*
X72349505Y-118363704D02*
G01*
X72373773Y-118367304D01*
X72397572Y-118373265D01*
X72420671Y-118381530D01*
X72442850Y-118392020D01*
X72463893Y-118404632D01*
X72483599Y-118419247D01*
X72501777Y-118435723D01*
X72518253Y-118453901D01*
X72532868Y-118473607D01*
X72545480Y-118494650D01*
X72555970Y-118516829D01*
X72564235Y-118539928D01*
X72570196Y-118563727D01*
X72573796Y-118587995D01*
X72575000Y-118612499D01*
X72575000Y-119512501D01*
X72573796Y-119537005D01*
X72570196Y-119561273D01*
X72564235Y-119585072D01*
X72555970Y-119608171D01*
X72545480Y-119630350D01*
X72532868Y-119651393D01*
X72518253Y-119671099D01*
X72501777Y-119689277D01*
X72483599Y-119705753D01*
X72463893Y-119720368D01*
X72442850Y-119732980D01*
X72420671Y-119743470D01*
X72397572Y-119751735D01*
X72373773Y-119757696D01*
X72349505Y-119761296D01*
X72325001Y-119762500D01*
X71674999Y-119762500D01*
X71650495Y-119761296D01*
X71626227Y-119757696D01*
X71602428Y-119751735D01*
X71579329Y-119743470D01*
X71557150Y-119732980D01*
X71536107Y-119720368D01*
X71516401Y-119705753D01*
X71498223Y-119689277D01*
X71481747Y-119671099D01*
X71467132Y-119651393D01*
X71454520Y-119630350D01*
X71444030Y-119608171D01*
X71435765Y-119585072D01*
X71429804Y-119561273D01*
X71426204Y-119537005D01*
X71425000Y-119512501D01*
X71425000Y-118612499D01*
X71426204Y-118587995D01*
X71429804Y-118563727D01*
X71435765Y-118539928D01*
X71444030Y-118516829D01*
X71454520Y-118494650D01*
X71467132Y-118473607D01*
X71481747Y-118453901D01*
X71498223Y-118435723D01*
X71516401Y-118419247D01*
X71536107Y-118404632D01*
X71557150Y-118392020D01*
X71579329Y-118381530D01*
X71602428Y-118373265D01*
X71626227Y-118367304D01*
X71650495Y-118363704D01*
X71674999Y-118362500D01*
X72325001Y-118362500D01*
X72349505Y-118363704D01*
G37*
G36*
X55349505Y-118363704D02*
G01*
X55373773Y-118367304D01*
X55397572Y-118373265D01*
X55420671Y-118381530D01*
X55442850Y-118392020D01*
X55463893Y-118404632D01*
X55483599Y-118419247D01*
X55501777Y-118435723D01*
X55518253Y-118453901D01*
X55532868Y-118473607D01*
X55545480Y-118494650D01*
X55555970Y-118516829D01*
X55564235Y-118539928D01*
X55570196Y-118563727D01*
X55573796Y-118587995D01*
X55575000Y-118612499D01*
X55575000Y-119512501D01*
X55573796Y-119537005D01*
X55570196Y-119561273D01*
X55564235Y-119585072D01*
X55555970Y-119608171D01*
X55545480Y-119630350D01*
X55532868Y-119651393D01*
X55518253Y-119671099D01*
X55501777Y-119689277D01*
X55483599Y-119705753D01*
X55463893Y-119720368D01*
X55442850Y-119732980D01*
X55420671Y-119743470D01*
X55397572Y-119751735D01*
X55373773Y-119757696D01*
X55349505Y-119761296D01*
X55325001Y-119762500D01*
X54674999Y-119762500D01*
X54650495Y-119761296D01*
X54626227Y-119757696D01*
X54602428Y-119751735D01*
X54579329Y-119743470D01*
X54557150Y-119732980D01*
X54536107Y-119720368D01*
X54516401Y-119705753D01*
X54498223Y-119689277D01*
X54481747Y-119671099D01*
X54467132Y-119651393D01*
X54454520Y-119630350D01*
X54444030Y-119608171D01*
X54435765Y-119585072D01*
X54429804Y-119561273D01*
X54426204Y-119537005D01*
X54425000Y-119512501D01*
X54425000Y-118612499D01*
X54426204Y-118587995D01*
X54429804Y-118563727D01*
X54435765Y-118539928D01*
X54444030Y-118516829D01*
X54454520Y-118494650D01*
X54467132Y-118473607D01*
X54481747Y-118453901D01*
X54498223Y-118435723D01*
X54516401Y-118419247D01*
X54536107Y-118404632D01*
X54557150Y-118392020D01*
X54579329Y-118381530D01*
X54602428Y-118373265D01*
X54626227Y-118367304D01*
X54650495Y-118363704D01*
X54674999Y-118362500D01*
X55325001Y-118362500D01*
X55349505Y-118363704D01*
G37*
G36*
X53299505Y-118363704D02*
G01*
X53323773Y-118367304D01*
X53347572Y-118373265D01*
X53370671Y-118381530D01*
X53392850Y-118392020D01*
X53413893Y-118404632D01*
X53433599Y-118419247D01*
X53451777Y-118435723D01*
X53468253Y-118453901D01*
X53482868Y-118473607D01*
X53495480Y-118494650D01*
X53505970Y-118516829D01*
X53514235Y-118539928D01*
X53520196Y-118563727D01*
X53523796Y-118587995D01*
X53525000Y-118612499D01*
X53525000Y-119512501D01*
X53523796Y-119537005D01*
X53520196Y-119561273D01*
X53514235Y-119585072D01*
X53505970Y-119608171D01*
X53495480Y-119630350D01*
X53482868Y-119651393D01*
X53468253Y-119671099D01*
X53451777Y-119689277D01*
X53433599Y-119705753D01*
X53413893Y-119720368D01*
X53392850Y-119732980D01*
X53370671Y-119743470D01*
X53347572Y-119751735D01*
X53323773Y-119757696D01*
X53299505Y-119761296D01*
X53275001Y-119762500D01*
X52624999Y-119762500D01*
X52600495Y-119761296D01*
X52576227Y-119757696D01*
X52552428Y-119751735D01*
X52529329Y-119743470D01*
X52507150Y-119732980D01*
X52486107Y-119720368D01*
X52466401Y-119705753D01*
X52448223Y-119689277D01*
X52431747Y-119671099D01*
X52417132Y-119651393D01*
X52404520Y-119630350D01*
X52394030Y-119608171D01*
X52385765Y-119585072D01*
X52379804Y-119561273D01*
X52376204Y-119537005D01*
X52375000Y-119512501D01*
X52375000Y-118612499D01*
X52376204Y-118587995D01*
X52379804Y-118563727D01*
X52385765Y-118539928D01*
X52394030Y-118516829D01*
X52404520Y-118494650D01*
X52417132Y-118473607D01*
X52431747Y-118453901D01*
X52448223Y-118435723D01*
X52466401Y-118419247D01*
X52486107Y-118404632D01*
X52507150Y-118392020D01*
X52529329Y-118381530D01*
X52552428Y-118373265D01*
X52576227Y-118367304D01*
X52600495Y-118363704D01*
X52624999Y-118362500D01*
X53275001Y-118362500D01*
X53299505Y-118363704D01*
G37*
G36*
X155362005Y-108838704D02*
G01*
X155386273Y-108842304D01*
X155410072Y-108848265D01*
X155433171Y-108856530D01*
X155455350Y-108867020D01*
X155476393Y-108879632D01*
X155496099Y-108894247D01*
X155514277Y-108910723D01*
X155530753Y-108928901D01*
X155545368Y-108948607D01*
X155557980Y-108969650D01*
X155568470Y-108991829D01*
X155576735Y-109014928D01*
X155582696Y-109038727D01*
X155586296Y-109062995D01*
X155587500Y-109087499D01*
X155587500Y-109987501D01*
X155586296Y-110012005D01*
X155582696Y-110036273D01*
X155576735Y-110060072D01*
X155568470Y-110083171D01*
X155557980Y-110105350D01*
X155545368Y-110126393D01*
X155530753Y-110146099D01*
X155514277Y-110164277D01*
X155496099Y-110180753D01*
X155476393Y-110195368D01*
X155455350Y-110207980D01*
X155433171Y-110218470D01*
X155410072Y-110226735D01*
X155386273Y-110232696D01*
X155362005Y-110236296D01*
X155337501Y-110237500D01*
X154687499Y-110237500D01*
X154662995Y-110236296D01*
X154638727Y-110232696D01*
X154614928Y-110226735D01*
X154591829Y-110218470D01*
X154569650Y-110207980D01*
X154548607Y-110195368D01*
X154528901Y-110180753D01*
X154510723Y-110164277D01*
X154494247Y-110146099D01*
X154479632Y-110126393D01*
X154467020Y-110105350D01*
X154456530Y-110083171D01*
X154448265Y-110060072D01*
X154442304Y-110036273D01*
X154438704Y-110012005D01*
X154437500Y-109987501D01*
X154437500Y-109087499D01*
X154438704Y-109062995D01*
X154442304Y-109038727D01*
X154448265Y-109014928D01*
X154456530Y-108991829D01*
X154467020Y-108969650D01*
X154479632Y-108948607D01*
X154494247Y-108928901D01*
X154510723Y-108910723D01*
X154528901Y-108894247D01*
X154548607Y-108879632D01*
X154569650Y-108867020D01*
X154591829Y-108856530D01*
X154614928Y-108848265D01*
X154638727Y-108842304D01*
X154662995Y-108838704D01*
X154687499Y-108837500D01*
X155337501Y-108837500D01*
X155362005Y-108838704D01*
G37*
G36*
X153312005Y-108838704D02*
G01*
X153336273Y-108842304D01*
X153360072Y-108848265D01*
X153383171Y-108856530D01*
X153405350Y-108867020D01*
X153426393Y-108879632D01*
X153446099Y-108894247D01*
X153464277Y-108910723D01*
X153480753Y-108928901D01*
X153495368Y-108948607D01*
X153507980Y-108969650D01*
X153518470Y-108991829D01*
X153526735Y-109014928D01*
X153532696Y-109038727D01*
X153536296Y-109062995D01*
X153537500Y-109087499D01*
X153537500Y-109987501D01*
X153536296Y-110012005D01*
X153532696Y-110036273D01*
X153526735Y-110060072D01*
X153518470Y-110083171D01*
X153507980Y-110105350D01*
X153495368Y-110126393D01*
X153480753Y-110146099D01*
X153464277Y-110164277D01*
X153446099Y-110180753D01*
X153426393Y-110195368D01*
X153405350Y-110207980D01*
X153383171Y-110218470D01*
X153360072Y-110226735D01*
X153336273Y-110232696D01*
X153312005Y-110236296D01*
X153287501Y-110237500D01*
X152637499Y-110237500D01*
X152612995Y-110236296D01*
X152588727Y-110232696D01*
X152564928Y-110226735D01*
X152541829Y-110218470D01*
X152519650Y-110207980D01*
X152498607Y-110195368D01*
X152478901Y-110180753D01*
X152460723Y-110164277D01*
X152444247Y-110146099D01*
X152429632Y-110126393D01*
X152417020Y-110105350D01*
X152406530Y-110083171D01*
X152398265Y-110060072D01*
X152392304Y-110036273D01*
X152388704Y-110012005D01*
X152387500Y-109987501D01*
X152387500Y-109087499D01*
X152388704Y-109062995D01*
X152392304Y-109038727D01*
X152398265Y-109014928D01*
X152406530Y-108991829D01*
X152417020Y-108969650D01*
X152429632Y-108948607D01*
X152444247Y-108928901D01*
X152460723Y-108910723D01*
X152478901Y-108894247D01*
X152498607Y-108879632D01*
X152519650Y-108867020D01*
X152541829Y-108856530D01*
X152564928Y-108848265D01*
X152588727Y-108842304D01*
X152612995Y-108838704D01*
X152637499Y-108837500D01*
X153287501Y-108837500D01*
X153312005Y-108838704D01*
G37*
G36*
X136312005Y-99313704D02*
G01*
X136336273Y-99317304D01*
X136360072Y-99323265D01*
X136383171Y-99331530D01*
X136405350Y-99342020D01*
X136426393Y-99354632D01*
X136446099Y-99369247D01*
X136464277Y-99385723D01*
X136480753Y-99403901D01*
X136495368Y-99423607D01*
X136507980Y-99444650D01*
X136518470Y-99466829D01*
X136526735Y-99489928D01*
X136532696Y-99513727D01*
X136536296Y-99537995D01*
X136537500Y-99562499D01*
X136537500Y-100462501D01*
X136536296Y-100487005D01*
X136532696Y-100511273D01*
X136526735Y-100535072D01*
X136518470Y-100558171D01*
X136507980Y-100580350D01*
X136495368Y-100601393D01*
X136480753Y-100621099D01*
X136464277Y-100639277D01*
X136446099Y-100655753D01*
X136426393Y-100670368D01*
X136405350Y-100682980D01*
X136383171Y-100693470D01*
X136360072Y-100701735D01*
X136336273Y-100707696D01*
X136312005Y-100711296D01*
X136287501Y-100712500D01*
X135637499Y-100712500D01*
X135612995Y-100711296D01*
X135588727Y-100707696D01*
X135564928Y-100701735D01*
X135541829Y-100693470D01*
X135519650Y-100682980D01*
X135498607Y-100670368D01*
X135478901Y-100655753D01*
X135460723Y-100639277D01*
X135444247Y-100621099D01*
X135429632Y-100601393D01*
X135417020Y-100580350D01*
X135406530Y-100558171D01*
X135398265Y-100535072D01*
X135392304Y-100511273D01*
X135388704Y-100487005D01*
X135387500Y-100462501D01*
X135387500Y-99562499D01*
X135388704Y-99537995D01*
X135392304Y-99513727D01*
X135398265Y-99489928D01*
X135406530Y-99466829D01*
X135417020Y-99444650D01*
X135429632Y-99423607D01*
X135444247Y-99403901D01*
X135460723Y-99385723D01*
X135478901Y-99369247D01*
X135498607Y-99354632D01*
X135519650Y-99342020D01*
X135541829Y-99331530D01*
X135564928Y-99323265D01*
X135588727Y-99317304D01*
X135612995Y-99313704D01*
X135637499Y-99312500D01*
X136287501Y-99312500D01*
X136312005Y-99313704D01*
G37*
G36*
X134262005Y-99313704D02*
G01*
X134286273Y-99317304D01*
X134310072Y-99323265D01*
X134333171Y-99331530D01*
X134355350Y-99342020D01*
X134376393Y-99354632D01*
X134396099Y-99369247D01*
X134414277Y-99385723D01*
X134430753Y-99403901D01*
X134445368Y-99423607D01*
X134457980Y-99444650D01*
X134468470Y-99466829D01*
X134476735Y-99489928D01*
X134482696Y-99513727D01*
X134486296Y-99537995D01*
X134487500Y-99562499D01*
X134487500Y-100462501D01*
X134486296Y-100487005D01*
X134482696Y-100511273D01*
X134476735Y-100535072D01*
X134468470Y-100558171D01*
X134457980Y-100580350D01*
X134445368Y-100601393D01*
X134430753Y-100621099D01*
X134414277Y-100639277D01*
X134396099Y-100655753D01*
X134376393Y-100670368D01*
X134355350Y-100682980D01*
X134333171Y-100693470D01*
X134310072Y-100701735D01*
X134286273Y-100707696D01*
X134262005Y-100711296D01*
X134237501Y-100712500D01*
X133587499Y-100712500D01*
X133562995Y-100711296D01*
X133538727Y-100707696D01*
X133514928Y-100701735D01*
X133491829Y-100693470D01*
X133469650Y-100682980D01*
X133448607Y-100670368D01*
X133428901Y-100655753D01*
X133410723Y-100639277D01*
X133394247Y-100621099D01*
X133379632Y-100601393D01*
X133367020Y-100580350D01*
X133356530Y-100558171D01*
X133348265Y-100535072D01*
X133342304Y-100511273D01*
X133338704Y-100487005D01*
X133337500Y-100462501D01*
X133337500Y-99562499D01*
X133338704Y-99537995D01*
X133342304Y-99513727D01*
X133348265Y-99489928D01*
X133356530Y-99466829D01*
X133367020Y-99444650D01*
X133379632Y-99423607D01*
X133394247Y-99403901D01*
X133410723Y-99385723D01*
X133428901Y-99369247D01*
X133448607Y-99354632D01*
X133469650Y-99342020D01*
X133491829Y-99331530D01*
X133514928Y-99323265D01*
X133538727Y-99317304D01*
X133562995Y-99313704D01*
X133587499Y-99312500D01*
X134237501Y-99312500D01*
X134262005Y-99313704D01*
G37*
G36*
X117262005Y-99313704D02*
G01*
X117286273Y-99317304D01*
X117310072Y-99323265D01*
X117333171Y-99331530D01*
X117355350Y-99342020D01*
X117376393Y-99354632D01*
X117396099Y-99369247D01*
X117414277Y-99385723D01*
X117430753Y-99403901D01*
X117445368Y-99423607D01*
X117457980Y-99444650D01*
X117468470Y-99466829D01*
X117476735Y-99489928D01*
X117482696Y-99513727D01*
X117486296Y-99537995D01*
X117487500Y-99562499D01*
X117487500Y-100462501D01*
X117486296Y-100487005D01*
X117482696Y-100511273D01*
X117476735Y-100535072D01*
X117468470Y-100558171D01*
X117457980Y-100580350D01*
X117445368Y-100601393D01*
X117430753Y-100621099D01*
X117414277Y-100639277D01*
X117396099Y-100655753D01*
X117376393Y-100670368D01*
X117355350Y-100682980D01*
X117333171Y-100693470D01*
X117310072Y-100701735D01*
X117286273Y-100707696D01*
X117262005Y-100711296D01*
X117237501Y-100712500D01*
X116587499Y-100712500D01*
X116562995Y-100711296D01*
X116538727Y-100707696D01*
X116514928Y-100701735D01*
X116491829Y-100693470D01*
X116469650Y-100682980D01*
X116448607Y-100670368D01*
X116428901Y-100655753D01*
X116410723Y-100639277D01*
X116394247Y-100621099D01*
X116379632Y-100601393D01*
X116367020Y-100580350D01*
X116356530Y-100558171D01*
X116348265Y-100535072D01*
X116342304Y-100511273D01*
X116338704Y-100487005D01*
X116337500Y-100462501D01*
X116337500Y-99562499D01*
X116338704Y-99537995D01*
X116342304Y-99513727D01*
X116348265Y-99489928D01*
X116356530Y-99466829D01*
X116367020Y-99444650D01*
X116379632Y-99423607D01*
X116394247Y-99403901D01*
X116410723Y-99385723D01*
X116428901Y-99369247D01*
X116448607Y-99354632D01*
X116469650Y-99342020D01*
X116491829Y-99331530D01*
X116514928Y-99323265D01*
X116538727Y-99317304D01*
X116562995Y-99313704D01*
X116587499Y-99312500D01*
X117237501Y-99312500D01*
X117262005Y-99313704D01*
G37*
G36*
X115212005Y-99313704D02*
G01*
X115236273Y-99317304D01*
X115260072Y-99323265D01*
X115283171Y-99331530D01*
X115305350Y-99342020D01*
X115326393Y-99354632D01*
X115346099Y-99369247D01*
X115364277Y-99385723D01*
X115380753Y-99403901D01*
X115395368Y-99423607D01*
X115407980Y-99444650D01*
X115418470Y-99466829D01*
X115426735Y-99489928D01*
X115432696Y-99513727D01*
X115436296Y-99537995D01*
X115437500Y-99562499D01*
X115437500Y-100462501D01*
X115436296Y-100487005D01*
X115432696Y-100511273D01*
X115426735Y-100535072D01*
X115418470Y-100558171D01*
X115407980Y-100580350D01*
X115395368Y-100601393D01*
X115380753Y-100621099D01*
X115364277Y-100639277D01*
X115346099Y-100655753D01*
X115326393Y-100670368D01*
X115305350Y-100682980D01*
X115283171Y-100693470D01*
X115260072Y-100701735D01*
X115236273Y-100707696D01*
X115212005Y-100711296D01*
X115187501Y-100712500D01*
X114537499Y-100712500D01*
X114512995Y-100711296D01*
X114488727Y-100707696D01*
X114464928Y-100701735D01*
X114441829Y-100693470D01*
X114419650Y-100682980D01*
X114398607Y-100670368D01*
X114378901Y-100655753D01*
X114360723Y-100639277D01*
X114344247Y-100621099D01*
X114329632Y-100601393D01*
X114317020Y-100580350D01*
X114306530Y-100558171D01*
X114298265Y-100535072D01*
X114292304Y-100511273D01*
X114288704Y-100487005D01*
X114287500Y-100462501D01*
X114287500Y-99562499D01*
X114288704Y-99537995D01*
X114292304Y-99513727D01*
X114298265Y-99489928D01*
X114306530Y-99466829D01*
X114317020Y-99444650D01*
X114329632Y-99423607D01*
X114344247Y-99403901D01*
X114360723Y-99385723D01*
X114378901Y-99369247D01*
X114398607Y-99354632D01*
X114419650Y-99342020D01*
X114441829Y-99331530D01*
X114464928Y-99323265D01*
X114488727Y-99317304D01*
X114512995Y-99313704D01*
X114537499Y-99312500D01*
X115187501Y-99312500D01*
X115212005Y-99313704D01*
G37*
G36*
X98212005Y-99313704D02*
G01*
X98236273Y-99317304D01*
X98260072Y-99323265D01*
X98283171Y-99331530D01*
X98305350Y-99342020D01*
X98326393Y-99354632D01*
X98346099Y-99369247D01*
X98364277Y-99385723D01*
X98380753Y-99403901D01*
X98395368Y-99423607D01*
X98407980Y-99444650D01*
X98418470Y-99466829D01*
X98426735Y-99489928D01*
X98432696Y-99513727D01*
X98436296Y-99537995D01*
X98437500Y-99562499D01*
X98437500Y-100462501D01*
X98436296Y-100487005D01*
X98432696Y-100511273D01*
X98426735Y-100535072D01*
X98418470Y-100558171D01*
X98407980Y-100580350D01*
X98395368Y-100601393D01*
X98380753Y-100621099D01*
X98364277Y-100639277D01*
X98346099Y-100655753D01*
X98326393Y-100670368D01*
X98305350Y-100682980D01*
X98283171Y-100693470D01*
X98260072Y-100701735D01*
X98236273Y-100707696D01*
X98212005Y-100711296D01*
X98187501Y-100712500D01*
X97537499Y-100712500D01*
X97512995Y-100711296D01*
X97488727Y-100707696D01*
X97464928Y-100701735D01*
X97441829Y-100693470D01*
X97419650Y-100682980D01*
X97398607Y-100670368D01*
X97378901Y-100655753D01*
X97360723Y-100639277D01*
X97344247Y-100621099D01*
X97329632Y-100601393D01*
X97317020Y-100580350D01*
X97306530Y-100558171D01*
X97298265Y-100535072D01*
X97292304Y-100511273D01*
X97288704Y-100487005D01*
X97287500Y-100462501D01*
X97287500Y-99562499D01*
X97288704Y-99537995D01*
X97292304Y-99513727D01*
X97298265Y-99489928D01*
X97306530Y-99466829D01*
X97317020Y-99444650D01*
X97329632Y-99423607D01*
X97344247Y-99403901D01*
X97360723Y-99385723D01*
X97378901Y-99369247D01*
X97398607Y-99354632D01*
X97419650Y-99342020D01*
X97441829Y-99331530D01*
X97464928Y-99323265D01*
X97488727Y-99317304D01*
X97512995Y-99313704D01*
X97537499Y-99312500D01*
X98187501Y-99312500D01*
X98212005Y-99313704D01*
G37*
G36*
X96162005Y-99313704D02*
G01*
X96186273Y-99317304D01*
X96210072Y-99323265D01*
X96233171Y-99331530D01*
X96255350Y-99342020D01*
X96276393Y-99354632D01*
X96296099Y-99369247D01*
X96314277Y-99385723D01*
X96330753Y-99403901D01*
X96345368Y-99423607D01*
X96357980Y-99444650D01*
X96368470Y-99466829D01*
X96376735Y-99489928D01*
X96382696Y-99513727D01*
X96386296Y-99537995D01*
X96387500Y-99562499D01*
X96387500Y-100462501D01*
X96386296Y-100487005D01*
X96382696Y-100511273D01*
X96376735Y-100535072D01*
X96368470Y-100558171D01*
X96357980Y-100580350D01*
X96345368Y-100601393D01*
X96330753Y-100621099D01*
X96314277Y-100639277D01*
X96296099Y-100655753D01*
X96276393Y-100670368D01*
X96255350Y-100682980D01*
X96233171Y-100693470D01*
X96210072Y-100701735D01*
X96186273Y-100707696D01*
X96162005Y-100711296D01*
X96137501Y-100712500D01*
X95487499Y-100712500D01*
X95462995Y-100711296D01*
X95438727Y-100707696D01*
X95414928Y-100701735D01*
X95391829Y-100693470D01*
X95369650Y-100682980D01*
X95348607Y-100670368D01*
X95328901Y-100655753D01*
X95310723Y-100639277D01*
X95294247Y-100621099D01*
X95279632Y-100601393D01*
X95267020Y-100580350D01*
X95256530Y-100558171D01*
X95248265Y-100535072D01*
X95242304Y-100511273D01*
X95238704Y-100487005D01*
X95237500Y-100462501D01*
X95237500Y-99562499D01*
X95238704Y-99537995D01*
X95242304Y-99513727D01*
X95248265Y-99489928D01*
X95256530Y-99466829D01*
X95267020Y-99444650D01*
X95279632Y-99423607D01*
X95294247Y-99403901D01*
X95310723Y-99385723D01*
X95328901Y-99369247D01*
X95348607Y-99354632D01*
X95369650Y-99342020D01*
X95391829Y-99331530D01*
X95414928Y-99323265D01*
X95438727Y-99317304D01*
X95462995Y-99313704D01*
X95487499Y-99312500D01*
X96137501Y-99312500D01*
X96162005Y-99313704D01*
G37*
G36*
X74399505Y-99313704D02*
G01*
X74423773Y-99317304D01*
X74447572Y-99323265D01*
X74470671Y-99331530D01*
X74492850Y-99342020D01*
X74513893Y-99354632D01*
X74533599Y-99369247D01*
X74551777Y-99385723D01*
X74568253Y-99403901D01*
X74582868Y-99423607D01*
X74595480Y-99444650D01*
X74605970Y-99466829D01*
X74614235Y-99489928D01*
X74620196Y-99513727D01*
X74623796Y-99537995D01*
X74625000Y-99562499D01*
X74625000Y-100462501D01*
X74623796Y-100487005D01*
X74620196Y-100511273D01*
X74614235Y-100535072D01*
X74605970Y-100558171D01*
X74595480Y-100580350D01*
X74582868Y-100601393D01*
X74568253Y-100621099D01*
X74551777Y-100639277D01*
X74533599Y-100655753D01*
X74513893Y-100670368D01*
X74492850Y-100682980D01*
X74470671Y-100693470D01*
X74447572Y-100701735D01*
X74423773Y-100707696D01*
X74399505Y-100711296D01*
X74375001Y-100712500D01*
X73724999Y-100712500D01*
X73700495Y-100711296D01*
X73676227Y-100707696D01*
X73652428Y-100701735D01*
X73629329Y-100693470D01*
X73607150Y-100682980D01*
X73586107Y-100670368D01*
X73566401Y-100655753D01*
X73548223Y-100639277D01*
X73531747Y-100621099D01*
X73517132Y-100601393D01*
X73504520Y-100580350D01*
X73494030Y-100558171D01*
X73485765Y-100535072D01*
X73479804Y-100511273D01*
X73476204Y-100487005D01*
X73475000Y-100462501D01*
X73475000Y-99562499D01*
X73476204Y-99537995D01*
X73479804Y-99513727D01*
X73485765Y-99489928D01*
X73494030Y-99466829D01*
X73504520Y-99444650D01*
X73517132Y-99423607D01*
X73531747Y-99403901D01*
X73548223Y-99385723D01*
X73566401Y-99369247D01*
X73586107Y-99354632D01*
X73607150Y-99342020D01*
X73629329Y-99331530D01*
X73652428Y-99323265D01*
X73676227Y-99317304D01*
X73700495Y-99313704D01*
X73724999Y-99312500D01*
X74375001Y-99312500D01*
X74399505Y-99313704D01*
G37*
G36*
X72349505Y-99313704D02*
G01*
X72373773Y-99317304D01*
X72397572Y-99323265D01*
X72420671Y-99331530D01*
X72442850Y-99342020D01*
X72463893Y-99354632D01*
X72483599Y-99369247D01*
X72501777Y-99385723D01*
X72518253Y-99403901D01*
X72532868Y-99423607D01*
X72545480Y-99444650D01*
X72555970Y-99466829D01*
X72564235Y-99489928D01*
X72570196Y-99513727D01*
X72573796Y-99537995D01*
X72575000Y-99562499D01*
X72575000Y-100462501D01*
X72573796Y-100487005D01*
X72570196Y-100511273D01*
X72564235Y-100535072D01*
X72555970Y-100558171D01*
X72545480Y-100580350D01*
X72532868Y-100601393D01*
X72518253Y-100621099D01*
X72501777Y-100639277D01*
X72483599Y-100655753D01*
X72463893Y-100670368D01*
X72442850Y-100682980D01*
X72420671Y-100693470D01*
X72397572Y-100701735D01*
X72373773Y-100707696D01*
X72349505Y-100711296D01*
X72325001Y-100712500D01*
X71674999Y-100712500D01*
X71650495Y-100711296D01*
X71626227Y-100707696D01*
X71602428Y-100701735D01*
X71579329Y-100693470D01*
X71557150Y-100682980D01*
X71536107Y-100670368D01*
X71516401Y-100655753D01*
X71498223Y-100639277D01*
X71481747Y-100621099D01*
X71467132Y-100601393D01*
X71454520Y-100580350D01*
X71444030Y-100558171D01*
X71435765Y-100535072D01*
X71429804Y-100511273D01*
X71426204Y-100487005D01*
X71425000Y-100462501D01*
X71425000Y-99562499D01*
X71426204Y-99537995D01*
X71429804Y-99513727D01*
X71435765Y-99489928D01*
X71444030Y-99466829D01*
X71454520Y-99444650D01*
X71467132Y-99423607D01*
X71481747Y-99403901D01*
X71498223Y-99385723D01*
X71516401Y-99369247D01*
X71536107Y-99354632D01*
X71557150Y-99342020D01*
X71579329Y-99331530D01*
X71602428Y-99323265D01*
X71626227Y-99317304D01*
X71650495Y-99313704D01*
X71674999Y-99312500D01*
X72325001Y-99312500D01*
X72349505Y-99313704D01*
G37*
G36*
X55349505Y-99313704D02*
G01*
X55373773Y-99317304D01*
X55397572Y-99323265D01*
X55420671Y-99331530D01*
X55442850Y-99342020D01*
X55463893Y-99354632D01*
X55483599Y-99369247D01*
X55501777Y-99385723D01*
X55518253Y-99403901D01*
X55532868Y-99423607D01*
X55545480Y-99444650D01*
X55555970Y-99466829D01*
X55564235Y-99489928D01*
X55570196Y-99513727D01*
X55573796Y-99537995D01*
X55575000Y-99562499D01*
X55575000Y-100462501D01*
X55573796Y-100487005D01*
X55570196Y-100511273D01*
X55564235Y-100535072D01*
X55555970Y-100558171D01*
X55545480Y-100580350D01*
X55532868Y-100601393D01*
X55518253Y-100621099D01*
X55501777Y-100639277D01*
X55483599Y-100655753D01*
X55463893Y-100670368D01*
X55442850Y-100682980D01*
X55420671Y-100693470D01*
X55397572Y-100701735D01*
X55373773Y-100707696D01*
X55349505Y-100711296D01*
X55325001Y-100712500D01*
X54674999Y-100712500D01*
X54650495Y-100711296D01*
X54626227Y-100707696D01*
X54602428Y-100701735D01*
X54579329Y-100693470D01*
X54557150Y-100682980D01*
X54536107Y-100670368D01*
X54516401Y-100655753D01*
X54498223Y-100639277D01*
X54481747Y-100621099D01*
X54467132Y-100601393D01*
X54454520Y-100580350D01*
X54444030Y-100558171D01*
X54435765Y-100535072D01*
X54429804Y-100511273D01*
X54426204Y-100487005D01*
X54425000Y-100462501D01*
X54425000Y-99562499D01*
X54426204Y-99537995D01*
X54429804Y-99513727D01*
X54435765Y-99489928D01*
X54444030Y-99466829D01*
X54454520Y-99444650D01*
X54467132Y-99423607D01*
X54481747Y-99403901D01*
X54498223Y-99385723D01*
X54516401Y-99369247D01*
X54536107Y-99354632D01*
X54557150Y-99342020D01*
X54579329Y-99331530D01*
X54602428Y-99323265D01*
X54626227Y-99317304D01*
X54650495Y-99313704D01*
X54674999Y-99312500D01*
X55325001Y-99312500D01*
X55349505Y-99313704D01*
G37*
G36*
X53299505Y-99313704D02*
G01*
X53323773Y-99317304D01*
X53347572Y-99323265D01*
X53370671Y-99331530D01*
X53392850Y-99342020D01*
X53413893Y-99354632D01*
X53433599Y-99369247D01*
X53451777Y-99385723D01*
X53468253Y-99403901D01*
X53482868Y-99423607D01*
X53495480Y-99444650D01*
X53505970Y-99466829D01*
X53514235Y-99489928D01*
X53520196Y-99513727D01*
X53523796Y-99537995D01*
X53525000Y-99562499D01*
X53525000Y-100462501D01*
X53523796Y-100487005D01*
X53520196Y-100511273D01*
X53514235Y-100535072D01*
X53505970Y-100558171D01*
X53495480Y-100580350D01*
X53482868Y-100601393D01*
X53468253Y-100621099D01*
X53451777Y-100639277D01*
X53433599Y-100655753D01*
X53413893Y-100670368D01*
X53392850Y-100682980D01*
X53370671Y-100693470D01*
X53347572Y-100701735D01*
X53323773Y-100707696D01*
X53299505Y-100711296D01*
X53275001Y-100712500D01*
X52624999Y-100712500D01*
X52600495Y-100711296D01*
X52576227Y-100707696D01*
X52552428Y-100701735D01*
X52529329Y-100693470D01*
X52507150Y-100682980D01*
X52486107Y-100670368D01*
X52466401Y-100655753D01*
X52448223Y-100639277D01*
X52431747Y-100621099D01*
X52417132Y-100601393D01*
X52404520Y-100580350D01*
X52394030Y-100558171D01*
X52385765Y-100535072D01*
X52379804Y-100511273D01*
X52376204Y-100487005D01*
X52375000Y-100462501D01*
X52375000Y-99562499D01*
X52376204Y-99537995D01*
X52379804Y-99513727D01*
X52385765Y-99489928D01*
X52394030Y-99466829D01*
X52404520Y-99444650D01*
X52417132Y-99423607D01*
X52431747Y-99403901D01*
X52448223Y-99385723D01*
X52466401Y-99369247D01*
X52486107Y-99354632D01*
X52507150Y-99342020D01*
X52529329Y-99331530D01*
X52552428Y-99323265D01*
X52576227Y-99317304D01*
X52600495Y-99313704D01*
X52624999Y-99312500D01*
X53275001Y-99312500D01*
X53299505Y-99313704D01*
G37*
G36*
X155362005Y-80263704D02*
G01*
X155386273Y-80267304D01*
X155410072Y-80273265D01*
X155433171Y-80281530D01*
X155455350Y-80292020D01*
X155476393Y-80304632D01*
X155496099Y-80319247D01*
X155514277Y-80335723D01*
X155530753Y-80353901D01*
X155545368Y-80373607D01*
X155557980Y-80394650D01*
X155568470Y-80416829D01*
X155576735Y-80439928D01*
X155582696Y-80463727D01*
X155586296Y-80487995D01*
X155587500Y-80512499D01*
X155587500Y-81412501D01*
X155586296Y-81437005D01*
X155582696Y-81461273D01*
X155576735Y-81485072D01*
X155568470Y-81508171D01*
X155557980Y-81530350D01*
X155545368Y-81551393D01*
X155530753Y-81571099D01*
X155514277Y-81589277D01*
X155496099Y-81605753D01*
X155476393Y-81620368D01*
X155455350Y-81632980D01*
X155433171Y-81643470D01*
X155410072Y-81651735D01*
X155386273Y-81657696D01*
X155362005Y-81661296D01*
X155337501Y-81662500D01*
X154687499Y-81662500D01*
X154662995Y-81661296D01*
X154638727Y-81657696D01*
X154614928Y-81651735D01*
X154591829Y-81643470D01*
X154569650Y-81632980D01*
X154548607Y-81620368D01*
X154528901Y-81605753D01*
X154510723Y-81589277D01*
X154494247Y-81571099D01*
X154479632Y-81551393D01*
X154467020Y-81530350D01*
X154456530Y-81508171D01*
X154448265Y-81485072D01*
X154442304Y-81461273D01*
X154438704Y-81437005D01*
X154437500Y-81412501D01*
X154437500Y-80512499D01*
X154438704Y-80487995D01*
X154442304Y-80463727D01*
X154448265Y-80439928D01*
X154456530Y-80416829D01*
X154467020Y-80394650D01*
X154479632Y-80373607D01*
X154494247Y-80353901D01*
X154510723Y-80335723D01*
X154528901Y-80319247D01*
X154548607Y-80304632D01*
X154569650Y-80292020D01*
X154591829Y-80281530D01*
X154614928Y-80273265D01*
X154638727Y-80267304D01*
X154662995Y-80263704D01*
X154687499Y-80262500D01*
X155337501Y-80262500D01*
X155362005Y-80263704D01*
G37*
G36*
X153312005Y-80263704D02*
G01*
X153336273Y-80267304D01*
X153360072Y-80273265D01*
X153383171Y-80281530D01*
X153405350Y-80292020D01*
X153426393Y-80304632D01*
X153446099Y-80319247D01*
X153464277Y-80335723D01*
X153480753Y-80353901D01*
X153495368Y-80373607D01*
X153507980Y-80394650D01*
X153518470Y-80416829D01*
X153526735Y-80439928D01*
X153532696Y-80463727D01*
X153536296Y-80487995D01*
X153537500Y-80512499D01*
X153537500Y-81412501D01*
X153536296Y-81437005D01*
X153532696Y-81461273D01*
X153526735Y-81485072D01*
X153518470Y-81508171D01*
X153507980Y-81530350D01*
X153495368Y-81551393D01*
X153480753Y-81571099D01*
X153464277Y-81589277D01*
X153446099Y-81605753D01*
X153426393Y-81620368D01*
X153405350Y-81632980D01*
X153383171Y-81643470D01*
X153360072Y-81651735D01*
X153336273Y-81657696D01*
X153312005Y-81661296D01*
X153287501Y-81662500D01*
X152637499Y-81662500D01*
X152612995Y-81661296D01*
X152588727Y-81657696D01*
X152564928Y-81651735D01*
X152541829Y-81643470D01*
X152519650Y-81632980D01*
X152498607Y-81620368D01*
X152478901Y-81605753D01*
X152460723Y-81589277D01*
X152444247Y-81571099D01*
X152429632Y-81551393D01*
X152417020Y-81530350D01*
X152406530Y-81508171D01*
X152398265Y-81485072D01*
X152392304Y-81461273D01*
X152388704Y-81437005D01*
X152387500Y-81412501D01*
X152387500Y-80512499D01*
X152388704Y-80487995D01*
X152392304Y-80463727D01*
X152398265Y-80439928D01*
X152406530Y-80416829D01*
X152417020Y-80394650D01*
X152429632Y-80373607D01*
X152444247Y-80353901D01*
X152460723Y-80335723D01*
X152478901Y-80319247D01*
X152498607Y-80304632D01*
X152519650Y-80292020D01*
X152541829Y-80281530D01*
X152564928Y-80273265D01*
X152588727Y-80267304D01*
X152612995Y-80263704D01*
X152637499Y-80262500D01*
X153287501Y-80262500D01*
X153312005Y-80263704D01*
G37*
G36*
X136312005Y-80263704D02*
G01*
X136336273Y-80267304D01*
X136360072Y-80273265D01*
X136383171Y-80281530D01*
X136405350Y-80292020D01*
X136426393Y-80304632D01*
X136446099Y-80319247D01*
X136464277Y-80335723D01*
X136480753Y-80353901D01*
X136495368Y-80373607D01*
X136507980Y-80394650D01*
X136518470Y-80416829D01*
X136526735Y-80439928D01*
X136532696Y-80463727D01*
X136536296Y-80487995D01*
X136537500Y-80512499D01*
X136537500Y-81412501D01*
X136536296Y-81437005D01*
X136532696Y-81461273D01*
X136526735Y-81485072D01*
X136518470Y-81508171D01*
X136507980Y-81530350D01*
X136495368Y-81551393D01*
X136480753Y-81571099D01*
X136464277Y-81589277D01*
X136446099Y-81605753D01*
X136426393Y-81620368D01*
X136405350Y-81632980D01*
X136383171Y-81643470D01*
X136360072Y-81651735D01*
X136336273Y-81657696D01*
X136312005Y-81661296D01*
X136287501Y-81662500D01*
X135637499Y-81662500D01*
X135612995Y-81661296D01*
X135588727Y-81657696D01*
X135564928Y-81651735D01*
X135541829Y-81643470D01*
X135519650Y-81632980D01*
X135498607Y-81620368D01*
X135478901Y-81605753D01*
X135460723Y-81589277D01*
X135444247Y-81571099D01*
X135429632Y-81551393D01*
X135417020Y-81530350D01*
X135406530Y-81508171D01*
X135398265Y-81485072D01*
X135392304Y-81461273D01*
X135388704Y-81437005D01*
X135387500Y-81412501D01*
X135387500Y-80512499D01*
X135388704Y-80487995D01*
X135392304Y-80463727D01*
X135398265Y-80439928D01*
X135406530Y-80416829D01*
X135417020Y-80394650D01*
X135429632Y-80373607D01*
X135444247Y-80353901D01*
X135460723Y-80335723D01*
X135478901Y-80319247D01*
X135498607Y-80304632D01*
X135519650Y-80292020D01*
X135541829Y-80281530D01*
X135564928Y-80273265D01*
X135588727Y-80267304D01*
X135612995Y-80263704D01*
X135637499Y-80262500D01*
X136287501Y-80262500D01*
X136312005Y-80263704D01*
G37*
G36*
X134262005Y-80263704D02*
G01*
X134286273Y-80267304D01*
X134310072Y-80273265D01*
X134333171Y-80281530D01*
X134355350Y-80292020D01*
X134376393Y-80304632D01*
X134396099Y-80319247D01*
X134414277Y-80335723D01*
X134430753Y-80353901D01*
X134445368Y-80373607D01*
X134457980Y-80394650D01*
X134468470Y-80416829D01*
X134476735Y-80439928D01*
X134482696Y-80463727D01*
X134486296Y-80487995D01*
X134487500Y-80512499D01*
X134487500Y-81412501D01*
X134486296Y-81437005D01*
X134482696Y-81461273D01*
X134476735Y-81485072D01*
X134468470Y-81508171D01*
X134457980Y-81530350D01*
X134445368Y-81551393D01*
X134430753Y-81571099D01*
X134414277Y-81589277D01*
X134396099Y-81605753D01*
X134376393Y-81620368D01*
X134355350Y-81632980D01*
X134333171Y-81643470D01*
X134310072Y-81651735D01*
X134286273Y-81657696D01*
X134262005Y-81661296D01*
X134237501Y-81662500D01*
X133587499Y-81662500D01*
X133562995Y-81661296D01*
X133538727Y-81657696D01*
X133514928Y-81651735D01*
X133491829Y-81643470D01*
X133469650Y-81632980D01*
X133448607Y-81620368D01*
X133428901Y-81605753D01*
X133410723Y-81589277D01*
X133394247Y-81571099D01*
X133379632Y-81551393D01*
X133367020Y-81530350D01*
X133356530Y-81508171D01*
X133348265Y-81485072D01*
X133342304Y-81461273D01*
X133338704Y-81437005D01*
X133337500Y-81412501D01*
X133337500Y-80512499D01*
X133338704Y-80487995D01*
X133342304Y-80463727D01*
X133348265Y-80439928D01*
X133356530Y-80416829D01*
X133367020Y-80394650D01*
X133379632Y-80373607D01*
X133394247Y-80353901D01*
X133410723Y-80335723D01*
X133428901Y-80319247D01*
X133448607Y-80304632D01*
X133469650Y-80292020D01*
X133491829Y-80281530D01*
X133514928Y-80273265D01*
X133538727Y-80267304D01*
X133562995Y-80263704D01*
X133587499Y-80262500D01*
X134237501Y-80262500D01*
X134262005Y-80263704D01*
G37*
G36*
X117262005Y-80263704D02*
G01*
X117286273Y-80267304D01*
X117310072Y-80273265D01*
X117333171Y-80281530D01*
X117355350Y-80292020D01*
X117376393Y-80304632D01*
X117396099Y-80319247D01*
X117414277Y-80335723D01*
X117430753Y-80353901D01*
X117445368Y-80373607D01*
X117457980Y-80394650D01*
X117468470Y-80416829D01*
X117476735Y-80439928D01*
X117482696Y-80463727D01*
X117486296Y-80487995D01*
X117487500Y-80512499D01*
X117487500Y-81412501D01*
X117486296Y-81437005D01*
X117482696Y-81461273D01*
X117476735Y-81485072D01*
X117468470Y-81508171D01*
X117457980Y-81530350D01*
X117445368Y-81551393D01*
X117430753Y-81571099D01*
X117414277Y-81589277D01*
X117396099Y-81605753D01*
X117376393Y-81620368D01*
X117355350Y-81632980D01*
X117333171Y-81643470D01*
X117310072Y-81651735D01*
X117286273Y-81657696D01*
X117262005Y-81661296D01*
X117237501Y-81662500D01*
X116587499Y-81662500D01*
X116562995Y-81661296D01*
X116538727Y-81657696D01*
X116514928Y-81651735D01*
X116491829Y-81643470D01*
X116469650Y-81632980D01*
X116448607Y-81620368D01*
X116428901Y-81605753D01*
X116410723Y-81589277D01*
X116394247Y-81571099D01*
X116379632Y-81551393D01*
X116367020Y-81530350D01*
X116356530Y-81508171D01*
X116348265Y-81485072D01*
X116342304Y-81461273D01*
X116338704Y-81437005D01*
X116337500Y-81412501D01*
X116337500Y-80512499D01*
X116338704Y-80487995D01*
X116342304Y-80463727D01*
X116348265Y-80439928D01*
X116356530Y-80416829D01*
X116367020Y-80394650D01*
X116379632Y-80373607D01*
X116394247Y-80353901D01*
X116410723Y-80335723D01*
X116428901Y-80319247D01*
X116448607Y-80304632D01*
X116469650Y-80292020D01*
X116491829Y-80281530D01*
X116514928Y-80273265D01*
X116538727Y-80267304D01*
X116562995Y-80263704D01*
X116587499Y-80262500D01*
X117237501Y-80262500D01*
X117262005Y-80263704D01*
G37*
G36*
X115212005Y-80263704D02*
G01*
X115236273Y-80267304D01*
X115260072Y-80273265D01*
X115283171Y-80281530D01*
X115305350Y-80292020D01*
X115326393Y-80304632D01*
X115346099Y-80319247D01*
X115364277Y-80335723D01*
X115380753Y-80353901D01*
X115395368Y-80373607D01*
X115407980Y-80394650D01*
X115418470Y-80416829D01*
X115426735Y-80439928D01*
X115432696Y-80463727D01*
X115436296Y-80487995D01*
X115437500Y-80512499D01*
X115437500Y-81412501D01*
X115436296Y-81437005D01*
X115432696Y-81461273D01*
X115426735Y-81485072D01*
X115418470Y-81508171D01*
X115407980Y-81530350D01*
X115395368Y-81551393D01*
X115380753Y-81571099D01*
X115364277Y-81589277D01*
X115346099Y-81605753D01*
X115326393Y-81620368D01*
X115305350Y-81632980D01*
X115283171Y-81643470D01*
X115260072Y-81651735D01*
X115236273Y-81657696D01*
X115212005Y-81661296D01*
X115187501Y-81662500D01*
X114537499Y-81662500D01*
X114512995Y-81661296D01*
X114488727Y-81657696D01*
X114464928Y-81651735D01*
X114441829Y-81643470D01*
X114419650Y-81632980D01*
X114398607Y-81620368D01*
X114378901Y-81605753D01*
X114360723Y-81589277D01*
X114344247Y-81571099D01*
X114329632Y-81551393D01*
X114317020Y-81530350D01*
X114306530Y-81508171D01*
X114298265Y-81485072D01*
X114292304Y-81461273D01*
X114288704Y-81437005D01*
X114287500Y-81412501D01*
X114287500Y-80512499D01*
X114288704Y-80487995D01*
X114292304Y-80463727D01*
X114298265Y-80439928D01*
X114306530Y-80416829D01*
X114317020Y-80394650D01*
X114329632Y-80373607D01*
X114344247Y-80353901D01*
X114360723Y-80335723D01*
X114378901Y-80319247D01*
X114398607Y-80304632D01*
X114419650Y-80292020D01*
X114441829Y-80281530D01*
X114464928Y-80273265D01*
X114488727Y-80267304D01*
X114512995Y-80263704D01*
X114537499Y-80262500D01*
X115187501Y-80262500D01*
X115212005Y-80263704D01*
G37*
G36*
X98212005Y-80263704D02*
G01*
X98236273Y-80267304D01*
X98260072Y-80273265D01*
X98283171Y-80281530D01*
X98305350Y-80292020D01*
X98326393Y-80304632D01*
X98346099Y-80319247D01*
X98364277Y-80335723D01*
X98380753Y-80353901D01*
X98395368Y-80373607D01*
X98407980Y-80394650D01*
X98418470Y-80416829D01*
X98426735Y-80439928D01*
X98432696Y-80463727D01*
X98436296Y-80487995D01*
X98437500Y-80512499D01*
X98437500Y-81412501D01*
X98436296Y-81437005D01*
X98432696Y-81461273D01*
X98426735Y-81485072D01*
X98418470Y-81508171D01*
X98407980Y-81530350D01*
X98395368Y-81551393D01*
X98380753Y-81571099D01*
X98364277Y-81589277D01*
X98346099Y-81605753D01*
X98326393Y-81620368D01*
X98305350Y-81632980D01*
X98283171Y-81643470D01*
X98260072Y-81651735D01*
X98236273Y-81657696D01*
X98212005Y-81661296D01*
X98187501Y-81662500D01*
X97537499Y-81662500D01*
X97512995Y-81661296D01*
X97488727Y-81657696D01*
X97464928Y-81651735D01*
X97441829Y-81643470D01*
X97419650Y-81632980D01*
X97398607Y-81620368D01*
X97378901Y-81605753D01*
X97360723Y-81589277D01*
X97344247Y-81571099D01*
X97329632Y-81551393D01*
X97317020Y-81530350D01*
X97306530Y-81508171D01*
X97298265Y-81485072D01*
X97292304Y-81461273D01*
X97288704Y-81437005D01*
X97287500Y-81412501D01*
X97287500Y-80512499D01*
X97288704Y-80487995D01*
X97292304Y-80463727D01*
X97298265Y-80439928D01*
X97306530Y-80416829D01*
X97317020Y-80394650D01*
X97329632Y-80373607D01*
X97344247Y-80353901D01*
X97360723Y-80335723D01*
X97378901Y-80319247D01*
X97398607Y-80304632D01*
X97419650Y-80292020D01*
X97441829Y-80281530D01*
X97464928Y-80273265D01*
X97488727Y-80267304D01*
X97512995Y-80263704D01*
X97537499Y-80262500D01*
X98187501Y-80262500D01*
X98212005Y-80263704D01*
G37*
G36*
X96162005Y-80263704D02*
G01*
X96186273Y-80267304D01*
X96210072Y-80273265D01*
X96233171Y-80281530D01*
X96255350Y-80292020D01*
X96276393Y-80304632D01*
X96296099Y-80319247D01*
X96314277Y-80335723D01*
X96330753Y-80353901D01*
X96345368Y-80373607D01*
X96357980Y-80394650D01*
X96368470Y-80416829D01*
X96376735Y-80439928D01*
X96382696Y-80463727D01*
X96386296Y-80487995D01*
X96387500Y-80512499D01*
X96387500Y-81412501D01*
X96386296Y-81437005D01*
X96382696Y-81461273D01*
X96376735Y-81485072D01*
X96368470Y-81508171D01*
X96357980Y-81530350D01*
X96345368Y-81551393D01*
X96330753Y-81571099D01*
X96314277Y-81589277D01*
X96296099Y-81605753D01*
X96276393Y-81620368D01*
X96255350Y-81632980D01*
X96233171Y-81643470D01*
X96210072Y-81651735D01*
X96186273Y-81657696D01*
X96162005Y-81661296D01*
X96137501Y-81662500D01*
X95487499Y-81662500D01*
X95462995Y-81661296D01*
X95438727Y-81657696D01*
X95414928Y-81651735D01*
X95391829Y-81643470D01*
X95369650Y-81632980D01*
X95348607Y-81620368D01*
X95328901Y-81605753D01*
X95310723Y-81589277D01*
X95294247Y-81571099D01*
X95279632Y-81551393D01*
X95267020Y-81530350D01*
X95256530Y-81508171D01*
X95248265Y-81485072D01*
X95242304Y-81461273D01*
X95238704Y-81437005D01*
X95237500Y-81412501D01*
X95237500Y-80512499D01*
X95238704Y-80487995D01*
X95242304Y-80463727D01*
X95248265Y-80439928D01*
X95256530Y-80416829D01*
X95267020Y-80394650D01*
X95279632Y-80373607D01*
X95294247Y-80353901D01*
X95310723Y-80335723D01*
X95328901Y-80319247D01*
X95348607Y-80304632D01*
X95369650Y-80292020D01*
X95391829Y-80281530D01*
X95414928Y-80273265D01*
X95438727Y-80267304D01*
X95462995Y-80263704D01*
X95487499Y-80262500D01*
X96137501Y-80262500D01*
X96162005Y-80263704D01*
G37*
G36*
X74399505Y-80263704D02*
G01*
X74423773Y-80267304D01*
X74447572Y-80273265D01*
X74470671Y-80281530D01*
X74492850Y-80292020D01*
X74513893Y-80304632D01*
X74533599Y-80319247D01*
X74551777Y-80335723D01*
X74568253Y-80353901D01*
X74582868Y-80373607D01*
X74595480Y-80394650D01*
X74605970Y-80416829D01*
X74614235Y-80439928D01*
X74620196Y-80463727D01*
X74623796Y-80487995D01*
X74625000Y-80512499D01*
X74625000Y-81412501D01*
X74623796Y-81437005D01*
X74620196Y-81461273D01*
X74614235Y-81485072D01*
X74605970Y-81508171D01*
X74595480Y-81530350D01*
X74582868Y-81551393D01*
X74568253Y-81571099D01*
X74551777Y-81589277D01*
X74533599Y-81605753D01*
X74513893Y-81620368D01*
X74492850Y-81632980D01*
X74470671Y-81643470D01*
X74447572Y-81651735D01*
X74423773Y-81657696D01*
X74399505Y-81661296D01*
X74375001Y-81662500D01*
X73724999Y-81662500D01*
X73700495Y-81661296D01*
X73676227Y-81657696D01*
X73652428Y-81651735D01*
X73629329Y-81643470D01*
X73607150Y-81632980D01*
X73586107Y-81620368D01*
X73566401Y-81605753D01*
X73548223Y-81589277D01*
X73531747Y-81571099D01*
X73517132Y-81551393D01*
X73504520Y-81530350D01*
X73494030Y-81508171D01*
X73485765Y-81485072D01*
X73479804Y-81461273D01*
X73476204Y-81437005D01*
X73475000Y-81412501D01*
X73475000Y-80512499D01*
X73476204Y-80487995D01*
X73479804Y-80463727D01*
X73485765Y-80439928D01*
X73494030Y-80416829D01*
X73504520Y-80394650D01*
X73517132Y-80373607D01*
X73531747Y-80353901D01*
X73548223Y-80335723D01*
X73566401Y-80319247D01*
X73586107Y-80304632D01*
X73607150Y-80292020D01*
X73629329Y-80281530D01*
X73652428Y-80273265D01*
X73676227Y-80267304D01*
X73700495Y-80263704D01*
X73724999Y-80262500D01*
X74375001Y-80262500D01*
X74399505Y-80263704D01*
G37*
G36*
X72349505Y-80263704D02*
G01*
X72373773Y-80267304D01*
X72397572Y-80273265D01*
X72420671Y-80281530D01*
X72442850Y-80292020D01*
X72463893Y-80304632D01*
X72483599Y-80319247D01*
X72501777Y-80335723D01*
X72518253Y-80353901D01*
X72532868Y-80373607D01*
X72545480Y-80394650D01*
X72555970Y-80416829D01*
X72564235Y-80439928D01*
X72570196Y-80463727D01*
X72573796Y-80487995D01*
X72575000Y-80512499D01*
X72575000Y-81412501D01*
X72573796Y-81437005D01*
X72570196Y-81461273D01*
X72564235Y-81485072D01*
X72555970Y-81508171D01*
X72545480Y-81530350D01*
X72532868Y-81551393D01*
X72518253Y-81571099D01*
X72501777Y-81589277D01*
X72483599Y-81605753D01*
X72463893Y-81620368D01*
X72442850Y-81632980D01*
X72420671Y-81643470D01*
X72397572Y-81651735D01*
X72373773Y-81657696D01*
X72349505Y-81661296D01*
X72325001Y-81662500D01*
X71674999Y-81662500D01*
X71650495Y-81661296D01*
X71626227Y-81657696D01*
X71602428Y-81651735D01*
X71579329Y-81643470D01*
X71557150Y-81632980D01*
X71536107Y-81620368D01*
X71516401Y-81605753D01*
X71498223Y-81589277D01*
X71481747Y-81571099D01*
X71467132Y-81551393D01*
X71454520Y-81530350D01*
X71444030Y-81508171D01*
X71435765Y-81485072D01*
X71429804Y-81461273D01*
X71426204Y-81437005D01*
X71425000Y-81412501D01*
X71425000Y-80512499D01*
X71426204Y-80487995D01*
X71429804Y-80463727D01*
X71435765Y-80439928D01*
X71444030Y-80416829D01*
X71454520Y-80394650D01*
X71467132Y-80373607D01*
X71481747Y-80353901D01*
X71498223Y-80335723D01*
X71516401Y-80319247D01*
X71536107Y-80304632D01*
X71557150Y-80292020D01*
X71579329Y-80281530D01*
X71602428Y-80273265D01*
X71626227Y-80267304D01*
X71650495Y-80263704D01*
X71674999Y-80262500D01*
X72325001Y-80262500D01*
X72349505Y-80263704D01*
G37*
G36*
X55349505Y-80263704D02*
G01*
X55373773Y-80267304D01*
X55397572Y-80273265D01*
X55420671Y-80281530D01*
X55442850Y-80292020D01*
X55463893Y-80304632D01*
X55483599Y-80319247D01*
X55501777Y-80335723D01*
X55518253Y-80353901D01*
X55532868Y-80373607D01*
X55545480Y-80394650D01*
X55555970Y-80416829D01*
X55564235Y-80439928D01*
X55570196Y-80463727D01*
X55573796Y-80487995D01*
X55575000Y-80512499D01*
X55575000Y-81412501D01*
X55573796Y-81437005D01*
X55570196Y-81461273D01*
X55564235Y-81485072D01*
X55555970Y-81508171D01*
X55545480Y-81530350D01*
X55532868Y-81551393D01*
X55518253Y-81571099D01*
X55501777Y-81589277D01*
X55483599Y-81605753D01*
X55463893Y-81620368D01*
X55442850Y-81632980D01*
X55420671Y-81643470D01*
X55397572Y-81651735D01*
X55373773Y-81657696D01*
X55349505Y-81661296D01*
X55325001Y-81662500D01*
X54674999Y-81662500D01*
X54650495Y-81661296D01*
X54626227Y-81657696D01*
X54602428Y-81651735D01*
X54579329Y-81643470D01*
X54557150Y-81632980D01*
X54536107Y-81620368D01*
X54516401Y-81605753D01*
X54498223Y-81589277D01*
X54481747Y-81571099D01*
X54467132Y-81551393D01*
X54454520Y-81530350D01*
X54444030Y-81508171D01*
X54435765Y-81485072D01*
X54429804Y-81461273D01*
X54426204Y-81437005D01*
X54425000Y-81412501D01*
X54425000Y-80512499D01*
X54426204Y-80487995D01*
X54429804Y-80463727D01*
X54435765Y-80439928D01*
X54444030Y-80416829D01*
X54454520Y-80394650D01*
X54467132Y-80373607D01*
X54481747Y-80353901D01*
X54498223Y-80335723D01*
X54516401Y-80319247D01*
X54536107Y-80304632D01*
X54557150Y-80292020D01*
X54579329Y-80281530D01*
X54602428Y-80273265D01*
X54626227Y-80267304D01*
X54650495Y-80263704D01*
X54674999Y-80262500D01*
X55325001Y-80262500D01*
X55349505Y-80263704D01*
G37*
G36*
X53299505Y-80263704D02*
G01*
X53323773Y-80267304D01*
X53347572Y-80273265D01*
X53370671Y-80281530D01*
X53392850Y-80292020D01*
X53413893Y-80304632D01*
X53433599Y-80319247D01*
X53451777Y-80335723D01*
X53468253Y-80353901D01*
X53482868Y-80373607D01*
X53495480Y-80394650D01*
X53505970Y-80416829D01*
X53514235Y-80439928D01*
X53520196Y-80463727D01*
X53523796Y-80487995D01*
X53525000Y-80512499D01*
X53525000Y-81412501D01*
X53523796Y-81437005D01*
X53520196Y-81461273D01*
X53514235Y-81485072D01*
X53505970Y-81508171D01*
X53495480Y-81530350D01*
X53482868Y-81551393D01*
X53468253Y-81571099D01*
X53451777Y-81589277D01*
X53433599Y-81605753D01*
X53413893Y-81620368D01*
X53392850Y-81632980D01*
X53370671Y-81643470D01*
X53347572Y-81651735D01*
X53323773Y-81657696D01*
X53299505Y-81661296D01*
X53275001Y-81662500D01*
X52624999Y-81662500D01*
X52600495Y-81661296D01*
X52576227Y-81657696D01*
X52552428Y-81651735D01*
X52529329Y-81643470D01*
X52507150Y-81632980D01*
X52486107Y-81620368D01*
X52466401Y-81605753D01*
X52448223Y-81589277D01*
X52431747Y-81571099D01*
X52417132Y-81551393D01*
X52404520Y-81530350D01*
X52394030Y-81508171D01*
X52385765Y-81485072D01*
X52379804Y-81461273D01*
X52376204Y-81437005D01*
X52375000Y-81412501D01*
X52375000Y-80512499D01*
X52376204Y-80487995D01*
X52379804Y-80463727D01*
X52385765Y-80439928D01*
X52394030Y-80416829D01*
X52404520Y-80394650D01*
X52417132Y-80373607D01*
X52431747Y-80353901D01*
X52448223Y-80335723D01*
X52466401Y-80319247D01*
X52486107Y-80304632D01*
X52507150Y-80292020D01*
X52529329Y-80281530D01*
X52552428Y-80273265D01*
X52576227Y-80267304D01*
X52600495Y-80263704D01*
X52624999Y-80262500D01*
X53275001Y-80262500D01*
X53299505Y-80263704D01*
G37*
G36*
X131896505Y-49406204D02*
G01*
X131920773Y-49409804D01*
X131944572Y-49415765D01*
X131967671Y-49424030D01*
X131989850Y-49434520D01*
X132010893Y-49447132D01*
X132030599Y-49461747D01*
X132048777Y-49478223D01*
X132065253Y-49496401D01*
X132079868Y-49516107D01*
X132092480Y-49537150D01*
X132102970Y-49559329D01*
X132111235Y-49582428D01*
X132117196Y-49606227D01*
X132120796Y-49630495D01*
X132122000Y-49654999D01*
X132122000Y-50555001D01*
X132120796Y-50579505D01*
X132117196Y-50603773D01*
X132111235Y-50627572D01*
X132102970Y-50650671D01*
X132092480Y-50672850D01*
X132079868Y-50693893D01*
X132065253Y-50713599D01*
X132048777Y-50731777D01*
X132030599Y-50748253D01*
X132010893Y-50762868D01*
X131989850Y-50775480D01*
X131967671Y-50785970D01*
X131944572Y-50794235D01*
X131920773Y-50800196D01*
X131896505Y-50803796D01*
X131872001Y-50805000D01*
X131221999Y-50805000D01*
X131197495Y-50803796D01*
X131173227Y-50800196D01*
X131149428Y-50794235D01*
X131126329Y-50785970D01*
X131104150Y-50775480D01*
X131083107Y-50762868D01*
X131063401Y-50748253D01*
X131045223Y-50731777D01*
X131028747Y-50713599D01*
X131014132Y-50693893D01*
X131001520Y-50672850D01*
X130991030Y-50650671D01*
X130982765Y-50627572D01*
X130976804Y-50603773D01*
X130973204Y-50579505D01*
X130972000Y-50555001D01*
X130972000Y-49654999D01*
X130973204Y-49630495D01*
X130976804Y-49606227D01*
X130982765Y-49582428D01*
X130991030Y-49559329D01*
X131001520Y-49537150D01*
X131014132Y-49516107D01*
X131028747Y-49496401D01*
X131045223Y-49478223D01*
X131063401Y-49461747D01*
X131083107Y-49447132D01*
X131104150Y-49434520D01*
X131126329Y-49424030D01*
X131149428Y-49415765D01*
X131173227Y-49409804D01*
X131197495Y-49406204D01*
X131221999Y-49405000D01*
X131872001Y-49405000D01*
X131896505Y-49406204D01*
G37*
G36*
X133946505Y-49406204D02*
G01*
X133970773Y-49409804D01*
X133994572Y-49415765D01*
X134017671Y-49424030D01*
X134039850Y-49434520D01*
X134060893Y-49447132D01*
X134080599Y-49461747D01*
X134098777Y-49478223D01*
X134115253Y-49496401D01*
X134129868Y-49516107D01*
X134142480Y-49537150D01*
X134152970Y-49559329D01*
X134161235Y-49582428D01*
X134167196Y-49606227D01*
X134170796Y-49630495D01*
X134172000Y-49654999D01*
X134172000Y-50555001D01*
X134170796Y-50579505D01*
X134167196Y-50603773D01*
X134161235Y-50627572D01*
X134152970Y-50650671D01*
X134142480Y-50672850D01*
X134129868Y-50693893D01*
X134115253Y-50713599D01*
X134098777Y-50731777D01*
X134080599Y-50748253D01*
X134060893Y-50762868D01*
X134039850Y-50775480D01*
X134017671Y-50785970D01*
X133994572Y-50794235D01*
X133970773Y-50800196D01*
X133946505Y-50803796D01*
X133922001Y-50805000D01*
X133271999Y-50805000D01*
X133247495Y-50803796D01*
X133223227Y-50800196D01*
X133199428Y-50794235D01*
X133176329Y-50785970D01*
X133154150Y-50775480D01*
X133133107Y-50762868D01*
X133113401Y-50748253D01*
X133095223Y-50731777D01*
X133078747Y-50713599D01*
X133064132Y-50693893D01*
X133051520Y-50672850D01*
X133041030Y-50650671D01*
X133032765Y-50627572D01*
X133026804Y-50603773D01*
X133023204Y-50579505D01*
X133022000Y-50555001D01*
X133022000Y-49654999D01*
X133023204Y-49630495D01*
X133026804Y-49606227D01*
X133032765Y-49582428D01*
X133041030Y-49559329D01*
X133051520Y-49537150D01*
X133064132Y-49516107D01*
X133078747Y-49496401D01*
X133095223Y-49478223D01*
X133113401Y-49461747D01*
X133133107Y-49447132D01*
X133154150Y-49434520D01*
X133176329Y-49424030D01*
X133199428Y-49415765D01*
X133223227Y-49409804D01*
X133247495Y-49406204D01*
X133271999Y-49405000D01*
X133922001Y-49405000D01*
X133946505Y-49406204D01*
G37*
G36*
X137646505Y-53406204D02*
G01*
X137670773Y-53409804D01*
X137694572Y-53415765D01*
X137717671Y-53424030D01*
X137739850Y-53434520D01*
X137760893Y-53447132D01*
X137780599Y-53461747D01*
X137798777Y-53478223D01*
X137815253Y-53496401D01*
X137829868Y-53516107D01*
X137842480Y-53537150D01*
X137852970Y-53559329D01*
X137861235Y-53582428D01*
X137867196Y-53606227D01*
X137870796Y-53630495D01*
X137872000Y-53654999D01*
X137872000Y-54555001D01*
X137870796Y-54579505D01*
X137867196Y-54603773D01*
X137861235Y-54627572D01*
X137852970Y-54650671D01*
X137842480Y-54672850D01*
X137829868Y-54693893D01*
X137815253Y-54713599D01*
X137798777Y-54731777D01*
X137780599Y-54748253D01*
X137760893Y-54762868D01*
X137739850Y-54775480D01*
X137717671Y-54785970D01*
X137694572Y-54794235D01*
X137670773Y-54800196D01*
X137646505Y-54803796D01*
X137622001Y-54805000D01*
X136971999Y-54805000D01*
X136947495Y-54803796D01*
X136923227Y-54800196D01*
X136899428Y-54794235D01*
X136876329Y-54785970D01*
X136854150Y-54775480D01*
X136833107Y-54762868D01*
X136813401Y-54748253D01*
X136795223Y-54731777D01*
X136778747Y-54713599D01*
X136764132Y-54693893D01*
X136751520Y-54672850D01*
X136741030Y-54650671D01*
X136732765Y-54627572D01*
X136726804Y-54603773D01*
X136723204Y-54579505D01*
X136722000Y-54555001D01*
X136722000Y-53654999D01*
X136723204Y-53630495D01*
X136726804Y-53606227D01*
X136732765Y-53582428D01*
X136741030Y-53559329D01*
X136751520Y-53537150D01*
X136764132Y-53516107D01*
X136778747Y-53496401D01*
X136795223Y-53478223D01*
X136813401Y-53461747D01*
X136833107Y-53447132D01*
X136854150Y-53434520D01*
X136876329Y-53424030D01*
X136899428Y-53415765D01*
X136923227Y-53409804D01*
X136947495Y-53406204D01*
X136971999Y-53405000D01*
X137622001Y-53405000D01*
X137646505Y-53406204D01*
G37*
G36*
X139696505Y-53406204D02*
G01*
X139720773Y-53409804D01*
X139744572Y-53415765D01*
X139767671Y-53424030D01*
X139789850Y-53434520D01*
X139810893Y-53447132D01*
X139830599Y-53461747D01*
X139848777Y-53478223D01*
X139865253Y-53496401D01*
X139879868Y-53516107D01*
X139892480Y-53537150D01*
X139902970Y-53559329D01*
X139911235Y-53582428D01*
X139917196Y-53606227D01*
X139920796Y-53630495D01*
X139922000Y-53654999D01*
X139922000Y-54555001D01*
X139920796Y-54579505D01*
X139917196Y-54603773D01*
X139911235Y-54627572D01*
X139902970Y-54650671D01*
X139892480Y-54672850D01*
X139879868Y-54693893D01*
X139865253Y-54713599D01*
X139848777Y-54731777D01*
X139830599Y-54748253D01*
X139810893Y-54762868D01*
X139789850Y-54775480D01*
X139767671Y-54785970D01*
X139744572Y-54794235D01*
X139720773Y-54800196D01*
X139696505Y-54803796D01*
X139672001Y-54805000D01*
X139021999Y-54805000D01*
X138997495Y-54803796D01*
X138973227Y-54800196D01*
X138949428Y-54794235D01*
X138926329Y-54785970D01*
X138904150Y-54775480D01*
X138883107Y-54762868D01*
X138863401Y-54748253D01*
X138845223Y-54731777D01*
X138828747Y-54713599D01*
X138814132Y-54693893D01*
X138801520Y-54672850D01*
X138791030Y-54650671D01*
X138782765Y-54627572D01*
X138776804Y-54603773D01*
X138773204Y-54579505D01*
X138772000Y-54555001D01*
X138772000Y-53654999D01*
X138773204Y-53630495D01*
X138776804Y-53606227D01*
X138782765Y-53582428D01*
X138791030Y-53559329D01*
X138801520Y-53537150D01*
X138814132Y-53516107D01*
X138828747Y-53496401D01*
X138845223Y-53478223D01*
X138863401Y-53461747D01*
X138883107Y-53447132D01*
X138904150Y-53434520D01*
X138926329Y-53424030D01*
X138949428Y-53415765D01*
X138973227Y-53409804D01*
X138997495Y-53406204D01*
X139021999Y-53405000D01*
X139672001Y-53405000D01*
X139696505Y-53406204D01*
G37*
G36*
X139696505Y-62406204D02*
G01*
X139720773Y-62409804D01*
X139744572Y-62415765D01*
X139767671Y-62424030D01*
X139789850Y-62434520D01*
X139810893Y-62447132D01*
X139830599Y-62461747D01*
X139848777Y-62478223D01*
X139865253Y-62496401D01*
X139879868Y-62516107D01*
X139892480Y-62537150D01*
X139902970Y-62559329D01*
X139911235Y-62582428D01*
X139917196Y-62606227D01*
X139920796Y-62630495D01*
X139922000Y-62654999D01*
X139922000Y-63555001D01*
X139920796Y-63579505D01*
X139917196Y-63603773D01*
X139911235Y-63627572D01*
X139902970Y-63650671D01*
X139892480Y-63672850D01*
X139879868Y-63693893D01*
X139865253Y-63713599D01*
X139848777Y-63731777D01*
X139830599Y-63748253D01*
X139810893Y-63762868D01*
X139789850Y-63775480D01*
X139767671Y-63785970D01*
X139744572Y-63794235D01*
X139720773Y-63800196D01*
X139696505Y-63803796D01*
X139672001Y-63805000D01*
X139021999Y-63805000D01*
X138997495Y-63803796D01*
X138973227Y-63800196D01*
X138949428Y-63794235D01*
X138926329Y-63785970D01*
X138904150Y-63775480D01*
X138883107Y-63762868D01*
X138863401Y-63748253D01*
X138845223Y-63731777D01*
X138828747Y-63713599D01*
X138814132Y-63693893D01*
X138801520Y-63672850D01*
X138791030Y-63650671D01*
X138782765Y-63627572D01*
X138776804Y-63603773D01*
X138773204Y-63579505D01*
X138772000Y-63555001D01*
X138772000Y-62654999D01*
X138773204Y-62630495D01*
X138776804Y-62606227D01*
X138782765Y-62582428D01*
X138791030Y-62559329D01*
X138801520Y-62537150D01*
X138814132Y-62516107D01*
X138828747Y-62496401D01*
X138845223Y-62478223D01*
X138863401Y-62461747D01*
X138883107Y-62447132D01*
X138904150Y-62434520D01*
X138926329Y-62424030D01*
X138949428Y-62415765D01*
X138973227Y-62409804D01*
X138997495Y-62406204D01*
X139021999Y-62405000D01*
X139672001Y-62405000D01*
X139696505Y-62406204D01*
G37*
G36*
X137646505Y-62406204D02*
G01*
X137670773Y-62409804D01*
X137694572Y-62415765D01*
X137717671Y-62424030D01*
X137739850Y-62434520D01*
X137760893Y-62447132D01*
X137780599Y-62461747D01*
X137798777Y-62478223D01*
X137815253Y-62496401D01*
X137829868Y-62516107D01*
X137842480Y-62537150D01*
X137852970Y-62559329D01*
X137861235Y-62582428D01*
X137867196Y-62606227D01*
X137870796Y-62630495D01*
X137872000Y-62654999D01*
X137872000Y-63555001D01*
X137870796Y-63579505D01*
X137867196Y-63603773D01*
X137861235Y-63627572D01*
X137852970Y-63650671D01*
X137842480Y-63672850D01*
X137829868Y-63693893D01*
X137815253Y-63713599D01*
X137798777Y-63731777D01*
X137780599Y-63748253D01*
X137760893Y-63762868D01*
X137739850Y-63775480D01*
X137717671Y-63785970D01*
X137694572Y-63794235D01*
X137670773Y-63800196D01*
X137646505Y-63803796D01*
X137622001Y-63805000D01*
X136971999Y-63805000D01*
X136947495Y-63803796D01*
X136923227Y-63800196D01*
X136899428Y-63794235D01*
X136876329Y-63785970D01*
X136854150Y-63775480D01*
X136833107Y-63762868D01*
X136813401Y-63748253D01*
X136795223Y-63731777D01*
X136778747Y-63713599D01*
X136764132Y-63693893D01*
X136751520Y-63672850D01*
X136741030Y-63650671D01*
X136732765Y-63627572D01*
X136726804Y-63603773D01*
X136723204Y-63579505D01*
X136722000Y-63555001D01*
X136722000Y-62654999D01*
X136723204Y-62630495D01*
X136726804Y-62606227D01*
X136732765Y-62582428D01*
X136741030Y-62559329D01*
X136751520Y-62537150D01*
X136764132Y-62516107D01*
X136778747Y-62496401D01*
X136795223Y-62478223D01*
X136813401Y-62461747D01*
X136833107Y-62447132D01*
X136854150Y-62434520D01*
X136876329Y-62424030D01*
X136899428Y-62415765D01*
X136923227Y-62409804D01*
X136947495Y-62406204D01*
X136971999Y-62405000D01*
X137622001Y-62405000D01*
X137646505Y-62406204D01*
G37*
G36*
X119796505Y-55556204D02*
G01*
X119820773Y-55559804D01*
X119844572Y-55565765D01*
X119867671Y-55574030D01*
X119889850Y-55584520D01*
X119910893Y-55597132D01*
X119930599Y-55611747D01*
X119948777Y-55628223D01*
X119965253Y-55646401D01*
X119979868Y-55666107D01*
X119992480Y-55687150D01*
X120002970Y-55709329D01*
X120011235Y-55732428D01*
X120017196Y-55756227D01*
X120020796Y-55780495D01*
X120022000Y-55804999D01*
X120022000Y-56455001D01*
X120020796Y-56479505D01*
X120017196Y-56503773D01*
X120011235Y-56527572D01*
X120002970Y-56550671D01*
X119992480Y-56572850D01*
X119979868Y-56593893D01*
X119965253Y-56613599D01*
X119948777Y-56631777D01*
X119930599Y-56648253D01*
X119910893Y-56662868D01*
X119889850Y-56675480D01*
X119867671Y-56685970D01*
X119844572Y-56694235D01*
X119820773Y-56700196D01*
X119796505Y-56703796D01*
X119772001Y-56705000D01*
X118871999Y-56705000D01*
X118847495Y-56703796D01*
X118823227Y-56700196D01*
X118799428Y-56694235D01*
X118776329Y-56685970D01*
X118754150Y-56675480D01*
X118733107Y-56662868D01*
X118713401Y-56648253D01*
X118695223Y-56631777D01*
X118678747Y-56613599D01*
X118664132Y-56593893D01*
X118651520Y-56572850D01*
X118641030Y-56550671D01*
X118632765Y-56527572D01*
X118626804Y-56503773D01*
X118623204Y-56479505D01*
X118622000Y-56455001D01*
X118622000Y-55804999D01*
X118623204Y-55780495D01*
X118626804Y-55756227D01*
X118632765Y-55732428D01*
X118641030Y-55709329D01*
X118651520Y-55687150D01*
X118664132Y-55666107D01*
X118678747Y-55646401D01*
X118695223Y-55628223D01*
X118713401Y-55611747D01*
X118733107Y-55597132D01*
X118754150Y-55584520D01*
X118776329Y-55574030D01*
X118799428Y-55565765D01*
X118823227Y-55559804D01*
X118847495Y-55556204D01*
X118871999Y-55555000D01*
X119772001Y-55555000D01*
X119796505Y-55556204D01*
G37*
G36*
X119796505Y-53506204D02*
G01*
X119820773Y-53509804D01*
X119844572Y-53515765D01*
X119867671Y-53524030D01*
X119889850Y-53534520D01*
X119910893Y-53547132D01*
X119930599Y-53561747D01*
X119948777Y-53578223D01*
X119965253Y-53596401D01*
X119979868Y-53616107D01*
X119992480Y-53637150D01*
X120002970Y-53659329D01*
X120011235Y-53682428D01*
X120017196Y-53706227D01*
X120020796Y-53730495D01*
X120022000Y-53754999D01*
X120022000Y-54405001D01*
X120020796Y-54429505D01*
X120017196Y-54453773D01*
X120011235Y-54477572D01*
X120002970Y-54500671D01*
X119992480Y-54522850D01*
X119979868Y-54543893D01*
X119965253Y-54563599D01*
X119948777Y-54581777D01*
X119930599Y-54598253D01*
X119910893Y-54612868D01*
X119889850Y-54625480D01*
X119867671Y-54635970D01*
X119844572Y-54644235D01*
X119820773Y-54650196D01*
X119796505Y-54653796D01*
X119772001Y-54655000D01*
X118871999Y-54655000D01*
X118847495Y-54653796D01*
X118823227Y-54650196D01*
X118799428Y-54644235D01*
X118776329Y-54635970D01*
X118754150Y-54625480D01*
X118733107Y-54612868D01*
X118713401Y-54598253D01*
X118695223Y-54581777D01*
X118678747Y-54563599D01*
X118664132Y-54543893D01*
X118651520Y-54522850D01*
X118641030Y-54500671D01*
X118632765Y-54477572D01*
X118626804Y-54453773D01*
X118623204Y-54429505D01*
X118622000Y-54405001D01*
X118622000Y-53754999D01*
X118623204Y-53730495D01*
X118626804Y-53706227D01*
X118632765Y-53682428D01*
X118641030Y-53659329D01*
X118651520Y-53637150D01*
X118664132Y-53616107D01*
X118678747Y-53596401D01*
X118695223Y-53578223D01*
X118713401Y-53561747D01*
X118733107Y-53547132D01*
X118754150Y-53534520D01*
X118776329Y-53524030D01*
X118799428Y-53515765D01*
X118823227Y-53509804D01*
X118847495Y-53506204D01*
X118871999Y-53505000D01*
X119772001Y-53505000D01*
X119796505Y-53506204D01*
G37*
G36*
X122396505Y-49406204D02*
G01*
X122420773Y-49409804D01*
X122444572Y-49415765D01*
X122467671Y-49424030D01*
X122489850Y-49434520D01*
X122510893Y-49447132D01*
X122530599Y-49461747D01*
X122548777Y-49478223D01*
X122565253Y-49496401D01*
X122579868Y-49516107D01*
X122592480Y-49537150D01*
X122602970Y-49559329D01*
X122611235Y-49582428D01*
X122617196Y-49606227D01*
X122620796Y-49630495D01*
X122622000Y-49654999D01*
X122622000Y-50555001D01*
X122620796Y-50579505D01*
X122617196Y-50603773D01*
X122611235Y-50627572D01*
X122602970Y-50650671D01*
X122592480Y-50672850D01*
X122579868Y-50693893D01*
X122565253Y-50713599D01*
X122548777Y-50731777D01*
X122530599Y-50748253D01*
X122510893Y-50762868D01*
X122489850Y-50775480D01*
X122467671Y-50785970D01*
X122444572Y-50794235D01*
X122420773Y-50800196D01*
X122396505Y-50803796D01*
X122372001Y-50805000D01*
X121721999Y-50805000D01*
X121697495Y-50803796D01*
X121673227Y-50800196D01*
X121649428Y-50794235D01*
X121626329Y-50785970D01*
X121604150Y-50775480D01*
X121583107Y-50762868D01*
X121563401Y-50748253D01*
X121545223Y-50731777D01*
X121528747Y-50713599D01*
X121514132Y-50693893D01*
X121501520Y-50672850D01*
X121491030Y-50650671D01*
X121482765Y-50627572D01*
X121476804Y-50603773D01*
X121473204Y-50579505D01*
X121472000Y-50555001D01*
X121472000Y-49654999D01*
X121473204Y-49630495D01*
X121476804Y-49606227D01*
X121482765Y-49582428D01*
X121491030Y-49559329D01*
X121501520Y-49537150D01*
X121514132Y-49516107D01*
X121528747Y-49496401D01*
X121545223Y-49478223D01*
X121563401Y-49461747D01*
X121583107Y-49447132D01*
X121604150Y-49434520D01*
X121626329Y-49424030D01*
X121649428Y-49415765D01*
X121673227Y-49409804D01*
X121697495Y-49406204D01*
X121721999Y-49405000D01*
X122372001Y-49405000D01*
X122396505Y-49406204D01*
G37*
G36*
X124446505Y-49406204D02*
G01*
X124470773Y-49409804D01*
X124494572Y-49415765D01*
X124517671Y-49424030D01*
X124539850Y-49434520D01*
X124560893Y-49447132D01*
X124580599Y-49461747D01*
X124598777Y-49478223D01*
X124615253Y-49496401D01*
X124629868Y-49516107D01*
X124642480Y-49537150D01*
X124652970Y-49559329D01*
X124661235Y-49582428D01*
X124667196Y-49606227D01*
X124670796Y-49630495D01*
X124672000Y-49654999D01*
X124672000Y-50555001D01*
X124670796Y-50579505D01*
X124667196Y-50603773D01*
X124661235Y-50627572D01*
X124652970Y-50650671D01*
X124642480Y-50672850D01*
X124629868Y-50693893D01*
X124615253Y-50713599D01*
X124598777Y-50731777D01*
X124580599Y-50748253D01*
X124560893Y-50762868D01*
X124539850Y-50775480D01*
X124517671Y-50785970D01*
X124494572Y-50794235D01*
X124470773Y-50800196D01*
X124446505Y-50803796D01*
X124422001Y-50805000D01*
X123771999Y-50805000D01*
X123747495Y-50803796D01*
X123723227Y-50800196D01*
X123699428Y-50794235D01*
X123676329Y-50785970D01*
X123654150Y-50775480D01*
X123633107Y-50762868D01*
X123613401Y-50748253D01*
X123595223Y-50731777D01*
X123578747Y-50713599D01*
X123564132Y-50693893D01*
X123551520Y-50672850D01*
X123541030Y-50650671D01*
X123532765Y-50627572D01*
X123526804Y-50603773D01*
X123523204Y-50579505D01*
X123522000Y-50555001D01*
X123522000Y-49654999D01*
X123523204Y-49630495D01*
X123526804Y-49606227D01*
X123532765Y-49582428D01*
X123541030Y-49559329D01*
X123551520Y-49537150D01*
X123564132Y-49516107D01*
X123578747Y-49496401D01*
X123595223Y-49478223D01*
X123613401Y-49461747D01*
X123633107Y-49447132D01*
X123654150Y-49434520D01*
X123676329Y-49424030D01*
X123699428Y-49415765D01*
X123723227Y-49409804D01*
X123747495Y-49406204D01*
X123771999Y-49405000D01*
X124422001Y-49405000D01*
X124446505Y-49406204D01*
G37*
G36*
X133696505Y-67406204D02*
G01*
X133720773Y-67409804D01*
X133744572Y-67415765D01*
X133767671Y-67424030D01*
X133789850Y-67434520D01*
X133810893Y-67447132D01*
X133830599Y-67461747D01*
X133848777Y-67478223D01*
X133865253Y-67496401D01*
X133879868Y-67516107D01*
X133892480Y-67537150D01*
X133902970Y-67559329D01*
X133911235Y-67582428D01*
X133917196Y-67606227D01*
X133920796Y-67630495D01*
X133922000Y-67654999D01*
X133922000Y-68555001D01*
X133920796Y-68579505D01*
X133917196Y-68603773D01*
X133911235Y-68627572D01*
X133902970Y-68650671D01*
X133892480Y-68672850D01*
X133879868Y-68693893D01*
X133865253Y-68713599D01*
X133848777Y-68731777D01*
X133830599Y-68748253D01*
X133810893Y-68762868D01*
X133789850Y-68775480D01*
X133767671Y-68785970D01*
X133744572Y-68794235D01*
X133720773Y-68800196D01*
X133696505Y-68803796D01*
X133672001Y-68805000D01*
X133021999Y-68805000D01*
X132997495Y-68803796D01*
X132973227Y-68800196D01*
X132949428Y-68794235D01*
X132926329Y-68785970D01*
X132904150Y-68775480D01*
X132883107Y-68762868D01*
X132863401Y-68748253D01*
X132845223Y-68731777D01*
X132828747Y-68713599D01*
X132814132Y-68693893D01*
X132801520Y-68672850D01*
X132791030Y-68650671D01*
X132782765Y-68627572D01*
X132776804Y-68603773D01*
X132773204Y-68579505D01*
X132772000Y-68555001D01*
X132772000Y-67654999D01*
X132773204Y-67630495D01*
X132776804Y-67606227D01*
X132782765Y-67582428D01*
X132791030Y-67559329D01*
X132801520Y-67537150D01*
X132814132Y-67516107D01*
X132828747Y-67496401D01*
X132845223Y-67478223D01*
X132863401Y-67461747D01*
X132883107Y-67447132D01*
X132904150Y-67434520D01*
X132926329Y-67424030D01*
X132949428Y-67415765D01*
X132973227Y-67409804D01*
X132997495Y-67406204D01*
X133021999Y-67405000D01*
X133672001Y-67405000D01*
X133696505Y-67406204D01*
G37*
G36*
X131646505Y-67406204D02*
G01*
X131670773Y-67409804D01*
X131694572Y-67415765D01*
X131717671Y-67424030D01*
X131739850Y-67434520D01*
X131760893Y-67447132D01*
X131780599Y-67461747D01*
X131798777Y-67478223D01*
X131815253Y-67496401D01*
X131829868Y-67516107D01*
X131842480Y-67537150D01*
X131852970Y-67559329D01*
X131861235Y-67582428D01*
X131867196Y-67606227D01*
X131870796Y-67630495D01*
X131872000Y-67654999D01*
X131872000Y-68555001D01*
X131870796Y-68579505D01*
X131867196Y-68603773D01*
X131861235Y-68627572D01*
X131852970Y-68650671D01*
X131842480Y-68672850D01*
X131829868Y-68693893D01*
X131815253Y-68713599D01*
X131798777Y-68731777D01*
X131780599Y-68748253D01*
X131760893Y-68762868D01*
X131739850Y-68775480D01*
X131717671Y-68785970D01*
X131694572Y-68794235D01*
X131670773Y-68800196D01*
X131646505Y-68803796D01*
X131622001Y-68805000D01*
X130971999Y-68805000D01*
X130947495Y-68803796D01*
X130923227Y-68800196D01*
X130899428Y-68794235D01*
X130876329Y-68785970D01*
X130854150Y-68775480D01*
X130833107Y-68762868D01*
X130813401Y-68748253D01*
X130795223Y-68731777D01*
X130778747Y-68713599D01*
X130764132Y-68693893D01*
X130751520Y-68672850D01*
X130741030Y-68650671D01*
X130732765Y-68627572D01*
X130726804Y-68603773D01*
X130723204Y-68579505D01*
X130722000Y-68555001D01*
X130722000Y-67654999D01*
X130723204Y-67630495D01*
X130726804Y-67606227D01*
X130732765Y-67582428D01*
X130741030Y-67559329D01*
X130751520Y-67537150D01*
X130764132Y-67516107D01*
X130778747Y-67496401D01*
X130795223Y-67478223D01*
X130813401Y-67461747D01*
X130833107Y-67447132D01*
X130854150Y-67434520D01*
X130876329Y-67424030D01*
X130899428Y-67415765D01*
X130923227Y-67409804D01*
X130947495Y-67406204D01*
X130971999Y-67405000D01*
X131622001Y-67405000D01*
X131646505Y-67406204D01*
G37*
G36*
X138696505Y-49406204D02*
G01*
X138720773Y-49409804D01*
X138744572Y-49415765D01*
X138767671Y-49424030D01*
X138789850Y-49434520D01*
X138810893Y-49447132D01*
X138830599Y-49461747D01*
X138848777Y-49478223D01*
X138865253Y-49496401D01*
X138879868Y-49516107D01*
X138892480Y-49537150D01*
X138902970Y-49559329D01*
X138911235Y-49582428D01*
X138917196Y-49606227D01*
X138920796Y-49630495D01*
X138922000Y-49654999D01*
X138922000Y-50555001D01*
X138920796Y-50579505D01*
X138917196Y-50603773D01*
X138911235Y-50627572D01*
X138902970Y-50650671D01*
X138892480Y-50672850D01*
X138879868Y-50693893D01*
X138865253Y-50713599D01*
X138848777Y-50731777D01*
X138830599Y-50748253D01*
X138810893Y-50762868D01*
X138789850Y-50775480D01*
X138767671Y-50785970D01*
X138744572Y-50794235D01*
X138720773Y-50800196D01*
X138696505Y-50803796D01*
X138672001Y-50805000D01*
X138021999Y-50805000D01*
X137997495Y-50803796D01*
X137973227Y-50800196D01*
X137949428Y-50794235D01*
X137926329Y-50785970D01*
X137904150Y-50775480D01*
X137883107Y-50762868D01*
X137863401Y-50748253D01*
X137845223Y-50731777D01*
X137828747Y-50713599D01*
X137814132Y-50693893D01*
X137801520Y-50672850D01*
X137791030Y-50650671D01*
X137782765Y-50627572D01*
X137776804Y-50603773D01*
X137773204Y-50579505D01*
X137772000Y-50555001D01*
X137772000Y-49654999D01*
X137773204Y-49630495D01*
X137776804Y-49606227D01*
X137782765Y-49582428D01*
X137791030Y-49559329D01*
X137801520Y-49537150D01*
X137814132Y-49516107D01*
X137828747Y-49496401D01*
X137845223Y-49478223D01*
X137863401Y-49461747D01*
X137883107Y-49447132D01*
X137904150Y-49434520D01*
X137926329Y-49424030D01*
X137949428Y-49415765D01*
X137973227Y-49409804D01*
X137997495Y-49406204D01*
X138021999Y-49405000D01*
X138672001Y-49405000D01*
X138696505Y-49406204D01*
G37*
G36*
X136646505Y-49406204D02*
G01*
X136670773Y-49409804D01*
X136694572Y-49415765D01*
X136717671Y-49424030D01*
X136739850Y-49434520D01*
X136760893Y-49447132D01*
X136780599Y-49461747D01*
X136798777Y-49478223D01*
X136815253Y-49496401D01*
X136829868Y-49516107D01*
X136842480Y-49537150D01*
X136852970Y-49559329D01*
X136861235Y-49582428D01*
X136867196Y-49606227D01*
X136870796Y-49630495D01*
X136872000Y-49654999D01*
X136872000Y-50555001D01*
X136870796Y-50579505D01*
X136867196Y-50603773D01*
X136861235Y-50627572D01*
X136852970Y-50650671D01*
X136842480Y-50672850D01*
X136829868Y-50693893D01*
X136815253Y-50713599D01*
X136798777Y-50731777D01*
X136780599Y-50748253D01*
X136760893Y-50762868D01*
X136739850Y-50775480D01*
X136717671Y-50785970D01*
X136694572Y-50794235D01*
X136670773Y-50800196D01*
X136646505Y-50803796D01*
X136622001Y-50805000D01*
X135971999Y-50805000D01*
X135947495Y-50803796D01*
X135923227Y-50800196D01*
X135899428Y-50794235D01*
X135876329Y-50785970D01*
X135854150Y-50775480D01*
X135833107Y-50762868D01*
X135813401Y-50748253D01*
X135795223Y-50731777D01*
X135778747Y-50713599D01*
X135764132Y-50693893D01*
X135751520Y-50672850D01*
X135741030Y-50650671D01*
X135732765Y-50627572D01*
X135726804Y-50603773D01*
X135723204Y-50579505D01*
X135722000Y-50555001D01*
X135722000Y-49654999D01*
X135723204Y-49630495D01*
X135726804Y-49606227D01*
X135732765Y-49582428D01*
X135741030Y-49559329D01*
X135751520Y-49537150D01*
X135764132Y-49516107D01*
X135778747Y-49496401D01*
X135795223Y-49478223D01*
X135813401Y-49461747D01*
X135833107Y-49447132D01*
X135854150Y-49434520D01*
X135876329Y-49424030D01*
X135899428Y-49415765D01*
X135923227Y-49409804D01*
X135947495Y-49406204D01*
X135971999Y-49405000D01*
X136622001Y-49405000D01*
X136646505Y-49406204D01*
G37*
M02*
