G04 #@! TF.GenerationSoftware,KiCad,Pcbnew,(5.1.5)-3*
G04 #@! TF.CreationDate,2020-10-08T21:20:26+02:00*
G04 #@! TF.ProjectId,NumPad,4e756d50-6164-42e6-9b69-6361645f7063,rev?*
G04 #@! TF.SameCoordinates,Original*
G04 #@! TF.FileFunction,Copper,L1,Top*
G04 #@! TF.FilePolarity,Positive*
%FSLAX46Y46*%
G04 Gerber Fmt 4.6, Leading zero omitted, Abs format (unit mm)*
G04 Created by KiCad (PCBNEW (5.1.5)-3) date 2020-10-08 21:20:26*
%MOMM*%
%LPD*%
G04 APERTURE LIST*
%ADD10C,2.250000*%
%ADD11O,1.000000X2.300000*%
%ADD12O,1.000000X2.000000*%
%ADD13C,0.800000*%
%ADD14C,0.381000*%
%ADD15C,0.254000*%
G04 APERTURE END LIST*
D10*
X108902500Y-146526250D03*
X102552500Y-149066250D03*
X156527500Y-137001250D03*
X150177500Y-139541250D03*
X156527500Y-98901250D03*
X150177500Y-101441250D03*
X137477500Y-146526250D03*
X131127500Y-149066250D03*
X75565000Y-146526250D03*
X69215000Y-149066250D03*
X56515000Y-146526250D03*
X50165000Y-149066250D03*
X137477500Y-127476250D03*
X131127500Y-130016250D03*
X118427500Y-127476250D03*
X112077500Y-130016250D03*
X99377500Y-127476250D03*
X93027500Y-130016250D03*
X75565000Y-127476250D03*
X69215000Y-130016250D03*
X56515000Y-127476250D03*
X50165000Y-130016250D03*
X137477500Y-108426250D03*
X131127500Y-110966250D03*
X118427500Y-108426250D03*
X112077500Y-110966250D03*
X99377500Y-108426250D03*
X93027500Y-110966250D03*
X75565000Y-108426250D03*
X69215000Y-110966250D03*
X56515000Y-108426250D03*
X50165000Y-110966250D03*
X137477500Y-89376250D03*
X131127500Y-91916250D03*
X118427500Y-89376250D03*
X112077500Y-91916250D03*
X99377500Y-89376250D03*
X93027500Y-91916250D03*
X75565000Y-89376250D03*
X69215000Y-91916250D03*
X56515000Y-89376250D03*
X50165000Y-91916250D03*
X156527500Y-70326250D03*
X150177500Y-72866250D03*
X137477500Y-70326250D03*
X131127500Y-72866250D03*
X118427500Y-70326250D03*
X112077500Y-72866250D03*
X99377500Y-70326250D03*
X93027500Y-72866250D03*
X75565000Y-70326250D03*
X69215000Y-72866250D03*
X56515000Y-70326250D03*
X50165000Y-72866250D03*
D11*
X108300000Y-49597500D03*
X99660000Y-49597500D03*
D12*
X99660000Y-53422500D03*
X108300000Y-53422500D03*
D13*
X122682000Y-66421000D03*
X128143000Y-68072000D03*
X120650000Y-50800000D03*
X132207000Y-55118000D03*
X137287000Y-51435000D03*
X124912508Y-52079125D03*
X129413000Y-52070000D03*
X136652000Y-49050500D03*
X140335000Y-48895000D03*
X115824000Y-58166000D03*
X120907000Y-63105000D03*
X101503000Y-55245000D03*
X107823000Y-57785000D03*
X104846264Y-55328398D03*
X126619000Y-48641000D03*
X134937500Y-72231250D03*
X141287500Y-72231250D03*
X135099500Y-52451000D03*
X142494000Y-52451000D03*
D14*
X125603000Y-66421000D02*
X127127000Y-67945000D01*
X122682000Y-66421000D02*
X125603000Y-66421000D01*
X127127000Y-67945000D02*
X127254000Y-68072000D01*
X127254000Y-68072000D02*
X128143000Y-68072000D01*
X120650000Y-50800000D02*
X120650000Y-50006250D01*
X132207000Y-55118000D02*
X132606999Y-54718001D01*
X132606999Y-54718001D02*
X134239000Y-53086000D01*
X134945558Y-51435000D02*
X137287000Y-51435000D01*
X134239000Y-53086000D02*
X134239000Y-52141558D01*
X134239000Y-52141558D02*
X134945558Y-51435000D01*
X124921633Y-52070000D02*
X124912508Y-52079125D01*
X129413000Y-52070000D02*
X124921633Y-52070000D01*
X136652000Y-49050500D02*
X140179500Y-49050500D01*
X140179500Y-49050500D02*
X140335000Y-48895000D01*
X115824000Y-58166000D02*
X120763000Y-63105000D01*
X120763000Y-63105000D02*
X120907000Y-63105000D01*
X101503000Y-55245000D02*
X104043000Y-57785000D01*
X104043000Y-57785000D02*
X107823000Y-57785000D01*
D15*
X104846264Y-55328398D02*
X109517602Y-55328398D01*
X109517602Y-55328398D02*
X112268000Y-52578000D01*
X112268000Y-52578000D02*
X112268000Y-49530000D01*
X112268000Y-49530000D02*
X112268000Y-49403000D01*
X112268000Y-49403000D02*
X113030000Y-48641000D01*
X113030000Y-48641000D02*
X126619000Y-48641000D01*
X50165000Y-74457240D02*
X50165000Y-91916250D01*
X50165000Y-72866250D02*
X50165000Y-74457240D01*
X50165000Y-93507240D02*
X50165000Y-110966250D01*
X50165000Y-91916250D02*
X50165000Y-93507240D01*
X50165000Y-112557240D02*
X50165000Y-130016250D01*
X50165000Y-110966250D02*
X50165000Y-112557240D01*
X50165000Y-130016250D02*
X50165000Y-149066250D01*
X69215000Y-130016250D02*
X69215000Y-149066250D01*
X69215000Y-112557240D02*
X69215000Y-130016250D01*
X69215000Y-110966250D02*
X69215000Y-112557240D01*
X69215000Y-93507240D02*
X69215000Y-110966250D01*
X69215000Y-91916250D02*
X69215000Y-93507240D01*
X69215000Y-72866250D02*
X69215000Y-91916250D01*
X93027500Y-74457240D02*
X93027500Y-91916250D01*
X93027500Y-72866250D02*
X93027500Y-74457240D01*
X93027500Y-91916250D02*
X93027500Y-110966250D01*
X93027500Y-110966250D02*
X93027500Y-130016250D01*
X93027500Y-130016250D02*
X93027500Y-137985500D01*
X102552500Y-147475260D02*
X102552500Y-149066250D01*
X93062740Y-137985500D02*
X102552500Y-147475260D01*
X93027500Y-137985500D02*
X93062740Y-137985500D01*
X112077500Y-72866250D02*
X112077500Y-91916250D01*
X112077500Y-91916250D02*
X112077500Y-110966250D01*
X112077500Y-112557240D02*
X112077500Y-130016250D01*
X112077500Y-110966250D02*
X112077500Y-112557240D01*
X131127500Y-74457240D02*
X131127500Y-91916250D01*
X131127500Y-72866250D02*
X131127500Y-74457240D01*
X131127500Y-91916250D02*
X131127500Y-110966250D01*
X131127500Y-112557240D02*
X131127500Y-130016250D01*
X131127500Y-110966250D02*
X131127500Y-112557240D01*
X131127500Y-131607240D02*
X131127500Y-149066250D01*
X131127500Y-130016250D02*
X131127500Y-131607240D01*
X150177500Y-72866250D02*
X150177500Y-101441250D01*
X150177500Y-101441250D02*
X150177500Y-139541250D01*
X134937500Y-72231250D02*
X141287500Y-72231250D01*
X135099500Y-52451000D02*
X142494000Y-52451000D01*
G36*
X98659997Y-48395822D02*
G01*
X98571585Y-48601513D01*
X98525000Y-48820500D01*
X98525000Y-49470500D01*
X99533000Y-49470500D01*
X99533000Y-49450500D01*
X99787000Y-49450500D01*
X99787000Y-49470500D01*
X100795000Y-49470500D01*
X100795000Y-48820500D01*
X100748415Y-48601513D01*
X100660003Y-48395822D01*
X100583810Y-48285000D01*
X107376190Y-48285000D01*
X107299997Y-48395822D01*
X107211585Y-48601513D01*
X107165000Y-48820500D01*
X107165000Y-49470500D01*
X108173000Y-49470500D01*
X108173000Y-49450500D01*
X108427000Y-49450500D01*
X108427000Y-49470500D01*
X109435000Y-49470500D01*
X109435000Y-48820500D01*
X109388415Y-48601513D01*
X109300003Y-48395822D01*
X109223810Y-48285000D01*
X112308369Y-48285000D01*
X111755652Y-48837718D01*
X111726578Y-48861578D01*
X111631355Y-48977608D01*
X111560598Y-49109985D01*
X111517026Y-49253622D01*
X111506000Y-49365574D01*
X111502314Y-49403000D01*
X111506000Y-49440423D01*
X111506000Y-49567425D01*
X111506001Y-49567435D01*
X111506000Y-52262369D01*
X109304384Y-54463986D01*
X109388415Y-54268487D01*
X109435000Y-54049500D01*
X109435000Y-53549500D01*
X108427000Y-53549500D01*
X108427000Y-53569500D01*
X108173000Y-53569500D01*
X108173000Y-53549500D01*
X108153000Y-53549500D01*
X108153000Y-53295500D01*
X108173000Y-53295500D01*
X108173000Y-51954546D01*
X108427000Y-51954546D01*
X108427000Y-53295500D01*
X109435000Y-53295500D01*
X109435000Y-52795500D01*
X109388415Y-52576513D01*
X109300003Y-52370822D01*
X109173161Y-52186331D01*
X109012764Y-52030131D01*
X108824976Y-51908224D01*
X108601874Y-51828381D01*
X108427000Y-51954546D01*
X108173000Y-51954546D01*
X107998126Y-51828381D01*
X107775024Y-51908224D01*
X107686856Y-51965460D01*
X107626972Y-51916314D01*
X107464540Y-51829493D01*
X107288292Y-51776029D01*
X107150932Y-51762500D01*
X106809068Y-51762500D01*
X106671708Y-51776029D01*
X106495460Y-51829493D01*
X106333028Y-51916314D01*
X106190656Y-52033156D01*
X106073814Y-52175528D01*
X105986993Y-52337960D01*
X105933529Y-52514208D01*
X105915476Y-52697500D01*
X105933529Y-52880792D01*
X105986993Y-53057040D01*
X106073814Y-53219472D01*
X106190656Y-53361844D01*
X106333028Y-53478686D01*
X106495460Y-53565507D01*
X106671708Y-53618971D01*
X106809068Y-53632500D01*
X107150932Y-53632500D01*
X107165000Y-53631114D01*
X107165000Y-54049500D01*
X107211585Y-54268487D01*
X107299997Y-54474178D01*
X107363400Y-54566398D01*
X105547975Y-54566398D01*
X105506038Y-54524461D01*
X105336520Y-54411193D01*
X105148162Y-54333172D01*
X104948203Y-54293398D01*
X104744325Y-54293398D01*
X104544366Y-54333172D01*
X104356008Y-54411193D01*
X104186490Y-54524461D01*
X104042327Y-54668624D01*
X103929059Y-54838142D01*
X103851038Y-55026500D01*
X103811264Y-55226459D01*
X103811264Y-55430337D01*
X103851038Y-55630296D01*
X103929059Y-55818654D01*
X104042327Y-55988172D01*
X104186490Y-56132335D01*
X104356008Y-56245603D01*
X104544366Y-56323624D01*
X104744325Y-56363398D01*
X104948203Y-56363398D01*
X105148162Y-56323624D01*
X105336520Y-56245603D01*
X105506038Y-56132335D01*
X105547975Y-56090398D01*
X109480179Y-56090398D01*
X109517602Y-56094084D01*
X109555025Y-56090398D01*
X109555028Y-56090398D01*
X109666980Y-56079372D01*
X109810617Y-56035800D01*
X109942994Y-55965043D01*
X110059024Y-55869820D01*
X110082886Y-55840744D01*
X112780353Y-53143278D01*
X112809422Y-53119422D01*
X112904645Y-53003392D01*
X112975402Y-52871015D01*
X113018974Y-52727378D01*
X113030000Y-52615426D01*
X113030000Y-52615424D01*
X113033686Y-52578001D01*
X113030000Y-52540578D01*
X113030000Y-51977186D01*
X123877508Y-51977186D01*
X123877508Y-52181064D01*
X123917282Y-52381023D01*
X123995303Y-52569381D01*
X124108571Y-52738899D01*
X124252734Y-52883062D01*
X124422252Y-52996330D01*
X124610610Y-53074351D01*
X124810569Y-53114125D01*
X125014447Y-53114125D01*
X125214406Y-53074351D01*
X125402764Y-52996330D01*
X125553667Y-52895500D01*
X128785497Y-52895500D01*
X128922744Y-52987205D01*
X129111102Y-53065226D01*
X129311061Y-53105000D01*
X129514939Y-53105000D01*
X129714898Y-53065226D01*
X129903256Y-52987205D01*
X130072774Y-52873937D01*
X130216937Y-52729774D01*
X130330205Y-52560256D01*
X130408226Y-52371898D01*
X130412768Y-52349061D01*
X134064500Y-52349061D01*
X134064500Y-52552939D01*
X134104274Y-52752898D01*
X134182295Y-52941256D01*
X134295563Y-53110774D01*
X134439726Y-53254937D01*
X134609244Y-53368205D01*
X134797602Y-53446226D01*
X134997561Y-53486000D01*
X135201439Y-53486000D01*
X135401398Y-53446226D01*
X135589756Y-53368205D01*
X135759274Y-53254937D01*
X135801211Y-53213000D01*
X141792289Y-53213000D01*
X141834226Y-53254937D01*
X142003744Y-53368205D01*
X142192102Y-53446226D01*
X142392061Y-53486000D01*
X142595939Y-53486000D01*
X142795898Y-53446226D01*
X142984256Y-53368205D01*
X143153774Y-53254937D01*
X143297937Y-53110774D01*
X143411205Y-52941256D01*
X143489226Y-52752898D01*
X143529000Y-52552939D01*
X143529000Y-52349061D01*
X143489226Y-52149102D01*
X143411205Y-51960744D01*
X143297937Y-51791226D01*
X143153774Y-51647063D01*
X142984256Y-51533795D01*
X142795898Y-51455774D01*
X142595939Y-51416000D01*
X142392061Y-51416000D01*
X142192102Y-51455774D01*
X142003744Y-51533795D01*
X141834226Y-51647063D01*
X141792289Y-51689000D01*
X135801211Y-51689000D01*
X135759274Y-51647063D01*
X135589756Y-51533795D01*
X135401398Y-51455774D01*
X135201439Y-51416000D01*
X134997561Y-51416000D01*
X134797602Y-51455774D01*
X134609244Y-51533795D01*
X134439726Y-51647063D01*
X134295563Y-51791226D01*
X134182295Y-51960744D01*
X134104274Y-52149102D01*
X134064500Y-52349061D01*
X130412768Y-52349061D01*
X130448000Y-52171939D01*
X130448000Y-51968061D01*
X130408226Y-51768102D01*
X130330205Y-51579744D01*
X130216937Y-51410226D01*
X130072774Y-51266063D01*
X129903256Y-51152795D01*
X129714898Y-51074774D01*
X129514939Y-51035000D01*
X129311061Y-51035000D01*
X129111102Y-51074774D01*
X128922744Y-51152795D01*
X128785497Y-51244500D01*
X125526354Y-51244500D01*
X125402764Y-51161920D01*
X125214406Y-51083899D01*
X125014447Y-51044125D01*
X124810569Y-51044125D01*
X124610610Y-51083899D01*
X124422252Y-51161920D01*
X124252734Y-51275188D01*
X124108571Y-51419351D01*
X123995303Y-51588869D01*
X123917282Y-51777227D01*
X123877508Y-51977186D01*
X113030000Y-51977186D01*
X113030000Y-49718630D01*
X113345631Y-49403000D01*
X125917289Y-49403000D01*
X125959226Y-49444937D01*
X126128744Y-49558205D01*
X126317102Y-49636226D01*
X126517061Y-49676000D01*
X126720939Y-49676000D01*
X126920898Y-49636226D01*
X127109256Y-49558205D01*
X127278774Y-49444937D01*
X127422937Y-49300774D01*
X127536205Y-49131256D01*
X127614226Y-48942898D01*
X127654000Y-48742939D01*
X127654000Y-48539061D01*
X127614226Y-48339102D01*
X127591816Y-48285000D01*
X135953789Y-48285000D01*
X135848063Y-48390726D01*
X135734795Y-48560244D01*
X135656774Y-48748602D01*
X135617000Y-48948561D01*
X135617000Y-49152439D01*
X135656774Y-49352398D01*
X135734795Y-49540756D01*
X135848063Y-49710274D01*
X135992226Y-49854437D01*
X136161744Y-49967705D01*
X136350102Y-50045726D01*
X136550061Y-50085500D01*
X136753939Y-50085500D01*
X136953898Y-50045726D01*
X137142256Y-49967705D01*
X137279503Y-49876000D01*
X139998758Y-49876000D01*
X140033102Y-49890226D01*
X140233061Y-49930000D01*
X140436939Y-49930000D01*
X140636898Y-49890226D01*
X140825256Y-49812205D01*
X140994774Y-49698937D01*
X141138937Y-49554774D01*
X141252205Y-49385256D01*
X141330226Y-49196898D01*
X141370000Y-48996939D01*
X141370000Y-48793061D01*
X141330226Y-48593102D01*
X141252205Y-48404744D01*
X141172195Y-48285000D01*
X150685500Y-48285000D01*
X150685500Y-70516750D01*
X139234088Y-70516750D01*
X139237500Y-70499595D01*
X139237500Y-70152905D01*
X139169864Y-69812877D01*
X139037192Y-69492577D01*
X138844581Y-69204315D01*
X138599435Y-68959169D01*
X138311173Y-68766558D01*
X137990873Y-68633886D01*
X137650845Y-68566250D01*
X137304155Y-68566250D01*
X136964127Y-68633886D01*
X136643827Y-68766558D01*
X136355565Y-68959169D01*
X136110419Y-69204315D01*
X135917808Y-69492577D01*
X135785136Y-69812877D01*
X135717500Y-70152905D01*
X135717500Y-70499595D01*
X135720912Y-70516750D01*
X120184088Y-70516750D01*
X120187500Y-70499595D01*
X120187500Y-70152905D01*
X120119864Y-69812877D01*
X119987192Y-69492577D01*
X119794581Y-69204315D01*
X119549435Y-68959169D01*
X119261173Y-68766558D01*
X118940873Y-68633886D01*
X118600845Y-68566250D01*
X118254155Y-68566250D01*
X117914127Y-68633886D01*
X117593827Y-68766558D01*
X117305565Y-68959169D01*
X117060419Y-69204315D01*
X116867808Y-69492577D01*
X116735136Y-69812877D01*
X116667500Y-70152905D01*
X116667500Y-70499595D01*
X116670912Y-70516750D01*
X101134088Y-70516750D01*
X101137500Y-70499595D01*
X101137500Y-70152905D01*
X101069864Y-69812877D01*
X100937192Y-69492577D01*
X100744581Y-69204315D01*
X100499435Y-68959169D01*
X100211173Y-68766558D01*
X99890873Y-68633886D01*
X99550845Y-68566250D01*
X99204155Y-68566250D01*
X98864127Y-68633886D01*
X98543827Y-68766558D01*
X98255565Y-68959169D01*
X98010419Y-69204315D01*
X97817808Y-69492577D01*
X97685136Y-69812877D01*
X97617500Y-70152905D01*
X97617500Y-70499595D01*
X97620912Y-70516750D01*
X96170750Y-70516750D01*
X96170750Y-66319061D01*
X121647000Y-66319061D01*
X121647000Y-66522939D01*
X121686774Y-66722898D01*
X121764795Y-66911256D01*
X121878063Y-67080774D01*
X122022226Y-67224937D01*
X122191744Y-67338205D01*
X122380102Y-67416226D01*
X122580061Y-67456000D01*
X122783939Y-67456000D01*
X122983898Y-67416226D01*
X123172256Y-67338205D01*
X123309503Y-67246500D01*
X125261068Y-67246500D01*
X126571958Y-68557391D01*
X126571964Y-68557396D01*
X126641602Y-68627034D01*
X126667459Y-68658541D01*
X126793158Y-68761699D01*
X126936566Y-68838353D01*
X127092174Y-68885556D01*
X127213447Y-68897500D01*
X127213449Y-68897500D01*
X127253999Y-68901494D01*
X127294550Y-68897500D01*
X127515497Y-68897500D01*
X127652744Y-68989205D01*
X127841102Y-69067226D01*
X128041061Y-69107000D01*
X128244939Y-69107000D01*
X128444898Y-69067226D01*
X128633256Y-68989205D01*
X128802774Y-68875937D01*
X128946937Y-68731774D01*
X129060205Y-68562256D01*
X129138226Y-68373898D01*
X129178000Y-68173939D01*
X129178000Y-67970061D01*
X129138226Y-67770102D01*
X129060205Y-67581744D01*
X128946937Y-67412226D01*
X128802774Y-67268063D01*
X128633256Y-67154795D01*
X128444898Y-67076774D01*
X128244939Y-67037000D01*
X128041061Y-67037000D01*
X127841102Y-67076774D01*
X127652744Y-67154795D01*
X127563715Y-67214282D01*
X126215398Y-65865966D01*
X126189541Y-65834459D01*
X126063842Y-65731301D01*
X125920434Y-65654647D01*
X125764826Y-65607444D01*
X125643553Y-65595500D01*
X125643550Y-65595500D01*
X125603000Y-65591506D01*
X125562450Y-65595500D01*
X123309503Y-65595500D01*
X123172256Y-65503795D01*
X122983898Y-65425774D01*
X122783939Y-65386000D01*
X122580061Y-65386000D01*
X122380102Y-65425774D01*
X122191744Y-65503795D01*
X122022226Y-65617063D01*
X121878063Y-65761226D01*
X121764795Y-65930744D01*
X121686774Y-66119102D01*
X121647000Y-66319061D01*
X96170750Y-66319061D01*
X96170750Y-55143061D01*
X100468000Y-55143061D01*
X100468000Y-55346939D01*
X100507774Y-55546898D01*
X100585795Y-55735256D01*
X100699063Y-55904774D01*
X100843226Y-56048937D01*
X101012744Y-56162205D01*
X101201102Y-56240226D01*
X101362996Y-56272429D01*
X103430606Y-58340039D01*
X103456459Y-58371541D01*
X103526033Y-58428639D01*
X103582156Y-58474698D01*
X103582158Y-58474699D01*
X103725566Y-58551353D01*
X103881174Y-58598556D01*
X104002447Y-58610500D01*
X104002456Y-58610500D01*
X104042999Y-58614493D01*
X104083542Y-58610500D01*
X107195497Y-58610500D01*
X107332744Y-58702205D01*
X107521102Y-58780226D01*
X107721061Y-58820000D01*
X107924939Y-58820000D01*
X108124898Y-58780226D01*
X108313256Y-58702205D01*
X108482774Y-58588937D01*
X108626937Y-58444774D01*
X108740205Y-58275256D01*
X108818226Y-58086898D01*
X108822768Y-58064061D01*
X114789000Y-58064061D01*
X114789000Y-58267939D01*
X114828774Y-58467898D01*
X114906795Y-58656256D01*
X115020063Y-58825774D01*
X115164226Y-58969937D01*
X115333744Y-59083205D01*
X115522102Y-59161226D01*
X115683996Y-59193429D01*
X119921893Y-63431327D01*
X119989795Y-63595256D01*
X120103063Y-63764774D01*
X120247226Y-63908937D01*
X120416744Y-64022205D01*
X120605102Y-64100226D01*
X120805061Y-64140000D01*
X121008939Y-64140000D01*
X121208898Y-64100226D01*
X121397256Y-64022205D01*
X121566774Y-63908937D01*
X121710937Y-63764774D01*
X121824205Y-63595256D01*
X121902226Y-63406898D01*
X121942000Y-63206939D01*
X121942000Y-63003061D01*
X121902226Y-62803102D01*
X121824205Y-62614744D01*
X121710937Y-62445226D01*
X121566774Y-62301063D01*
X121397256Y-62187795D01*
X121208898Y-62109774D01*
X121008939Y-62070000D01*
X120895434Y-62070000D01*
X116851429Y-58025996D01*
X116819226Y-57864102D01*
X116741205Y-57675744D01*
X116627937Y-57506226D01*
X116483774Y-57362063D01*
X116314256Y-57248795D01*
X116125898Y-57170774D01*
X115925939Y-57131000D01*
X115722061Y-57131000D01*
X115522102Y-57170774D01*
X115333744Y-57248795D01*
X115164226Y-57362063D01*
X115020063Y-57506226D01*
X114906795Y-57675744D01*
X114828774Y-57864102D01*
X114789000Y-58064061D01*
X108822768Y-58064061D01*
X108858000Y-57886939D01*
X108858000Y-57683061D01*
X108818226Y-57483102D01*
X108740205Y-57294744D01*
X108626937Y-57125226D01*
X108482774Y-56981063D01*
X108313256Y-56867795D01*
X108124898Y-56789774D01*
X107924939Y-56750000D01*
X107721061Y-56750000D01*
X107521102Y-56789774D01*
X107332744Y-56867795D01*
X107195497Y-56959500D01*
X104384933Y-56959500D01*
X102530429Y-55104996D01*
X102498226Y-54943102D01*
X102420205Y-54754744D01*
X102306937Y-54585226D01*
X102162774Y-54441063D01*
X101993256Y-54327795D01*
X101804898Y-54249774D01*
X101604939Y-54210000D01*
X101401061Y-54210000D01*
X101201102Y-54249774D01*
X101012744Y-54327795D01*
X100843226Y-54441063D01*
X100699063Y-54585226D01*
X100585795Y-54754744D01*
X100507774Y-54943102D01*
X100468000Y-55143061D01*
X96170750Y-55143061D01*
X96170750Y-53549500D01*
X98525000Y-53549500D01*
X98525000Y-54049500D01*
X98571585Y-54268487D01*
X98659997Y-54474178D01*
X98786839Y-54658669D01*
X98947236Y-54814869D01*
X99135024Y-54936776D01*
X99358126Y-55016619D01*
X99533000Y-54890454D01*
X99533000Y-53549500D01*
X98525000Y-53549500D01*
X96170750Y-53549500D01*
X96170750Y-52795500D01*
X98525000Y-52795500D01*
X98525000Y-53295500D01*
X99533000Y-53295500D01*
X99533000Y-51954546D01*
X99787000Y-51954546D01*
X99787000Y-53295500D01*
X99807000Y-53295500D01*
X99807000Y-53549500D01*
X99787000Y-53549500D01*
X99787000Y-54890454D01*
X99961874Y-55016619D01*
X100184976Y-54936776D01*
X100372764Y-54814869D01*
X100533161Y-54658669D01*
X100660003Y-54474178D01*
X100748415Y-54268487D01*
X100795000Y-54049500D01*
X100795000Y-53614019D01*
X100887911Y-53632500D01*
X101072089Y-53632500D01*
X101252729Y-53596568D01*
X101422889Y-53526086D01*
X101576028Y-53423762D01*
X101706262Y-53293528D01*
X101808586Y-53140389D01*
X101879068Y-52970229D01*
X101915000Y-52789589D01*
X101915000Y-52605411D01*
X101879068Y-52424771D01*
X101808586Y-52254611D01*
X101706262Y-52101472D01*
X101576028Y-51971238D01*
X101422889Y-51868914D01*
X101252729Y-51798432D01*
X101072089Y-51762500D01*
X100887911Y-51762500D01*
X100707271Y-51798432D01*
X100537111Y-51868914D01*
X100383972Y-51971238D01*
X100343850Y-52011360D01*
X100184976Y-51908224D01*
X99961874Y-51828381D01*
X99787000Y-51954546D01*
X99533000Y-51954546D01*
X99358126Y-51828381D01*
X99135024Y-51908224D01*
X98947236Y-52030131D01*
X98786839Y-52186331D01*
X98659997Y-52370822D01*
X98571585Y-52576513D01*
X98525000Y-52795500D01*
X96170750Y-52795500D01*
X96170750Y-49724500D01*
X98525000Y-49724500D01*
X98525000Y-50374500D01*
X98571585Y-50593487D01*
X98659997Y-50799178D01*
X98786839Y-50983669D01*
X98947236Y-51139869D01*
X99135024Y-51261776D01*
X99358126Y-51341619D01*
X99533000Y-51215454D01*
X99533000Y-49724500D01*
X99787000Y-49724500D01*
X99787000Y-51215454D01*
X99961874Y-51341619D01*
X100184976Y-51261776D01*
X100372764Y-51139869D01*
X100533161Y-50983669D01*
X100660003Y-50799178D01*
X100748415Y-50593487D01*
X100795000Y-50374500D01*
X100795000Y-49724500D01*
X107165000Y-49724500D01*
X107165000Y-50374500D01*
X107211585Y-50593487D01*
X107299997Y-50799178D01*
X107426839Y-50983669D01*
X107587236Y-51139869D01*
X107775024Y-51261776D01*
X107998126Y-51341619D01*
X108173000Y-51215454D01*
X108173000Y-49724500D01*
X108427000Y-49724500D01*
X108427000Y-51215454D01*
X108601874Y-51341619D01*
X108824976Y-51261776D01*
X109012764Y-51139869D01*
X109173161Y-50983669D01*
X109300003Y-50799178D01*
X109388415Y-50593487D01*
X109435000Y-50374500D01*
X109435000Y-49724500D01*
X108427000Y-49724500D01*
X108173000Y-49724500D01*
X107165000Y-49724500D01*
X100795000Y-49724500D01*
X99787000Y-49724500D01*
X99533000Y-49724500D01*
X98525000Y-49724500D01*
X96170750Y-49724500D01*
X96170750Y-48285000D01*
X98736190Y-48285000D01*
X98659997Y-48395822D01*
G37*
X98659997Y-48395822D02*
X98571585Y-48601513D01*
X98525000Y-48820500D01*
X98525000Y-49470500D01*
X99533000Y-49470500D01*
X99533000Y-49450500D01*
X99787000Y-49450500D01*
X99787000Y-49470500D01*
X100795000Y-49470500D01*
X100795000Y-48820500D01*
X100748415Y-48601513D01*
X100660003Y-48395822D01*
X100583810Y-48285000D01*
X107376190Y-48285000D01*
X107299997Y-48395822D01*
X107211585Y-48601513D01*
X107165000Y-48820500D01*
X107165000Y-49470500D01*
X108173000Y-49470500D01*
X108173000Y-49450500D01*
X108427000Y-49450500D01*
X108427000Y-49470500D01*
X109435000Y-49470500D01*
X109435000Y-48820500D01*
X109388415Y-48601513D01*
X109300003Y-48395822D01*
X109223810Y-48285000D01*
X112308369Y-48285000D01*
X111755652Y-48837718D01*
X111726578Y-48861578D01*
X111631355Y-48977608D01*
X111560598Y-49109985D01*
X111517026Y-49253622D01*
X111506000Y-49365574D01*
X111502314Y-49403000D01*
X111506000Y-49440423D01*
X111506000Y-49567425D01*
X111506001Y-49567435D01*
X111506000Y-52262369D01*
X109304384Y-54463986D01*
X109388415Y-54268487D01*
X109435000Y-54049500D01*
X109435000Y-53549500D01*
X108427000Y-53549500D01*
X108427000Y-53569500D01*
X108173000Y-53569500D01*
X108173000Y-53549500D01*
X108153000Y-53549500D01*
X108153000Y-53295500D01*
X108173000Y-53295500D01*
X108173000Y-51954546D01*
X108427000Y-51954546D01*
X108427000Y-53295500D01*
X109435000Y-53295500D01*
X109435000Y-52795500D01*
X109388415Y-52576513D01*
X109300003Y-52370822D01*
X109173161Y-52186331D01*
X109012764Y-52030131D01*
X108824976Y-51908224D01*
X108601874Y-51828381D01*
X108427000Y-51954546D01*
X108173000Y-51954546D01*
X107998126Y-51828381D01*
X107775024Y-51908224D01*
X107686856Y-51965460D01*
X107626972Y-51916314D01*
X107464540Y-51829493D01*
X107288292Y-51776029D01*
X107150932Y-51762500D01*
X106809068Y-51762500D01*
X106671708Y-51776029D01*
X106495460Y-51829493D01*
X106333028Y-51916314D01*
X106190656Y-52033156D01*
X106073814Y-52175528D01*
X105986993Y-52337960D01*
X105933529Y-52514208D01*
X105915476Y-52697500D01*
X105933529Y-52880792D01*
X105986993Y-53057040D01*
X106073814Y-53219472D01*
X106190656Y-53361844D01*
X106333028Y-53478686D01*
X106495460Y-53565507D01*
X106671708Y-53618971D01*
X106809068Y-53632500D01*
X107150932Y-53632500D01*
X107165000Y-53631114D01*
X107165000Y-54049500D01*
X107211585Y-54268487D01*
X107299997Y-54474178D01*
X107363400Y-54566398D01*
X105547975Y-54566398D01*
X105506038Y-54524461D01*
X105336520Y-54411193D01*
X105148162Y-54333172D01*
X104948203Y-54293398D01*
X104744325Y-54293398D01*
X104544366Y-54333172D01*
X104356008Y-54411193D01*
X104186490Y-54524461D01*
X104042327Y-54668624D01*
X103929059Y-54838142D01*
X103851038Y-55026500D01*
X103811264Y-55226459D01*
X103811264Y-55430337D01*
X103851038Y-55630296D01*
X103929059Y-55818654D01*
X104042327Y-55988172D01*
X104186490Y-56132335D01*
X104356008Y-56245603D01*
X104544366Y-56323624D01*
X104744325Y-56363398D01*
X104948203Y-56363398D01*
X105148162Y-56323624D01*
X105336520Y-56245603D01*
X105506038Y-56132335D01*
X105547975Y-56090398D01*
X109480179Y-56090398D01*
X109517602Y-56094084D01*
X109555025Y-56090398D01*
X109555028Y-56090398D01*
X109666980Y-56079372D01*
X109810617Y-56035800D01*
X109942994Y-55965043D01*
X110059024Y-55869820D01*
X110082886Y-55840744D01*
X112780353Y-53143278D01*
X112809422Y-53119422D01*
X112904645Y-53003392D01*
X112975402Y-52871015D01*
X113018974Y-52727378D01*
X113030000Y-52615426D01*
X113030000Y-52615424D01*
X113033686Y-52578001D01*
X113030000Y-52540578D01*
X113030000Y-51977186D01*
X123877508Y-51977186D01*
X123877508Y-52181064D01*
X123917282Y-52381023D01*
X123995303Y-52569381D01*
X124108571Y-52738899D01*
X124252734Y-52883062D01*
X124422252Y-52996330D01*
X124610610Y-53074351D01*
X124810569Y-53114125D01*
X125014447Y-53114125D01*
X125214406Y-53074351D01*
X125402764Y-52996330D01*
X125553667Y-52895500D01*
X128785497Y-52895500D01*
X128922744Y-52987205D01*
X129111102Y-53065226D01*
X129311061Y-53105000D01*
X129514939Y-53105000D01*
X129714898Y-53065226D01*
X129903256Y-52987205D01*
X130072774Y-52873937D01*
X130216937Y-52729774D01*
X130330205Y-52560256D01*
X130408226Y-52371898D01*
X130412768Y-52349061D01*
X134064500Y-52349061D01*
X134064500Y-52552939D01*
X134104274Y-52752898D01*
X134182295Y-52941256D01*
X134295563Y-53110774D01*
X134439726Y-53254937D01*
X134609244Y-53368205D01*
X134797602Y-53446226D01*
X134997561Y-53486000D01*
X135201439Y-53486000D01*
X135401398Y-53446226D01*
X135589756Y-53368205D01*
X135759274Y-53254937D01*
X135801211Y-53213000D01*
X141792289Y-53213000D01*
X141834226Y-53254937D01*
X142003744Y-53368205D01*
X142192102Y-53446226D01*
X142392061Y-53486000D01*
X142595939Y-53486000D01*
X142795898Y-53446226D01*
X142984256Y-53368205D01*
X143153774Y-53254937D01*
X143297937Y-53110774D01*
X143411205Y-52941256D01*
X143489226Y-52752898D01*
X143529000Y-52552939D01*
X143529000Y-52349061D01*
X143489226Y-52149102D01*
X143411205Y-51960744D01*
X143297937Y-51791226D01*
X143153774Y-51647063D01*
X142984256Y-51533795D01*
X142795898Y-51455774D01*
X142595939Y-51416000D01*
X142392061Y-51416000D01*
X142192102Y-51455774D01*
X142003744Y-51533795D01*
X141834226Y-51647063D01*
X141792289Y-51689000D01*
X135801211Y-51689000D01*
X135759274Y-51647063D01*
X135589756Y-51533795D01*
X135401398Y-51455774D01*
X135201439Y-51416000D01*
X134997561Y-51416000D01*
X134797602Y-51455774D01*
X134609244Y-51533795D01*
X134439726Y-51647063D01*
X134295563Y-51791226D01*
X134182295Y-51960744D01*
X134104274Y-52149102D01*
X134064500Y-52349061D01*
X130412768Y-52349061D01*
X130448000Y-52171939D01*
X130448000Y-51968061D01*
X130408226Y-51768102D01*
X130330205Y-51579744D01*
X130216937Y-51410226D01*
X130072774Y-51266063D01*
X129903256Y-51152795D01*
X129714898Y-51074774D01*
X129514939Y-51035000D01*
X129311061Y-51035000D01*
X129111102Y-51074774D01*
X128922744Y-51152795D01*
X128785497Y-51244500D01*
X125526354Y-51244500D01*
X125402764Y-51161920D01*
X125214406Y-51083899D01*
X125014447Y-51044125D01*
X124810569Y-51044125D01*
X124610610Y-51083899D01*
X124422252Y-51161920D01*
X124252734Y-51275188D01*
X124108571Y-51419351D01*
X123995303Y-51588869D01*
X123917282Y-51777227D01*
X123877508Y-51977186D01*
X113030000Y-51977186D01*
X113030000Y-49718630D01*
X113345631Y-49403000D01*
X125917289Y-49403000D01*
X125959226Y-49444937D01*
X126128744Y-49558205D01*
X126317102Y-49636226D01*
X126517061Y-49676000D01*
X126720939Y-49676000D01*
X126920898Y-49636226D01*
X127109256Y-49558205D01*
X127278774Y-49444937D01*
X127422937Y-49300774D01*
X127536205Y-49131256D01*
X127614226Y-48942898D01*
X127654000Y-48742939D01*
X127654000Y-48539061D01*
X127614226Y-48339102D01*
X127591816Y-48285000D01*
X135953789Y-48285000D01*
X135848063Y-48390726D01*
X135734795Y-48560244D01*
X135656774Y-48748602D01*
X135617000Y-48948561D01*
X135617000Y-49152439D01*
X135656774Y-49352398D01*
X135734795Y-49540756D01*
X135848063Y-49710274D01*
X135992226Y-49854437D01*
X136161744Y-49967705D01*
X136350102Y-50045726D01*
X136550061Y-50085500D01*
X136753939Y-50085500D01*
X136953898Y-50045726D01*
X137142256Y-49967705D01*
X137279503Y-49876000D01*
X139998758Y-49876000D01*
X140033102Y-49890226D01*
X140233061Y-49930000D01*
X140436939Y-49930000D01*
X140636898Y-49890226D01*
X140825256Y-49812205D01*
X140994774Y-49698937D01*
X141138937Y-49554774D01*
X141252205Y-49385256D01*
X141330226Y-49196898D01*
X141370000Y-48996939D01*
X141370000Y-48793061D01*
X141330226Y-48593102D01*
X141252205Y-48404744D01*
X141172195Y-48285000D01*
X150685500Y-48285000D01*
X150685500Y-70516750D01*
X139234088Y-70516750D01*
X139237500Y-70499595D01*
X139237500Y-70152905D01*
X139169864Y-69812877D01*
X139037192Y-69492577D01*
X138844581Y-69204315D01*
X138599435Y-68959169D01*
X138311173Y-68766558D01*
X137990873Y-68633886D01*
X137650845Y-68566250D01*
X137304155Y-68566250D01*
X136964127Y-68633886D01*
X136643827Y-68766558D01*
X136355565Y-68959169D01*
X136110419Y-69204315D01*
X135917808Y-69492577D01*
X135785136Y-69812877D01*
X135717500Y-70152905D01*
X135717500Y-70499595D01*
X135720912Y-70516750D01*
X120184088Y-70516750D01*
X120187500Y-70499595D01*
X120187500Y-70152905D01*
X120119864Y-69812877D01*
X119987192Y-69492577D01*
X119794581Y-69204315D01*
X119549435Y-68959169D01*
X119261173Y-68766558D01*
X118940873Y-68633886D01*
X118600845Y-68566250D01*
X118254155Y-68566250D01*
X117914127Y-68633886D01*
X117593827Y-68766558D01*
X117305565Y-68959169D01*
X117060419Y-69204315D01*
X116867808Y-69492577D01*
X116735136Y-69812877D01*
X116667500Y-70152905D01*
X116667500Y-70499595D01*
X116670912Y-70516750D01*
X101134088Y-70516750D01*
X101137500Y-70499595D01*
X101137500Y-70152905D01*
X101069864Y-69812877D01*
X100937192Y-69492577D01*
X100744581Y-69204315D01*
X100499435Y-68959169D01*
X100211173Y-68766558D01*
X99890873Y-68633886D01*
X99550845Y-68566250D01*
X99204155Y-68566250D01*
X98864127Y-68633886D01*
X98543827Y-68766558D01*
X98255565Y-68959169D01*
X98010419Y-69204315D01*
X97817808Y-69492577D01*
X97685136Y-69812877D01*
X97617500Y-70152905D01*
X97617500Y-70499595D01*
X97620912Y-70516750D01*
X96170750Y-70516750D01*
X96170750Y-66319061D01*
X121647000Y-66319061D01*
X121647000Y-66522939D01*
X121686774Y-66722898D01*
X121764795Y-66911256D01*
X121878063Y-67080774D01*
X122022226Y-67224937D01*
X122191744Y-67338205D01*
X122380102Y-67416226D01*
X122580061Y-67456000D01*
X122783939Y-67456000D01*
X122983898Y-67416226D01*
X123172256Y-67338205D01*
X123309503Y-67246500D01*
X125261068Y-67246500D01*
X126571958Y-68557391D01*
X126571964Y-68557396D01*
X126641602Y-68627034D01*
X126667459Y-68658541D01*
X126793158Y-68761699D01*
X126936566Y-68838353D01*
X127092174Y-68885556D01*
X127213447Y-68897500D01*
X127213449Y-68897500D01*
X127253999Y-68901494D01*
X127294550Y-68897500D01*
X127515497Y-68897500D01*
X127652744Y-68989205D01*
X127841102Y-69067226D01*
X128041061Y-69107000D01*
X128244939Y-69107000D01*
X128444898Y-69067226D01*
X128633256Y-68989205D01*
X128802774Y-68875937D01*
X128946937Y-68731774D01*
X129060205Y-68562256D01*
X129138226Y-68373898D01*
X129178000Y-68173939D01*
X129178000Y-67970061D01*
X129138226Y-67770102D01*
X129060205Y-67581744D01*
X128946937Y-67412226D01*
X128802774Y-67268063D01*
X128633256Y-67154795D01*
X128444898Y-67076774D01*
X128244939Y-67037000D01*
X128041061Y-67037000D01*
X127841102Y-67076774D01*
X127652744Y-67154795D01*
X127563715Y-67214282D01*
X126215398Y-65865966D01*
X126189541Y-65834459D01*
X126063842Y-65731301D01*
X125920434Y-65654647D01*
X125764826Y-65607444D01*
X125643553Y-65595500D01*
X125643550Y-65595500D01*
X125603000Y-65591506D01*
X125562450Y-65595500D01*
X123309503Y-65595500D01*
X123172256Y-65503795D01*
X122983898Y-65425774D01*
X122783939Y-65386000D01*
X122580061Y-65386000D01*
X122380102Y-65425774D01*
X122191744Y-65503795D01*
X122022226Y-65617063D01*
X121878063Y-65761226D01*
X121764795Y-65930744D01*
X121686774Y-66119102D01*
X121647000Y-66319061D01*
X96170750Y-66319061D01*
X96170750Y-55143061D01*
X100468000Y-55143061D01*
X100468000Y-55346939D01*
X100507774Y-55546898D01*
X100585795Y-55735256D01*
X100699063Y-55904774D01*
X100843226Y-56048937D01*
X101012744Y-56162205D01*
X101201102Y-56240226D01*
X101362996Y-56272429D01*
X103430606Y-58340039D01*
X103456459Y-58371541D01*
X103526033Y-58428639D01*
X103582156Y-58474698D01*
X103582158Y-58474699D01*
X103725566Y-58551353D01*
X103881174Y-58598556D01*
X104002447Y-58610500D01*
X104002456Y-58610500D01*
X104042999Y-58614493D01*
X104083542Y-58610500D01*
X107195497Y-58610500D01*
X107332744Y-58702205D01*
X107521102Y-58780226D01*
X107721061Y-58820000D01*
X107924939Y-58820000D01*
X108124898Y-58780226D01*
X108313256Y-58702205D01*
X108482774Y-58588937D01*
X108626937Y-58444774D01*
X108740205Y-58275256D01*
X108818226Y-58086898D01*
X108822768Y-58064061D01*
X114789000Y-58064061D01*
X114789000Y-58267939D01*
X114828774Y-58467898D01*
X114906795Y-58656256D01*
X115020063Y-58825774D01*
X115164226Y-58969937D01*
X115333744Y-59083205D01*
X115522102Y-59161226D01*
X115683996Y-59193429D01*
X119921893Y-63431327D01*
X119989795Y-63595256D01*
X120103063Y-63764774D01*
X120247226Y-63908937D01*
X120416744Y-64022205D01*
X120605102Y-64100226D01*
X120805061Y-64140000D01*
X121008939Y-64140000D01*
X121208898Y-64100226D01*
X121397256Y-64022205D01*
X121566774Y-63908937D01*
X121710937Y-63764774D01*
X121824205Y-63595256D01*
X121902226Y-63406898D01*
X121942000Y-63206939D01*
X121942000Y-63003061D01*
X121902226Y-62803102D01*
X121824205Y-62614744D01*
X121710937Y-62445226D01*
X121566774Y-62301063D01*
X121397256Y-62187795D01*
X121208898Y-62109774D01*
X121008939Y-62070000D01*
X120895434Y-62070000D01*
X116851429Y-58025996D01*
X116819226Y-57864102D01*
X116741205Y-57675744D01*
X116627937Y-57506226D01*
X116483774Y-57362063D01*
X116314256Y-57248795D01*
X116125898Y-57170774D01*
X115925939Y-57131000D01*
X115722061Y-57131000D01*
X115522102Y-57170774D01*
X115333744Y-57248795D01*
X115164226Y-57362063D01*
X115020063Y-57506226D01*
X114906795Y-57675744D01*
X114828774Y-57864102D01*
X114789000Y-58064061D01*
X108822768Y-58064061D01*
X108858000Y-57886939D01*
X108858000Y-57683061D01*
X108818226Y-57483102D01*
X108740205Y-57294744D01*
X108626937Y-57125226D01*
X108482774Y-56981063D01*
X108313256Y-56867795D01*
X108124898Y-56789774D01*
X107924939Y-56750000D01*
X107721061Y-56750000D01*
X107521102Y-56789774D01*
X107332744Y-56867795D01*
X107195497Y-56959500D01*
X104384933Y-56959500D01*
X102530429Y-55104996D01*
X102498226Y-54943102D01*
X102420205Y-54754744D01*
X102306937Y-54585226D01*
X102162774Y-54441063D01*
X101993256Y-54327795D01*
X101804898Y-54249774D01*
X101604939Y-54210000D01*
X101401061Y-54210000D01*
X101201102Y-54249774D01*
X101012744Y-54327795D01*
X100843226Y-54441063D01*
X100699063Y-54585226D01*
X100585795Y-54754744D01*
X100507774Y-54943102D01*
X100468000Y-55143061D01*
X96170750Y-55143061D01*
X96170750Y-53549500D01*
X98525000Y-53549500D01*
X98525000Y-54049500D01*
X98571585Y-54268487D01*
X98659997Y-54474178D01*
X98786839Y-54658669D01*
X98947236Y-54814869D01*
X99135024Y-54936776D01*
X99358126Y-55016619D01*
X99533000Y-54890454D01*
X99533000Y-53549500D01*
X98525000Y-53549500D01*
X96170750Y-53549500D01*
X96170750Y-52795500D01*
X98525000Y-52795500D01*
X98525000Y-53295500D01*
X99533000Y-53295500D01*
X99533000Y-51954546D01*
X99787000Y-51954546D01*
X99787000Y-53295500D01*
X99807000Y-53295500D01*
X99807000Y-53549500D01*
X99787000Y-53549500D01*
X99787000Y-54890454D01*
X99961874Y-55016619D01*
X100184976Y-54936776D01*
X100372764Y-54814869D01*
X100533161Y-54658669D01*
X100660003Y-54474178D01*
X100748415Y-54268487D01*
X100795000Y-54049500D01*
X100795000Y-53614019D01*
X100887911Y-53632500D01*
X101072089Y-53632500D01*
X101252729Y-53596568D01*
X101422889Y-53526086D01*
X101576028Y-53423762D01*
X101706262Y-53293528D01*
X101808586Y-53140389D01*
X101879068Y-52970229D01*
X101915000Y-52789589D01*
X101915000Y-52605411D01*
X101879068Y-52424771D01*
X101808586Y-52254611D01*
X101706262Y-52101472D01*
X101576028Y-51971238D01*
X101422889Y-51868914D01*
X101252729Y-51798432D01*
X101072089Y-51762500D01*
X100887911Y-51762500D01*
X100707271Y-51798432D01*
X100537111Y-51868914D01*
X100383972Y-51971238D01*
X100343850Y-52011360D01*
X100184976Y-51908224D01*
X99961874Y-51828381D01*
X99787000Y-51954546D01*
X99533000Y-51954546D01*
X99358126Y-51828381D01*
X99135024Y-51908224D01*
X98947236Y-52030131D01*
X98786839Y-52186331D01*
X98659997Y-52370822D01*
X98571585Y-52576513D01*
X98525000Y-52795500D01*
X96170750Y-52795500D01*
X96170750Y-49724500D01*
X98525000Y-49724500D01*
X98525000Y-50374500D01*
X98571585Y-50593487D01*
X98659997Y-50799178D01*
X98786839Y-50983669D01*
X98947236Y-51139869D01*
X99135024Y-51261776D01*
X99358126Y-51341619D01*
X99533000Y-51215454D01*
X99533000Y-49724500D01*
X99787000Y-49724500D01*
X99787000Y-51215454D01*
X99961874Y-51341619D01*
X100184976Y-51261776D01*
X100372764Y-51139869D01*
X100533161Y-50983669D01*
X100660003Y-50799178D01*
X100748415Y-50593487D01*
X100795000Y-50374500D01*
X100795000Y-49724500D01*
X107165000Y-49724500D01*
X107165000Y-50374500D01*
X107211585Y-50593487D01*
X107299997Y-50799178D01*
X107426839Y-50983669D01*
X107587236Y-51139869D01*
X107775024Y-51261776D01*
X107998126Y-51341619D01*
X108173000Y-51215454D01*
X108173000Y-49724500D01*
X108427000Y-49724500D01*
X108427000Y-51215454D01*
X108601874Y-51341619D01*
X108824976Y-51261776D01*
X109012764Y-51139869D01*
X109173161Y-50983669D01*
X109300003Y-50799178D01*
X109388415Y-50593487D01*
X109435000Y-50374500D01*
X109435000Y-49724500D01*
X108427000Y-49724500D01*
X108173000Y-49724500D01*
X107165000Y-49724500D01*
X100795000Y-49724500D01*
X99787000Y-49724500D01*
X99533000Y-49724500D01*
X98525000Y-49724500D01*
X96170750Y-49724500D01*
X96170750Y-48285000D01*
X98736190Y-48285000D01*
X98659997Y-48395822D01*
M02*
