G04 #@! TF.GenerationSoftware,KiCad,Pcbnew,(5.1.5)-3*
G04 #@! TF.CreationDate,2020-10-08T21:20:27+02:00*
G04 #@! TF.ProjectId,NumPad,4e756d50-6164-42e6-9b69-6361645f7063,rev?*
G04 #@! TF.SameCoordinates,Original*
G04 #@! TF.FileFunction,Soldermask,Top*
G04 #@! TF.FilePolarity,Negative*
%FSLAX46Y46*%
G04 Gerber Fmt 4.6, Leading zero omitted, Abs format (unit mm)*
G04 Created by KiCad (PCBNEW (5.1.5)-3) date 2020-10-08 21:20:27*
%MOMM*%
%LPD*%
G04 APERTURE LIST*
%ADD10C,0.100000*%
G04 APERTURE END LIST*
D10*
G36*
X118576017Y-157046513D02*
G01*
X118728161Y-157076776D01*
X118846887Y-157125954D01*
X119014791Y-157195502D01*
X119014792Y-157195503D01*
X119272754Y-157367867D01*
X119492133Y-157587246D01*
X119607303Y-157759611D01*
X119664498Y-157845209D01*
X119783224Y-158131840D01*
X119843750Y-158436125D01*
X119843750Y-158746375D01*
X119783224Y-159050660D01*
X119664498Y-159337291D01*
X119664497Y-159337292D01*
X119492133Y-159595254D01*
X119272754Y-159814633D01*
X119100389Y-159929803D01*
X119014791Y-159986998D01*
X118846887Y-160056546D01*
X118728161Y-160105724D01*
X118423875Y-160166250D01*
X118113625Y-160166250D01*
X117809339Y-160105724D01*
X117690613Y-160056546D01*
X117522709Y-159986998D01*
X117437111Y-159929803D01*
X117264746Y-159814633D01*
X117045367Y-159595254D01*
X116873003Y-159337292D01*
X116873002Y-159337291D01*
X116754276Y-159050660D01*
X116693750Y-158746375D01*
X116693750Y-158436125D01*
X116754276Y-158131840D01*
X116873002Y-157845209D01*
X116930197Y-157759611D01*
X117045367Y-157587246D01*
X117264746Y-157367867D01*
X117522708Y-157195503D01*
X117522709Y-157195502D01*
X117690613Y-157125954D01*
X117809339Y-157076776D01*
X117961483Y-157046513D01*
X118113625Y-157016250D01*
X118423875Y-157016250D01*
X118576017Y-157046513D01*
G37*
G36*
X94763517Y-157046513D02*
G01*
X94915661Y-157076776D01*
X95034387Y-157125954D01*
X95202291Y-157195502D01*
X95202292Y-157195503D01*
X95460254Y-157367867D01*
X95679633Y-157587246D01*
X95794803Y-157759611D01*
X95851998Y-157845209D01*
X95970724Y-158131840D01*
X96031250Y-158436125D01*
X96031250Y-158746375D01*
X95970724Y-159050660D01*
X95851998Y-159337291D01*
X95851997Y-159337292D01*
X95679633Y-159595254D01*
X95460254Y-159814633D01*
X95287889Y-159929803D01*
X95202291Y-159986998D01*
X95034387Y-160056546D01*
X94915661Y-160105724D01*
X94611375Y-160166250D01*
X94301125Y-160166250D01*
X93996839Y-160105724D01*
X93878113Y-160056546D01*
X93710209Y-159986998D01*
X93624611Y-159929803D01*
X93452246Y-159814633D01*
X93232867Y-159595254D01*
X93060503Y-159337292D01*
X93060502Y-159337291D01*
X92941776Y-159050660D01*
X92881250Y-158746375D01*
X92881250Y-158436125D01*
X92941776Y-158131840D01*
X93060502Y-157845209D01*
X93117697Y-157759611D01*
X93232867Y-157587246D01*
X93452246Y-157367867D01*
X93710208Y-157195503D01*
X93710209Y-157195502D01*
X93878113Y-157125954D01*
X93996839Y-157076776D01*
X94148983Y-157046513D01*
X94301125Y-157016250D01*
X94611375Y-157016250D01*
X94763517Y-157046513D01*
G37*
G36*
X146328974Y-152021184D02*
G01*
X146546974Y-152111483D01*
X146701123Y-152175333D01*
X147036048Y-152399123D01*
X147320877Y-152683952D01*
X147544667Y-153018877D01*
X147544667Y-153018878D01*
X147698816Y-153391026D01*
X147777400Y-153786094D01*
X147777400Y-154188906D01*
X147698816Y-154583974D01*
X147636863Y-154733541D01*
X147544667Y-154956123D01*
X147320877Y-155291048D01*
X147036048Y-155575877D01*
X146701123Y-155799667D01*
X146546974Y-155863517D01*
X146328974Y-155953816D01*
X145933906Y-156032400D01*
X145531094Y-156032400D01*
X145136026Y-155953816D01*
X144918026Y-155863517D01*
X144763877Y-155799667D01*
X144428952Y-155575877D01*
X144144123Y-155291048D01*
X143920333Y-154956123D01*
X143828137Y-154733541D01*
X143766184Y-154583974D01*
X143687600Y-154188906D01*
X143687600Y-153786094D01*
X143766184Y-153391026D01*
X143920333Y-153018878D01*
X143920333Y-153018877D01*
X144144123Y-152683952D01*
X144428952Y-152399123D01*
X144763877Y-152175333D01*
X144918026Y-152111483D01*
X145136026Y-152021184D01*
X145531094Y-151942600D01*
X145933906Y-151942600D01*
X146328974Y-152021184D01*
G37*
G36*
X161279767Y-152442763D02*
G01*
X161431911Y-152473026D01*
X161488980Y-152496665D01*
X161718541Y-152591752D01*
X161718542Y-152591753D01*
X161976504Y-152764117D01*
X162195883Y-152983496D01*
X162219524Y-153018878D01*
X162368248Y-153241459D01*
X162486974Y-153528090D01*
X162547500Y-153832375D01*
X162547500Y-154142625D01*
X162486974Y-154446910D01*
X162368248Y-154733541D01*
X162368247Y-154733542D01*
X162195883Y-154991504D01*
X161976504Y-155210883D01*
X161856528Y-155291048D01*
X161718541Y-155383248D01*
X161550637Y-155452796D01*
X161431911Y-155501974D01*
X161127625Y-155562500D01*
X160817375Y-155562500D01*
X160513089Y-155501974D01*
X160394363Y-155452796D01*
X160226459Y-155383248D01*
X160088472Y-155291048D01*
X159968496Y-155210883D01*
X159749117Y-154991504D01*
X159576753Y-154733542D01*
X159576752Y-154733541D01*
X159458026Y-154446910D01*
X159397500Y-154142625D01*
X159397500Y-153832375D01*
X159458026Y-153528090D01*
X159576752Y-153241459D01*
X159725476Y-153018878D01*
X159749117Y-152983496D01*
X159968496Y-152764117D01*
X160226458Y-152591753D01*
X160226459Y-152591752D01*
X160456020Y-152496665D01*
X160513089Y-152473026D01*
X160665233Y-152442763D01*
X160817375Y-152412500D01*
X161127625Y-152412500D01*
X161279767Y-152442763D01*
G37*
G36*
X106958974Y-149639934D02*
G01*
X107176974Y-149730233D01*
X107331123Y-149794083D01*
X107666048Y-150017873D01*
X107950877Y-150302702D01*
X108174667Y-150637627D01*
X108207062Y-150715836D01*
X108328816Y-151009776D01*
X108407400Y-151404844D01*
X108407400Y-151807656D01*
X108328816Y-152202724D01*
X108277951Y-152325522D01*
X108174667Y-152574873D01*
X107950877Y-152909798D01*
X107666048Y-153194627D01*
X107331123Y-153418417D01*
X107176974Y-153482267D01*
X106958974Y-153572566D01*
X106563906Y-153651150D01*
X106161094Y-153651150D01*
X105766026Y-153572566D01*
X105548026Y-153482267D01*
X105393877Y-153418417D01*
X105058952Y-153194627D01*
X104774123Y-152909798D01*
X104550333Y-152574873D01*
X104447049Y-152325522D01*
X104396184Y-152202724D01*
X104317600Y-151807656D01*
X104317600Y-151404844D01*
X104396184Y-151009776D01*
X104517938Y-150715836D01*
X104550333Y-150637627D01*
X104774123Y-150302702D01*
X105058952Y-150017873D01*
X105393877Y-149794083D01*
X105548026Y-149730233D01*
X105766026Y-149639934D01*
X106161094Y-149561350D01*
X106563906Y-149561350D01*
X106958974Y-149639934D01*
G37*
G36*
X54571474Y-149639934D02*
G01*
X54789474Y-149730233D01*
X54943623Y-149794083D01*
X55278548Y-150017873D01*
X55563377Y-150302702D01*
X55787167Y-150637627D01*
X55819562Y-150715836D01*
X55941316Y-151009776D01*
X56019900Y-151404844D01*
X56019900Y-151807656D01*
X55941316Y-152202724D01*
X55890451Y-152325522D01*
X55787167Y-152574873D01*
X55563377Y-152909798D01*
X55278548Y-153194627D01*
X54943623Y-153418417D01*
X54789474Y-153482267D01*
X54571474Y-153572566D01*
X54176406Y-153651150D01*
X53773594Y-153651150D01*
X53378526Y-153572566D01*
X53160526Y-153482267D01*
X53006377Y-153418417D01*
X52671452Y-153194627D01*
X52386623Y-152909798D01*
X52162833Y-152574873D01*
X52059549Y-152325522D01*
X52008684Y-152202724D01*
X51930100Y-151807656D01*
X51930100Y-151404844D01*
X52008684Y-151009776D01*
X52130438Y-150715836D01*
X52162833Y-150637627D01*
X52386623Y-150302702D01*
X52671452Y-150017873D01*
X53006377Y-149794083D01*
X53160526Y-149730233D01*
X53378526Y-149639934D01*
X53773594Y-149561350D01*
X54176406Y-149561350D01*
X54571474Y-149639934D01*
G37*
G36*
X73621474Y-149639934D02*
G01*
X73839474Y-149730233D01*
X73993623Y-149794083D01*
X74328548Y-150017873D01*
X74613377Y-150302702D01*
X74837167Y-150637627D01*
X74869562Y-150715836D01*
X74991316Y-151009776D01*
X75069900Y-151404844D01*
X75069900Y-151807656D01*
X74991316Y-152202724D01*
X74940451Y-152325522D01*
X74837167Y-152574873D01*
X74613377Y-152909798D01*
X74328548Y-153194627D01*
X73993623Y-153418417D01*
X73839474Y-153482267D01*
X73621474Y-153572566D01*
X73226406Y-153651150D01*
X72823594Y-153651150D01*
X72428526Y-153572566D01*
X72210526Y-153482267D01*
X72056377Y-153418417D01*
X71721452Y-153194627D01*
X71436623Y-152909798D01*
X71212833Y-152574873D01*
X71109549Y-152325522D01*
X71058684Y-152202724D01*
X70980100Y-151807656D01*
X70980100Y-151404844D01*
X71058684Y-151009776D01*
X71180438Y-150715836D01*
X71212833Y-150637627D01*
X71436623Y-150302702D01*
X71721452Y-150017873D01*
X72056377Y-149794083D01*
X72210526Y-149730233D01*
X72428526Y-149639934D01*
X72823594Y-149561350D01*
X73226406Y-149561350D01*
X73621474Y-149639934D01*
G37*
G36*
X135533974Y-149639934D02*
G01*
X135751974Y-149730233D01*
X135906123Y-149794083D01*
X136241048Y-150017873D01*
X136525877Y-150302702D01*
X136749667Y-150637627D01*
X136782062Y-150715836D01*
X136903816Y-151009776D01*
X136982400Y-151404844D01*
X136982400Y-151807656D01*
X136903816Y-152202724D01*
X136852951Y-152325522D01*
X136749667Y-152574873D01*
X136525877Y-152909798D01*
X136241048Y-153194627D01*
X135906123Y-153418417D01*
X135751974Y-153482267D01*
X135533974Y-153572566D01*
X135138906Y-153651150D01*
X134736094Y-153651150D01*
X134341026Y-153572566D01*
X134123026Y-153482267D01*
X133968877Y-153418417D01*
X133633952Y-153194627D01*
X133349123Y-152909798D01*
X133125333Y-152574873D01*
X133022049Y-152325522D01*
X132971184Y-152202724D01*
X132892600Y-151807656D01*
X132892600Y-151404844D01*
X132971184Y-151009776D01*
X133092938Y-150715836D01*
X133125333Y-150637627D01*
X133349123Y-150302702D01*
X133633952Y-150017873D01*
X133968877Y-149794083D01*
X134123026Y-149730233D01*
X134341026Y-149639934D01*
X134736094Y-149561350D01*
X135138906Y-149561350D01*
X135533974Y-149639934D01*
G37*
G36*
X130127604Y-150715835D02*
G01*
X130296126Y-150785639D01*
X130447791Y-150886978D01*
X130576772Y-151015959D01*
X130678111Y-151167624D01*
X130747915Y-151336146D01*
X130783500Y-151515047D01*
X130783500Y-151697453D01*
X130747915Y-151876354D01*
X130678111Y-152044876D01*
X130576772Y-152196541D01*
X130447791Y-152325522D01*
X130296126Y-152426861D01*
X130127604Y-152496665D01*
X129948703Y-152532250D01*
X129766297Y-152532250D01*
X129587396Y-152496665D01*
X129418874Y-152426861D01*
X129267209Y-152325522D01*
X129138228Y-152196541D01*
X129036889Y-152044876D01*
X128967085Y-151876354D01*
X128931500Y-151697453D01*
X128931500Y-151515047D01*
X128967085Y-151336146D01*
X129036889Y-151167624D01*
X129138228Y-151015959D01*
X129267209Y-150886978D01*
X129418874Y-150785639D01*
X129587396Y-150715835D01*
X129766297Y-150680250D01*
X129948703Y-150680250D01*
X130127604Y-150715835D01*
G37*
G36*
X101552604Y-150715835D02*
G01*
X101721126Y-150785639D01*
X101872791Y-150886978D01*
X102001772Y-151015959D01*
X102103111Y-151167624D01*
X102172915Y-151336146D01*
X102208500Y-151515047D01*
X102208500Y-151697453D01*
X102172915Y-151876354D01*
X102103111Y-152044876D01*
X102001772Y-152196541D01*
X101872791Y-152325522D01*
X101721126Y-152426861D01*
X101552604Y-152496665D01*
X101373703Y-152532250D01*
X101191297Y-152532250D01*
X101012396Y-152496665D01*
X100843874Y-152426861D01*
X100692209Y-152325522D01*
X100563228Y-152196541D01*
X100461889Y-152044876D01*
X100392085Y-151876354D01*
X100356500Y-151697453D01*
X100356500Y-151515047D01*
X100392085Y-151336146D01*
X100461889Y-151167624D01*
X100563228Y-151015959D01*
X100692209Y-150886978D01*
X100843874Y-150785639D01*
X101012396Y-150715835D01*
X101191297Y-150680250D01*
X101373703Y-150680250D01*
X101552604Y-150715835D01*
G37*
G36*
X111712604Y-150715835D02*
G01*
X111881126Y-150785639D01*
X112032791Y-150886978D01*
X112161772Y-151015959D01*
X112263111Y-151167624D01*
X112332915Y-151336146D01*
X112368500Y-151515047D01*
X112368500Y-151697453D01*
X112332915Y-151876354D01*
X112263111Y-152044876D01*
X112161772Y-152196541D01*
X112032791Y-152325522D01*
X111881126Y-152426861D01*
X111712604Y-152496665D01*
X111533703Y-152532250D01*
X111351297Y-152532250D01*
X111172396Y-152496665D01*
X111003874Y-152426861D01*
X110852209Y-152325522D01*
X110723228Y-152196541D01*
X110621889Y-152044876D01*
X110552085Y-151876354D01*
X110516500Y-151697453D01*
X110516500Y-151515047D01*
X110552085Y-151336146D01*
X110621889Y-151167624D01*
X110723228Y-151015959D01*
X110852209Y-150886978D01*
X111003874Y-150785639D01*
X111172396Y-150715835D01*
X111351297Y-150680250D01*
X111533703Y-150680250D01*
X111712604Y-150715835D01*
G37*
G36*
X78375104Y-150715835D02*
G01*
X78543626Y-150785639D01*
X78695291Y-150886978D01*
X78824272Y-151015959D01*
X78925611Y-151167624D01*
X78995415Y-151336146D01*
X79031000Y-151515047D01*
X79031000Y-151697453D01*
X78995415Y-151876354D01*
X78925611Y-152044876D01*
X78824272Y-152196541D01*
X78695291Y-152325522D01*
X78543626Y-152426861D01*
X78375104Y-152496665D01*
X78196203Y-152532250D01*
X78013797Y-152532250D01*
X77834896Y-152496665D01*
X77666374Y-152426861D01*
X77514709Y-152325522D01*
X77385728Y-152196541D01*
X77284389Y-152044876D01*
X77214585Y-151876354D01*
X77179000Y-151697453D01*
X77179000Y-151515047D01*
X77214585Y-151336146D01*
X77284389Y-151167624D01*
X77385728Y-151015959D01*
X77514709Y-150886978D01*
X77666374Y-150785639D01*
X77834896Y-150715835D01*
X78013797Y-150680250D01*
X78196203Y-150680250D01*
X78375104Y-150715835D01*
G37*
G36*
X140287604Y-150715835D02*
G01*
X140456126Y-150785639D01*
X140607791Y-150886978D01*
X140736772Y-151015959D01*
X140838111Y-151167624D01*
X140907915Y-151336146D01*
X140943500Y-151515047D01*
X140943500Y-151697453D01*
X140907915Y-151876354D01*
X140838111Y-152044876D01*
X140736772Y-152196541D01*
X140607791Y-152325522D01*
X140456126Y-152426861D01*
X140287604Y-152496665D01*
X140108703Y-152532250D01*
X139926297Y-152532250D01*
X139747396Y-152496665D01*
X139578874Y-152426861D01*
X139427209Y-152325522D01*
X139298228Y-152196541D01*
X139196889Y-152044876D01*
X139127085Y-151876354D01*
X139091500Y-151697453D01*
X139091500Y-151515047D01*
X139127085Y-151336146D01*
X139196889Y-151167624D01*
X139298228Y-151015959D01*
X139427209Y-150886978D01*
X139578874Y-150785639D01*
X139747396Y-150715835D01*
X139926297Y-150680250D01*
X140108703Y-150680250D01*
X140287604Y-150715835D01*
G37*
G36*
X68215104Y-150715835D02*
G01*
X68383626Y-150785639D01*
X68535291Y-150886978D01*
X68664272Y-151015959D01*
X68765611Y-151167624D01*
X68835415Y-151336146D01*
X68871000Y-151515047D01*
X68871000Y-151697453D01*
X68835415Y-151876354D01*
X68765611Y-152044876D01*
X68664272Y-152196541D01*
X68535291Y-152325522D01*
X68383626Y-152426861D01*
X68215104Y-152496665D01*
X68036203Y-152532250D01*
X67853797Y-152532250D01*
X67674896Y-152496665D01*
X67506374Y-152426861D01*
X67354709Y-152325522D01*
X67225728Y-152196541D01*
X67124389Y-152044876D01*
X67054585Y-151876354D01*
X67019000Y-151697453D01*
X67019000Y-151515047D01*
X67054585Y-151336146D01*
X67124389Y-151167624D01*
X67225728Y-151015959D01*
X67354709Y-150886978D01*
X67506374Y-150785639D01*
X67674896Y-150715835D01*
X67853797Y-150680250D01*
X68036203Y-150680250D01*
X68215104Y-150715835D01*
G37*
G36*
X49165104Y-150715835D02*
G01*
X49333626Y-150785639D01*
X49485291Y-150886978D01*
X49614272Y-151015959D01*
X49715611Y-151167624D01*
X49785415Y-151336146D01*
X49821000Y-151515047D01*
X49821000Y-151697453D01*
X49785415Y-151876354D01*
X49715611Y-152044876D01*
X49614272Y-152196541D01*
X49485291Y-152325522D01*
X49333626Y-152426861D01*
X49165104Y-152496665D01*
X48986203Y-152532250D01*
X48803797Y-152532250D01*
X48624896Y-152496665D01*
X48456374Y-152426861D01*
X48304709Y-152325522D01*
X48175728Y-152196541D01*
X48074389Y-152044876D01*
X48004585Y-151876354D01*
X47969000Y-151697453D01*
X47969000Y-151515047D01*
X48004585Y-151336146D01*
X48074389Y-151167624D01*
X48175728Y-151015959D01*
X48304709Y-150886978D01*
X48456374Y-150785639D01*
X48624896Y-150715835D01*
X48803797Y-150680250D01*
X48986203Y-150680250D01*
X49165104Y-150715835D01*
G37*
G36*
X59325104Y-150715835D02*
G01*
X59493626Y-150785639D01*
X59645291Y-150886978D01*
X59774272Y-151015959D01*
X59875611Y-151167624D01*
X59945415Y-151336146D01*
X59981000Y-151515047D01*
X59981000Y-151697453D01*
X59945415Y-151876354D01*
X59875611Y-152044876D01*
X59774272Y-152196541D01*
X59645291Y-152325522D01*
X59493626Y-152426861D01*
X59325104Y-152496665D01*
X59146203Y-152532250D01*
X58963797Y-152532250D01*
X58784896Y-152496665D01*
X58616374Y-152426861D01*
X58464709Y-152325522D01*
X58335728Y-152196541D01*
X58234389Y-152044876D01*
X58164585Y-151876354D01*
X58129000Y-151697453D01*
X58129000Y-151515047D01*
X58164585Y-151336146D01*
X58234389Y-151167624D01*
X58335728Y-151015959D01*
X58464709Y-150886978D01*
X58616374Y-150785639D01*
X58784896Y-150715835D01*
X58963797Y-150680250D01*
X59146203Y-150680250D01*
X59325104Y-150715835D01*
G37*
G36*
X95052724Y-141384934D02*
G01*
X95270724Y-141475233D01*
X95424873Y-141539083D01*
X95759798Y-141762873D01*
X96044627Y-142047702D01*
X96268417Y-142382627D01*
X96268417Y-142382628D01*
X96422566Y-142754776D01*
X96501150Y-143149844D01*
X96501150Y-143552656D01*
X96422566Y-143947724D01*
X96381210Y-144047565D01*
X96268417Y-144319873D01*
X96044627Y-144654798D01*
X95759798Y-144939627D01*
X95424873Y-145163417D01*
X95270724Y-145227267D01*
X95052724Y-145317566D01*
X94657656Y-145396150D01*
X94254844Y-145396150D01*
X93859776Y-145317566D01*
X93641776Y-145227267D01*
X93487627Y-145163417D01*
X93152702Y-144939627D01*
X92867873Y-144654798D01*
X92644083Y-144319873D01*
X92531290Y-144047565D01*
X92489934Y-143947724D01*
X92411350Y-143552656D01*
X92411350Y-143149844D01*
X92489934Y-142754776D01*
X92644083Y-142382628D01*
X92644083Y-142382627D01*
X92867873Y-142047702D01*
X93152702Y-141762873D01*
X93487627Y-141539083D01*
X93641776Y-141475233D01*
X93859776Y-141384934D01*
X94254844Y-141306350D01*
X94657656Y-141306350D01*
X95052724Y-141384934D01*
G37*
G36*
X118865224Y-141384934D02*
G01*
X119083224Y-141475233D01*
X119237373Y-141539083D01*
X119572298Y-141762873D01*
X119857127Y-142047702D01*
X120080917Y-142382627D01*
X120080917Y-142382628D01*
X120235066Y-142754776D01*
X120313650Y-143149844D01*
X120313650Y-143552656D01*
X120235066Y-143947724D01*
X120193710Y-144047565D01*
X120080917Y-144319873D01*
X119857127Y-144654798D01*
X119572298Y-144939627D01*
X119237373Y-145163417D01*
X119083224Y-145227267D01*
X118865224Y-145317566D01*
X118470156Y-145396150D01*
X118067344Y-145396150D01*
X117672276Y-145317566D01*
X117454276Y-145227267D01*
X117300127Y-145163417D01*
X116965202Y-144939627D01*
X116680373Y-144654798D01*
X116456583Y-144319873D01*
X116343790Y-144047565D01*
X116302434Y-143947724D01*
X116223850Y-143552656D01*
X116223850Y-143149844D01*
X116302434Y-142754776D01*
X116456583Y-142382628D01*
X116456583Y-142382627D01*
X116680373Y-142047702D01*
X116965202Y-141762873D01*
X117300127Y-141539083D01*
X117454276Y-141475233D01*
X117672276Y-141384934D01*
X118067344Y-141306350D01*
X118470156Y-141306350D01*
X118865224Y-141384934D01*
G37*
G36*
X154583974Y-140114934D02*
G01*
X154801974Y-140205233D01*
X154956123Y-140269083D01*
X155291048Y-140492873D01*
X155575877Y-140777702D01*
X155799667Y-141112627D01*
X155832062Y-141190836D01*
X155953816Y-141484776D01*
X156032400Y-141879844D01*
X156032400Y-142282656D01*
X155953816Y-142677724D01*
X155902951Y-142800522D01*
X155799667Y-143049873D01*
X155575877Y-143384798D01*
X155291048Y-143669627D01*
X154956123Y-143893417D01*
X154825014Y-143947724D01*
X154583974Y-144047566D01*
X154188906Y-144126150D01*
X153786094Y-144126150D01*
X153391026Y-144047566D01*
X153149986Y-143947724D01*
X153018877Y-143893417D01*
X152683952Y-143669627D01*
X152399123Y-143384798D01*
X152175333Y-143049873D01*
X152072049Y-142800522D01*
X152021184Y-142677724D01*
X151942600Y-142282656D01*
X151942600Y-141879844D01*
X152021184Y-141484776D01*
X152142938Y-141190836D01*
X152175333Y-141112627D01*
X152399123Y-140777702D01*
X152683952Y-140492873D01*
X153018877Y-140269083D01*
X153173026Y-140205233D01*
X153391026Y-140114934D01*
X153786094Y-140036350D01*
X154188906Y-140036350D01*
X154583974Y-140114934D01*
G37*
G36*
X149177604Y-141190835D02*
G01*
X149346126Y-141260639D01*
X149497791Y-141361978D01*
X149626772Y-141490959D01*
X149728111Y-141642624D01*
X149797915Y-141811146D01*
X149833500Y-141990047D01*
X149833500Y-142172453D01*
X149797915Y-142351354D01*
X149728111Y-142519876D01*
X149626772Y-142671541D01*
X149497791Y-142800522D01*
X149346126Y-142901861D01*
X149177604Y-142971665D01*
X148998703Y-143007250D01*
X148816297Y-143007250D01*
X148637396Y-142971665D01*
X148468874Y-142901861D01*
X148317209Y-142800522D01*
X148188228Y-142671541D01*
X148086889Y-142519876D01*
X148017085Y-142351354D01*
X147981500Y-142172453D01*
X147981500Y-141990047D01*
X148017085Y-141811146D01*
X148086889Y-141642624D01*
X148188228Y-141490959D01*
X148317209Y-141361978D01*
X148468874Y-141260639D01*
X148637396Y-141190835D01*
X148816297Y-141155250D01*
X148998703Y-141155250D01*
X149177604Y-141190835D01*
G37*
G36*
X159337604Y-141190835D02*
G01*
X159506126Y-141260639D01*
X159657791Y-141361978D01*
X159786772Y-141490959D01*
X159888111Y-141642624D01*
X159957915Y-141811146D01*
X159993500Y-141990047D01*
X159993500Y-142172453D01*
X159957915Y-142351354D01*
X159888111Y-142519876D01*
X159786772Y-142671541D01*
X159657791Y-142800522D01*
X159506126Y-142901861D01*
X159337604Y-142971665D01*
X159158703Y-143007250D01*
X158976297Y-143007250D01*
X158797396Y-142971665D01*
X158628874Y-142901861D01*
X158477209Y-142800522D01*
X158348228Y-142671541D01*
X158246889Y-142519876D01*
X158177085Y-142351354D01*
X158141500Y-142172453D01*
X158141500Y-141990047D01*
X158177085Y-141811146D01*
X158246889Y-141642624D01*
X158348228Y-141490959D01*
X158477209Y-141361978D01*
X158628874Y-141260639D01*
X158797396Y-141190835D01*
X158976297Y-141155250D01*
X159158703Y-141155250D01*
X159337604Y-141190835D01*
G37*
G36*
X54571474Y-130589934D02*
G01*
X54789474Y-130680233D01*
X54943623Y-130744083D01*
X55278548Y-130967873D01*
X55563377Y-131252702D01*
X55787167Y-131587627D01*
X55819562Y-131665836D01*
X55941316Y-131959776D01*
X56019900Y-132354844D01*
X56019900Y-132757656D01*
X55941316Y-133152724D01*
X55890451Y-133275522D01*
X55787167Y-133524873D01*
X55563377Y-133859798D01*
X55278548Y-134144627D01*
X54943623Y-134368417D01*
X54789474Y-134432267D01*
X54571474Y-134522566D01*
X54176406Y-134601150D01*
X53773594Y-134601150D01*
X53378526Y-134522566D01*
X53160526Y-134432267D01*
X53006377Y-134368417D01*
X52671452Y-134144627D01*
X52386623Y-133859798D01*
X52162833Y-133524873D01*
X52059549Y-133275522D01*
X52008684Y-133152724D01*
X51930100Y-132757656D01*
X51930100Y-132354844D01*
X52008684Y-131959776D01*
X52130438Y-131665836D01*
X52162833Y-131587627D01*
X52386623Y-131252702D01*
X52671452Y-130967873D01*
X53006377Y-130744083D01*
X53160526Y-130680233D01*
X53378526Y-130589934D01*
X53773594Y-130511350D01*
X54176406Y-130511350D01*
X54571474Y-130589934D01*
G37*
G36*
X135533974Y-130589934D02*
G01*
X135751974Y-130680233D01*
X135906123Y-130744083D01*
X136241048Y-130967873D01*
X136525877Y-131252702D01*
X136749667Y-131587627D01*
X136782062Y-131665836D01*
X136903816Y-131959776D01*
X136982400Y-132354844D01*
X136982400Y-132757656D01*
X136903816Y-133152724D01*
X136852951Y-133275522D01*
X136749667Y-133524873D01*
X136525877Y-133859798D01*
X136241048Y-134144627D01*
X135906123Y-134368417D01*
X135751974Y-134432267D01*
X135533974Y-134522566D01*
X135138906Y-134601150D01*
X134736094Y-134601150D01*
X134341026Y-134522566D01*
X134123026Y-134432267D01*
X133968877Y-134368417D01*
X133633952Y-134144627D01*
X133349123Y-133859798D01*
X133125333Y-133524873D01*
X133022049Y-133275522D01*
X132971184Y-133152724D01*
X132892600Y-132757656D01*
X132892600Y-132354844D01*
X132971184Y-131959776D01*
X133092938Y-131665836D01*
X133125333Y-131587627D01*
X133349123Y-131252702D01*
X133633952Y-130967873D01*
X133968877Y-130744083D01*
X134123026Y-130680233D01*
X134341026Y-130589934D01*
X134736094Y-130511350D01*
X135138906Y-130511350D01*
X135533974Y-130589934D01*
G37*
G36*
X116483974Y-130589934D02*
G01*
X116701974Y-130680233D01*
X116856123Y-130744083D01*
X117191048Y-130967873D01*
X117475877Y-131252702D01*
X117699667Y-131587627D01*
X117732062Y-131665836D01*
X117853816Y-131959776D01*
X117932400Y-132354844D01*
X117932400Y-132757656D01*
X117853816Y-133152724D01*
X117802951Y-133275522D01*
X117699667Y-133524873D01*
X117475877Y-133859798D01*
X117191048Y-134144627D01*
X116856123Y-134368417D01*
X116701974Y-134432267D01*
X116483974Y-134522566D01*
X116088906Y-134601150D01*
X115686094Y-134601150D01*
X115291026Y-134522566D01*
X115073026Y-134432267D01*
X114918877Y-134368417D01*
X114583952Y-134144627D01*
X114299123Y-133859798D01*
X114075333Y-133524873D01*
X113972049Y-133275522D01*
X113921184Y-133152724D01*
X113842600Y-132757656D01*
X113842600Y-132354844D01*
X113921184Y-131959776D01*
X114042938Y-131665836D01*
X114075333Y-131587627D01*
X114299123Y-131252702D01*
X114583952Y-130967873D01*
X114918877Y-130744083D01*
X115073026Y-130680233D01*
X115291026Y-130589934D01*
X115686094Y-130511350D01*
X116088906Y-130511350D01*
X116483974Y-130589934D01*
G37*
G36*
X97433974Y-130589934D02*
G01*
X97651974Y-130680233D01*
X97806123Y-130744083D01*
X98141048Y-130967873D01*
X98425877Y-131252702D01*
X98649667Y-131587627D01*
X98682062Y-131665836D01*
X98803816Y-131959776D01*
X98882400Y-132354844D01*
X98882400Y-132757656D01*
X98803816Y-133152724D01*
X98752951Y-133275522D01*
X98649667Y-133524873D01*
X98425877Y-133859798D01*
X98141048Y-134144627D01*
X97806123Y-134368417D01*
X97651974Y-134432267D01*
X97433974Y-134522566D01*
X97038906Y-134601150D01*
X96636094Y-134601150D01*
X96241026Y-134522566D01*
X96023026Y-134432267D01*
X95868877Y-134368417D01*
X95533952Y-134144627D01*
X95249123Y-133859798D01*
X95025333Y-133524873D01*
X94922049Y-133275522D01*
X94871184Y-133152724D01*
X94792600Y-132757656D01*
X94792600Y-132354844D01*
X94871184Y-131959776D01*
X94992938Y-131665836D01*
X95025333Y-131587627D01*
X95249123Y-131252702D01*
X95533952Y-130967873D01*
X95868877Y-130744083D01*
X96023026Y-130680233D01*
X96241026Y-130589934D01*
X96636094Y-130511350D01*
X97038906Y-130511350D01*
X97433974Y-130589934D01*
G37*
G36*
X73621474Y-130589934D02*
G01*
X73839474Y-130680233D01*
X73993623Y-130744083D01*
X74328548Y-130967873D01*
X74613377Y-131252702D01*
X74837167Y-131587627D01*
X74869562Y-131665836D01*
X74991316Y-131959776D01*
X75069900Y-132354844D01*
X75069900Y-132757656D01*
X74991316Y-133152724D01*
X74940451Y-133275522D01*
X74837167Y-133524873D01*
X74613377Y-133859798D01*
X74328548Y-134144627D01*
X73993623Y-134368417D01*
X73839474Y-134432267D01*
X73621474Y-134522566D01*
X73226406Y-134601150D01*
X72823594Y-134601150D01*
X72428526Y-134522566D01*
X72210526Y-134432267D01*
X72056377Y-134368417D01*
X71721452Y-134144627D01*
X71436623Y-133859798D01*
X71212833Y-133524873D01*
X71109549Y-133275522D01*
X71058684Y-133152724D01*
X70980100Y-132757656D01*
X70980100Y-132354844D01*
X71058684Y-131959776D01*
X71180438Y-131665836D01*
X71212833Y-131587627D01*
X71436623Y-131252702D01*
X71721452Y-130967873D01*
X72056377Y-130744083D01*
X72210526Y-130680233D01*
X72428526Y-130589934D01*
X72823594Y-130511350D01*
X73226406Y-130511350D01*
X73621474Y-130589934D01*
G37*
G36*
X59325104Y-131665835D02*
G01*
X59493626Y-131735639D01*
X59645291Y-131836978D01*
X59774272Y-131965959D01*
X59875611Y-132117624D01*
X59945415Y-132286146D01*
X59981000Y-132465047D01*
X59981000Y-132647453D01*
X59945415Y-132826354D01*
X59875611Y-132994876D01*
X59774272Y-133146541D01*
X59645291Y-133275522D01*
X59493626Y-133376861D01*
X59325104Y-133446665D01*
X59146203Y-133482250D01*
X58963797Y-133482250D01*
X58784896Y-133446665D01*
X58616374Y-133376861D01*
X58464709Y-133275522D01*
X58335728Y-133146541D01*
X58234389Y-132994876D01*
X58164585Y-132826354D01*
X58129000Y-132647453D01*
X58129000Y-132465047D01*
X58164585Y-132286146D01*
X58234389Y-132117624D01*
X58335728Y-131965959D01*
X58464709Y-131836978D01*
X58616374Y-131735639D01*
X58784896Y-131665835D01*
X58963797Y-131630250D01*
X59146203Y-131630250D01*
X59325104Y-131665835D01*
G37*
G36*
X68215104Y-131665835D02*
G01*
X68383626Y-131735639D01*
X68535291Y-131836978D01*
X68664272Y-131965959D01*
X68765611Y-132117624D01*
X68835415Y-132286146D01*
X68871000Y-132465047D01*
X68871000Y-132647453D01*
X68835415Y-132826354D01*
X68765611Y-132994876D01*
X68664272Y-133146541D01*
X68535291Y-133275522D01*
X68383626Y-133376861D01*
X68215104Y-133446665D01*
X68036203Y-133482250D01*
X67853797Y-133482250D01*
X67674896Y-133446665D01*
X67506374Y-133376861D01*
X67354709Y-133275522D01*
X67225728Y-133146541D01*
X67124389Y-132994876D01*
X67054585Y-132826354D01*
X67019000Y-132647453D01*
X67019000Y-132465047D01*
X67054585Y-132286146D01*
X67124389Y-132117624D01*
X67225728Y-131965959D01*
X67354709Y-131836978D01*
X67506374Y-131735639D01*
X67674896Y-131665835D01*
X67853797Y-131630250D01*
X68036203Y-131630250D01*
X68215104Y-131665835D01*
G37*
G36*
X78375104Y-131665835D02*
G01*
X78543626Y-131735639D01*
X78695291Y-131836978D01*
X78824272Y-131965959D01*
X78925611Y-132117624D01*
X78995415Y-132286146D01*
X79031000Y-132465047D01*
X79031000Y-132647453D01*
X78995415Y-132826354D01*
X78925611Y-132994876D01*
X78824272Y-133146541D01*
X78695291Y-133275522D01*
X78543626Y-133376861D01*
X78375104Y-133446665D01*
X78196203Y-133482250D01*
X78013797Y-133482250D01*
X77834896Y-133446665D01*
X77666374Y-133376861D01*
X77514709Y-133275522D01*
X77385728Y-133146541D01*
X77284389Y-132994876D01*
X77214585Y-132826354D01*
X77179000Y-132647453D01*
X77179000Y-132465047D01*
X77214585Y-132286146D01*
X77284389Y-132117624D01*
X77385728Y-131965959D01*
X77514709Y-131836978D01*
X77666374Y-131735639D01*
X77834896Y-131665835D01*
X78013797Y-131630250D01*
X78196203Y-131630250D01*
X78375104Y-131665835D01*
G37*
G36*
X92027604Y-131665835D02*
G01*
X92196126Y-131735639D01*
X92347791Y-131836978D01*
X92476772Y-131965959D01*
X92578111Y-132117624D01*
X92647915Y-132286146D01*
X92683500Y-132465047D01*
X92683500Y-132647453D01*
X92647915Y-132826354D01*
X92578111Y-132994876D01*
X92476772Y-133146541D01*
X92347791Y-133275522D01*
X92196126Y-133376861D01*
X92027604Y-133446665D01*
X91848703Y-133482250D01*
X91666297Y-133482250D01*
X91487396Y-133446665D01*
X91318874Y-133376861D01*
X91167209Y-133275522D01*
X91038228Y-133146541D01*
X90936889Y-132994876D01*
X90867085Y-132826354D01*
X90831500Y-132647453D01*
X90831500Y-132465047D01*
X90867085Y-132286146D01*
X90936889Y-132117624D01*
X91038228Y-131965959D01*
X91167209Y-131836978D01*
X91318874Y-131735639D01*
X91487396Y-131665835D01*
X91666297Y-131630250D01*
X91848703Y-131630250D01*
X92027604Y-131665835D01*
G37*
G36*
X102187604Y-131665835D02*
G01*
X102356126Y-131735639D01*
X102507791Y-131836978D01*
X102636772Y-131965959D01*
X102738111Y-132117624D01*
X102807915Y-132286146D01*
X102843500Y-132465047D01*
X102843500Y-132647453D01*
X102807915Y-132826354D01*
X102738111Y-132994876D01*
X102636772Y-133146541D01*
X102507791Y-133275522D01*
X102356126Y-133376861D01*
X102187604Y-133446665D01*
X102008703Y-133482250D01*
X101826297Y-133482250D01*
X101647396Y-133446665D01*
X101478874Y-133376861D01*
X101327209Y-133275522D01*
X101198228Y-133146541D01*
X101096889Y-132994876D01*
X101027085Y-132826354D01*
X100991500Y-132647453D01*
X100991500Y-132465047D01*
X101027085Y-132286146D01*
X101096889Y-132117624D01*
X101198228Y-131965959D01*
X101327209Y-131836978D01*
X101478874Y-131735639D01*
X101647396Y-131665835D01*
X101826297Y-131630250D01*
X102008703Y-131630250D01*
X102187604Y-131665835D01*
G37*
G36*
X121237604Y-131665835D02*
G01*
X121406126Y-131735639D01*
X121557791Y-131836978D01*
X121686772Y-131965959D01*
X121788111Y-132117624D01*
X121857915Y-132286146D01*
X121893500Y-132465047D01*
X121893500Y-132647453D01*
X121857915Y-132826354D01*
X121788111Y-132994876D01*
X121686772Y-133146541D01*
X121557791Y-133275522D01*
X121406126Y-133376861D01*
X121237604Y-133446665D01*
X121058703Y-133482250D01*
X120876297Y-133482250D01*
X120697396Y-133446665D01*
X120528874Y-133376861D01*
X120377209Y-133275522D01*
X120248228Y-133146541D01*
X120146889Y-132994876D01*
X120077085Y-132826354D01*
X120041500Y-132647453D01*
X120041500Y-132465047D01*
X120077085Y-132286146D01*
X120146889Y-132117624D01*
X120248228Y-131965959D01*
X120377209Y-131836978D01*
X120528874Y-131735639D01*
X120697396Y-131665835D01*
X120876297Y-131630250D01*
X121058703Y-131630250D01*
X121237604Y-131665835D01*
G37*
G36*
X130127604Y-131665835D02*
G01*
X130296126Y-131735639D01*
X130447791Y-131836978D01*
X130576772Y-131965959D01*
X130678111Y-132117624D01*
X130747915Y-132286146D01*
X130783500Y-132465047D01*
X130783500Y-132647453D01*
X130747915Y-132826354D01*
X130678111Y-132994876D01*
X130576772Y-133146541D01*
X130447791Y-133275522D01*
X130296126Y-133376861D01*
X130127604Y-133446665D01*
X129948703Y-133482250D01*
X129766297Y-133482250D01*
X129587396Y-133446665D01*
X129418874Y-133376861D01*
X129267209Y-133275522D01*
X129138228Y-133146541D01*
X129036889Y-132994876D01*
X128967085Y-132826354D01*
X128931500Y-132647453D01*
X128931500Y-132465047D01*
X128967085Y-132286146D01*
X129036889Y-132117624D01*
X129138228Y-131965959D01*
X129267209Y-131836978D01*
X129418874Y-131735639D01*
X129587396Y-131665835D01*
X129766297Y-131630250D01*
X129948703Y-131630250D01*
X130127604Y-131665835D01*
G37*
G36*
X140287604Y-131665835D02*
G01*
X140456126Y-131735639D01*
X140607791Y-131836978D01*
X140736772Y-131965959D01*
X140838111Y-132117624D01*
X140907915Y-132286146D01*
X140943500Y-132465047D01*
X140943500Y-132647453D01*
X140907915Y-132826354D01*
X140838111Y-132994876D01*
X140736772Y-133146541D01*
X140607791Y-133275522D01*
X140456126Y-133376861D01*
X140287604Y-133446665D01*
X140108703Y-133482250D01*
X139926297Y-133482250D01*
X139747396Y-133446665D01*
X139578874Y-133376861D01*
X139427209Y-133275522D01*
X139298228Y-133146541D01*
X139196889Y-132994876D01*
X139127085Y-132826354D01*
X139091500Y-132647453D01*
X139091500Y-132465047D01*
X139127085Y-132286146D01*
X139196889Y-132117624D01*
X139298228Y-131965959D01*
X139427209Y-131836978D01*
X139578874Y-131735639D01*
X139747396Y-131665835D01*
X139926297Y-131630250D01*
X140108703Y-131630250D01*
X140287604Y-131665835D01*
G37*
G36*
X49165104Y-131665835D02*
G01*
X49333626Y-131735639D01*
X49485291Y-131836978D01*
X49614272Y-131965959D01*
X49715611Y-132117624D01*
X49785415Y-132286146D01*
X49821000Y-132465047D01*
X49821000Y-132647453D01*
X49785415Y-132826354D01*
X49715611Y-132994876D01*
X49614272Y-133146541D01*
X49485291Y-133275522D01*
X49333626Y-133376861D01*
X49165104Y-133446665D01*
X48986203Y-133482250D01*
X48803797Y-133482250D01*
X48624896Y-133446665D01*
X48456374Y-133376861D01*
X48304709Y-133275522D01*
X48175728Y-133146541D01*
X48074389Y-132994876D01*
X48004585Y-132826354D01*
X47969000Y-132647453D01*
X47969000Y-132465047D01*
X48004585Y-132286146D01*
X48074389Y-132117624D01*
X48175728Y-131965959D01*
X48304709Y-131836978D01*
X48456374Y-131735639D01*
X48624896Y-131665835D01*
X48803797Y-131630250D01*
X48986203Y-131630250D01*
X49165104Y-131665835D01*
G37*
G36*
X111077604Y-131665835D02*
G01*
X111246126Y-131735639D01*
X111397791Y-131836978D01*
X111526772Y-131965959D01*
X111628111Y-132117624D01*
X111697915Y-132286146D01*
X111733500Y-132465047D01*
X111733500Y-132647453D01*
X111697915Y-132826354D01*
X111628111Y-132994876D01*
X111526772Y-133146541D01*
X111397791Y-133275522D01*
X111246126Y-133376861D01*
X111077604Y-133446665D01*
X110898703Y-133482250D01*
X110716297Y-133482250D01*
X110537396Y-133446665D01*
X110368874Y-133376861D01*
X110217209Y-133275522D01*
X110088228Y-133146541D01*
X109986889Y-132994876D01*
X109917085Y-132826354D01*
X109881500Y-132647453D01*
X109881500Y-132465047D01*
X109917085Y-132286146D01*
X109986889Y-132117624D01*
X110088228Y-131965959D01*
X110217209Y-131836978D01*
X110368874Y-131735639D01*
X110537396Y-131665835D01*
X110716297Y-131630250D01*
X110898703Y-131630250D01*
X111077604Y-131665835D01*
G37*
G36*
X146328974Y-128208684D02*
G01*
X146546974Y-128298983D01*
X146701123Y-128362833D01*
X147036048Y-128586623D01*
X147320877Y-128871452D01*
X147544667Y-129206377D01*
X147544667Y-129206378D01*
X147698816Y-129578526D01*
X147777400Y-129973594D01*
X147777400Y-130376406D01*
X147698816Y-130771474D01*
X147636863Y-130921041D01*
X147544667Y-131143623D01*
X147320877Y-131478548D01*
X147036048Y-131763377D01*
X146701123Y-131987167D01*
X146546974Y-132051017D01*
X146328974Y-132141316D01*
X145933906Y-132219900D01*
X145531094Y-132219900D01*
X145136026Y-132141316D01*
X144918026Y-132051017D01*
X144763877Y-131987167D01*
X144428952Y-131763377D01*
X144144123Y-131478548D01*
X143920333Y-131143623D01*
X143828137Y-130921041D01*
X143766184Y-130771474D01*
X143687600Y-130376406D01*
X143687600Y-129973594D01*
X143766184Y-129578526D01*
X143920333Y-129206378D01*
X143920333Y-129206377D01*
X144144123Y-128871452D01*
X144428952Y-128586623D01*
X144763877Y-128362833D01*
X144918026Y-128298983D01*
X145136026Y-128208684D01*
X145531094Y-128130100D01*
X145933906Y-128130100D01*
X146328974Y-128208684D01*
G37*
G36*
X161279767Y-128630263D02*
G01*
X161431911Y-128660526D01*
X161550637Y-128709704D01*
X161718541Y-128779252D01*
X161718542Y-128779253D01*
X161976504Y-128951617D01*
X162195883Y-129170996D01*
X162219524Y-129206378D01*
X162368248Y-129428959D01*
X162486974Y-129715590D01*
X162547500Y-130019875D01*
X162547500Y-130330125D01*
X162486974Y-130634410D01*
X162368248Y-130921041D01*
X162368247Y-130921042D01*
X162195883Y-131179004D01*
X161976504Y-131398383D01*
X161856528Y-131478548D01*
X161718541Y-131570748D01*
X161574890Y-131630250D01*
X161431911Y-131689474D01*
X161127625Y-131750000D01*
X160817375Y-131750000D01*
X160513089Y-131689474D01*
X160370110Y-131630250D01*
X160226459Y-131570748D01*
X160088472Y-131478548D01*
X159968496Y-131398383D01*
X159749117Y-131179004D01*
X159576753Y-130921042D01*
X159576752Y-130921041D01*
X159458026Y-130634410D01*
X159397500Y-130330125D01*
X159397500Y-130019875D01*
X159458026Y-129715590D01*
X159576752Y-129428959D01*
X159725476Y-129206378D01*
X159749117Y-129170996D01*
X159968496Y-128951617D01*
X160226458Y-128779253D01*
X160226459Y-128779252D01*
X160394363Y-128709704D01*
X160513089Y-128660526D01*
X160665233Y-128630263D01*
X160817375Y-128600000D01*
X161127625Y-128600000D01*
X161279767Y-128630263D01*
G37*
G36*
X146328974Y-113921184D02*
G01*
X146546974Y-114011483D01*
X146701123Y-114075333D01*
X147036048Y-114299123D01*
X147320877Y-114583952D01*
X147544667Y-114918877D01*
X147544667Y-114918878D01*
X147698816Y-115291026D01*
X147777400Y-115686094D01*
X147777400Y-116088906D01*
X147698816Y-116483974D01*
X147636863Y-116633541D01*
X147544667Y-116856123D01*
X147320877Y-117191048D01*
X147036048Y-117475877D01*
X146701123Y-117699667D01*
X146546974Y-117763517D01*
X146328974Y-117853816D01*
X145933906Y-117932400D01*
X145531094Y-117932400D01*
X145136026Y-117853816D01*
X144918026Y-117763517D01*
X144763877Y-117699667D01*
X144428952Y-117475877D01*
X144144123Y-117191048D01*
X143920333Y-116856123D01*
X143828137Y-116633541D01*
X143766184Y-116483974D01*
X143687600Y-116088906D01*
X143687600Y-115686094D01*
X143766184Y-115291026D01*
X143920333Y-114918878D01*
X143920333Y-114918877D01*
X144144123Y-114583952D01*
X144428952Y-114299123D01*
X144763877Y-114075333D01*
X144918026Y-114011483D01*
X145136026Y-113921184D01*
X145531094Y-113842600D01*
X145933906Y-113842600D01*
X146328974Y-113921184D01*
G37*
G36*
X161431911Y-114373026D02*
G01*
X161488980Y-114396665D01*
X161718541Y-114491752D01*
X161718542Y-114491753D01*
X161976504Y-114664117D01*
X162195883Y-114883496D01*
X162219524Y-114918878D01*
X162368248Y-115141459D01*
X162486974Y-115428090D01*
X162547500Y-115732375D01*
X162547500Y-116042625D01*
X162486974Y-116346910D01*
X162368248Y-116633541D01*
X162368247Y-116633542D01*
X162195883Y-116891504D01*
X161976504Y-117110883D01*
X161856528Y-117191048D01*
X161718541Y-117283248D01*
X161550637Y-117352796D01*
X161431911Y-117401974D01*
X161279767Y-117432237D01*
X161127625Y-117462500D01*
X160817375Y-117462500D01*
X160665233Y-117432237D01*
X160513089Y-117401974D01*
X160394363Y-117352796D01*
X160226459Y-117283248D01*
X160088472Y-117191048D01*
X159968496Y-117110883D01*
X159749117Y-116891504D01*
X159576753Y-116633542D01*
X159576752Y-116633541D01*
X159458026Y-116346910D01*
X159397500Y-116042625D01*
X159397500Y-115732375D01*
X159458026Y-115428090D01*
X159576752Y-115141459D01*
X159725476Y-114918878D01*
X159749117Y-114883496D01*
X159968496Y-114664117D01*
X160226458Y-114491753D01*
X160226459Y-114491752D01*
X160456020Y-114396665D01*
X160513089Y-114373026D01*
X160817375Y-114312500D01*
X161127625Y-114312500D01*
X161431911Y-114373026D01*
G37*
G36*
X73621474Y-111539934D02*
G01*
X73839474Y-111630233D01*
X73993623Y-111694083D01*
X74328548Y-111917873D01*
X74613377Y-112202702D01*
X74837167Y-112537627D01*
X74869562Y-112615836D01*
X74991316Y-112909776D01*
X75069900Y-113304844D01*
X75069900Y-113707656D01*
X74991316Y-114102724D01*
X74940451Y-114225522D01*
X74837167Y-114474873D01*
X74613377Y-114809798D01*
X74328548Y-115094627D01*
X73993623Y-115318417D01*
X73839474Y-115382267D01*
X73621474Y-115472566D01*
X73226406Y-115551150D01*
X72823594Y-115551150D01*
X72428526Y-115472566D01*
X72210526Y-115382267D01*
X72056377Y-115318417D01*
X71721452Y-115094627D01*
X71436623Y-114809798D01*
X71212833Y-114474873D01*
X71109549Y-114225522D01*
X71058684Y-114102724D01*
X70980100Y-113707656D01*
X70980100Y-113304844D01*
X71058684Y-112909776D01*
X71180438Y-112615836D01*
X71212833Y-112537627D01*
X71436623Y-112202702D01*
X71721452Y-111917873D01*
X72056377Y-111694083D01*
X72210526Y-111630233D01*
X72428526Y-111539934D01*
X72823594Y-111461350D01*
X73226406Y-111461350D01*
X73621474Y-111539934D01*
G37*
G36*
X135533974Y-111539934D02*
G01*
X135751974Y-111630233D01*
X135906123Y-111694083D01*
X136241048Y-111917873D01*
X136525877Y-112202702D01*
X136749667Y-112537627D01*
X136782062Y-112615836D01*
X136903816Y-112909776D01*
X136982400Y-113304844D01*
X136982400Y-113707656D01*
X136903816Y-114102724D01*
X136852951Y-114225522D01*
X136749667Y-114474873D01*
X136525877Y-114809798D01*
X136241048Y-115094627D01*
X135906123Y-115318417D01*
X135751974Y-115382267D01*
X135533974Y-115472566D01*
X135138906Y-115551150D01*
X134736094Y-115551150D01*
X134341026Y-115472566D01*
X134123026Y-115382267D01*
X133968877Y-115318417D01*
X133633952Y-115094627D01*
X133349123Y-114809798D01*
X133125333Y-114474873D01*
X133022049Y-114225522D01*
X132971184Y-114102724D01*
X132892600Y-113707656D01*
X132892600Y-113304844D01*
X132971184Y-112909776D01*
X133092938Y-112615836D01*
X133125333Y-112537627D01*
X133349123Y-112202702D01*
X133633952Y-111917873D01*
X133968877Y-111694083D01*
X134123026Y-111630233D01*
X134341026Y-111539934D01*
X134736094Y-111461350D01*
X135138906Y-111461350D01*
X135533974Y-111539934D01*
G37*
G36*
X116483974Y-111539934D02*
G01*
X116701974Y-111630233D01*
X116856123Y-111694083D01*
X117191048Y-111917873D01*
X117475877Y-112202702D01*
X117699667Y-112537627D01*
X117732062Y-112615836D01*
X117853816Y-112909776D01*
X117932400Y-113304844D01*
X117932400Y-113707656D01*
X117853816Y-114102724D01*
X117802951Y-114225522D01*
X117699667Y-114474873D01*
X117475877Y-114809798D01*
X117191048Y-115094627D01*
X116856123Y-115318417D01*
X116701974Y-115382267D01*
X116483974Y-115472566D01*
X116088906Y-115551150D01*
X115686094Y-115551150D01*
X115291026Y-115472566D01*
X115073026Y-115382267D01*
X114918877Y-115318417D01*
X114583952Y-115094627D01*
X114299123Y-114809798D01*
X114075333Y-114474873D01*
X113972049Y-114225522D01*
X113921184Y-114102724D01*
X113842600Y-113707656D01*
X113842600Y-113304844D01*
X113921184Y-112909776D01*
X114042938Y-112615836D01*
X114075333Y-112537627D01*
X114299123Y-112202702D01*
X114583952Y-111917873D01*
X114918877Y-111694083D01*
X115073026Y-111630233D01*
X115291026Y-111539934D01*
X115686094Y-111461350D01*
X116088906Y-111461350D01*
X116483974Y-111539934D01*
G37*
G36*
X54571474Y-111539934D02*
G01*
X54789474Y-111630233D01*
X54943623Y-111694083D01*
X55278548Y-111917873D01*
X55563377Y-112202702D01*
X55787167Y-112537627D01*
X55819562Y-112615836D01*
X55941316Y-112909776D01*
X56019900Y-113304844D01*
X56019900Y-113707656D01*
X55941316Y-114102724D01*
X55890451Y-114225522D01*
X55787167Y-114474873D01*
X55563377Y-114809798D01*
X55278548Y-115094627D01*
X54943623Y-115318417D01*
X54789474Y-115382267D01*
X54571474Y-115472566D01*
X54176406Y-115551150D01*
X53773594Y-115551150D01*
X53378526Y-115472566D01*
X53160526Y-115382267D01*
X53006377Y-115318417D01*
X52671452Y-115094627D01*
X52386623Y-114809798D01*
X52162833Y-114474873D01*
X52059549Y-114225522D01*
X52008684Y-114102724D01*
X51930100Y-113707656D01*
X51930100Y-113304844D01*
X52008684Y-112909776D01*
X52130438Y-112615836D01*
X52162833Y-112537627D01*
X52386623Y-112202702D01*
X52671452Y-111917873D01*
X53006377Y-111694083D01*
X53160526Y-111630233D01*
X53378526Y-111539934D01*
X53773594Y-111461350D01*
X54176406Y-111461350D01*
X54571474Y-111539934D01*
G37*
G36*
X97433974Y-111539934D02*
G01*
X97651974Y-111630233D01*
X97806123Y-111694083D01*
X98141048Y-111917873D01*
X98425877Y-112202702D01*
X98649667Y-112537627D01*
X98682062Y-112615836D01*
X98803816Y-112909776D01*
X98882400Y-113304844D01*
X98882400Y-113707656D01*
X98803816Y-114102724D01*
X98752951Y-114225522D01*
X98649667Y-114474873D01*
X98425877Y-114809798D01*
X98141048Y-115094627D01*
X97806123Y-115318417D01*
X97651974Y-115382267D01*
X97433974Y-115472566D01*
X97038906Y-115551150D01*
X96636094Y-115551150D01*
X96241026Y-115472566D01*
X96023026Y-115382267D01*
X95868877Y-115318417D01*
X95533952Y-115094627D01*
X95249123Y-114809798D01*
X95025333Y-114474873D01*
X94922049Y-114225522D01*
X94871184Y-114102724D01*
X94792600Y-113707656D01*
X94792600Y-113304844D01*
X94871184Y-112909776D01*
X94992938Y-112615836D01*
X95025333Y-112537627D01*
X95249123Y-112202702D01*
X95533952Y-111917873D01*
X95868877Y-111694083D01*
X96023026Y-111630233D01*
X96241026Y-111539934D01*
X96636094Y-111461350D01*
X97038906Y-111461350D01*
X97433974Y-111539934D01*
G37*
G36*
X140287604Y-112615835D02*
G01*
X140456126Y-112685639D01*
X140607791Y-112786978D01*
X140736772Y-112915959D01*
X140838111Y-113067624D01*
X140907915Y-113236146D01*
X140943500Y-113415047D01*
X140943500Y-113597453D01*
X140907915Y-113776354D01*
X140838111Y-113944876D01*
X140736772Y-114096541D01*
X140607791Y-114225522D01*
X140456126Y-114326861D01*
X140287604Y-114396665D01*
X140108703Y-114432250D01*
X139926297Y-114432250D01*
X139747396Y-114396665D01*
X139578874Y-114326861D01*
X139427209Y-114225522D01*
X139298228Y-114096541D01*
X139196889Y-113944876D01*
X139127085Y-113776354D01*
X139091500Y-113597453D01*
X139091500Y-113415047D01*
X139127085Y-113236146D01*
X139196889Y-113067624D01*
X139298228Y-112915959D01*
X139427209Y-112786978D01*
X139578874Y-112685639D01*
X139747396Y-112615835D01*
X139926297Y-112580250D01*
X140108703Y-112580250D01*
X140287604Y-112615835D01*
G37*
G36*
X130127604Y-112615835D02*
G01*
X130296126Y-112685639D01*
X130447791Y-112786978D01*
X130576772Y-112915959D01*
X130678111Y-113067624D01*
X130747915Y-113236146D01*
X130783500Y-113415047D01*
X130783500Y-113597453D01*
X130747915Y-113776354D01*
X130678111Y-113944876D01*
X130576772Y-114096541D01*
X130447791Y-114225522D01*
X130296126Y-114326861D01*
X130127604Y-114396665D01*
X129948703Y-114432250D01*
X129766297Y-114432250D01*
X129587396Y-114396665D01*
X129418874Y-114326861D01*
X129267209Y-114225522D01*
X129138228Y-114096541D01*
X129036889Y-113944876D01*
X128967085Y-113776354D01*
X128931500Y-113597453D01*
X128931500Y-113415047D01*
X128967085Y-113236146D01*
X129036889Y-113067624D01*
X129138228Y-112915959D01*
X129267209Y-112786978D01*
X129418874Y-112685639D01*
X129587396Y-112615835D01*
X129766297Y-112580250D01*
X129948703Y-112580250D01*
X130127604Y-112615835D01*
G37*
G36*
X121237604Y-112615835D02*
G01*
X121406126Y-112685639D01*
X121557791Y-112786978D01*
X121686772Y-112915959D01*
X121788111Y-113067624D01*
X121857915Y-113236146D01*
X121893500Y-113415047D01*
X121893500Y-113597453D01*
X121857915Y-113776354D01*
X121788111Y-113944876D01*
X121686772Y-114096541D01*
X121557791Y-114225522D01*
X121406126Y-114326861D01*
X121237604Y-114396665D01*
X121058703Y-114432250D01*
X120876297Y-114432250D01*
X120697396Y-114396665D01*
X120528874Y-114326861D01*
X120377209Y-114225522D01*
X120248228Y-114096541D01*
X120146889Y-113944876D01*
X120077085Y-113776354D01*
X120041500Y-113597453D01*
X120041500Y-113415047D01*
X120077085Y-113236146D01*
X120146889Y-113067624D01*
X120248228Y-112915959D01*
X120377209Y-112786978D01*
X120528874Y-112685639D01*
X120697396Y-112615835D01*
X120876297Y-112580250D01*
X121058703Y-112580250D01*
X121237604Y-112615835D01*
G37*
G36*
X102187604Y-112615835D02*
G01*
X102356126Y-112685639D01*
X102507791Y-112786978D01*
X102636772Y-112915959D01*
X102738111Y-113067624D01*
X102807915Y-113236146D01*
X102843500Y-113415047D01*
X102843500Y-113597453D01*
X102807915Y-113776354D01*
X102738111Y-113944876D01*
X102636772Y-114096541D01*
X102507791Y-114225522D01*
X102356126Y-114326861D01*
X102187604Y-114396665D01*
X102008703Y-114432250D01*
X101826297Y-114432250D01*
X101647396Y-114396665D01*
X101478874Y-114326861D01*
X101327209Y-114225522D01*
X101198228Y-114096541D01*
X101096889Y-113944876D01*
X101027085Y-113776354D01*
X100991500Y-113597453D01*
X100991500Y-113415047D01*
X101027085Y-113236146D01*
X101096889Y-113067624D01*
X101198228Y-112915959D01*
X101327209Y-112786978D01*
X101478874Y-112685639D01*
X101647396Y-112615835D01*
X101826297Y-112580250D01*
X102008703Y-112580250D01*
X102187604Y-112615835D01*
G37*
G36*
X78375104Y-112615835D02*
G01*
X78543626Y-112685639D01*
X78695291Y-112786978D01*
X78824272Y-112915959D01*
X78925611Y-113067624D01*
X78995415Y-113236146D01*
X79031000Y-113415047D01*
X79031000Y-113597453D01*
X78995415Y-113776354D01*
X78925611Y-113944876D01*
X78824272Y-114096541D01*
X78695291Y-114225522D01*
X78543626Y-114326861D01*
X78375104Y-114396665D01*
X78196203Y-114432250D01*
X78013797Y-114432250D01*
X77834896Y-114396665D01*
X77666374Y-114326861D01*
X77514709Y-114225522D01*
X77385728Y-114096541D01*
X77284389Y-113944876D01*
X77214585Y-113776354D01*
X77179000Y-113597453D01*
X77179000Y-113415047D01*
X77214585Y-113236146D01*
X77284389Y-113067624D01*
X77385728Y-112915959D01*
X77514709Y-112786978D01*
X77666374Y-112685639D01*
X77834896Y-112615835D01*
X78013797Y-112580250D01*
X78196203Y-112580250D01*
X78375104Y-112615835D01*
G37*
G36*
X68215104Y-112615835D02*
G01*
X68383626Y-112685639D01*
X68535291Y-112786978D01*
X68664272Y-112915959D01*
X68765611Y-113067624D01*
X68835415Y-113236146D01*
X68871000Y-113415047D01*
X68871000Y-113597453D01*
X68835415Y-113776354D01*
X68765611Y-113944876D01*
X68664272Y-114096541D01*
X68535291Y-114225522D01*
X68383626Y-114326861D01*
X68215104Y-114396665D01*
X68036203Y-114432250D01*
X67853797Y-114432250D01*
X67674896Y-114396665D01*
X67506374Y-114326861D01*
X67354709Y-114225522D01*
X67225728Y-114096541D01*
X67124389Y-113944876D01*
X67054585Y-113776354D01*
X67019000Y-113597453D01*
X67019000Y-113415047D01*
X67054585Y-113236146D01*
X67124389Y-113067624D01*
X67225728Y-112915959D01*
X67354709Y-112786978D01*
X67506374Y-112685639D01*
X67674896Y-112615835D01*
X67853797Y-112580250D01*
X68036203Y-112580250D01*
X68215104Y-112615835D01*
G37*
G36*
X92027604Y-112615835D02*
G01*
X92196126Y-112685639D01*
X92347791Y-112786978D01*
X92476772Y-112915959D01*
X92578111Y-113067624D01*
X92647915Y-113236146D01*
X92683500Y-113415047D01*
X92683500Y-113597453D01*
X92647915Y-113776354D01*
X92578111Y-113944876D01*
X92476772Y-114096541D01*
X92347791Y-114225522D01*
X92196126Y-114326861D01*
X92027604Y-114396665D01*
X91848703Y-114432250D01*
X91666297Y-114432250D01*
X91487396Y-114396665D01*
X91318874Y-114326861D01*
X91167209Y-114225522D01*
X91038228Y-114096541D01*
X90936889Y-113944876D01*
X90867085Y-113776354D01*
X90831500Y-113597453D01*
X90831500Y-113415047D01*
X90867085Y-113236146D01*
X90936889Y-113067624D01*
X91038228Y-112915959D01*
X91167209Y-112786978D01*
X91318874Y-112685639D01*
X91487396Y-112615835D01*
X91666297Y-112580250D01*
X91848703Y-112580250D01*
X92027604Y-112615835D01*
G37*
G36*
X111077604Y-112615835D02*
G01*
X111246126Y-112685639D01*
X111397791Y-112786978D01*
X111526772Y-112915959D01*
X111628111Y-113067624D01*
X111697915Y-113236146D01*
X111733500Y-113415047D01*
X111733500Y-113597453D01*
X111697915Y-113776354D01*
X111628111Y-113944876D01*
X111526772Y-114096541D01*
X111397791Y-114225522D01*
X111246126Y-114326861D01*
X111077604Y-114396665D01*
X110898703Y-114432250D01*
X110716297Y-114432250D01*
X110537396Y-114396665D01*
X110368874Y-114326861D01*
X110217209Y-114225522D01*
X110088228Y-114096541D01*
X109986889Y-113944876D01*
X109917085Y-113776354D01*
X109881500Y-113597453D01*
X109881500Y-113415047D01*
X109917085Y-113236146D01*
X109986889Y-113067624D01*
X110088228Y-112915959D01*
X110217209Y-112786978D01*
X110368874Y-112685639D01*
X110537396Y-112615835D01*
X110716297Y-112580250D01*
X110898703Y-112580250D01*
X111077604Y-112615835D01*
G37*
G36*
X59325104Y-112615835D02*
G01*
X59493626Y-112685639D01*
X59645291Y-112786978D01*
X59774272Y-112915959D01*
X59875611Y-113067624D01*
X59945415Y-113236146D01*
X59981000Y-113415047D01*
X59981000Y-113597453D01*
X59945415Y-113776354D01*
X59875611Y-113944876D01*
X59774272Y-114096541D01*
X59645291Y-114225522D01*
X59493626Y-114326861D01*
X59325104Y-114396665D01*
X59146203Y-114432250D01*
X58963797Y-114432250D01*
X58784896Y-114396665D01*
X58616374Y-114326861D01*
X58464709Y-114225522D01*
X58335728Y-114096541D01*
X58234389Y-113944876D01*
X58164585Y-113776354D01*
X58129000Y-113597453D01*
X58129000Y-113415047D01*
X58164585Y-113236146D01*
X58234389Y-113067624D01*
X58335728Y-112915959D01*
X58464709Y-112786978D01*
X58616374Y-112685639D01*
X58784896Y-112615835D01*
X58963797Y-112580250D01*
X59146203Y-112580250D01*
X59325104Y-112615835D01*
G37*
G36*
X49165104Y-112615835D02*
G01*
X49333626Y-112685639D01*
X49485291Y-112786978D01*
X49614272Y-112915959D01*
X49715611Y-113067624D01*
X49785415Y-113236146D01*
X49821000Y-113415047D01*
X49821000Y-113597453D01*
X49785415Y-113776354D01*
X49715611Y-113944876D01*
X49614272Y-114096541D01*
X49485291Y-114225522D01*
X49333626Y-114326861D01*
X49165104Y-114396665D01*
X48986203Y-114432250D01*
X48803797Y-114432250D01*
X48624896Y-114396665D01*
X48456374Y-114326861D01*
X48304709Y-114225522D01*
X48175728Y-114096541D01*
X48074389Y-113944876D01*
X48004585Y-113776354D01*
X47969000Y-113597453D01*
X47969000Y-113415047D01*
X48004585Y-113236146D01*
X48074389Y-113067624D01*
X48175728Y-112915959D01*
X48304709Y-112786978D01*
X48456374Y-112685639D01*
X48624896Y-112615835D01*
X48803797Y-112580250D01*
X48986203Y-112580250D01*
X49165104Y-112615835D01*
G37*
G36*
X154583974Y-102014934D02*
G01*
X154801974Y-102105233D01*
X154956123Y-102169083D01*
X155291048Y-102392873D01*
X155575877Y-102677702D01*
X155799667Y-103012627D01*
X155832062Y-103090836D01*
X155953816Y-103384776D01*
X156032400Y-103779844D01*
X156032400Y-104182656D01*
X155953816Y-104577724D01*
X155902951Y-104700522D01*
X155799667Y-104949873D01*
X155575877Y-105284798D01*
X155291048Y-105569627D01*
X154956123Y-105793417D01*
X154801974Y-105857267D01*
X154583974Y-105947566D01*
X154188906Y-106026150D01*
X153786094Y-106026150D01*
X153391026Y-105947566D01*
X153173026Y-105857267D01*
X153018877Y-105793417D01*
X152683952Y-105569627D01*
X152399123Y-105284798D01*
X152175333Y-104949873D01*
X152072049Y-104700522D01*
X152021184Y-104577724D01*
X151942600Y-104182656D01*
X151942600Y-103779844D01*
X152021184Y-103384776D01*
X152142938Y-103090836D01*
X152175333Y-103012627D01*
X152399123Y-102677702D01*
X152683952Y-102392873D01*
X153018877Y-102169083D01*
X153173026Y-102105233D01*
X153391026Y-102014934D01*
X153786094Y-101936350D01*
X154188906Y-101936350D01*
X154583974Y-102014934D01*
G37*
G36*
X149177604Y-103090835D02*
G01*
X149346126Y-103160639D01*
X149497791Y-103261978D01*
X149626772Y-103390959D01*
X149728111Y-103542624D01*
X149797915Y-103711146D01*
X149833500Y-103890047D01*
X149833500Y-104072453D01*
X149797915Y-104251354D01*
X149728111Y-104419876D01*
X149626772Y-104571541D01*
X149497791Y-104700522D01*
X149346126Y-104801861D01*
X149177604Y-104871665D01*
X148998703Y-104907250D01*
X148816297Y-104907250D01*
X148637396Y-104871665D01*
X148468874Y-104801861D01*
X148317209Y-104700522D01*
X148188228Y-104571541D01*
X148086889Y-104419876D01*
X148017085Y-104251354D01*
X147981500Y-104072453D01*
X147981500Y-103890047D01*
X148017085Y-103711146D01*
X148086889Y-103542624D01*
X148188228Y-103390959D01*
X148317209Y-103261978D01*
X148468874Y-103160639D01*
X148637396Y-103090835D01*
X148816297Y-103055250D01*
X148998703Y-103055250D01*
X149177604Y-103090835D01*
G37*
G36*
X159337604Y-103090835D02*
G01*
X159506126Y-103160639D01*
X159657791Y-103261978D01*
X159786772Y-103390959D01*
X159888111Y-103542624D01*
X159957915Y-103711146D01*
X159993500Y-103890047D01*
X159993500Y-104072453D01*
X159957915Y-104251354D01*
X159888111Y-104419876D01*
X159786772Y-104571541D01*
X159657791Y-104700522D01*
X159506126Y-104801861D01*
X159337604Y-104871665D01*
X159158703Y-104907250D01*
X158976297Y-104907250D01*
X158797396Y-104871665D01*
X158628874Y-104801861D01*
X158477209Y-104700522D01*
X158348228Y-104571541D01*
X158246889Y-104419876D01*
X158177085Y-104251354D01*
X158141500Y-104072453D01*
X158141500Y-103890047D01*
X158177085Y-103711146D01*
X158246889Y-103542624D01*
X158348228Y-103390959D01*
X158477209Y-103261978D01*
X158628874Y-103160639D01*
X158797396Y-103090835D01*
X158976297Y-103055250D01*
X159158703Y-103055250D01*
X159337604Y-103090835D01*
G37*
G36*
X73621474Y-92489934D02*
G01*
X73839474Y-92580233D01*
X73993623Y-92644083D01*
X74328548Y-92867873D01*
X74613377Y-93152702D01*
X74837167Y-93487627D01*
X74869562Y-93565836D01*
X74991316Y-93859776D01*
X75069900Y-94254844D01*
X75069900Y-94657656D01*
X74991316Y-95052724D01*
X74940451Y-95175522D01*
X74837167Y-95424873D01*
X74613377Y-95759798D01*
X74328548Y-96044627D01*
X73993623Y-96268417D01*
X73839474Y-96332267D01*
X73621474Y-96422566D01*
X73226406Y-96501150D01*
X72823594Y-96501150D01*
X72428526Y-96422566D01*
X72210526Y-96332267D01*
X72056377Y-96268417D01*
X71721452Y-96044627D01*
X71436623Y-95759798D01*
X71212833Y-95424873D01*
X71109549Y-95175522D01*
X71058684Y-95052724D01*
X70980100Y-94657656D01*
X70980100Y-94254844D01*
X71058684Y-93859776D01*
X71180438Y-93565836D01*
X71212833Y-93487627D01*
X71436623Y-93152702D01*
X71721452Y-92867873D01*
X72056377Y-92644083D01*
X72210526Y-92580233D01*
X72428526Y-92489934D01*
X72823594Y-92411350D01*
X73226406Y-92411350D01*
X73621474Y-92489934D01*
G37*
G36*
X54571474Y-92489934D02*
G01*
X54789474Y-92580233D01*
X54943623Y-92644083D01*
X55278548Y-92867873D01*
X55563377Y-93152702D01*
X55787167Y-93487627D01*
X55819562Y-93565836D01*
X55941316Y-93859776D01*
X56019900Y-94254844D01*
X56019900Y-94657656D01*
X55941316Y-95052724D01*
X55890451Y-95175522D01*
X55787167Y-95424873D01*
X55563377Y-95759798D01*
X55278548Y-96044627D01*
X54943623Y-96268417D01*
X54789474Y-96332267D01*
X54571474Y-96422566D01*
X54176406Y-96501150D01*
X53773594Y-96501150D01*
X53378526Y-96422566D01*
X53160526Y-96332267D01*
X53006377Y-96268417D01*
X52671452Y-96044627D01*
X52386623Y-95759798D01*
X52162833Y-95424873D01*
X52059549Y-95175522D01*
X52008684Y-95052724D01*
X51930100Y-94657656D01*
X51930100Y-94254844D01*
X52008684Y-93859776D01*
X52130438Y-93565836D01*
X52162833Y-93487627D01*
X52386623Y-93152702D01*
X52671452Y-92867873D01*
X53006377Y-92644083D01*
X53160526Y-92580233D01*
X53378526Y-92489934D01*
X53773594Y-92411350D01*
X54176406Y-92411350D01*
X54571474Y-92489934D01*
G37*
G36*
X135533974Y-92489934D02*
G01*
X135751974Y-92580233D01*
X135906123Y-92644083D01*
X136241048Y-92867873D01*
X136525877Y-93152702D01*
X136749667Y-93487627D01*
X136782062Y-93565836D01*
X136903816Y-93859776D01*
X136982400Y-94254844D01*
X136982400Y-94657656D01*
X136903816Y-95052724D01*
X136852951Y-95175522D01*
X136749667Y-95424873D01*
X136525877Y-95759798D01*
X136241048Y-96044627D01*
X135906123Y-96268417D01*
X135751974Y-96332267D01*
X135533974Y-96422566D01*
X135138906Y-96501150D01*
X134736094Y-96501150D01*
X134341026Y-96422566D01*
X134123026Y-96332267D01*
X133968877Y-96268417D01*
X133633952Y-96044627D01*
X133349123Y-95759798D01*
X133125333Y-95424873D01*
X133022049Y-95175522D01*
X132971184Y-95052724D01*
X132892600Y-94657656D01*
X132892600Y-94254844D01*
X132971184Y-93859776D01*
X133092938Y-93565836D01*
X133125333Y-93487627D01*
X133349123Y-93152702D01*
X133633952Y-92867873D01*
X133968877Y-92644083D01*
X134123026Y-92580233D01*
X134341026Y-92489934D01*
X134736094Y-92411350D01*
X135138906Y-92411350D01*
X135533974Y-92489934D01*
G37*
G36*
X97433974Y-92489934D02*
G01*
X97651974Y-92580233D01*
X97806123Y-92644083D01*
X98141048Y-92867873D01*
X98425877Y-93152702D01*
X98649667Y-93487627D01*
X98682062Y-93565836D01*
X98803816Y-93859776D01*
X98882400Y-94254844D01*
X98882400Y-94657656D01*
X98803816Y-95052724D01*
X98752951Y-95175522D01*
X98649667Y-95424873D01*
X98425877Y-95759798D01*
X98141048Y-96044627D01*
X97806123Y-96268417D01*
X97651974Y-96332267D01*
X97433974Y-96422566D01*
X97038906Y-96501150D01*
X96636094Y-96501150D01*
X96241026Y-96422566D01*
X96023026Y-96332267D01*
X95868877Y-96268417D01*
X95533952Y-96044627D01*
X95249123Y-95759798D01*
X95025333Y-95424873D01*
X94922049Y-95175522D01*
X94871184Y-95052724D01*
X94792600Y-94657656D01*
X94792600Y-94254844D01*
X94871184Y-93859776D01*
X94992938Y-93565836D01*
X95025333Y-93487627D01*
X95249123Y-93152702D01*
X95533952Y-92867873D01*
X95868877Y-92644083D01*
X96023026Y-92580233D01*
X96241026Y-92489934D01*
X96636094Y-92411350D01*
X97038906Y-92411350D01*
X97433974Y-92489934D01*
G37*
G36*
X116483974Y-92489934D02*
G01*
X116701974Y-92580233D01*
X116856123Y-92644083D01*
X117191048Y-92867873D01*
X117475877Y-93152702D01*
X117699667Y-93487627D01*
X117732062Y-93565836D01*
X117853816Y-93859776D01*
X117932400Y-94254844D01*
X117932400Y-94657656D01*
X117853816Y-95052724D01*
X117802951Y-95175522D01*
X117699667Y-95424873D01*
X117475877Y-95759798D01*
X117191048Y-96044627D01*
X116856123Y-96268417D01*
X116701974Y-96332267D01*
X116483974Y-96422566D01*
X116088906Y-96501150D01*
X115686094Y-96501150D01*
X115291026Y-96422566D01*
X115073026Y-96332267D01*
X114918877Y-96268417D01*
X114583952Y-96044627D01*
X114299123Y-95759798D01*
X114075333Y-95424873D01*
X113972049Y-95175522D01*
X113921184Y-95052724D01*
X113842600Y-94657656D01*
X113842600Y-94254844D01*
X113921184Y-93859776D01*
X114042938Y-93565836D01*
X114075333Y-93487627D01*
X114299123Y-93152702D01*
X114583952Y-92867873D01*
X114918877Y-92644083D01*
X115073026Y-92580233D01*
X115291026Y-92489934D01*
X115686094Y-92411350D01*
X116088906Y-92411350D01*
X116483974Y-92489934D01*
G37*
G36*
X59325104Y-93565835D02*
G01*
X59493626Y-93635639D01*
X59645291Y-93736978D01*
X59774272Y-93865959D01*
X59875611Y-94017624D01*
X59945415Y-94186146D01*
X59981000Y-94365047D01*
X59981000Y-94547453D01*
X59945415Y-94726354D01*
X59875611Y-94894876D01*
X59774272Y-95046541D01*
X59645291Y-95175522D01*
X59493626Y-95276861D01*
X59325104Y-95346665D01*
X59146203Y-95382250D01*
X58963797Y-95382250D01*
X58784896Y-95346665D01*
X58616374Y-95276861D01*
X58464709Y-95175522D01*
X58335728Y-95046541D01*
X58234389Y-94894876D01*
X58164585Y-94726354D01*
X58129000Y-94547453D01*
X58129000Y-94365047D01*
X58164585Y-94186146D01*
X58234389Y-94017624D01*
X58335728Y-93865959D01*
X58464709Y-93736978D01*
X58616374Y-93635639D01*
X58784896Y-93565835D01*
X58963797Y-93530250D01*
X59146203Y-93530250D01*
X59325104Y-93565835D01*
G37*
G36*
X49165104Y-93565835D02*
G01*
X49333626Y-93635639D01*
X49485291Y-93736978D01*
X49614272Y-93865959D01*
X49715611Y-94017624D01*
X49785415Y-94186146D01*
X49821000Y-94365047D01*
X49821000Y-94547453D01*
X49785415Y-94726354D01*
X49715611Y-94894876D01*
X49614272Y-95046541D01*
X49485291Y-95175522D01*
X49333626Y-95276861D01*
X49165104Y-95346665D01*
X48986203Y-95382250D01*
X48803797Y-95382250D01*
X48624896Y-95346665D01*
X48456374Y-95276861D01*
X48304709Y-95175522D01*
X48175728Y-95046541D01*
X48074389Y-94894876D01*
X48004585Y-94726354D01*
X47969000Y-94547453D01*
X47969000Y-94365047D01*
X48004585Y-94186146D01*
X48074389Y-94017624D01*
X48175728Y-93865959D01*
X48304709Y-93736978D01*
X48456374Y-93635639D01*
X48624896Y-93565835D01*
X48803797Y-93530250D01*
X48986203Y-93530250D01*
X49165104Y-93565835D01*
G37*
G36*
X78375104Y-93565835D02*
G01*
X78543626Y-93635639D01*
X78695291Y-93736978D01*
X78824272Y-93865959D01*
X78925611Y-94017624D01*
X78995415Y-94186146D01*
X79031000Y-94365047D01*
X79031000Y-94547453D01*
X78995415Y-94726354D01*
X78925611Y-94894876D01*
X78824272Y-95046541D01*
X78695291Y-95175522D01*
X78543626Y-95276861D01*
X78375104Y-95346665D01*
X78196203Y-95382250D01*
X78013797Y-95382250D01*
X77834896Y-95346665D01*
X77666374Y-95276861D01*
X77514709Y-95175522D01*
X77385728Y-95046541D01*
X77284389Y-94894876D01*
X77214585Y-94726354D01*
X77179000Y-94547453D01*
X77179000Y-94365047D01*
X77214585Y-94186146D01*
X77284389Y-94017624D01*
X77385728Y-93865959D01*
X77514709Y-93736978D01*
X77666374Y-93635639D01*
X77834896Y-93565835D01*
X78013797Y-93530250D01*
X78196203Y-93530250D01*
X78375104Y-93565835D01*
G37*
G36*
X68215104Y-93565835D02*
G01*
X68383626Y-93635639D01*
X68535291Y-93736978D01*
X68664272Y-93865959D01*
X68765611Y-94017624D01*
X68835415Y-94186146D01*
X68871000Y-94365047D01*
X68871000Y-94547453D01*
X68835415Y-94726354D01*
X68765611Y-94894876D01*
X68664272Y-95046541D01*
X68535291Y-95175522D01*
X68383626Y-95276861D01*
X68215104Y-95346665D01*
X68036203Y-95382250D01*
X67853797Y-95382250D01*
X67674896Y-95346665D01*
X67506374Y-95276861D01*
X67354709Y-95175522D01*
X67225728Y-95046541D01*
X67124389Y-94894876D01*
X67054585Y-94726354D01*
X67019000Y-94547453D01*
X67019000Y-94365047D01*
X67054585Y-94186146D01*
X67124389Y-94017624D01*
X67225728Y-93865959D01*
X67354709Y-93736978D01*
X67506374Y-93635639D01*
X67674896Y-93565835D01*
X67853797Y-93530250D01*
X68036203Y-93530250D01*
X68215104Y-93565835D01*
G37*
G36*
X92027604Y-93565835D02*
G01*
X92196126Y-93635639D01*
X92347791Y-93736978D01*
X92476772Y-93865959D01*
X92578111Y-94017624D01*
X92647915Y-94186146D01*
X92683500Y-94365047D01*
X92683500Y-94547453D01*
X92647915Y-94726354D01*
X92578111Y-94894876D01*
X92476772Y-95046541D01*
X92347791Y-95175522D01*
X92196126Y-95276861D01*
X92027604Y-95346665D01*
X91848703Y-95382250D01*
X91666297Y-95382250D01*
X91487396Y-95346665D01*
X91318874Y-95276861D01*
X91167209Y-95175522D01*
X91038228Y-95046541D01*
X90936889Y-94894876D01*
X90867085Y-94726354D01*
X90831500Y-94547453D01*
X90831500Y-94365047D01*
X90867085Y-94186146D01*
X90936889Y-94017624D01*
X91038228Y-93865959D01*
X91167209Y-93736978D01*
X91318874Y-93635639D01*
X91487396Y-93565835D01*
X91666297Y-93530250D01*
X91848703Y-93530250D01*
X92027604Y-93565835D01*
G37*
G36*
X121237604Y-93565835D02*
G01*
X121406126Y-93635639D01*
X121557791Y-93736978D01*
X121686772Y-93865959D01*
X121788111Y-94017624D01*
X121857915Y-94186146D01*
X121893500Y-94365047D01*
X121893500Y-94547453D01*
X121857915Y-94726354D01*
X121788111Y-94894876D01*
X121686772Y-95046541D01*
X121557791Y-95175522D01*
X121406126Y-95276861D01*
X121237604Y-95346665D01*
X121058703Y-95382250D01*
X120876297Y-95382250D01*
X120697396Y-95346665D01*
X120528874Y-95276861D01*
X120377209Y-95175522D01*
X120248228Y-95046541D01*
X120146889Y-94894876D01*
X120077085Y-94726354D01*
X120041500Y-94547453D01*
X120041500Y-94365047D01*
X120077085Y-94186146D01*
X120146889Y-94017624D01*
X120248228Y-93865959D01*
X120377209Y-93736978D01*
X120528874Y-93635639D01*
X120697396Y-93565835D01*
X120876297Y-93530250D01*
X121058703Y-93530250D01*
X121237604Y-93565835D01*
G37*
G36*
X111077604Y-93565835D02*
G01*
X111246126Y-93635639D01*
X111397791Y-93736978D01*
X111526772Y-93865959D01*
X111628111Y-94017624D01*
X111697915Y-94186146D01*
X111733500Y-94365047D01*
X111733500Y-94547453D01*
X111697915Y-94726354D01*
X111628111Y-94894876D01*
X111526772Y-95046541D01*
X111397791Y-95175522D01*
X111246126Y-95276861D01*
X111077604Y-95346665D01*
X110898703Y-95382250D01*
X110716297Y-95382250D01*
X110537396Y-95346665D01*
X110368874Y-95276861D01*
X110217209Y-95175522D01*
X110088228Y-95046541D01*
X109986889Y-94894876D01*
X109917085Y-94726354D01*
X109881500Y-94547453D01*
X109881500Y-94365047D01*
X109917085Y-94186146D01*
X109986889Y-94017624D01*
X110088228Y-93865959D01*
X110217209Y-93736978D01*
X110368874Y-93635639D01*
X110537396Y-93565835D01*
X110716297Y-93530250D01*
X110898703Y-93530250D01*
X111077604Y-93565835D01*
G37*
G36*
X130127604Y-93565835D02*
G01*
X130296126Y-93635639D01*
X130447791Y-93736978D01*
X130576772Y-93865959D01*
X130678111Y-94017624D01*
X130747915Y-94186146D01*
X130783500Y-94365047D01*
X130783500Y-94547453D01*
X130747915Y-94726354D01*
X130678111Y-94894876D01*
X130576772Y-95046541D01*
X130447791Y-95175522D01*
X130296126Y-95276861D01*
X130127604Y-95346665D01*
X129948703Y-95382250D01*
X129766297Y-95382250D01*
X129587396Y-95346665D01*
X129418874Y-95276861D01*
X129267209Y-95175522D01*
X129138228Y-95046541D01*
X129036889Y-94894876D01*
X128967085Y-94726354D01*
X128931500Y-94547453D01*
X128931500Y-94365047D01*
X128967085Y-94186146D01*
X129036889Y-94017624D01*
X129138228Y-93865959D01*
X129267209Y-93736978D01*
X129418874Y-93635639D01*
X129587396Y-93565835D01*
X129766297Y-93530250D01*
X129948703Y-93530250D01*
X130127604Y-93565835D01*
G37*
G36*
X140287604Y-93565835D02*
G01*
X140456126Y-93635639D01*
X140607791Y-93736978D01*
X140736772Y-93865959D01*
X140838111Y-94017624D01*
X140907915Y-94186146D01*
X140943500Y-94365047D01*
X140943500Y-94547453D01*
X140907915Y-94726354D01*
X140838111Y-94894876D01*
X140736772Y-95046541D01*
X140607791Y-95175522D01*
X140456126Y-95276861D01*
X140287604Y-95346665D01*
X140108703Y-95382250D01*
X139926297Y-95382250D01*
X139747396Y-95346665D01*
X139578874Y-95276861D01*
X139427209Y-95175522D01*
X139298228Y-95046541D01*
X139196889Y-94894876D01*
X139127085Y-94726354D01*
X139091500Y-94547453D01*
X139091500Y-94365047D01*
X139127085Y-94186146D01*
X139196889Y-94017624D01*
X139298228Y-93865959D01*
X139427209Y-93736978D01*
X139578874Y-93635639D01*
X139747396Y-93565835D01*
X139926297Y-93530250D01*
X140108703Y-93530250D01*
X140287604Y-93565835D01*
G37*
G36*
X102187604Y-93565835D02*
G01*
X102356126Y-93635639D01*
X102507791Y-93736978D01*
X102636772Y-93865959D01*
X102738111Y-94017624D01*
X102807915Y-94186146D01*
X102843500Y-94365047D01*
X102843500Y-94547453D01*
X102807915Y-94726354D01*
X102738111Y-94894876D01*
X102636772Y-95046541D01*
X102507791Y-95175522D01*
X102356126Y-95276861D01*
X102187604Y-95346665D01*
X102008703Y-95382250D01*
X101826297Y-95382250D01*
X101647396Y-95346665D01*
X101478874Y-95276861D01*
X101327209Y-95175522D01*
X101198228Y-95046541D01*
X101096889Y-94894876D01*
X101027085Y-94726354D01*
X100991500Y-94547453D01*
X100991500Y-94365047D01*
X101027085Y-94186146D01*
X101096889Y-94017624D01*
X101198228Y-93865959D01*
X101327209Y-93736978D01*
X101478874Y-93635639D01*
X101647396Y-93565835D01*
X101826297Y-93530250D01*
X102008703Y-93530250D01*
X102187604Y-93565835D01*
G37*
G36*
X146328974Y-90108684D02*
G01*
X146546974Y-90198983D01*
X146701123Y-90262833D01*
X147036048Y-90486623D01*
X147320877Y-90771452D01*
X147544667Y-91106377D01*
X147544667Y-91106378D01*
X147698816Y-91478526D01*
X147777400Y-91873594D01*
X147777400Y-92276406D01*
X147698816Y-92671474D01*
X147636863Y-92821041D01*
X147544667Y-93043623D01*
X147320877Y-93378548D01*
X147036048Y-93663377D01*
X146701123Y-93887167D01*
X146546974Y-93951017D01*
X146328974Y-94041316D01*
X145933906Y-94119900D01*
X145531094Y-94119900D01*
X145136026Y-94041316D01*
X144918026Y-93951017D01*
X144763877Y-93887167D01*
X144428952Y-93663377D01*
X144144123Y-93378548D01*
X143920333Y-93043623D01*
X143828137Y-92821041D01*
X143766184Y-92671474D01*
X143687600Y-92276406D01*
X143687600Y-91873594D01*
X143766184Y-91478526D01*
X143920333Y-91106378D01*
X143920333Y-91106377D01*
X144144123Y-90771452D01*
X144428952Y-90486623D01*
X144763877Y-90262833D01*
X144918026Y-90198983D01*
X145136026Y-90108684D01*
X145531094Y-90030100D01*
X145933906Y-90030100D01*
X146328974Y-90108684D01*
G37*
G36*
X161279767Y-90530263D02*
G01*
X161431911Y-90560526D01*
X161550637Y-90609704D01*
X161718541Y-90679252D01*
X161718542Y-90679253D01*
X161976504Y-90851617D01*
X162195883Y-91070996D01*
X162219524Y-91106378D01*
X162368248Y-91328959D01*
X162486974Y-91615590D01*
X162547500Y-91919875D01*
X162547500Y-92230125D01*
X162486974Y-92534410D01*
X162368248Y-92821041D01*
X162368247Y-92821042D01*
X162195883Y-93079004D01*
X161976504Y-93298383D01*
X161856528Y-93378548D01*
X161718541Y-93470748D01*
X161574890Y-93530250D01*
X161431911Y-93589474D01*
X161279767Y-93619737D01*
X161127625Y-93650000D01*
X160817375Y-93650000D01*
X160513089Y-93589474D01*
X160370110Y-93530250D01*
X160226459Y-93470748D01*
X160088472Y-93378548D01*
X159968496Y-93298383D01*
X159749117Y-93079004D01*
X159576753Y-92821042D01*
X159576752Y-92821041D01*
X159458026Y-92534410D01*
X159397500Y-92230125D01*
X159397500Y-91919875D01*
X159458026Y-91615590D01*
X159576752Y-91328959D01*
X159725476Y-91106378D01*
X159749117Y-91070996D01*
X159968496Y-90851617D01*
X160226458Y-90679253D01*
X160226459Y-90679252D01*
X160394363Y-90609704D01*
X160513089Y-90560526D01*
X160665233Y-90530263D01*
X160817375Y-90500000D01*
X161127625Y-90500000D01*
X161279767Y-90530263D01*
G37*
G36*
X116483974Y-73439934D02*
G01*
X116701974Y-73530233D01*
X116856123Y-73594083D01*
X117191048Y-73817873D01*
X117475877Y-74102702D01*
X117699667Y-74437627D01*
X117732062Y-74515836D01*
X117853816Y-74809776D01*
X117932400Y-75204844D01*
X117932400Y-75607656D01*
X117853816Y-76002724D01*
X117802951Y-76125522D01*
X117699667Y-76374873D01*
X117475877Y-76709798D01*
X117191048Y-76994627D01*
X116856123Y-77218417D01*
X116701974Y-77282267D01*
X116483974Y-77372566D01*
X116088906Y-77451150D01*
X115686094Y-77451150D01*
X115291026Y-77372566D01*
X115073026Y-77282267D01*
X114918877Y-77218417D01*
X114583952Y-76994627D01*
X114299123Y-76709798D01*
X114075333Y-76374873D01*
X113972049Y-76125522D01*
X113921184Y-76002724D01*
X113842600Y-75607656D01*
X113842600Y-75204844D01*
X113921184Y-74809776D01*
X114042938Y-74515836D01*
X114075333Y-74437627D01*
X114299123Y-74102702D01*
X114583952Y-73817873D01*
X114918877Y-73594083D01*
X115073026Y-73530233D01*
X115291026Y-73439934D01*
X115686094Y-73361350D01*
X116088906Y-73361350D01*
X116483974Y-73439934D01*
G37*
G36*
X97433974Y-73439934D02*
G01*
X97651974Y-73530233D01*
X97806123Y-73594083D01*
X98141048Y-73817873D01*
X98425877Y-74102702D01*
X98649667Y-74437627D01*
X98682062Y-74515836D01*
X98803816Y-74809776D01*
X98882400Y-75204844D01*
X98882400Y-75607656D01*
X98803816Y-76002724D01*
X98752951Y-76125522D01*
X98649667Y-76374873D01*
X98425877Y-76709798D01*
X98141048Y-76994627D01*
X97806123Y-77218417D01*
X97651974Y-77282267D01*
X97433974Y-77372566D01*
X97038906Y-77451150D01*
X96636094Y-77451150D01*
X96241026Y-77372566D01*
X96023026Y-77282267D01*
X95868877Y-77218417D01*
X95533952Y-76994627D01*
X95249123Y-76709798D01*
X95025333Y-76374873D01*
X94922049Y-76125522D01*
X94871184Y-76002724D01*
X94792600Y-75607656D01*
X94792600Y-75204844D01*
X94871184Y-74809776D01*
X94992938Y-74515836D01*
X95025333Y-74437627D01*
X95249123Y-74102702D01*
X95533952Y-73817873D01*
X95868877Y-73594083D01*
X96023026Y-73530233D01*
X96241026Y-73439934D01*
X96636094Y-73361350D01*
X97038906Y-73361350D01*
X97433974Y-73439934D01*
G37*
G36*
X73621474Y-73439934D02*
G01*
X73839474Y-73530233D01*
X73993623Y-73594083D01*
X74328548Y-73817873D01*
X74613377Y-74102702D01*
X74837167Y-74437627D01*
X74869562Y-74515836D01*
X74991316Y-74809776D01*
X75069900Y-75204844D01*
X75069900Y-75607656D01*
X74991316Y-76002724D01*
X74940451Y-76125522D01*
X74837167Y-76374873D01*
X74613377Y-76709798D01*
X74328548Y-76994627D01*
X73993623Y-77218417D01*
X73839474Y-77282267D01*
X73621474Y-77372566D01*
X73226406Y-77451150D01*
X72823594Y-77451150D01*
X72428526Y-77372566D01*
X72210526Y-77282267D01*
X72056377Y-77218417D01*
X71721452Y-76994627D01*
X71436623Y-76709798D01*
X71212833Y-76374873D01*
X71109549Y-76125522D01*
X71058684Y-76002724D01*
X70980100Y-75607656D01*
X70980100Y-75204844D01*
X71058684Y-74809776D01*
X71180438Y-74515836D01*
X71212833Y-74437627D01*
X71436623Y-74102702D01*
X71721452Y-73817873D01*
X72056377Y-73594083D01*
X72210526Y-73530233D01*
X72428526Y-73439934D01*
X72823594Y-73361350D01*
X73226406Y-73361350D01*
X73621474Y-73439934D01*
G37*
G36*
X54571474Y-73439934D02*
G01*
X54789474Y-73530233D01*
X54943623Y-73594083D01*
X55278548Y-73817873D01*
X55563377Y-74102702D01*
X55787167Y-74437627D01*
X55819562Y-74515836D01*
X55941316Y-74809776D01*
X56019900Y-75204844D01*
X56019900Y-75607656D01*
X55941316Y-76002724D01*
X55890451Y-76125522D01*
X55787167Y-76374873D01*
X55563377Y-76709798D01*
X55278548Y-76994627D01*
X54943623Y-77218417D01*
X54789474Y-77282267D01*
X54571474Y-77372566D01*
X54176406Y-77451150D01*
X53773594Y-77451150D01*
X53378526Y-77372566D01*
X53160526Y-77282267D01*
X53006377Y-77218417D01*
X52671452Y-76994627D01*
X52386623Y-76709798D01*
X52162833Y-76374873D01*
X52059549Y-76125522D01*
X52008684Y-76002724D01*
X51930100Y-75607656D01*
X51930100Y-75204844D01*
X52008684Y-74809776D01*
X52130438Y-74515836D01*
X52162833Y-74437627D01*
X52386623Y-74102702D01*
X52671452Y-73817873D01*
X53006377Y-73594083D01*
X53160526Y-73530233D01*
X53378526Y-73439934D01*
X53773594Y-73361350D01*
X54176406Y-73361350D01*
X54571474Y-73439934D01*
G37*
G36*
X154583974Y-73439934D02*
G01*
X154801974Y-73530233D01*
X154956123Y-73594083D01*
X155291048Y-73817873D01*
X155575877Y-74102702D01*
X155799667Y-74437627D01*
X155832062Y-74515836D01*
X155953816Y-74809776D01*
X156032400Y-75204844D01*
X156032400Y-75607656D01*
X155953816Y-76002724D01*
X155902951Y-76125522D01*
X155799667Y-76374873D01*
X155575877Y-76709798D01*
X155291048Y-76994627D01*
X154956123Y-77218417D01*
X154801974Y-77282267D01*
X154583974Y-77372566D01*
X154188906Y-77451150D01*
X153786094Y-77451150D01*
X153391026Y-77372566D01*
X153173026Y-77282267D01*
X153018877Y-77218417D01*
X152683952Y-76994627D01*
X152399123Y-76709798D01*
X152175333Y-76374873D01*
X152072049Y-76125522D01*
X152021184Y-76002724D01*
X151942600Y-75607656D01*
X151942600Y-75204844D01*
X152021184Y-74809776D01*
X152142938Y-74515836D01*
X152175333Y-74437627D01*
X152399123Y-74102702D01*
X152683952Y-73817873D01*
X153018877Y-73594083D01*
X153173026Y-73530233D01*
X153391026Y-73439934D01*
X153786094Y-73361350D01*
X154188906Y-73361350D01*
X154583974Y-73439934D01*
G37*
G36*
X135533974Y-73439934D02*
G01*
X135751974Y-73530233D01*
X135906123Y-73594083D01*
X136241048Y-73817873D01*
X136525877Y-74102702D01*
X136749667Y-74437627D01*
X136782062Y-74515836D01*
X136903816Y-74809776D01*
X136982400Y-75204844D01*
X136982400Y-75607656D01*
X136903816Y-76002724D01*
X136852951Y-76125522D01*
X136749667Y-76374873D01*
X136525877Y-76709798D01*
X136241048Y-76994627D01*
X135906123Y-77218417D01*
X135751974Y-77282267D01*
X135533974Y-77372566D01*
X135138906Y-77451150D01*
X134736094Y-77451150D01*
X134341026Y-77372566D01*
X134123026Y-77282267D01*
X133968877Y-77218417D01*
X133633952Y-76994627D01*
X133349123Y-76709798D01*
X133125333Y-76374873D01*
X133022049Y-76125522D01*
X132971184Y-76002724D01*
X132892600Y-75607656D01*
X132892600Y-75204844D01*
X132971184Y-74809776D01*
X133092938Y-74515836D01*
X133125333Y-74437627D01*
X133349123Y-74102702D01*
X133633952Y-73817873D01*
X133968877Y-73594083D01*
X134123026Y-73530233D01*
X134341026Y-73439934D01*
X134736094Y-73361350D01*
X135138906Y-73361350D01*
X135533974Y-73439934D01*
G37*
G36*
X121237604Y-74515835D02*
G01*
X121406126Y-74585639D01*
X121557791Y-74686978D01*
X121686772Y-74815959D01*
X121788111Y-74967624D01*
X121857915Y-75136146D01*
X121893500Y-75315047D01*
X121893500Y-75497453D01*
X121857915Y-75676354D01*
X121788111Y-75844876D01*
X121686772Y-75996541D01*
X121557791Y-76125522D01*
X121406126Y-76226861D01*
X121237604Y-76296665D01*
X121058703Y-76332250D01*
X120876297Y-76332250D01*
X120697396Y-76296665D01*
X120528874Y-76226861D01*
X120377209Y-76125522D01*
X120248228Y-75996541D01*
X120146889Y-75844876D01*
X120077085Y-75676354D01*
X120041500Y-75497453D01*
X120041500Y-75315047D01*
X120077085Y-75136146D01*
X120146889Y-74967624D01*
X120248228Y-74815959D01*
X120377209Y-74686978D01*
X120528874Y-74585639D01*
X120697396Y-74515835D01*
X120876297Y-74480250D01*
X121058703Y-74480250D01*
X121237604Y-74515835D01*
G37*
G36*
X78375104Y-74515835D02*
G01*
X78543626Y-74585639D01*
X78695291Y-74686978D01*
X78824272Y-74815959D01*
X78925611Y-74967624D01*
X78995415Y-75136146D01*
X79031000Y-75315047D01*
X79031000Y-75497453D01*
X78995415Y-75676354D01*
X78925611Y-75844876D01*
X78824272Y-75996541D01*
X78695291Y-76125522D01*
X78543626Y-76226861D01*
X78375104Y-76296665D01*
X78196203Y-76332250D01*
X78013797Y-76332250D01*
X77834896Y-76296665D01*
X77666374Y-76226861D01*
X77514709Y-76125522D01*
X77385728Y-75996541D01*
X77284389Y-75844876D01*
X77214585Y-75676354D01*
X77179000Y-75497453D01*
X77179000Y-75315047D01*
X77214585Y-75136146D01*
X77284389Y-74967624D01*
X77385728Y-74815959D01*
X77514709Y-74686978D01*
X77666374Y-74585639D01*
X77834896Y-74515835D01*
X78013797Y-74480250D01*
X78196203Y-74480250D01*
X78375104Y-74515835D01*
G37*
G36*
X49165104Y-74515835D02*
G01*
X49333626Y-74585639D01*
X49485291Y-74686978D01*
X49614272Y-74815959D01*
X49715611Y-74967624D01*
X49785415Y-75136146D01*
X49821000Y-75315047D01*
X49821000Y-75497453D01*
X49785415Y-75676354D01*
X49715611Y-75844876D01*
X49614272Y-75996541D01*
X49485291Y-76125522D01*
X49333626Y-76226861D01*
X49165104Y-76296665D01*
X48986203Y-76332250D01*
X48803797Y-76332250D01*
X48624896Y-76296665D01*
X48456374Y-76226861D01*
X48304709Y-76125522D01*
X48175728Y-75996541D01*
X48074389Y-75844876D01*
X48004585Y-75676354D01*
X47969000Y-75497453D01*
X47969000Y-75315047D01*
X48004585Y-75136146D01*
X48074389Y-74967624D01*
X48175728Y-74815959D01*
X48304709Y-74686978D01*
X48456374Y-74585639D01*
X48624896Y-74515835D01*
X48803797Y-74480250D01*
X48986203Y-74480250D01*
X49165104Y-74515835D01*
G37*
G36*
X59325104Y-74515835D02*
G01*
X59493626Y-74585639D01*
X59645291Y-74686978D01*
X59774272Y-74815959D01*
X59875611Y-74967624D01*
X59945415Y-75136146D01*
X59981000Y-75315047D01*
X59981000Y-75497453D01*
X59945415Y-75676354D01*
X59875611Y-75844876D01*
X59774272Y-75996541D01*
X59645291Y-76125522D01*
X59493626Y-76226861D01*
X59325104Y-76296665D01*
X59146203Y-76332250D01*
X58963797Y-76332250D01*
X58784896Y-76296665D01*
X58616374Y-76226861D01*
X58464709Y-76125522D01*
X58335728Y-75996541D01*
X58234389Y-75844876D01*
X58164585Y-75676354D01*
X58129000Y-75497453D01*
X58129000Y-75315047D01*
X58164585Y-75136146D01*
X58234389Y-74967624D01*
X58335728Y-74815959D01*
X58464709Y-74686978D01*
X58616374Y-74585639D01*
X58784896Y-74515835D01*
X58963797Y-74480250D01*
X59146203Y-74480250D01*
X59325104Y-74515835D01*
G37*
G36*
X102187604Y-74515835D02*
G01*
X102356126Y-74585639D01*
X102507791Y-74686978D01*
X102636772Y-74815959D01*
X102738111Y-74967624D01*
X102807915Y-75136146D01*
X102843500Y-75315047D01*
X102843500Y-75497453D01*
X102807915Y-75676354D01*
X102738111Y-75844876D01*
X102636772Y-75996541D01*
X102507791Y-76125522D01*
X102356126Y-76226861D01*
X102187604Y-76296665D01*
X102008703Y-76332250D01*
X101826297Y-76332250D01*
X101647396Y-76296665D01*
X101478874Y-76226861D01*
X101327209Y-76125522D01*
X101198228Y-75996541D01*
X101096889Y-75844876D01*
X101027085Y-75676354D01*
X100991500Y-75497453D01*
X100991500Y-75315047D01*
X101027085Y-75136146D01*
X101096889Y-74967624D01*
X101198228Y-74815959D01*
X101327209Y-74686978D01*
X101478874Y-74585639D01*
X101647396Y-74515835D01*
X101826297Y-74480250D01*
X102008703Y-74480250D01*
X102187604Y-74515835D01*
G37*
G36*
X92027604Y-74515835D02*
G01*
X92196126Y-74585639D01*
X92347791Y-74686978D01*
X92476772Y-74815959D01*
X92578111Y-74967624D01*
X92647915Y-75136146D01*
X92683500Y-75315047D01*
X92683500Y-75497453D01*
X92647915Y-75676354D01*
X92578111Y-75844876D01*
X92476772Y-75996541D01*
X92347791Y-76125522D01*
X92196126Y-76226861D01*
X92027604Y-76296665D01*
X91848703Y-76332250D01*
X91666297Y-76332250D01*
X91487396Y-76296665D01*
X91318874Y-76226861D01*
X91167209Y-76125522D01*
X91038228Y-75996541D01*
X90936889Y-75844876D01*
X90867085Y-75676354D01*
X90831500Y-75497453D01*
X90831500Y-75315047D01*
X90867085Y-75136146D01*
X90936889Y-74967624D01*
X91038228Y-74815959D01*
X91167209Y-74686978D01*
X91318874Y-74585639D01*
X91487396Y-74515835D01*
X91666297Y-74480250D01*
X91848703Y-74480250D01*
X92027604Y-74515835D01*
G37*
G36*
X111077604Y-74515835D02*
G01*
X111246126Y-74585639D01*
X111397791Y-74686978D01*
X111526772Y-74815959D01*
X111628111Y-74967624D01*
X111697915Y-75136146D01*
X111733500Y-75315047D01*
X111733500Y-75497453D01*
X111697915Y-75676354D01*
X111628111Y-75844876D01*
X111526772Y-75996541D01*
X111397791Y-76125522D01*
X111246126Y-76226861D01*
X111077604Y-76296665D01*
X110898703Y-76332250D01*
X110716297Y-76332250D01*
X110537396Y-76296665D01*
X110368874Y-76226861D01*
X110217209Y-76125522D01*
X110088228Y-75996541D01*
X109986889Y-75844876D01*
X109917085Y-75676354D01*
X109881500Y-75497453D01*
X109881500Y-75315047D01*
X109917085Y-75136146D01*
X109986889Y-74967624D01*
X110088228Y-74815959D01*
X110217209Y-74686978D01*
X110368874Y-74585639D01*
X110537396Y-74515835D01*
X110716297Y-74480250D01*
X110898703Y-74480250D01*
X111077604Y-74515835D01*
G37*
G36*
X149177604Y-74515835D02*
G01*
X149346126Y-74585639D01*
X149497791Y-74686978D01*
X149626772Y-74815959D01*
X149728111Y-74967624D01*
X149797915Y-75136146D01*
X149833500Y-75315047D01*
X149833500Y-75497453D01*
X149797915Y-75676354D01*
X149728111Y-75844876D01*
X149626772Y-75996541D01*
X149497791Y-76125522D01*
X149346126Y-76226861D01*
X149177604Y-76296665D01*
X148998703Y-76332250D01*
X148816297Y-76332250D01*
X148637396Y-76296665D01*
X148468874Y-76226861D01*
X148317209Y-76125522D01*
X148188228Y-75996541D01*
X148086889Y-75844876D01*
X148017085Y-75676354D01*
X147981500Y-75497453D01*
X147981500Y-75315047D01*
X148017085Y-75136146D01*
X148086889Y-74967624D01*
X148188228Y-74815959D01*
X148317209Y-74686978D01*
X148468874Y-74585639D01*
X148637396Y-74515835D01*
X148816297Y-74480250D01*
X148998703Y-74480250D01*
X149177604Y-74515835D01*
G37*
G36*
X159337604Y-74515835D02*
G01*
X159506126Y-74585639D01*
X159657791Y-74686978D01*
X159786772Y-74815959D01*
X159888111Y-74967624D01*
X159957915Y-75136146D01*
X159993500Y-75315047D01*
X159993500Y-75497453D01*
X159957915Y-75676354D01*
X159888111Y-75844876D01*
X159786772Y-75996541D01*
X159657791Y-76125522D01*
X159506126Y-76226861D01*
X159337604Y-76296665D01*
X159158703Y-76332250D01*
X158976297Y-76332250D01*
X158797396Y-76296665D01*
X158628874Y-76226861D01*
X158477209Y-76125522D01*
X158348228Y-75996541D01*
X158246889Y-75844876D01*
X158177085Y-75676354D01*
X158141500Y-75497453D01*
X158141500Y-75315047D01*
X158177085Y-75136146D01*
X158246889Y-74967624D01*
X158348228Y-74815959D01*
X158477209Y-74686978D01*
X158628874Y-74585639D01*
X158797396Y-74515835D01*
X158976297Y-74480250D01*
X159158703Y-74480250D01*
X159337604Y-74515835D01*
G37*
G36*
X68215104Y-74515835D02*
G01*
X68383626Y-74585639D01*
X68535291Y-74686978D01*
X68664272Y-74815959D01*
X68765611Y-74967624D01*
X68835415Y-75136146D01*
X68871000Y-75315047D01*
X68871000Y-75497453D01*
X68835415Y-75676354D01*
X68765611Y-75844876D01*
X68664272Y-75996541D01*
X68535291Y-76125522D01*
X68383626Y-76226861D01*
X68215104Y-76296665D01*
X68036203Y-76332250D01*
X67853797Y-76332250D01*
X67674896Y-76296665D01*
X67506374Y-76226861D01*
X67354709Y-76125522D01*
X67225728Y-75996541D01*
X67124389Y-75844876D01*
X67054585Y-75676354D01*
X67019000Y-75497453D01*
X67019000Y-75315047D01*
X67054585Y-75136146D01*
X67124389Y-74967624D01*
X67225728Y-74815959D01*
X67354709Y-74686978D01*
X67506374Y-74585639D01*
X67674896Y-74515835D01*
X67853797Y-74480250D01*
X68036203Y-74480250D01*
X68215104Y-74515835D01*
G37*
G36*
X130127604Y-74515835D02*
G01*
X130296126Y-74585639D01*
X130447791Y-74686978D01*
X130576772Y-74815959D01*
X130678111Y-74967624D01*
X130747915Y-75136146D01*
X130783500Y-75315047D01*
X130783500Y-75497453D01*
X130747915Y-75676354D01*
X130678111Y-75844876D01*
X130576772Y-75996541D01*
X130447791Y-76125522D01*
X130296126Y-76226861D01*
X130127604Y-76296665D01*
X129948703Y-76332250D01*
X129766297Y-76332250D01*
X129587396Y-76296665D01*
X129418874Y-76226861D01*
X129267209Y-76125522D01*
X129138228Y-75996541D01*
X129036889Y-75844876D01*
X128967085Y-75676354D01*
X128931500Y-75497453D01*
X128931500Y-75315047D01*
X128967085Y-75136146D01*
X129036889Y-74967624D01*
X129138228Y-74815959D01*
X129267209Y-74686978D01*
X129418874Y-74585639D01*
X129587396Y-74515835D01*
X129766297Y-74480250D01*
X129948703Y-74480250D01*
X130127604Y-74515835D01*
G37*
G36*
X140287604Y-74515835D02*
G01*
X140456126Y-74585639D01*
X140607791Y-74686978D01*
X140736772Y-74815959D01*
X140838111Y-74967624D01*
X140907915Y-75136146D01*
X140943500Y-75315047D01*
X140943500Y-75497453D01*
X140907915Y-75676354D01*
X140838111Y-75844876D01*
X140736772Y-75996541D01*
X140607791Y-76125522D01*
X140456126Y-76226861D01*
X140287604Y-76296665D01*
X140108703Y-76332250D01*
X139926297Y-76332250D01*
X139747396Y-76296665D01*
X139578874Y-76226861D01*
X139427209Y-76125522D01*
X139298228Y-75996541D01*
X139196889Y-75844876D01*
X139127085Y-75676354D01*
X139091500Y-75497453D01*
X139091500Y-75315047D01*
X139127085Y-75136146D01*
X139196889Y-74967624D01*
X139298228Y-74815959D01*
X139427209Y-74686978D01*
X139578874Y-74585639D01*
X139747396Y-74515835D01*
X139926297Y-74480250D01*
X140108703Y-74480250D01*
X140287604Y-74515835D01*
G37*
G36*
X99768014Y-52379473D02*
G01*
X99871878Y-52410979D01*
X99897847Y-52424860D01*
X99967599Y-52462143D01*
X99967601Y-52462144D01*
X99967600Y-52462144D01*
X100051501Y-52530999D01*
X100120356Y-52614900D01*
X100171521Y-52710621D01*
X100203027Y-52814485D01*
X100211000Y-52895433D01*
X100211000Y-53949567D01*
X100203027Y-54030515D01*
X100171521Y-54134379D01*
X100171519Y-54134382D01*
X100120357Y-54230100D01*
X100051501Y-54314001D01*
X99967600Y-54382857D01*
X99899055Y-54419495D01*
X99871879Y-54434021D01*
X99768015Y-54465527D01*
X99660000Y-54476166D01*
X99551986Y-54465527D01*
X99448122Y-54434021D01*
X99420946Y-54419495D01*
X99352401Y-54382857D01*
X99268500Y-54314001D01*
X99199644Y-54230100D01*
X99148482Y-54134382D01*
X99148480Y-54134379D01*
X99116974Y-54030515D01*
X99109001Y-53949567D01*
X99109000Y-52895434D01*
X99116973Y-52814486D01*
X99148479Y-52710622D01*
X99199644Y-52614900D01*
X99268499Y-52530999D01*
X99352400Y-52462144D01*
X99352399Y-52462144D01*
X99352401Y-52462143D01*
X99422152Y-52424860D01*
X99448121Y-52410979D01*
X99551985Y-52379473D01*
X99660000Y-52368834D01*
X99768014Y-52379473D01*
G37*
G36*
X108408014Y-52379473D02*
G01*
X108511878Y-52410979D01*
X108537847Y-52424860D01*
X108607599Y-52462143D01*
X108607601Y-52462144D01*
X108607600Y-52462144D01*
X108691501Y-52530999D01*
X108760356Y-52614900D01*
X108811521Y-52710621D01*
X108843027Y-52814485D01*
X108851000Y-52895433D01*
X108851000Y-53949567D01*
X108843027Y-54030515D01*
X108811521Y-54134379D01*
X108811519Y-54134382D01*
X108760357Y-54230100D01*
X108691501Y-54314001D01*
X108607600Y-54382857D01*
X108539055Y-54419495D01*
X108511879Y-54434021D01*
X108408015Y-54465527D01*
X108300000Y-54476166D01*
X108191986Y-54465527D01*
X108088122Y-54434021D01*
X108060946Y-54419495D01*
X107992401Y-54382857D01*
X107908500Y-54314001D01*
X107839644Y-54230100D01*
X107788482Y-54134382D01*
X107788480Y-54134379D01*
X107756974Y-54030515D01*
X107749001Y-53949567D01*
X107749000Y-52895434D01*
X107756973Y-52814486D01*
X107788479Y-52710622D01*
X107839644Y-52614900D01*
X107908499Y-52530999D01*
X107992400Y-52462144D01*
X107992399Y-52462144D01*
X107992401Y-52462143D01*
X108062152Y-52424860D01*
X108088121Y-52410979D01*
X108191985Y-52379473D01*
X108300000Y-52368834D01*
X108408014Y-52379473D01*
G37*
G36*
X107173809Y-52351578D02*
G01*
X107239969Y-52371649D01*
X107239972Y-52371650D01*
X107300949Y-52404242D01*
X107309160Y-52410981D01*
X107354396Y-52448104D01*
X107382707Y-52482603D01*
X107398258Y-52501551D01*
X107430850Y-52562528D01*
X107430851Y-52562531D01*
X107450922Y-52628692D01*
X107457698Y-52697500D01*
X107450922Y-52766308D01*
X107430851Y-52832469D01*
X107430850Y-52832472D01*
X107398258Y-52893449D01*
X107382707Y-52912397D01*
X107354396Y-52946896D01*
X107326073Y-52970139D01*
X107300949Y-52990758D01*
X107239972Y-53023350D01*
X107239969Y-53023351D01*
X107173809Y-53043422D01*
X107122244Y-53048500D01*
X106837756Y-53048500D01*
X106786191Y-53043422D01*
X106720031Y-53023351D01*
X106720028Y-53023350D01*
X106659051Y-52990758D01*
X106633927Y-52970139D01*
X106605604Y-52946896D01*
X106577293Y-52912397D01*
X106561742Y-52893449D01*
X106529150Y-52832472D01*
X106529149Y-52832469D01*
X106509078Y-52766308D01*
X106502302Y-52697500D01*
X106509078Y-52628692D01*
X106529149Y-52562531D01*
X106529150Y-52562528D01*
X106561742Y-52501551D01*
X106577293Y-52482603D01*
X106605604Y-52448104D01*
X106650840Y-52410981D01*
X106659051Y-52404242D01*
X106720028Y-52371650D01*
X106720031Y-52371649D01*
X106786191Y-52351578D01*
X106837756Y-52346500D01*
X107122244Y-52346500D01*
X107173809Y-52351578D01*
G37*
G36*
X101082383Y-52359989D02*
G01*
X101082386Y-52359990D01*
X101082385Y-52359990D01*
X101146258Y-52386446D01*
X101203748Y-52424860D01*
X101252640Y-52473752D01*
X101291054Y-52531242D01*
X101304014Y-52562531D01*
X101317511Y-52595117D01*
X101331000Y-52662930D01*
X101331000Y-52732070D01*
X101317511Y-52799883D01*
X101317510Y-52799885D01*
X101291054Y-52863758D01*
X101252640Y-52921248D01*
X101203748Y-52970140D01*
X101146258Y-53008554D01*
X101110533Y-53023351D01*
X101082383Y-53035011D01*
X101014570Y-53048500D01*
X100945430Y-53048500D01*
X100877617Y-53035011D01*
X100849467Y-53023351D01*
X100813742Y-53008554D01*
X100756252Y-52970140D01*
X100707360Y-52921248D01*
X100668946Y-52863758D01*
X100642490Y-52799885D01*
X100642489Y-52799883D01*
X100629000Y-52732070D01*
X100629000Y-52662930D01*
X100642489Y-52595117D01*
X100655986Y-52562531D01*
X100668946Y-52531242D01*
X100707360Y-52473752D01*
X100756252Y-52424860D01*
X100813742Y-52386446D01*
X100877615Y-52359990D01*
X100877614Y-52359990D01*
X100877617Y-52359989D01*
X100945430Y-52346500D01*
X101014570Y-52346500D01*
X101082383Y-52359989D01*
G37*
G36*
X108408014Y-48404473D02*
G01*
X108511878Y-48435979D01*
X108555907Y-48459513D01*
X108607599Y-48487143D01*
X108607601Y-48487144D01*
X108607600Y-48487144D01*
X108691501Y-48555999D01*
X108760356Y-48639900D01*
X108811521Y-48735621D01*
X108843027Y-48839485D01*
X108851000Y-48920433D01*
X108851000Y-50274567D01*
X108843027Y-50355515D01*
X108811521Y-50459379D01*
X108811519Y-50459382D01*
X108760357Y-50555100D01*
X108691501Y-50639001D01*
X108607600Y-50707857D01*
X108539055Y-50744495D01*
X108511879Y-50759021D01*
X108408015Y-50790527D01*
X108300000Y-50801166D01*
X108191986Y-50790527D01*
X108088122Y-50759021D01*
X108060946Y-50744495D01*
X107992401Y-50707857D01*
X107908500Y-50639001D01*
X107839644Y-50555100D01*
X107788482Y-50459382D01*
X107788480Y-50459379D01*
X107756974Y-50355515D01*
X107749001Y-50274567D01*
X107749000Y-48920434D01*
X107756973Y-48839486D01*
X107788479Y-48735622D01*
X107839644Y-48639900D01*
X107908499Y-48555999D01*
X107992400Y-48487144D01*
X107992399Y-48487144D01*
X107992401Y-48487143D01*
X108044093Y-48459513D01*
X108088121Y-48435979D01*
X108191985Y-48404473D01*
X108300000Y-48393834D01*
X108408014Y-48404473D01*
G37*
G36*
X99768014Y-48404473D02*
G01*
X99871878Y-48435979D01*
X99915907Y-48459513D01*
X99967599Y-48487143D01*
X99967601Y-48487144D01*
X99967600Y-48487144D01*
X100051501Y-48555999D01*
X100120356Y-48639900D01*
X100171521Y-48735621D01*
X100203027Y-48839485D01*
X100211000Y-48920433D01*
X100211000Y-50274567D01*
X100203027Y-50355515D01*
X100171521Y-50459379D01*
X100171519Y-50459382D01*
X100120357Y-50555100D01*
X100051501Y-50639001D01*
X99967600Y-50707857D01*
X99899055Y-50744495D01*
X99871879Y-50759021D01*
X99768015Y-50790527D01*
X99660000Y-50801166D01*
X99551986Y-50790527D01*
X99448122Y-50759021D01*
X99420946Y-50744495D01*
X99352401Y-50707857D01*
X99268500Y-50639001D01*
X99199644Y-50555100D01*
X99148482Y-50459382D01*
X99148480Y-50459379D01*
X99116974Y-50355515D01*
X99109001Y-50274567D01*
X99109000Y-48920434D01*
X99116973Y-48839486D01*
X99148479Y-48735622D01*
X99199644Y-48639900D01*
X99268499Y-48555999D01*
X99352400Y-48487144D01*
X99352399Y-48487144D01*
X99352401Y-48487143D01*
X99404093Y-48459513D01*
X99448121Y-48435979D01*
X99551985Y-48404473D01*
X99660000Y-48393834D01*
X99768014Y-48404473D01*
G37*
M02*
